<svg id="Réteg_1" data-name="Réteg 1" xmlns="http://www.w3.org/2000/svg" viewBox="0 0 770 263"><defs><style>.cls-1{fill:#313333;}</style></defs><title>varianRajztábla 11</title><path class="cls-1" d="M263.26,39.92V22.32h26.43v127.5h-26.4V132.24c-2.64,2.46-5,4.85-7.5,6.95-13.72,11.37-29.4,15.67-47,13.15a60.06,60.06,0,0,1-34.44-17.27,64.87,64.87,0,0,1-16.41-27.33,69.57,69.57,0,0,1-3.24-20.5c-.09-17.66,5-33.6,16.82-47,9.94-11.27,22.35-18.29,37.24-20.34,20.69-2.85,38.39,3.3,52.79,18.58.35.38.71.74,1.08,1.09A4.45,4.45,0,0,0,263.26,39.92ZM181.6,86.46a41,41,0,0,0,3.26,16.69c8.55,21,32,31.22,52.88,22.79,16.29-6.59,25.81-21.75,26.2-39.42a43,43,0,0,0-8.59-26.63c-10.66-14.73-31.36-20.57-48-13.49C191.31,53.21,181.6,68.18,181.6,86.46Z"/><path class="cls-1" d="M570.85,40.12V22.28h26.42V149.87H570.86V132.53c-3.61,3.15-6.86,6.43-10.54,9.11-13.21,9.6-28,13.31-44.14,10.62-24.71-4.12-40.73-18.78-49.66-41.69a66.42,66.42,0,0,1-4.1-22.31c-.45-14.52,2.86-28,10.73-40.19,9.19-14.22,22-23.78,38.67-27.31C534.36,16,553.75,22,569.6,38.93,569.88,39.23,570.19,39.5,570.85,40.12Zm-40.52,3.16c-2,.21-3.92.39-5.88.64a38,38,0,0,0-25.24,14C487.28,72.6,485.82,91.61,495,108.21c11.38,20.62,39.13,27.16,58.23,13.45,14-10,19.66-24,18-41A41.65,41.65,0,0,0,530.33,43.28Z"/><path class="cls-1" d="M752,149.88H725.65v-2.67c0-20.75,0-41.5,0-62.25,0-7.92-1.43-15.6-5.57-22.5-7.72-12.89-19.16-19-34.17-18.55-14.31.45-27.23,9.81-32.68,23.7a46.81,46.81,0,0,0-3,17.36q0,31,0,62v2.8H623.8v-2.52c0-21.71-.19-43.41.05-65.12.3-27.29,16.45-51.33,43.06-59.6,23.34-7.25,45-3.63,63.88,12.44,11.89,10.13,18.44,23.4,20.39,38.88A105.26,105.26,0,0,1,752,86.57c.08,20.24,0,40.48,0,60.71Z"/><path class="cls-1" d="M82,119.64l41.54-97.39H152Q124.1,86.35,96.44,149.91H66.85Q39.12,86.19,11.28,22.27h29Z"/><path class="cls-1" d="M342.57,149.89H316.19v-2.24c0-22.73-.2-45.46.08-68.19.17-13.77,3.38-26.78,12.13-37.93,6.87-8.74,15.94-14,26.49-16.91,11.9-3.31,24.09-2.46,36.22-2.44.13,0,.26.11.52.23V47c-.74,0-1.52,0-2.29,0-6.29.13-12.6,0-18.87.46-14,1-24.33,10.44-26.71,24.23a75.09,75.09,0,0,0-1.14,12.42c-.12,21-.05,41.94-.05,62.91Z"/><path class="cls-1" d="M438.62,149.9H412.54V22.27h26.08Z"/><path class="cls-1" d="M613.89,222.68v16.13H607.8V214.68h5.07c.09,1,.16,1.83.2,2.24,2.38-.94,4.77-2.33,7.32-2.8,2.92-.53,5.42.85,7,3.76.69-.61,1.25-1.15,1.86-1.65a8.63,8.63,0,0,1,9-1.67c3.18,1.18,4.39,3.93,4.52,6.93.24,5.63.07,11.27.07,17.31h-6.15c0-4.57.05-9,0-13.47a12.47,12.47,0,0,0-.76-3.81c-.64-1.78-2.12-2.1-3.79-1.6A5.49,5.49,0,0,0,628.4,225q0,6.59,0,13.19a3.29,3.29,0,0,1-.27.7h-5.84c0-4.42,0-8.66,0-12.9a16.41,16.41,0,0,0-.51-3.89,3.09,3.09,0,0,0-5-1.71C615.61,221.18,614.63,222.06,613.89,222.68Z"/><path class="cls-1" d="M142.59,238.81c0-4.16,0-8,0-11.78a27.22,27.22,0,0,0-.39-4.12c-.55-3.3-3.17-4.24-5.76-2.07-.77.65-1.41,1.46-2.19,2.27v15.72h-6.14V214.65h5.12l.2,2.16c2.39-.9,4.82-2.21,7.4-2.69,3-.56,5.31,1.08,6.8,3.5a33.91,33.91,0,0,1,4.91-3c5.1-2.07,10.08.85,10.4,6.38.33,5.84.07,11.71.07,17.9h-6c0-3.49,0-6.77,0-10a27.5,27.5,0,0,0-.29-5.68c-.26-1.18-1.19-2.82-2.15-3.1-1.12-.33-2.64.53-3.91,1.05a8.57,8.57,0,0,0-1.81,1.36v16.34Z"/><path class="cls-1" d="M265.63,206.24v12.68h11.84V206.29h6.69V238.8h-6.51V224.92h-12v14h-6.35V206.24Z"/><path class="cls-1" d="M26.85,206.19h8.33c3.67,10.84,7.29,21.49,11.06,32.65H39.13l-2.52-7.34H24.87l-2.51,7.41H15.83C19.57,227.79,23.16,217.13,26.85,206.19Zm8.26,20-4.45-13.5-4.37,13.5Z"/><path class="cls-1" d="M656.28,247.86H650V214.63h5.05c.1,1.12.18,2,.28,3,.45-.32.74-.49,1-.71,6.38-5.62,14-3.33,15.41,5a29.73,29.73,0,0,1-.59,11c-1.49,6.75-9.79,8.74-14,4.47-.14-.15-.39-.19-.93-.44Zm-.07-17.35a23,23,0,0,0,2.49,2.57,3.75,3.75,0,0,0,6.09-1.64,12,12,0,0,0,.06-9.39c-1.09-2.7-3.79-3.32-6.09-1.48l-2.55,2.07Z"/><path class="cls-1" d="M382.76,238.83h-6.37V204.32c2-1.13,4.06-1,6.31-.09v11.86c2.41-.71,4.67-1.81,7-2a6.81,6.81,0,0,1,7.6,6.8c.24,5.85.06,11.72.06,17.93h-6.12c0-4.42,0-8.58,0-12.74a13.68,13.68,0,0,0-.48-4.1,3.19,3.19,0,0,0-4.77-1.89c-1.86,1-3.37,2.38-3.26,5C382.89,229.48,382.76,233.88,382.76,238.83Z"/><path class="cls-1" d="M80.26,207.47v5.66l-2.51-1c-2.22-.93-4.42-2-6.92-.94s-3,3.77-1,5.48a37.18,37.18,0,0,0,4.67,2.75c2,1.22,4.26,2.17,5.74,3.84,4.45,5,2,13.22-4.36,15.46a16.56,16.56,0,0,1-10.77,0c-3.62-1.15-4.63-3.43-3-7.39a14.84,14.84,0,0,0,2.05.9c2.28.65,4.56,1.59,6.89,1.74,2.8.18,3.72-.91,4.59-4-.34-2.46-2.28-3.35-4.15-4.4-2.4-1.36-5.1-2.46-7-4.33-5-4.86-2.54-13.27,4.14-15.22A15.23,15.23,0,0,1,80.26,207.47Z"/><path class="cls-1" d="M573.12,214.25c-1.39-.8-2.59-1.63-3.9-2.22-4.38-2-8.7-.36-10.53,4a17.13,17.13,0,0,0-.23,12.65c1.68,4.62,6.55,6.38,11.23,4.27,1.24-.56,2.42-1.28,3.62-1.91,1.83,2.85,1.13,5.63-1.67,7-9.7,4.75-19.79-.71-21.07-11.48-.62-5.17-.17-10.21,2.59-14.81,3.77-6.27,12.77-8.06,19.18-4.43C574.34,208.49,574.73,211.88,573.12,214.25Z"/><path class="cls-1" d="M590.32,214c7.22,0,10.93,3.44,11.24,10.79a21.88,21.88,0,0,1-.73,7.5c-1.83,5.72-7.16,8.21-14.07,7-5.43-.92-8.48-4.76-8.55-10.75,0-.88,0-1.76,0-2.64C578.26,218.44,582.76,214,590.32,214Zm5.29,12.85c-.37-1.58-.68-3.06-1.07-4.52-.61-2.21-2.24-3.14-4.39-3.26a4.54,4.54,0,0,0-4.7,2.94,12.09,12.09,0,0,0-.1,9.37,4.45,4.45,0,0,0,4.39,3,4.5,4.5,0,0,0,4.67-2.94A40.07,40.07,0,0,0,595.61,226.87Z"/><path class="cls-1" d="M725.43,238.88h-6.3c0-2.8,0-5.41,0-8,0-2.2,0-4.4-.09-6.6-.06-1.82-.46-3.59-2.36-4.32s-3.38.21-4.69,1.56a9,9,0,0,1-1.46,1v16.28h-6.24V214.66h5.13c.15,1,.28,1.8.41,2.67a29.86,29.86,0,0,1,4.19-2.64c5.43-2.3,10.56.52,11.09,6.36.44,4.94.24,9.95.31,14.93C725.44,236.84,725.43,237.7,725.43,238.88Z"/><path class="cls-1" d="M735.22,214.63c1.87,5.37,3.65,10.52,5.44,15.67l.44,0c1.61-5.15,3.21-10.31,4.9-15.73h6a15.86,15.86,0,0,1-.35,2.63q-4.59,14-9.24,28.05c-1,3-4.07,3.93-7.73,2.11,1-2.65,2-5.35,2.86-7.79l-9.07-25Z"/><path class="cls-1" d="M203.19,238.88h-6.31V214.65H202c.18.91.33,1.68.53,2.67.9-.65,1.72-1.29,2.59-1.85,5.83-3.75,12.17-.64,12.74,6.25.06.73.06,1.46.06,2.2v14.89H211.6V225.55c0-4-1.07-5.79-3.44-5.84-2.73-.06-5,2.62-5,6v13.21Z"/><path class="cls-1" d="M337.11,239h-4.92l-.42-2a7,7,0,0,0-.77.44,9.17,9.17,0,0,1-8.21,2c-3.63-.8-5.78-3.18-5.88-6.61-.11-4.06,1.7-6.71,5.54-7.55,2.69-.59,5.46-.79,8.23-1.17.67-3.75-.55-5.24-4.43-5.05a14.22,14.22,0,0,0-3.6.82c-1.16.38-2.26,1-3.93,1.67-.27-1.6-.49-2.93-.74-4.42a20.21,20.21,0,0,1,2.46-1.59,16.77,16.77,0,0,1,11.14-1c3.32.79,5.36,2.88,5.47,6.27C337.25,226.66,337.11,232.59,337.11,239ZM331,233.08l-.21-.8v-4.16c-2.11.4-4.11.47-5.81,1.22a4.08,4.08,0,0,0-1.78,3,2.33,2.33,0,0,0,2.7,2.48A28.56,28.56,0,0,0,331,233.08Z"/><path class="cls-1" d="M697,238.92h-4.93c-.16-.7-.3-1.29-.48-2-2.75,2.23-5.66,3.29-9.08,2.49-3.64-.86-5.68-3.29-5.75-7a6.75,6.75,0,0,1,5.63-7.25,33.09,33.09,0,0,1,4.1-.69c1.37-.15,2.75-.16,4.11-.23.7-4.49-2-6.49-6.65-5-1.17.36-2.25,1-3.41,1.43a14.3,14.3,0,0,1-2.36.39v-4.33a19.78,19.78,0,0,1,2.24-1.35,17,17,0,0,1,9.86-1.17c4.49.72,6.59,3,6.69,7.53C697.13,227.31,697,232.87,697,238.92Zm-6.25-10.82a48.14,48.14,0,0,0-6,1.16,2.7,2.7,0,0,0-1.72,3.54,2.62,2.62,0,0,0,3.31,2.08,26.62,26.62,0,0,0,4.68-2.22l-.31-.52Z"/><path class="cls-1" d="M312,228.42H297c-.09,4.29,2.25,6.58,6.37,6.23a43.21,43.21,0,0,0,5.11-1c.69-.15,1.37-.34,2-.5,1.46,3.32.67,4.9-2.56,5.73a18.62,18.62,0,0,1-11-.08,8.57,8.57,0,0,1-5.62-5.71,18.64,18.64,0,0,1,.13-12.27c1.72-4.88,6.43-7.44,12.2-6.76,4.9.59,7.85,3.75,8.33,9.12C312.16,224.82,312,226.51,312,228.42Zm-6.26-4.29c.35-3.56-1.16-5.5-4.11-5.5s-4.69,2.14-4.48,5.5Z"/><path class="cls-1" d="M466.05,228.43H451.69c-.29,3.69,1.27,5.88,4.6,6a35.32,35.32,0,0,0,6.43-.74,27.49,27.49,0,0,0,2.79-.75v4.46c-5.76,4.29-16.48,2.5-19.14-3.39a16.08,16.08,0,0,1,.64-15.13c2.6-4.57,8.79-6.24,14.12-4.11,3.95,1.58,6.64,7.07,5.74,11.78A10.59,10.59,0,0,1,466.05,228.43Zm-5.49-4.29c.14-3.59-1.44-5.51-4.33-5.51s-4.67,2.18-4.52,5.51Z"/><path class="cls-1" d="M493,228.43H478.43c-.81,4,1.89,6.68,6.3,6.19,2.37-.26,4.69-.9,7-1.37,1.43,3.14.62,4.85-2.6,5.61a19.77,19.77,0,0,1-10.6.07,8.73,8.73,0,0,1-6.26-6.2,18.49,18.49,0,0,1,.68-12.85c2.09-4.64,6.84-6.72,12.77-5.64,4.24.76,7.27,4.41,7.52,9.27A40.82,40.82,0,0,1,493,228.43Zm-14.7-4.36H487c.11-3.5-1.34-5.37-4.09-5.44C480,218.56,478.28,220.52,478.26,224.07Z"/><path class="cls-1" d="M189.14,233c1.24,3.89.63,5.25-2.79,5.81a32.18,32.18,0,0,1-8.23.56c-5.23-.55-8.09-3.52-8.87-8.73a19,19,0,0,1,.93-10.35c2-4.76,6.84-7.13,12.69-6.09,4.81.85,7.64,4.36,7.71,9.65,0,1.43-.12,2.86-.2,4.52H175.69c-.64,4.1,2,6.62,6.36,6.26a26.94,26.94,0,0,0,3.67-.58C186.83,233.8,187.91,233.39,189.14,233Zm-13.62-8.94h8.8c.25-3.4-1.12-5.31-3.86-5.44C177.49,218.49,175.72,220.38,175.52,224.07Z"/><path class="cls-1" d="M120.59,233v4.76c-5.36,2.15-10.77,3.06-15.93-.11a9.92,9.92,0,0,1-3.72-5.15,17.58,17.58,0,0,1,.36-12c2-5,6.65-7.35,12.51-6.36,5,.83,7.75,4.13,8,9.68a37.53,37.53,0,0,1-.28,4.51H106.84c-.37,3.62,1.2,5.89,4.38,6.06a36.76,36.76,0,0,0,6.65-.72A27.9,27.9,0,0,0,120.59,233Zm-13.87-9h8.92c0-3.57-1.35-5.35-4.09-5.44S106.87,220.48,106.72,224.07Z"/><path class="cls-1" d="M418.2,214.65h5.09c.13,1,.24,1.8.36,2.66a30.67,30.67,0,0,1,4.29-2.66c5.47-2.26,10.62.64,11.07,6.63.43,5.75.09,11.55.09,17.63H433c0-4.35,0-8.51,0-12.67a18.29,18.29,0,0,0-.38-3.7,3.33,3.33,0,0,0-4.85-2.52,5.39,5.39,0,0,0-3.37,5.12v13.71H418.2Z"/><path class="cls-1" d="M358.76,220l-3.26-.32v-5l1.73-.12,1.51-.1v-5.64h6.44v5.64h5.46v5.28h-5.28c0,4.26-.12,8.34.06,12.4.06,1.59,1.46,2.05,2.94,1.81a18.51,18.51,0,0,0,2-.53c1.64,3.84.42,5.86-3.42,6-5.87.23-8.06-2.06-8.18-8.66C358.71,227.25,358.76,223.68,358.76,220Z"/><path class="cls-1" d="M239.22,215.88v4.45a25.13,25.13,0,0,0-2.41-.83,20.89,20.89,0,0,0-4.24-.82c-1.76,0-2.9.9-2.68,3.41,1.24.64,2.64,1.5,4.15,2.11,3.14,1.27,6,2.67,6.56,6.56a7.26,7.26,0,0,1-3.75,7.55c-3.55,1.95-10,1.82-13.1-1.18.06-1.28.13-2.8.21-4.44,7.06,2.38,7.06,2.38,9.72,1.43l1.16-2.17a24.15,24.15,0,0,0-2.91-2.33c-1.26-.73-2.7-1.12-4-1.79-3.28-1.69-4.42-3.85-4-7.49.29-2.83,2.28-5,5.43-5.9A12,12,0,0,1,239.22,215.88Z"/><path class="cls-1" d="M531.93,215.7v3.89c-2.85-.16-5.57-.41-8.3-.39-.44,0-.87,1.16-1.6,2.21,1.47.93,2.66,1.78,3.94,2.49.89.49,1.9.74,2.83,1.16,3.48,1.59,4.77,3.7,4.56,7.41-.17,3.22-1.9,5.32-5.28,6.46a13,13,0,0,1-11.3-1.3v-4.94c2,.74,3.66,1.46,5.37,1.94a4.52,4.52,0,0,0,2.77,0c.89-.38,2-1.24,2.16-2a3.38,3.38,0,0,0-1.51-2.5,22.9,22.9,0,0,0-4-1.79c-3.64-1.58-5.36-4.3-5-7.86.36-3.32,2.71-5.6,6.62-6.25A11.71,11.71,0,0,1,531.93,215.7Z"/><path class="cls-1" d="M350.57,238.87h-6.22v-34.3a5.3,5.3,0,0,1,6.22-.12Z"/><path class="cls-1" d="M499.53,214.59h5c.12,1.08.21,1.92.36,3.25,2.28-2.85,4.64-5,8.53-3.11v5.71a6.17,6.17,0,0,1-1.33,0,5.16,5.16,0,0,0-6.42,4.87c0,4.39,0,8.78,0,13.53h-6.15Z"/><path class="cls-1" d="M410.78,238.88h-6V214.66h6Z"/><path class="cls-1" d="M94.1,238.89H88.17V214.7H94.1Z"/><path class="cls-1" d="M404.49,210.1a10.89,10.89,0,0,1-.35-2.08,14.8,14.8,0,0,1,.35-2.31c1.69-1.5,5-1.73,6.19-.47,1,1,1,4,.06,5.11C409.53,211.68,406.36,211.57,404.49,210.1Z"/><path class="cls-1" d="M91.2,204.45c2.77,0,3.44.64,3.47,3.3s-.87,3.58-3.76,3.53c-2.54,0-3.46-.95-3.43-3.44S88.46,204.45,91.2,204.45Z"/></svg>