<svg id="Réteg_1" data-name="Réteg 1" xmlns="http://www.w3.org/2000/svg" viewBox="0 0 346 134"><defs><style>.cls-1{fill:#45b5e5;}.cls-2{fill:#616363;}</style></defs><title>logoRajztábla 4</title><path class="cls-1" d="M301.24,66.07c-3.09.32-5.92.83-8.75.88a32,32,0,0,1-2.25-63.87c18-1.32,33.93,13.28,34.06,31.36.07,10.71-4.21,19.41-12.65,26a1,1,0,0,0-.39,1.51C319,78,333.37,108.33,341.06,124.4c1.43,3,.46,5.7-2.6,7.17s-5.78.56-7.22-2.45c-7.67-16-22-46.24-29.7-62.25C301.39,66.55,301.29,66.2,301.24,66.07ZM283.43,60.2a26.71,26.71,0,1,0-16.28-34.12A26.67,26.67,0,0,0,283.43,60.2Z"/><polygon class="cls-2" points="46.59 3.41 46.59 27.01 8.34 27.01 8.34 3.41 3.35 3.41 3.35 63.2 8.34 63.2 8.34 31.71 46.59 31.71 46.59 63.2 51.58 63.2 51.58 3.41 46.59 3.41"/><path class="cls-2" d="M103.41,40.42c0,.74-.09,1.47-.09,2.21H61.71c1.1,10.38,9,17.17,19.47,17.17,7.53,0,13.23-3.49,15.89-8.36l4,2.39c-3.77,6.25-10.93,10.38-20,10.38-14.15,0-24.16-10.1-24.16-24,0-13.5,9.74-24,23.79-24S103.41,27.84,103.41,40.42Zm-41.7-2.29H98.63c-1-11.21-8.91-17.45-17.91-17.45C70.25,20.68,62.63,27.93,61.71,38.13Z"/><path class="cls-2" d="M156.77,17.28V63.2h-4.69V52.82a22.07,22.07,0,0,1-19.74,11.39,23.72,23.72,0,0,1-23.79-24,23.72,23.72,0,0,1,23.79-24,22.07,22.07,0,0,1,19.74,11.39V17.28Zm-4.69,23a19.43,19.43,0,1,0-38.85,0,19.43,19.43,0,1,0,38.85,0Z"/><rect class="cls-2" x="167.29" y="3.41" width="4.39" height="59.79"/><path class="cls-2" d="M192.25,3.41h-4.68V17.28h-10.1v4.5h10.1V51.63c0,10.47,6.34,13.41,18.37,11.57V59.07c-9.37.82-13.69.64-13.69-7.44V21.78h13.69v-4.5H192.25Z"/><path class="cls-2" d="M235.51,16.27c-7.07,0-12.95,2.94-16.44,9.73V3.41h-4.59V63.2h4.59V39c0-12.4,7.07-18.27,16.07-18.27,8.64,0,13.51,5.51,13.51,14V63.2h4.68V34.64C253.33,23.52,246.44,16.27,235.51,16.27Z"/><polygon class="cls-1" points="3.17 73.86 3.17 83.11 18.68 83.11 18.68 132.69 28.35 132.69 28.35 83.11 44.9 83.11 44.9 73.86 3.17 73.86"/><path class="cls-1" d="M85.58,132.69,73.15,111.26H61.71v21.43H52V73.87H75.58a18.78,18.78,0,0,1,18.9,18.9,17.71,17.71,0,0,1-3.23,10.3,18.48,18.48,0,0,1-8.45,6.76l13.36,22.86ZM61.71,82.94v19.67H75.58a8.68,8.68,0,0,0,6.55-2.86,10.39,10.39,0,0,0,0-14,8.64,8.64,0,0,0-6.55-2.86Z"/><path class="cls-1" d="M139.61,132.69l-4.15-11.85h-25l-4.12,11.85H95.83l21.34-58.82h11.6L150,132.69Zm-26-20.92h18.64L123,85.21Z"/><path class="cls-1" d="M180.45,133.78q-13.27,0-22-8.78a29.55,29.55,0,0,1-8.74-21.72,29.59,29.59,0,0,1,8.74-21.73q8.73-8.77,22-8.78a29.74,29.74,0,0,1,14.75,3.78,27.53,27.53,0,0,1,10.55,10.26l-8.41,4.87a17.33,17.33,0,0,0-6.84-6.93,19.94,19.94,0,0,0-10.05-2.57q-9.4,0-15.25,6a20.75,20.75,0,0,0-5.84,15.13,20.75,20.75,0,0,0,5.84,15.13q5.84,6,15.25,6a20.16,20.16,0,0,0,10.09-2.56,16.74,16.74,0,0,0,6.8-6.93l8.41,4.79A27.29,27.29,0,0,1,195.29,130,29.64,29.64,0,0,1,180.45,133.78Z"/><path class="cls-1" d="M223.4,123.45h26v9.24H213.73V73.87H249v9.24H223.4V98.4h23.53v9.16H223.4Z"/><path class="cls-1" d="M292.56,132.69l-12.43-21.43H268.69v21.43H259V73.87h23.53a18.8,18.8,0,0,1,18.91,18.9,17.65,17.65,0,0,1-3.24,10.3,18.5,18.5,0,0,1-8.44,6.76l13.36,22.86ZM268.69,82.94v19.67h13.87a8.68,8.68,0,0,0,6.55-2.86,10.39,10.39,0,0,0,0-14,8.64,8.64,0,0,0-6.55-2.86Z"/><path class="cls-1" d="M307.44,32.28l-9.9,0h-.93l0-7.21c0-1.21,0-2.41,0-3.62a.76.76,0,0,0-.74-.75l-6.16,0a.75.75,0,0,0-.74.74c0,3.3,0,6.61,0,9.91v.92l-7.21,0h-3.62a.75.75,0,0,0-.75.74c0,2,0,4.1,0,6.15a.73.73,0,0,0,.74.75l9.9,0h.93c0,2.4,0,4.81,0,7.21,0,1.21,0,2.41,0,3.62a.74.74,0,0,0,.74.74l6.15,0a.68.68,0,0,0,.52-.22.65.65,0,0,0,.23-.53l0-9.9v-.93l7.22,0h3.62a.75.75,0,0,0,.74-.74q0-3.07,0-6.16A.74.74,0,0,0,307.44,32.28Z"/></svg>