<svg id="Réteg_1" data-name="Réteg 1" xmlns="http://www.w3.org/2000/svg" xmlns:xlink="http://www.w3.org/1999/xlink" viewBox="0 0 3885 2033"><defs><style>.cls-1{fill:none;}.cls-2{fill:#caf8ff;}.cls-3{clip-path:url(#clip-path);}.cls-4{fill:#45b5e5;opacity:0.5;}.cls-5{clip-path:url(#clip-path-2);}</style><clipPath id="clip-path"><rect class="cls-1" x="2450.47" y="563.31" width="1434.53" height="1469.69"/></clipPath><clipPath id="clip-path-2"><rect class="cls-1" y="-1" width="1135.72" height="1065.52"/></clipPath></defs><title>wallpaperRajztábla 1</title><rect class="cls-2" y="-1" width="3885" height="2034"/><g class="cls-3"><path class="cls-4" d="M3978.79,2401.52a14.52,14.52,0,0,0-14.37-13.21l-41.29-321.25a14.53,14.53,0,0,0-1.85-28.43l-.36-263a14.54,14.54,0,0,0,.83-28.67l15.5-259.23.22,0a14.53,14.53,0,0,0-.67-29l-47.84-525a14.54,14.54,0,1,0-15.5-6.35L3785,1052.77l-68.81-54.47a14.53,14.53,0,1,0-27-6.08,12.52,12.52,0,0,0,.21,1.46l-115.9,56.81a14.52,14.52,0,0,0-26.52,6.66l-446.35,16.09a14.54,14.54,0,0,0-28.8,3.78,14.59,14.59,0,0,0,9.28,12.24l-86.58,371.19a14.22,14.22,0,0,0-2.69,0,14.53,14.53,0,0,0-6.76,26.54L2784,1898.66a14.52,14.52,0,0,0-19,15.12,14.54,14.54,0,0,0,27.12,5.82l222.81,88.82a14.34,14.34,0,0,0-.39,4.84,14.57,14.57,0,0,0,15.8,13.15,14,14,0,0,0,3.14-.64L3181,2333.66a14.52,14.52,0,1,0,20.83,5.37l268.62-191.72a14.54,14.54,0,0,0,17.34,2.92l158.31,222.68a14.54,14.54,0,1,0,18.38-1.21L3718,2270.63a14.44,14.44,0,0,0,16.32-4.52l216.67,131a14.54,14.54,0,0,0-1.13,7.09,14.52,14.52,0,0,0,14.44,13.22c.44,0,.89,0,1.34-.06A14.59,14.59,0,0,0,3978.79,2401.52Zm-241.32-145.83a14.49,14.49,0,0,0-8.77-12.07l41-149,185.38,297.08a15.36,15.36,0,0,0-2,2.07l-216.68-130.94A14.45,14.45,0,0,0,3737.47,2255.69ZM3654.69,2369a14.41,14.41,0,0,0-5.42,1.6L3491,2148a14.47,14.47,0,0,0-.9-22l140.28-236a14.7,14.7,0,0,0,7,1.1l80.57,352.29a14.49,14.49,0,0,0-3.34,25.38L3661,2369.88A14.5,14.5,0,0,0,3654.69,2369Zm-567-1278.86a14.38,14.38,0,0,0,9.11-4.36L3273,1215.39a14.59,14.59,0,0,0,.59,14.89L3002.79,1464a14.43,14.43,0,0,0-4.44-2.69L3085,1090.16A14.22,14.22,0,0,0,3087.65,1090.17Zm488.28-32.9a14.68,14.68,0,0,0-.69-3.26l115.46-56.6a14.46,14.46,0,0,0,17.46,7.3L3753.1,1098l-32.71,46.35a14.47,14.47,0,0,0-17.71,3.42l-128.09-83A14.33,14.33,0,0,0,3575.93,1057.27Zm-276.8,159.41,250.94-149.07a14.42,14.42,0,0,0,12.69,5.46h0a12.34,12.34,0,0,0,1.34-.19l33,100.09-297.42,45.28A14.72,14.72,0,0,0,3299.13,1216.68Zm429-60.82a14.51,14.51,0,0,0-.92-3.89l41-22.53,30,62.23-36,113.63a15.32,15.32,0,0,0-2.52-.22q-.64,0-1.29.06l-.74.09-38.23-134.75A14.64,14.64,0,0,0,3728.18,1155.86Zm101.17-49.23a14.65,14.65,0,0,0,2.39.22l25.92,199-55.16-114.44ZM3924,1465.24a14.51,14.51,0,0,0-2.37,7.34l-37.89,3.45L3877,1424.3Zm-273.55,410.08a14.64,14.64,0,0,0-11.17-12.82l10.57-113c.25,0,.49,0,.73,0a13.78,13.78,0,0,0,2.07-.35l91.18,234.19a16.76,16.76,0,0,0-1.54,1l-94.92-98.63A14.5,14.5,0,0,0,3650.46,1875.32ZM3007.65,1475.9l246.88-16.41-11.8,95.7-235.28-77.62A13.35,13.35,0,0,0,3007.65,1475.9Zm230.64,246.71a14,14,0,0,0-.49-2.48l197.25-87.71a14.51,14.51,0,0,0,11.72,6.87l8.1,88.82Zm452.41-227a14.5,14.5,0,0,0,25.51,8.08l100.65,154.64a14.57,14.57,0,0,0-5,12.32,13.39,13.39,0,0,0,.29,1.85l-150.08,55.7a14.45,14.45,0,0,0-12.8-7.7c-.45,0-.89,0-1.34.06a14.56,14.56,0,0,0-10.37,5.87L3461,1630a14.47,14.47,0,0,0-4.7-16.69l64.62-159.62a14.37,14.37,0,0,0,4.89.39,14.58,14.58,0,0,0,11.91-8.43L3690.82,1492A14.58,14.58,0,0,0,3690.7,1495.57Zm54.62-176.93a13.56,13.56,0,0,0,0,2.3,14.54,14.54,0,0,0,8.3,11.83l-46,147.16a13.71,13.71,0,0,0-2.32-.2l-.49-.75-1.28.83a9,9,0,0,0-1,.15l-60.18-182.46Zm-292.48,292.65a14.51,14.51,0,0,0-5.41-1c-.45,0-.9,0-1.36.06a14.56,14.56,0,0,0-2.22.39l-64.08-159.52,130.47-8.67a14.54,14.54,0,0,0,7,9.69Zm-18.49,7.12-187.83-62,12-97.21,117.16-7.79,64.55,160.7A14.69,14.69,0,0,0,3434.35,1618.41Zm24.75,15,176.59,96.45a14.2,14.2,0,0,0-.76,2.86l-176.15-4.48-8.14-89.28A14.49,14.49,0,0,0,3459.1,1633.38ZM3719.3,1491a14.47,14.47,0,0,0-8-9.9l46-147.16a14.67,14.67,0,0,0,3.74.15,14.51,14.51,0,0,0,8.27-3.55l103.2,89.9,7.29,55.94Zm-286.18,131.11a14.28,14.28,0,0,0-.2,4,14.47,14.47,0,0,0,.53,2.76l-197.25,87.71a14.52,14.52,0,0,0-8.64-6.4L3246,1560.39Zm-194.93,104.41,217,5.51,14.44,158.42a14.37,14.37,0,0,0-7.27,4.13l-225.72-163.53A14.42,14.42,0,0,0,3238.19,1726.52Zm396.62,10.08a14.65,14.65,0,0,0,11.17,12.55l-10.59,113-.71,0a14.59,14.59,0,0,0-13.22,15l-134.7,23.09a14.66,14.66,0,0,0-13.22-10.15l-14.4-158ZM3780,2037l-19.77-29.87a14.56,14.56,0,0,0,5.12-12.44,14.54,14.54,0,0,0-15.8-13.15,12.77,12.77,0,0,0-2.08.36l-91.17-234.19a14.49,14.49,0,0,0,7.44-14,13.51,13.51,0,0,0-.31-1.87l150.08-55.68a14.41,14.41,0,0,0,14.13,7.64l.2,0,86.23,355.74a14.65,14.65,0,0,0-9,10.68L3796,2043.26c0-.09,0-.18,0-.27-.73-8-7.93-6.71-15.93-6C3778.36,2037.15,3781.49,2036.31,3780,2037Zm130.09-287.33L3837.92,1678a14.73,14.73,0,0,0,2.9-10.09,14.55,14.55,0,0,0-15.8-13.12,14.13,14.13,0,0,0-4.89,1.34L3718.48,1500a14.49,14.49,0,0,0,1.18-5.11l160.71-14.65,34.77,266.93A14.46,14.46,0,0,0,3910.09,1749.67Zm-195.07-578,.72-.09L3754,1306.31a14.71,14.71,0,0,0-7.89,8.5l-105.2-21.59-38.63-117.09,97.48-14.84A14.42,14.42,0,0,0,3715,1171.64ZM3692,1488.22l-153.14-46.35a14.16,14.16,0,0,0,.13-3.62,14.52,14.52,0,0,0-23.81-9.79l-217.42-197.87a14.8,14.8,0,0,0,1.75-3.43l338.44,69.44,60.89,184.59A14.38,14.38,0,0,0,3692,1488.22Zm-182-49.65-131.75,8.76L3292.93,1235a14,14,0,0,0,2.15-1.49l217.42,197.86A14.53,14.53,0,0,0,3510,1438.57Zm-251,16.69,26.93-218.38c.39,0,.76,0,1.13-.06a14.72,14.72,0,0,0,2.25-.39l84.82,211.18ZM3007.4,1472a14.55,14.55,0,0,0-2.07-5l270.82-233.74a14.67,14.67,0,0,0,5.89,3.16l-27,219.14Zm824.24,210.83a14.77,14.77,0,0,0,3.54-2l72.18,71.62a14.5,14.5,0,0,0,9.64,23.16l.39,261Zm44.61-264.39-11.59-89.06,63.49,131.71a14.82,14.82,0,0,0-1.55,1.19Zm-17-100.24,12.55,96.38-99.87-87a14.44,14.44,0,0,0,2.34-9.3,14.64,14.64,0,0,0-8.27-11.82l34.75-109.66Zm-559-94.86c0-.41,0-.82,0-1.22l298.07-45.38,38.13,115.59Zm-58,335.8-18.56,150.53c-.39,0-.76,0-1.14,0a14.37,14.37,0,0,0-7,2.58L3004.4,1484.15a14.63,14.63,0,0,0,1.83-2.88Zm-24.83,178.07a14.33,14.33,0,0,0,7.76,1.46,14.56,14.56,0,0,0,9.2-4.45l225.73,163.52a14.58,14.58,0,0,0-1.67,8.2s0,.1,0,.16l-415.89,100.56a14.6,14.6,0,0,0-3.85-5.53ZM3739.49,1987a14.51,14.51,0,0,0,17.44,22.21l15.18,24a14.52,14.52,0,0,0,3.64,24.48l-7.49,27.24-120.71-193.45Zm80.64-886a14.6,14.6,0,0,0,5.47,4.48L3800,1186.22l-28.28-58.68Zm-121,56.47L3601,1172.37l-33.23-100.73a14.35,14.35,0,0,0,4.66-3.59l128.09,83A14.31,14.31,0,0,0,3699.17,1157.43Zm-489.8,568.08a14.55,14.55,0,0,0,4.8,9.49l-178.7,263.93a14.37,14.37,0,0,0-5.44-1.48l-33.94-508.3a14.44,14.44,0,0,0,5.43-2.34L3212.63,1715A14.5,14.5,0,0,0,3209.37,1725.51Zm278.06,178.58L3622.12,1881a14.43,14.43,0,0,0,4.85,7l-140.28,236a14.63,14.63,0,0,0-4.23-1.08l-7.11-204A14.61,14.61,0,0,0,3487.43,1904.09ZM3642,1889.9l124.9,200.15-41.93,152.55a13.48,13.48,0,0,0-1.9-.13c-.45,0-.89,0-1.33.06l-80.57-352.29C3641.4,1890.14,3641.68,1890,3642,1889.9Zm137.58,168.81a14.73,14.73,0,0,0,3.25.08,14.46,14.46,0,0,0,3.48-.77L3942,2363.29l-170.88-273.85Zm16.17-11.52,109.16,6.9a2.46,2.46,0,0,1,0,.26,14.56,14.56,0,0,0,14.38,13.21l41.29,321.26c-.35.09-.69.2-1,.32l-169.77-332.89A14.55,14.55,0,0,0,3795.7,2047.19Zm88.56-567.29,37.74-3.45a14.69,14.69,0,0,0,11.35,11l-15.14,253.13Zm47.41-20.51L3863,1317l-27.43-210.66a14.51,14.51,0,0,0,2.36-27.16l45.31-145.28a13.39,13.39,0,0,0,1.8.19l47.82,525C3932.49,1459.15,3932.08,1459.26,3931.67,1459.39Zm-52.1-526.64L3834.23,1078a14.24,14.24,0,0,0-3.74-.14,14.39,14.39,0,0,0-8.74,4l-33.69-26.66,88-124.74A15,15,0,0,0,3879.57,932.75Zm-154.2,215.8a13.47,13.47,0,0,0-1.78-2l31.46-44.58,11.53,23.93Zm-681.88,862.06s0-.1,0-.16l415.88-100.59a14.62,14.62,0,0,0,4.1,5.78l-268.34,417a14.47,14.47,0,0,0-6.16-1.39c-.43,0-.87,0-1.31.06a14.62,14.62,0,0,0-3.13.64L3037,2024.08A14.5,14.5,0,0,0,3043.49,2010.61Zm775.85-925.69a14.42,14.42,0,0,0-1.09,12.62L3770,1124l-12.39-25.71,28.17-39.93Zm-63.64,9.36-44-91.27a14.82,14.82,0,0,0,2.06-1.66l69,54.6Zm-458.58,119a14.48,14.48,0,0,0-11.36-5.5q-.66,0-1.32.06a14.35,14.35,0,0,0-9.12,4.37l-176.24-129.58a14.22,14.22,0,0,0,1.7-5.51l446.35-16.09a14.44,14.44,0,0,0,.95,3.21ZM2988.6,1488.7a14,14,0,0,0,3.58.7l33.94,508.3a14.57,14.57,0,0,0-9.75,7.09L2793.56,1916a14.33,14.33,0,0,0,.37-4.84,14.49,14.49,0,0,0-6.39-10.75Zm210.93,847.15a14.67,14.67,0,0,0-1.14-1.09l268.36-417a14.37,14.37,0,0,0,4.71,1.3l7.09,204a14.56,14.56,0,0,0-10.39,21.11Z"/></g><g class="cls-5"><path class="cls-4" d="M974.54,578.08A15,15,0,0,0,968.66,568a15.22,15.22,0,0,0-14-2.28l-110.2-228a15.06,15.06,0,0,0,3.76-3.54A15.2,15.2,0,0,0,842.37,311L947.14-35a15.3,15.3,0,0,0,14.65-5.86,15.34,15.34,0,0,0-2.89-21.43,15.15,15.15,0,0,0-11.32-2.93,15.22,15.22,0,0,0-10.1,6,15.27,15.27,0,0,0-2.63,5.44L588.79-94.65a15.13,15.13,0,0,0-6-12,15,15,0,0,0-5.39-2.63l35.58-287a15.2,15.2,0,0,0,12-6.06,15.32,15.32,0,0,0-2.94-21.43,15,15,0,0,0-11.25-2.94,15.18,15.18,0,0,0-10.12,5.93,15.44,15.44,0,0,0-2.75,12.5L484-367.08a15.1,15.1,0,0,0-4.32-5.2,15.17,15.17,0,0,0-11.62-2.87L392.7-631.79a15.22,15.22,0,0,0,6-4.76,15.29,15.29,0,0,0-2.89-21.38,15.11,15.11,0,0,0-11.27-3,15.24,15.24,0,0,0-10.15,5.95,15.28,15.28,0,0,0,1.82,20.48l-197.08,281a15.35,15.35,0,0,0-19.2,4.34A15.25,15.25,0,0,0,160.4-330L-27.06-123.7a15,15,0,0,0-10.78-2.58A15.33,15.33,0,0,0-48-120.34,15.29,15.29,0,0,0-48-102L-245.14,90.08l-.23-.18a15.28,15.28,0,0,0-21.38,3A15.2,15.2,0,0,0-265.34,113l-337.3,445.12a15.2,15.2,0,0,0-19.72,4.11,15.16,15.16,0,0,0-3,11.32,15.08,15.08,0,0,0,5.86,10.06,15.06,15.06,0,0,0,11.29,2.94,15.22,15.22,0,0,0,10.11-5.93,15.48,15.48,0,0,0,2.88-6.68l158.47-35.32L-422,630.31a15.23,15.23,0,0,0-7.76,5.4,15.31,15.31,0,0,0,2.87,21.43,15.34,15.34,0,0,0,21.42-3,14.65,14.65,0,0,0,.89-1.33l130.9,37.92a15.23,15.23,0,0,0,5.83,14.51,15.2,15.2,0,0,0,19.51-.92L110.84,1009a15.22,15.22,0,0,0,12.72,23.52,15.5,15.5,0,0,0,2.14-.15,15.33,15.33,0,0,0,11.53-22.09L469.56,781.14a14.4,14.4,0,0,0,2.12,1.94,15.32,15.32,0,0,0,24-16L946.1,587.67a15.28,15.28,0,0,0,28.44-9.59ZM944.63,584,494.28,763.46a15,15,0,0,0-2.36-3.19L828.17,338.06a15.13,15.13,0,0,0,12.67,1.4l110.22,228A15.36,15.36,0,0,0,947.3,571,15.18,15.18,0,0,0,944.63,584Zm-1353,48.74a15.25,15.25,0,0,0-3-1.75l31.54-105.06,58.64-13.07a14.94,14.94,0,0,0,5.12,6.95,15.14,15.14,0,0,0,11.14,3l40.6,156.12a15.33,15.33,0,0,0-6.42,4.9,15.31,15.31,0,0,0-1.81,3.11L-402.95,649.1A15.23,15.23,0,0,0-408.37,632.72Zm-186.69-62.94a15.27,15.27,0,0,0-1.1-4.36l139-81.61a15,15,0,0,0,2.85,2.83,15,15,0,0,0,9.68,3.05l7.23,45ZM485.36-363.36,599.27-404.5a15,15,0,0,0,4.32,5.19A15.18,15.18,0,0,0,609-396.7l-35.58,287a15.2,15.2,0,0,0-12.05,6.08,15.12,15.12,0,0,0-2.9,11.72L280.8-6.83a15.09,15.09,0,0,0-4.65-5.83l0,0L464.7-345.9a15.26,15.26,0,0,0,17.9-5A15.33,15.33,0,0,0,485.36-363.36ZM-384.24,526.9l-30.91,102.93a15.8,15.8,0,0,0-2.38-.19H-418l-14.8-91.92Zm-74.86-46.51-139,81.61a14.86,14.86,0,0,0-1.34-1.52l337.31-445.13a13.31,13.31,0,0,0,1.3.67L-309,276.35-438,460.87a15.38,15.38,0,0,0-19.22,4.34A15.4,15.4,0,0,0-459.1,480.39ZM429,91.54,935.5-44.26a15,15,0,0,0,4.88,6.39,15.2,15.2,0,0,0,3,1.74l-104.79,346a15.28,15.28,0,0,0-14.65,5.88,2.43,2.43,0,0,1-.14.2L428,99.09A15.3,15.3,0,0,0,429,91.54Zm-678.3,589.24a12.83,12.83,0,0,0-1.21-.82l45.75-102,264,176a15.75,15.75,0,0,0-.73,1.75l-301.87-61.67A15.23,15.23,0,0,0-249.33,680.78ZM-430.95,468.53l77.8-45.19-19.92,66.34L-429.88,476A15.4,15.4,0,0,0-430.95,468.53ZM282-3,559.62-88.13a15.13,15.13,0,0,0,2.6,4L422.16,80.71a15.35,15.35,0,0,0-20,3L280.7,6A15.24,15.24,0,0,0,282-3ZM403.08,104.45l-101.56,134L167.82,110.05a15.42,15.42,0,0,0,.23-17.8l88.95-81,.64.51a15.31,15.31,0,0,0,20.93-2.38L400,87.09A15.17,15.17,0,0,0,403.08,104.45ZM244.84,319.88,302,244.45,466.8,402.76a15.26,15.26,0,0,0-1.44,2.4L249.07,333.62A15.23,15.23,0,0,0,244.84,319.88ZM146.28,113.22A15.24,15.24,0,0,0,158.55,116l68.78,201.16a15.38,15.38,0,0,0-5.4,4.47,15.2,15.2,0,0,0-2.85,11.94L54.78,412.64a14.92,14.92,0,0,0-3.56-3.83,15.12,15.12,0,0,0-9.17-3.08A15.32,15.32,0,0,0,36,407L-50.31,261.75A14.84,14.84,0,0,0-47.6,259a15.16,15.16,0,0,0,3-11.32,15.1,15.1,0,0,0-5.9-10.06,15.25,15.25,0,0,0-11.21-2.93l32-192.77a15.4,15.4,0,0,0,12.63-6.07A15,15,0,0,0-16,34.08L140.75,97.2A15.15,15.15,0,0,0,146.28,113.22ZM285.39-225.91a15.23,15.23,0,0,0,1.68-15.64l25.51-16.16L268.41-19.48l-3.46-141a15.48,15.48,0,0,0,9.8-5.85,15.31,15.31,0,0,0,3-11.34,15.16,15.16,0,0,0-5.9-10.09,14.91,14.91,0,0,0-4.64-2.38l5.33-29.71A15.45,15.45,0,0,0,285.39-225.91ZM406.23,106.85a15.11,15.11,0,0,0,8.7,1.94l59.2,288.59a15.46,15.46,0,0,0-4.56,2.53L304.41,241.26Zm-175.16,209L162.29,114.66A14.94,14.94,0,0,0,165,112.9L299.1,241.67l-57.44,75.79a15.07,15.07,0,0,0-7.45-2A15.86,15.86,0,0,0,231.07,315.81Zm-295.2-51.4a15,15,0,0,0,10.45-.63L32.59,409a14.77,14.77,0,0,0-2.74,2.79,15.29,15.29,0,0,0-3,11.44,15,15,0,0,0,5.86,9.93,15.14,15.14,0,0,0,8.66,3.09L69.59,745.82a15.77,15.77,0,0,0-3.92,1.49l-214.09-295ZM261-160.37l3.56,144.82a15.25,15.25,0,0,0-9.79,5.88,15.42,15.42,0,0,0-.42,18L165.42,89.35c-.22-.19-.45-.38-.67-.55a15.21,15.21,0,0,0-1.89-1.21l96.08-248.3A15.5,15.5,0,0,0,261-160.37ZM-214.69,356.89a15.42,15.42,0,0,0,1.93-15.16l141-82.59A15.09,15.09,0,0,0-70.08,261l-.15.95,1.62.26c.29.21.58.4.88.59L-151.1,448.63l-65.25-89.91A15,15,0,0,0-214.69,356.89ZM52.57,432l108.92,86.84-85.1,227a15,15,0,0,0-2.84-.37L45.31,435.89A15.33,15.33,0,0,0,52.57,432Zm2.48-3.09a15.36,15.36,0,0,0,1.45-12.65l163.78-78.87a15,15,0,0,0,6.62,6.93L163,514.88Zm-205.36,27.67L62.43,749.67a13.32,13.32,0,0,0-1,1L-203.14,574.3Zm232.46,292h0a14.56,14.56,0,0,0-2-1.29L164.76,521.4l95.28,76-176.9,152A12.8,12.8,0,0,0,82.15,748.5ZM820.89,326.62,493.34,406.27a15.09,15.09,0,0,0-14.1-9.74c-.41,0-.82,0-1.23.05L418.84,108a15.48,15.48,0,0,0,7.16-5.22c0-.06.09-.12.13-.19l395.73,216.9A15.35,15.35,0,0,0,820.89,326.62ZM271.61-15,317.14-260.6l141.55-89.67a14.68,14.68,0,0,0,2.51,2.41h0L272.65-14.63C272.31-14.77,272-14.89,271.61-15Zm41.95-248L285-244.87a14.79,14.79,0,0,0-2.52-2.42,14.52,14.52,0,0,0-3.32-1.9l97.1-351.71ZM-73.79,255.7l-141,82.59a15.22,15.22,0,0,0-2.84-2.83,15.21,15.21,0,0,0-9-3.07l-16.26-143.81,34.31-49.1L-72.94,242.23A15.15,15.15,0,0,0-73.79,255.7ZM-239,338.45a15.37,15.37,0,0,0-2,15.12l-105.53,61.31,41.07-136.81,59.13-84.6,15.76,139.37A15.15,15.15,0,0,0-239,338.45Zm-73.69-50-38.83,129.32-81.43,47.31a14.61,14.61,0,0,0-1.8-2Zm-35.47,132L-239,357a15.11,15.11,0,0,0,2.88,2.88c.23.16.45.33.7.49l-66.4,132.8a15.36,15.36,0,0,0-17.16,5.24,15.15,15.15,0,0,0-2.1,3.77l-48.16-11.57Zm50.58,75c-.22-.17-.46-.34-.71-.5l66.41-132.81a15.44,15.44,0,0,0,12.26-1.05l66.6,91.77-53.49,119.24-86.64-57.76A15.18,15.18,0,0,0-297.55,495.43Zm463.78,22.06,64.41-171.84a15.39,15.39,0,0,0,9.12-.72L341.9,527l-78.79,67.68Zm80-177.51a16.24,16.24,0,0,0,1.57-2.59l216.29,71.55a15.33,15.33,0,0,0,2.2,11.22L345,524.41,243.2,343A15.05,15.05,0,0,0,246.25,340ZM261.07-244.3a15.3,15.3,0,0,0,2.9,21.37h0a15.1,15.1,0,0,0,4.64,2.37l-5.33,29.73a15.36,15.36,0,0,0-12.84,6.08,15.28,15.28,0,0,0,2.9,21.38,14.31,14.31,0,0,0,1.92,1.23L159.15,86.15a15.3,15.3,0,0,0-15.77,5.64,14.52,14.52,0,0,0-1.12,1.72L-14.46,30.43a15.34,15.34,0,0,0-5.54-16l-.2-.15,186.69-340a15.39,15.39,0,0,0,14.62-2l80.2,83.07ZM-41.37,17.42a15.32,15.32,0,0,0,2.9,21.42,14.7,14.7,0,0,0,4.82,2.43L-65.91,235.85a15.45,15.45,0,0,0-4.65,3.24L-206.27,136.24-42.85-97.59a14.87,14.87,0,0,0,5.79,1.67l5.14,107.53A15.31,15.31,0,0,0-41.37,17.42Zm-202.15,165.2-7.43-65.73a15.38,15.38,0,0,0,7.18-4.12l32.08,24.31ZM-322,509l-56.49,12.58,8.15-27.16L-322,506A15.61,15.61,0,0,0-322,509Zm26.68,8.66,87.19,58.12-46,102.6a15.12,15.12,0,0,0-4.33-.63,14.34,14.34,0,0,0-2,.13l-40.62-156.11A15.1,15.1,0,0,0-295.32,517.63ZM467.87,763.06a15.32,15.32,0,0,0-2,5.51L88.1,759.11a15.26,15.26,0,0,0-2.39-6.76L263.19,599.87Zm-124-232.51,128,228.14a14.39,14.39,0,0,0-1.46,1.25L266.26,597.23Zm125-107.39c.33.3.67.58,1,.85a14.92,14.92,0,0,0,7.31,2.95l1.65,328.8a15.73,15.73,0,0,0-3.58,1L346.92,527.92ZM491.24,421a15.37,15.37,0,0,0,3-10.89l327.55-79.64a15,15,0,0,0,3.26,5.11L488.82,757.78a15,15,0,0,0-6-2.06l-1.65-328.79A15.3,15.3,0,0,0,491.24,421ZM458.3-369.29a15.31,15.31,0,0,0-1.72,15.69L318.12-265.88,385.73-630.5a15.49,15.49,0,0,0,3.19-.18L464.27-374A15.3,15.3,0,0,0,458.3-369.29ZM380.6-631.67,275.34-250.23a15.27,15.27,0,0,0-11.19,2.88L184-330.43l.21-.28a15.19,15.19,0,0,0,3-11.36,15.14,15.14,0,0,0-4.79-9.16l197.07-281C379.84-632,380.22-631.84,380.6-631.67ZM-301.75,266l44.67-148.79a16.2,16.2,0,0,0,2.21.18l7.93,70.17ZM57.72,759.62a15.22,15.22,0,0,0,6,13.29,15,15,0,0,0,10.24,3l44.84,226.85a15.21,15.21,0,0,0-5.34,3.18L-245.76,701.28a15.2,15.2,0,0,0,1.61-3.32ZM428,87.71a15.2,15.2,0,0,0-2.79-4.44L565.22-81.6a15.31,15.31,0,0,0,20.47-3.64,15.38,15.38,0,0,0,2.64-5.48l346,40.83c0,.61,0,1.22.12,1.82Zm-265.66-414-186,338.64a14.81,14.81,0,0,0-4.27-1L-33.09-96.12a15.36,15.36,0,0,0,9.44-5.83,15.25,15.25,0,0,0-.49-19.1ZM-49.51-95-209.43,133.84l-32-24.22a15.38,15.38,0,0,0-1-16.7ZM-432.9,483.6a14.61,14.61,0,0,0,2.08-3.72l56.62,13.58-8.74,29.08-50.54,11.26L-440.69,489A15.3,15.3,0,0,0-432.9,483.6ZM135,1007a16.15,16.15,0,0,0-2.11-1.95,15,15,0,0,0-9.13-3.1c-.37,0-.74,0-1.11,0L77.79,775.17a15.4,15.4,0,0,0,7.3-5.24A15.22,15.22,0,0,0,88,763.06l377.75,9.42a15.16,15.16,0,0,0,1.57,5.39Z"/></g></svg>