<svg xmlns="http://www.w3.org/2000/svg" xmlns:xlink="http://www.w3.org/1999/xlink" viewBox="0 0 282 421"><defs><style>.cls-1,.cls-12{mask:url(#mask);}.cls-1{filter:url(#luminosity-noclip-21);}.cls-11,.cls-13,.cls-14,.cls-16,.cls-18,.cls-19,.cls-2,.cls-21,.cls-23,.cls-24,.cls-26,.cls-28,.cls-29,.cls-31,.cls-33,.cls-34,.cls-4,.cls-45,.cls-6,.cls-69,.cls-7,.cls-9{mix-blend-mode:multiply;}.cls-2{fill:url(#radial-gradient);}.cls-3,.cls-5{mask:url(#mask-2);}.cls-3{filter:url(#luminosity-noclip-26);}.cls-4{fill:url(#radial-gradient-2);}.cls-6{fill:url(#radial-gradient-3);}.cls-7{fill:url(#radial-gradient-4);}.cls-10,.cls-8{mask:url(#mask-5);}.cls-8{filter:url(#luminosity-noclip-29);}.cls-9{fill:url(#radial-gradient-5);}.cls-11{fill:url(#radial-gradient-6);}.cls-13{fill:url(#radial-gradient-7);}.cls-14{fill:url(#radial-gradient-8);}.cls-15,.cls-17{mask:url(#mask-9);}.cls-15{filter:url(#luminosity-noclip-32);}.cls-16{fill:url(#radial-gradient-9);}.cls-18{fill:url(#radial-gradient-10);}.cls-19{fill:url(#radial-gradient-11);}.cls-20,.cls-22{mask:url(#mask-12);}.cls-20{filter:url(#luminosity-noclip-35);}.cls-21{fill:url(#radial-gradient-12);}.cls-23{fill:url(#radial-gradient-13);}.cls-24{fill:url(#radial-gradient-14);}.cls-25,.cls-27{mask:url(#mask-15);}.cls-25{filter:url(#luminosity-noclip-38);}.cls-26{fill:url(#radial-gradient-15);}.cls-28{fill:url(#radial-gradient-16);}.cls-29{fill:url(#radial-gradient-17);}.cls-30,.cls-32{mask:url(#mask-18);}.cls-30{filter:url(#luminosity-noclip-23);}.cls-31{fill:url(#radial-gradient-18);}.cls-33{fill:url(#radial-gradient-19);}.cls-34{fill:url(#radial-gradient-20);}.cls-35{isolation:isolate;}.cls-36{fill:url(#linear-gradient);}.cls-37{fill:#d40023;}.cls-38{mix-blend-mode:soft-light;}.cls-39{fill:#fff;}.cls-40{fill:url(#linear-gradient-2);}.cls-41{fill:url(#linear-gradient-3);}.cls-42{fill:#a3713b;}.cls-43{opacity:0.41;}.cls-44{fill:#ebe191;}.cls-45{opacity:0.7;}.cls-46{fill:url(#linear-gradient-4);}.cls-47{fill:url(#linear-gradient-5);}.cls-48{fill:url(#linear-gradient-6);}.cls-49{fill:url(#linear-gradient-7);}.cls-50,.cls-51,.cls-58,.cls-63{mix-blend-mode:screen;}.cls-51{opacity:0.2;}.cls-52{mask:url(#mask-21);}.cls-53{fill:url(#radial-gradient-21);}.cls-54{mask:url(#mask-23);}.cls-55{fill:url(#radial-gradient-22);}.cls-56{mask:url(#mask-26);}.cls-57{fill:url(#radial-gradient-23);}.cls-58{opacity:0.8;}.cls-59{mask:url(#mask-29);}.cls-60{fill:url(#radial-gradient-24);}.cls-61{mask:url(#mask-32);}.cls-62{fill:url(#radial-gradient-25);}.cls-63,.cls-69{opacity:0.4;}.cls-64{mask:url(#mask-35);}.cls-65{fill:url(#radial-gradient-26);}.cls-66{mask:url(#mask-38);}.cls-67{fill:url(#radial-gradient-27);}.cls-68,.cls-69{fill:#754c24;}.cls-70{filter:url(#luminosity-noclip-18);}.cls-71{filter:url(#luminosity-noclip-15);}.cls-72{filter:url(#luminosity-noclip-12);}.cls-73{filter:url(#luminosity-noclip-9);}.cls-74{filter:url(#luminosity-noclip-5);}.cls-75{filter:url(#luminosity-noclip-2);}.cls-76{filter:url(#luminosity-noclip);}</style><filter id="luminosity-noclip" x="181.03" y="-8667" width="30.35" height="32766" filterUnits="userSpaceOnUse" color-interpolation-filters="sRGB"><feFlood flood-color="#fff" result="bg"/><feBlend in="SourceGraphic" in2="bg"/></filter><mask id="mask" x="181.03" y="-8667" width="30.35" height="32766" maskUnits="userSpaceOnUse"><g class="cls-76"/></mask><radialGradient id="radial-gradient" cx="-1055.37" cy="-404.95" r="28.18" gradientTransform="matrix(0.31, 0.4, 0.44, -0.28, 699.28, 435.35)" gradientUnits="userSpaceOnUse"><stop offset="0.23" stop-color="#fff"/><stop offset="0.33" stop-color="#fdfdfd"/><stop offset="0.37" stop-color="#f6f6f6"/><stop offset="0.39" stop-color="#ebebeb"/><stop offset="0.42" stop-color="#dadada"/><stop offset="0.42" stop-color="#d0d0d0"/><stop offset="0.45" stop-color="#cecece"/><stop offset="0.46" stop-color="#c7c7c7"/><stop offset="0.46" stop-color="#c6c6c6"/><stop offset="0.49" stop-color="#b4b4b4"/><stop offset="0.59" stop-color="#7e7e7e"/><stop offset="0.68" stop-color="#515151"/><stop offset="0.77" stop-color="#2e2e2e"/><stop offset="0.86" stop-color="#141414"/><stop offset="0.94" stop-color="#050505"/><stop offset="1"/></radialGradient><filter id="luminosity-noclip-2" x="151.83" y="-8667" width="86.98" height="32766" filterUnits="userSpaceOnUse" color-interpolation-filters="sRGB"><feFlood flood-color="#fff" result="bg"/><feBlend in="SourceGraphic" in2="bg"/></filter><mask id="mask-2" x="151.83" y="-8667" width="86.98" height="32766" maskUnits="userSpaceOnUse"><g class="cls-75"/></mask><radialGradient id="radial-gradient-2" cx="1045.26" cy="414.85" r="17.12" gradientTransform="matrix(2.27, 0.63, 1.14, 0.52, -2650.3, -750.28)" gradientUnits="userSpaceOnUse"><stop offset="0.23" stop-color="#fff"/><stop offset="0.35" stop-color="#fdfdfd"/><stop offset="0.39" stop-color="#f6f6f6"/><stop offset="0.42" stop-color="#ebebeb"/><stop offset="0.44" stop-color="#dadada"/><stop offset="0.45" stop-color="#d0d0d0"/><stop offset="0.48" stop-color="#cecece"/><stop offset="0.49" stop-color="#c7c7c7"/><stop offset="0.49" stop-color="#c6c6c6"/><stop offset="0.54" stop-color="#9a9a9a"/><stop offset="0.59" stop-color="#717171"/><stop offset="0.64" stop-color="#4e4e4e"/><stop offset="0.7" stop-color="#323232"/><stop offset="0.76" stop-color="#1c1c1c"/><stop offset="0.82" stop-color="#0c0c0c"/><stop offset="0.89" stop-color="#030303"/><stop offset="1"/></radialGradient><radialGradient id="radial-gradient-3" cx="1045.26" cy="414.85" r="17.12" gradientTransform="matrix(2.27, 0.63, 1.14, 0.52, -2650.3, -750.28)" gradientUnits="userSpaceOnUse"><stop offset="0" stop-color="#fff"/><stop offset="0.03" stop-color="#fff"/><stop offset="0.22" stop-color="#fff"/><stop offset="0.37" stop-color="#fff"/><stop offset="0.4" stop-color="#ebebeb"/><stop offset="0.5" stop-color="#adadad"/><stop offset="0.59" stop-color="#787878"/><stop offset="0.68" stop-color="#4d4d4d"/><stop offset="0.77" stop-color="#2c2c2c"/><stop offset="0.86" stop-color="#141414"/><stop offset="0.93" stop-color="#050505"/><stop offset="1"/></radialGradient><radialGradient id="radial-gradient-4" cx="1045.26" cy="414.85" r="17.12" gradientTransform="matrix(2.27, 0.63, 1.14, 0.52, -2650.3, -750.28)" gradientUnits="userSpaceOnUse"><stop offset="0" stop-color="#fff"/><stop offset="0.22" stop-color="#fff"/><stop offset="0.28" stop-color="#ccc"/><stop offset="0.35" stop-color="#9c9c9c"/><stop offset="0.42" stop-color="#727272"/><stop offset="0.5" stop-color="#4f4f4f"/><stop offset="0.57" stop-color="#323232"/><stop offset="0.66" stop-color="#1c1c1c"/><stop offset="0.75" stop-color="#0c0c0c"/><stop offset="0.85" stop-color="#030303"/><stop offset="1"/></radialGradient><filter id="luminosity-noclip-5" x="165.23" y="-8667" width="60.18" height="32766" filterUnits="userSpaceOnUse" color-interpolation-filters="sRGB"><feFlood flood-color="#fff" result="bg"/><feBlend in="SourceGraphic" in2="bg"/></filter><mask id="mask-5" x="165.23" y="-8667" width="60.18" height="32766" maskUnits="userSpaceOnUse"><g class="cls-74"/></mask><radialGradient id="radial-gradient-5" cx="205.39" cy="2301.97" r="17.12" gradientTransform="matrix(1.66, 2.27, 0.57, 1.38, -1461.2, -3523.23)" xlink:href="#radial-gradient-2"/><radialGradient id="radial-gradient-6" cx="205.39" cy="2301.97" r="17.12" gradientTransform="matrix(1.66, 2.27, 0.57, 1.38, -1461.2, -3523.23)" xlink:href="#radial-gradient-3"/><radialGradient id="radial-gradient-7" cx="-1055.37" cy="-404.95" r="28.18" gradientTransform="matrix(0.31, 0.4, 0.44, -0.28, 699.28, 435.35)" gradientUnits="userSpaceOnUse"><stop offset="0" stop-color="#fff"/><stop offset="0.38" stop-color="#fff"/><stop offset="0.45" stop-color="#fff"/><stop offset="0.46" stop-color="#fff"/><stop offset="0.46" stop-color="#fff"/><stop offset="0.47" stop-color="#f5f5f5"/><stop offset="0.56" stop-color="#b5b5b5"/><stop offset="0.65" stop-color="#7e7e7e"/><stop offset="0.73" stop-color="#515151"/><stop offset="0.81" stop-color="#2e2e2e"/><stop offset="0.88" stop-color="#141414"/><stop offset="0.95" stop-color="#050505"/><stop offset="1"/></radialGradient><radialGradient id="radial-gradient-8" cx="205.39" cy="2301.97" r="17.12" gradientTransform="matrix(1.66, 2.27, 0.57, 1.38, -1461.2, -3523.23)" gradientUnits="userSpaceOnUse"><stop offset="0" stop-color="#fff"/><stop offset="0.41" stop-color="#fff"/><stop offset="0.46" stop-color="#ccc"/><stop offset="0.51" stop-color="#9c9c9c"/><stop offset="0.57" stop-color="#727272"/><stop offset="0.62" stop-color="#4f4f4f"/><stop offset="0.68" stop-color="#323232"/><stop offset="0.75" stop-color="#1c1c1c"/><stop offset="0.81" stop-color="#0c0c0c"/><stop offset="0.89" stop-color="#030303"/><stop offset="1"/></radialGradient><filter id="luminosity-noclip-9" x="182.13" y="-8667" width="26.39" height="32766" filterUnits="userSpaceOnUse" color-interpolation-filters="sRGB"><feFlood flood-color="#fff" result="bg"/><feBlend in="SourceGraphic" in2="bg"/></filter><mask id="mask-9" x="182.13" y="-8667" width="26.39" height="32766" maskUnits="userSpaceOnUse"><g class="cls-73"/></mask><radialGradient id="radial-gradient-9" cx="-1785.62" cy="6485.18" r="17.12" gradientTransform="matrix(-0.6, 2.66, -0.49, 1.39, 2293.14, -4123.11)" xlink:href="#radial-gradient-2"/><radialGradient id="radial-gradient-10" cx="-1785.62" cy="6485.18" r="17.12" gradientTransform="matrix(-0.6, 2.66, -0.49, 1.39, 2293.14, -4123.11)" xlink:href="#radial-gradient-3"/><radialGradient id="radial-gradient-11" cx="-1785.62" cy="6485.18" r="17.12" gradientTransform="matrix(-0.6, 2.66, -0.49, 1.39, 2293.14, -4123.11)" xlink:href="#radial-gradient-4"/><filter id="luminosity-noclip-12" x="139.08" y="-8667" width="112.86" height="32766" filterUnits="userSpaceOnUse" color-interpolation-filters="sRGB"><feFlood flood-color="#fff" result="bg"/><feBlend in="SourceGraphic" in2="bg"/></filter><mask id="mask-12" x="139.08" y="-8667" width="112.86" height="32766" maskUnits="userSpaceOnUse"><g class="cls-72"/></mask><radialGradient id="radial-gradient-12" cx="2189.17" cy="-1155.48" r="12.44" gradientTransform="matrix(3.9, -2.32, 2.32, -0.88, -5651.28, 4182.73)" xlink:href="#radial-gradient-2"/><radialGradient id="radial-gradient-13" cx="2189.17" cy="-1155.48" r="12.44" gradientTransform="matrix(3.9, -2.32, 2.32, -0.88, -5651.28, 4182.73)" xlink:href="#radial-gradient-3"/><radialGradient id="radial-gradient-14" cx="2189.17" cy="-1155.48" r="12.44" gradientTransform="matrix(3.9, -2.32, 2.32, -0.88, -5651.28, 4182.73)" xlink:href="#radial-gradient-4"/><filter id="luminosity-noclip-15" x="180.05" y="-8667" width="31.46" height="32766" filterUnits="userSpaceOnUse" color-interpolation-filters="sRGB"><feFlood flood-color="#fff" result="bg"/><feBlend in="SourceGraphic" in2="bg"/></filter><mask id="mask-15" x="180.05" y="-8667" width="31.46" height="32766" maskUnits="userSpaceOnUse"><g class="cls-71"/></mask><radialGradient id="radial-gradient-15" cx="3002.02" cy="-281.47" r="23.22" gradientTransform="matrix(-0.55, -0.37, 0.39, -0.49, 1969.95, 1090.71)" xlink:href="#radial-gradient-2"/><radialGradient id="radial-gradient-16" cx="3002.02" cy="-281.47" r="23.22" gradientTransform="matrix(-0.55, -0.37, 0.39, -0.49, 1969.95, 1090.71)" gradientUnits="userSpaceOnUse"><stop offset="0.23" stop-color="#fff"/><stop offset="0.42" stop-color="#fff"/><stop offset="0.45" stop-color="#fff"/><stop offset="0.49" stop-color="#fff"/><stop offset="0.49" stop-color="#fff"/><stop offset="0.53" stop-color="#cacaca"/><stop offset="0.58" stop-color="#9b9b9b"/><stop offset="0.62" stop-color="#717171"/><stop offset="0.67" stop-color="#4e4e4e"/><stop offset="0.72" stop-color="#323232"/><stop offset="0.78" stop-color="#1c1c1c"/><stop offset="0.84" stop-color="#0c0c0c"/><stop offset="0.9" stop-color="#030303"/><stop offset="1"/></radialGradient><radialGradient id="radial-gradient-17" cx="3002.02" cy="-281.47" r="23.22" gradientTransform="matrix(-0.55, -0.37, 0.39, -0.49, 1969.95, 1090.71)" gradientUnits="userSpaceOnUse"><stop offset="0" stop-color="#fff"/><stop offset="0.27" stop-color="#fff"/><stop offset="0.31" stop-color="#fff"/><stop offset="0.35" stop-color="#d5d5d5"/><stop offset="0.38" stop-color="#a9a9a9"/><stop offset="0.42" stop-color="gray"/><stop offset="0.47" stop-color="#5d5d5d"/><stop offset="0.52" stop-color="#404040"/><stop offset="0.57" stop-color="#292929"/><stop offset="0.63" stop-color="#161616"/><stop offset="0.7" stop-color="#0a0a0a"/><stop offset="0.8" stop-color="#020202"/><stop offset="1"/></radialGradient><filter id="luminosity-noclip-18" x="158.25" y="-8667" width="74.37" height="32766" filterUnits="userSpaceOnUse" color-interpolation-filters="sRGB"><feFlood flood-color="#fff" result="bg"/><feBlend in="SourceGraphic" in2="bg"/></filter><mask id="mask-18" x="158.25" y="-8667" width="74.37" height="32766" maskUnits="userSpaceOnUse"><g class="cls-70"/></mask><radialGradient id="radial-gradient-18" cx="-1056.35" cy="-405.99" r="69.05" xlink:href="#radial-gradient"/><radialGradient id="radial-gradient-19" cx="-1056.35" cy="-405.99" r="69.05" xlink:href="#radial-gradient-7"/><radialGradient id="radial-gradient-20" cx="-1056.35" cy="-405.99" r="69.05" gradientTransform="matrix(0.31, 0.4, 0.44, -0.28, 699.28, 435.35)" gradientUnits="userSpaceOnUse"><stop offset="0" stop-color="#fff"/><stop offset="0.27" stop-color="#fff"/><stop offset="0.27" stop-color="#f6f6f6"/><stop offset="0.3" stop-color="#c8c8c8"/><stop offset="0.34" stop-color="#9d9d9d"/><stop offset="0.37" stop-color="#777"/><stop offset="0.41" stop-color="#575757"/><stop offset="0.45" stop-color="#3b3b3b"/><stop offset="0.5" stop-color="#252525"/><stop offset="0.56" stop-color="#141414"/><stop offset="0.63" stop-color="#090909"/><stop offset="0.73" stop-color="#020202"/><stop offset="1"/></radialGradient><linearGradient id="linear-gradient" x1="281.13" y1="-32.38" x2="281.13" y2="174.23" gradientTransform="matrix(0.94, -0.34, 0.34, 0.94, -117.9, 335.01)" gradientUnits="userSpaceOnUse"><stop offset="0.01" stop-color="#6a140f"/><stop offset="0.16" stop-color="#a41f18"/><stop offset="0.29" stop-color="#d40023"/><stop offset="0.4" stop-color="#cd0222"/><stop offset="0.74" stop-color="#8c1a15"/><stop offset="1" stop-color="#a61f18"/></linearGradient><linearGradient id="linear-gradient-2" x1="1701.07" y1="484.41" x2="1701.07" y2="691.01" gradientTransform="matrix(-0.94, -0.34, -0.34, 0.94, 1898.9, 335.01)" xlink:href="#linear-gradient"/><linearGradient id="linear-gradient-3" x1="141.39" y1="273.35" x2="141.39" y2="7.55" gradientTransform="translate(268.46 -13.07) rotate(84.81)" gradientUnits="userSpaceOnUse"><stop offset="0" stop-color="#a3713b"/><stop offset="0.16" stop-color="#fdf496"/><stop offset="0.22" stop-color="#fff78f"/><stop offset="0.46" stop-color="#c29c57"/><stop offset="0.57" stop-color="#f5e78a"/><stop offset="0.67" stop-color="#fef593"/><stop offset="0.72" stop-color="#ebd983"/><stop offset="0.84" stop-color="#cfb266"/><stop offset="1" stop-color="#a3713b"/></linearGradient><linearGradient id="linear-gradient-4" x1="2.78" y1="140.45" x2="280" y2="140.45" gradientUnits="userSpaceOnUse"><stop offset="0" stop-color="#d8b56d"/><stop offset="0.1" stop-color="#fae397"/><stop offset="0.24" stop-color="#e4cf76"/><stop offset="0.37" stop-color="#ac8953"/><stop offset="0.62" stop-color="#8d6e47"/><stop offset="0.81" stop-color="#d8b56d"/><stop offset="0.95" stop-color="#c1a360"/></linearGradient><linearGradient id="linear-gradient-5" x1="211.46" y1="70.37" x2="71.31" y2="210.52" gradientTransform="translate(257.51 -21.52) rotate(80.83)" gradientUnits="userSpaceOnUse"><stop offset="0" stop-color="#a3713b"/><stop offset="0.22" stop-color="#fdf496"/><stop offset="0.28" stop-color="#fff78f"/><stop offset="0.48" stop-color="#c29c57"/><stop offset="0.74" stop-color="#cfb266"/><stop offset="1" stop-color="#a3713b"/></linearGradient><linearGradient id="linear-gradient-6" x1="227.23" y1="190.01" x2="55.55" y2="90.89" gradientTransform="matrix(1, 0, 0, 1, 0, 0)" xlink:href="#linear-gradient-5"/><linearGradient id="linear-gradient-7" x1="39.43" y1="140.45" x2="243.35" y2="140.45" gradientUnits="userSpaceOnUse"><stop offset="0" stop-color="#d8b56d"/><stop offset="0.1" stop-color="#fae397"/><stop offset="0.16" stop-color="#ffffda"/><stop offset="0.21" stop-color="#fff78f"/><stop offset="0.33" stop-color="#e4cf76"/><stop offset="0.48" stop-color="#ac8953"/><stop offset="0.62" stop-color="#8d6e47"/><stop offset="0.73" stop-color="#d8b56d"/><stop offset="0.84" stop-color="#fceb94"/><stop offset="0.88" stop-color="#ffffd1"/><stop offset="0.95" stop-color="#c1a360"/></linearGradient><filter id="luminosity-noclip-21" x="181.03" y="112.06" width="30.35" height="27.42" filterUnits="userSpaceOnUse" color-interpolation-filters="sRGB"><feFlood flood-color="#fff" result="bg"/><feBlend in="SourceGraphic" in2="bg"/></filter><mask id="mask-21" x="181.03" y="112.06" width="30.35" height="27.42" maskUnits="userSpaceOnUse"><g class="cls-1"><path class="cls-2" d="M204.86,137c6.88-4.31,8.59-12.86,3.81-19.07s-14.24-7.77-21.12-3.45-8.59,12.85-3.82,19.08S198,141.36,204.86,137Z"/></g></mask><radialGradient id="radial-gradient-21" cx="-1055.37" cy="-404.95" r="28.18" gradientTransform="matrix(0.31, 0.4, 0.44, -0.28, 699.28, 435.35)" gradientUnits="userSpaceOnUse"><stop offset="0" stop-color="#3ac8ff"/><stop offset="0.18" stop-color="#3cc9ff"/><stop offset="0.25" stop-color="#43cbff"/><stop offset="0.3" stop-color="#4fd0ff"/><stop offset="0.34" stop-color="#60d7ff"/><stop offset="0.38" stop-color="#76e0ff"/><stop offset="0.41" stop-color="#92ebff"/><stop offset="0.43" stop-color="#b2f7ff"/><stop offset="0.45" stop-color="#c6ffff"/><stop offset="0.45" stop-color="#c4ffff"/><stop offset="0.46" stop-color="#bdffff"/><stop offset="0.46" stop-color="#b2ffff"/><stop offset="0.46" stop-color="#a1ffff"/><stop offset="0.46" stop-color="#8bffff"/><stop offset="0.46" stop-color="#70ffff"/><stop offset="0.46" stop-color="#68ffff"/><stop offset="0.57" stop-color="#58dbff"/><stop offset="0.69" stop-color="#48b8ff"/><stop offset="0.81" stop-color="#3c9fff"/><stop offset="0.91" stop-color="#3590ff"/><stop offset="1" stop-color="#338bff"/></radialGradient><filter id="luminosity-noclip-23" x="158.25" y="92.08" width="74.37" height="67.19" filterUnits="userSpaceOnUse" color-interpolation-filters="sRGB"><feFlood flood-color="#fff" result="bg"/><feBlend in="SourceGraphic" in2="bg"/></filter><mask id="mask-23" x="158.25" y="92.08" width="74.37" height="67.19" maskUnits="userSpaceOnUse"><g class="cls-30"><path class="cls-31" d="M216.64,153.26c16.87-10.57,21.05-31.51,9.35-46.74s-34.87-19-51.75-8.45-21.06,31.5-9.35,46.75S199.77,163.84,216.64,153.26Z"/></g></mask><radialGradient id="radial-gradient-22" cx="-1056.35" cy="-405.99" r="69.05" gradientTransform="matrix(0.31, 0.4, 0.44, -0.28, 699.28, 435.35)" gradientUnits="userSpaceOnUse"><stop offset="0" stop-color="#fff"/><stop offset="0.04" stop-color="#fff4e1"/><stop offset="0.12" stop-color="#ffd893"/><stop offset="0.25" stop-color="#ffab18"/><stop offset="0.27" stop-color="#ffa200"/><stop offset="0.32" stop-color="#ffb800"/><stop offset="0.37" stop-color="#ffc900"/><stop offset="0.44" stop-color="#ffd400"/><stop offset="0.53" stop-color="#ffdb00"/><stop offset="0.8" stop-color="#fd0"/><stop offset="0.82" stop-color="#f0d000"/><stop offset="0.86" stop-color="#caaf00"/><stop offset="0.9" stop-color="#8b7800"/><stop offset="0.96" stop-color="#362f00"/><stop offset="1"/></radialGradient><filter id="luminosity-noclip-26" x="151.83" y="112.04" width="86.98" height="28.02" filterUnits="userSpaceOnUse" color-interpolation-filters="sRGB"><feFlood flood-color="#fff" result="bg"/><feBlend in="SourceGraphic" in2="bg"/></filter><mask id="mask-26" x="151.83" y="112.04" width="86.98" height="28.02" maskUnits="userSpaceOnUse"><g class="cls-3"><path class="cls-4" d="M234.15,136.86c10.82,4.93,2.15,4.06-19.28-1.91s-47.59-14.78-58.41-19.71-2.14-4.07,19.29,1.91S223.34,132,234.15,136.86Z"/></g></mask><radialGradient id="radial-gradient-23" cx="1045.26" cy="414.85" r="17.12" gradientTransform="matrix(2.27, 0.63, 1.14, 0.52, -2650.3, -750.28)" gradientUnits="userSpaceOnUse"><stop offset="0" stop-color="#ff0"/><stop offset="0.1" stop-color="#fdbf00"/><stop offset="0.18" stop-color="#fc9400"/><stop offset="0.22" stop-color="#fc8300"/><stop offset="0.23" stop-color="#ef7d02"/><stop offset="0.31" stop-color="#bf6709"/><stop offset="0.38" stop-color="#95540f"/><stop offset="0.46" stop-color="#724314"/><stop offset="0.55" stop-color="#553619"/><stop offset="0.64" stop-color="#3f2c1c"/><stop offset="0.73" stop-color="#2f251e"/><stop offset="0.85" stop-color="#262020"/><stop offset="1" stop-color="#231f20"/></radialGradient><filter id="luminosity-noclip-29" x="165.23" y="80.56" width="60.18" height="90.99" filterUnits="userSpaceOnUse" color-interpolation-filters="sRGB"><feFlood flood-color="#fff" result="bg"/><feBlend in="SourceGraphic" in2="bg"/></filter><mask id="mask-29" x="165.23" y="80.56" width="60.18" height="90.99" maskUnits="userSpaceOnUse"><g class="cls-8"><path class="cls-9" d="M223.77,164.88c5.4,13.1-3,6.27-18.67-15.16s-32.84-49.41-38.26-62.51,3-6.28,18.68,15.17S218.35,151.8,223.77,164.88Z"/></g></mask><radialGradient id="radial-gradient-24" cx="205.39" cy="2301.97" r="17.12" gradientTransform="matrix(1.66, 2.27, 0.57, 1.38, -1461.2, -3523.23)" gradientUnits="userSpaceOnUse"><stop offset="0" stop-color="#ff0"/><stop offset="0.19" stop-color="#fdbf00"/><stop offset="0.34" stop-color="#fc9400"/><stop offset="0.41" stop-color="#fc8300"/><stop offset="0.43" stop-color="#ef7d02"/><stop offset="0.48" stop-color="#bf6709"/><stop offset="0.54" stop-color="#95540f"/><stop offset="0.6" stop-color="#724314"/><stop offset="0.66" stop-color="#553619"/><stop offset="0.73" stop-color="#3f2c1c"/><stop offset="0.8" stop-color="#2f251e"/><stop offset="0.88" stop-color="#262020"/><stop offset="1" stop-color="#231f20"/></radialGradient><filter id="luminosity-noclip-32" x="182.13" y="74.61" width="26.39" height="102.89" filterUnits="userSpaceOnUse" color-interpolation-filters="sRGB"><feFlood flood-color="#fff" result="bg"/><feBlend in="SourceGraphic" in2="bg"/></filter><mask id="mask-32" x="182.13" y="74.61" width="26.39" height="102.89" maskUnits="userSpaceOnUse"><g class="cls-15"><path class="cls-16" d="M185.11,171.65c-4.63,13.16-3.77,3.35,1.86-21.83s13.94-56.23,18.56-69.4,3.78-3.33-1.86,21.84S189.72,158.51,185.11,171.65Z"/></g></mask><radialGradient id="radial-gradient-25" cx="-1785.62" cy="6485.18" r="17.12" gradientTransform="matrix(-0.6, 2.66, -0.49, 1.39, 2293.14, -4123.11)" xlink:href="#radial-gradient-23"/><filter id="luminosity-noclip-35" x="139.08" y="95.25" width="112.86" height="61.63" filterUnits="userSpaceOnUse" color-interpolation-filters="sRGB"><feFlood flood-color="#fff" result="bg"/><feBlend in="SourceGraphic" in2="bg"/></filter><mask id="mask-35" x="139.08" y="95.25" width="112.86" height="61.63" maskUnits="userSpaceOnUse"><g class="cls-20"><path class="cls-21" d="M244,97.26c16-6,7.19,2-19.56,17.87S163,148.84,147,154.9s-7.18-2,19.58-17.91S228,103.29,244,97.26Z"/></g></mask><radialGradient id="radial-gradient-26" cx="2189.17" cy="-1155.48" r="12.44" gradientTransform="matrix(3.9, -2.32, 2.32, -0.88, -5651.28, 4182.73)" xlink:href="#radial-gradient-23"/><filter id="luminosity-noclip-38" x="180.05" y="111.13" width="31.46" height="28.41" filterUnits="userSpaceOnUse" color-interpolation-filters="sRGB"><feFlood flood-color="#fff" result="bg"/><feBlend in="SourceGraphic" in2="bg"/></filter><mask id="mask-38" x="180.05" y="111.13" width="31.46" height="28.41" maskUnits="userSpaceOnUse"><g class="cls-25"><path class="cls-26" d="M182.9,116.79c5-6.25,14.81-7.53,21.92-2.81s8.81,13.61,3.84,19.87-14.81,7.55-21.91,2.82S177.91,123.06,182.9,116.79Z"/></g></mask><radialGradient id="radial-gradient-27" cx="3002.02" cy="-281.47" r="23.22" gradientTransform="matrix(-0.55, -0.37, 0.39, -0.49, 1969.95, 1090.71)" gradientUnits="userSpaceOnUse"><stop offset="0" stop-color="#fff"/><stop offset="0.12" stop-color="#fffefd"/><stop offset="0.16" stop-color="#fffaf6"/><stop offset="0.2" stop-color="#fff3eb"/><stop offset="0.22" stop-color="#ffe9da"/><stop offset="0.24" stop-color="#ffdbc4"/><stop offset="0.26" stop-color="#ffcba8"/><stop offset="0.28" stop-color="#ffb788"/><stop offset="0.29" stop-color="#ffa162"/><stop offset="0.31" stop-color="#ff8839"/><stop offset="0.31" stop-color="#ff7c25"/><stop offset="0.35" stop-color="#d5681f"/><stop offset="0.38" stop-color="#a95218"/><stop offset="0.42" stop-color="#803e13"/><stop offset="0.47" stop-color="#5d2d0e"/><stop offset="0.52" stop-color="#401f09"/><stop offset="0.57" stop-color="#291406"/><stop offset="0.63" stop-color="#160b03"/><stop offset="0.7" stop-color="#0a0501"/><stop offset="0.8" stop-color="#020100"/><stop offset="1"/></radialGradient></defs><title>badgeRajztábla 8 másolat</title><g class="cls-35"><g id="Réteg_1" data-name="Réteg 1"><polygon class="cls-36" points="250.97 386.16 200 386.49 160.75 419 90.09 224.86 180.31 192.02 250.97 386.16"/><polygon class="cls-37" points="163.89 198.23 233.33 386.28 235.82 386.26 166.09 197.42 163.89 198.23"/><polygon class="cls-37" points="102.79 221.73 172.15 409.56 174.06 407.98 104.98 220.92 102.79 221.73"/><g class="cls-38"><polygon class="cls-39" points="181.71 195.88 155.66 200.99 150.24 202.96 182.02 196.73 181.71 195.88"/><polygon class="cls-39" points="115.67 215.55 110.04 217.59 91.16 227.81 91.47 228.65 115.67 215.55"/><polygon class="cls-39" points="93.37 233.87 93.68 234.71 134.68 212.52 184.23 202.8 183.92 201.95 134.44 211.66 93.37 233.87"/><polygon class="cls-39" points="95.58 239.94 95.88 240.78 136.87 218.6 186.44 208.87 186.13 208.02 136.63 217.74 95.58 239.94"/><polygon class="cls-39" points="97.79 246.01 98.09 246.85 139.07 224.67 188.65 214.94 188.34 214.09 138.83 223.81 97.79 246.01"/><polygon class="cls-39" points="100 252.08 100.3 252.91 141.26 230.75 190.86 221.01 190.55 220.16 141.02 229.88 100 252.08"/><polygon class="cls-39" points="102.2 258.14 102.51 258.98 143.46 236.82 193.07 227.09 192.76 226.24 143.22 235.96 102.2 258.14"/><polygon class="cls-39" points="104.41 264.21 104.72 265.05 145.65 242.9 195.28 233.16 194.97 232.31 145.41 242.03 104.41 264.21"/><polygon class="cls-39" points="106.62 270.28 106.93 271.12 147.85 248.97 197.49 239.23 197.18 238.38 147.61 248.11 106.62 270.28"/><polygon class="cls-39" points="108.83 276.35 109.14 277.18 150.04 255.04 199.7 245.3 199.39 244.45 149.81 254.18 108.83 276.35"/><polygon class="cls-39" points="111.04 282.41 111.34 283.25 152.24 261.12 201.91 251.37 201.6 250.52 152 260.26 111.04 282.41"/><polygon class="cls-39" points="113.25 288.48 113.55 289.32 154.43 267.19 204.12 257.44 203.81 256.6 154.19 266.33 113.25 288.48"/><polygon class="cls-39" points="115.45 294.55 115.76 295.39 156.63 273.27 206.33 263.51 206.02 262.67 156.39 272.4 115.45 294.55"/><polygon class="cls-39" points="117.66 300.62 117.97 301.45 158.82 279.34 208.54 269.59 208.23 268.74 158.59 278.48 117.66 300.62"/><polygon class="cls-39" points="119.87 306.68 120.18 307.52 161.02 285.42 210.75 275.66 210.44 274.81 160.78 284.55 119.87 306.68"/><polygon class="cls-39" points="122.08 312.75 122.38 313.59 163.22 291.49 212.96 281.73 212.65 280.88 162.98 290.63 122.08 312.75"/><polygon class="cls-39" points="124.29 318.82 124.59 319.66 165.41 297.57 215.17 287.8 214.86 286.95 165.17 296.7 124.29 318.82"/><polygon class="cls-39" points="126.5 324.89 126.8 325.72 167.61 303.64 217.38 293.87 217.07 293.02 167.37 302.78 126.5 324.89"/><polygon class="cls-39" points="128.71 330.95 129.01 331.79 169.8 309.71 219.59 299.94 219.28 299.1 169.56 308.85 128.71 330.95"/><polygon class="cls-39" points="130.91 337.02 131.22 337.86 172 315.79 221.8 306.01 221.49 305.17 171.76 314.93 130.91 337.02"/><polygon class="cls-39" points="133.12 343.09 133.43 343.93 174.19 321.86 224.01 312.09 223.7 311.24 173.96 321 133.12 343.09"/><polygon class="cls-39" points="135.33 349.16 135.63 349.99 176.39 327.94 226.22 318.16 225.91 317.31 176.15 327.07 135.33 349.16"/><polygon class="cls-39" points="137.54 355.22 137.84 356.06 178.58 334.01 228.43 324.23 228.12 323.38 178.35 333.15 137.54 355.22"/><polygon class="cls-39" points="139.75 361.29 140.05 362.13 180.78 340.09 230.64 330.3 230.33 329.45 180.54 339.22 139.75 361.29"/><polygon class="cls-39" points="141.96 367.36 142.26 368.2 182.97 346.16 232.85 336.38 232.54 335.52 182.74 345.3 141.96 367.36"/><polygon class="cls-39" points="144.16 373.43 144.47 374.26 185.17 352.24 235.06 342.45 234.75 341.6 184.93 351.37 144.16 373.43"/><polygon class="cls-39" points="146.37 379.49 146.68 380.33 187.37 358.31 237.27 348.52 236.96 347.67 187.13 357.45 146.37 379.49"/><polygon class="cls-39" points="148.58 385.56 148.88 386.4 189.56 364.38 239.48 354.59 239.17 353.74 189.32 363.52 148.58 385.56"/><polygon class="cls-39" points="150.79 391.63 151.09 392.47 191.75 370.46 241.69 360.66 241.38 359.81 191.52 369.6 150.79 391.63"/><polygon class="cls-39" points="153 397.69 153.3 398.53 193.95 376.53 243.9 366.73 243.59 365.88 193.71 375.67 153 397.69"/><polygon class="cls-39" points="155.21 403.76 155.51 404.6 196.15 382.61 246.11 372.8 245.8 371.95 195.91 381.75 155.21 403.76"/><polygon class="cls-39" points="157.41 409.83 157.72 410.67 195.51 390.21 198.5 387.74 198.1 387.82 157.41 409.83"/><polygon class="cls-39" points="209.82 386.43 248.32 378.88 248.01 378.03 205.02 386.46 209.82 386.43"/><polygon class="cls-39" points="244.11 386.21 250.53 384.95 250.22 384.1 239.31 386.24 244.11 386.21"/><polygon class="cls-39" points="159.93 416.74 170.2 411.18 173.68 408.29 159.62 415.9 159.93 416.74"/></g><polygon class="cls-40" points="18.97 386.16 69.94 386.49 109.19 419 179.85 224.86 89.63 192.02 18.97 386.16"/><polygon class="cls-37" points="100.73 196.75 30.77 386.24 33.25 386.26 102.93 197.56 100.73 196.75"/><polygon class="cls-37" points="165.56 219.66 95.99 408.07 97.9 409.65 167.76 220.46 165.56 219.66"/><g class="cls-38"><polygon class="cls-39" points="114.28 200.99 88.23 195.88 87.92 196.73 119.69 202.96 114.28 200.99"/><polygon class="cls-39" points="154.27 215.55 178.47 228.65 178.78 227.81 159.9 217.6 154.27 215.55"/><polygon class="cls-39" points="86.02 201.95 85.71 202.8 135.26 212.52 176.26 234.71 176.57 233.87 135.5 211.66 86.02 201.95"/><polygon class="cls-39" points="83.81 208.02 83.5 208.87 133.07 218.6 174.06 240.78 174.36 239.94 133.31 217.74 83.81 208.02"/><polygon class="cls-39" points="81.6 214.09 81.29 214.94 130.87 224.67 171.85 246.85 172.15 246.01 131.11 223.81 81.6 214.09"/><polygon class="cls-39" points="79.39 220.16 79.08 221.01 128.68 230.75 169.64 252.91 169.94 252.08 128.92 229.88 79.39 220.16"/><polygon class="cls-39" points="77.18 226.24 76.87 227.09 126.48 236.82 167.43 258.98 167.73 258.14 126.72 235.96 77.18 226.24"/><polygon class="cls-39" points="74.97 232.31 74.66 233.16 124.29 242.9 165.22 265.05 165.53 264.21 124.53 242.03 74.97 232.31"/><polygon class="cls-39" points="72.76 238.38 72.45 239.23 122.09 248.97 163.01 271.12 163.32 270.28 122.33 248.11 72.76 238.38"/><polygon class="cls-39" points="70.55 244.45 70.24 245.3 119.9 255.04 160.8 277.18 161.11 276.35 120.14 254.18 70.55 244.45"/><polygon class="cls-39" points="68.34 250.52 68.03 251.37 117.7 261.12 158.6 283.25 158.9 282.41 117.94 260.26 68.34 250.52"/><polygon class="cls-39" points="66.13 256.6 65.82 257.44 115.51 267.19 156.39 289.32 156.69 288.48 115.74 266.33 66.13 256.6"/><polygon class="cls-39" points="63.92 262.67 63.61 263.51 113.31 273.27 154.18 295.39 154.49 294.55 113.55 272.4 63.92 262.67"/><polygon class="cls-39" points="61.71 268.74 61.4 269.59 111.11 279.34 151.97 301.45 152.28 300.62 111.35 278.48 61.71 268.74"/><polygon class="cls-39" points="59.5 274.81 59.19 275.66 108.92 285.42 149.76 307.52 150.07 306.68 109.16 284.55 59.5 274.81"/><polygon class="cls-39" points="57.29 280.88 56.98 281.73 106.72 291.49 147.56 313.59 147.86 312.75 106.96 290.63 57.29 280.88"/><polygon class="cls-39" points="55.08 286.95 54.77 287.8 104.53 297.57 145.35 319.66 145.65 318.82 104.77 296.7 55.08 286.95"/><polygon class="cls-39" points="52.87 293.02 52.56 293.87 102.33 303.64 143.14 325.72 143.44 324.89 102.57 302.78 52.87 293.02"/><polygon class="cls-39" points="50.66 299.1 50.35 299.94 100.14 309.71 140.93 331.79 141.23 330.95 100.38 308.85 50.66 299.1"/><polygon class="cls-39" points="48.45 305.17 48.14 306.01 97.94 315.79 138.72 337.86 139.03 337.02 98.18 314.93 48.45 305.17"/><polygon class="cls-39" points="46.24 311.24 45.93 312.09 95.75 321.86 136.51 343.93 136.82 343.09 95.98 321 46.24 311.24"/><polygon class="cls-39" points="44.03 317.31 43.72 318.16 93.55 327.94 134.3 349.99 134.61 349.16 93.79 327.07 44.03 317.31"/><polygon class="cls-39" points="41.82 323.38 41.51 324.23 91.36 334.01 132.1 356.06 132.4 355.22 91.59 333.15 41.82 323.38"/><polygon class="cls-39" points="39.61 329.45 39.3 330.3 89.16 340.09 129.89 362.13 130.19 361.29 89.4 339.22 39.61 329.45"/><polygon class="cls-39" points="37.4 335.52 37.09 336.38 86.97 346.16 127.68 368.2 127.98 367.36 87.2 345.3 37.4 335.52"/><polygon class="cls-39" points="35.19 341.6 34.88 342.45 84.77 352.24 125.47 374.26 125.78 373.43 85.01 351.37 35.19 341.6"/><polygon class="cls-39" points="32.98 347.67 32.67 348.52 82.58 358.31 123.26 380.33 123.57 379.49 82.81 357.45 32.98 347.67"/><polygon class="cls-39" points="30.77 353.74 30.46 354.59 80.38 364.38 121.05 386.4 121.36 385.56 80.62 363.52 30.77 353.74"/><polygon class="cls-39" points="28.56 359.81 28.25 360.66 78.18 370.46 118.84 392.47 119.15 391.63 78.42 369.6 28.56 359.81"/><polygon class="cls-39" points="26.35 365.88 26.04 366.73 75.99 376.53 116.64 398.53 116.94 397.69 76.23 375.67 26.35 365.88"/><polygon class="cls-39" points="24.14 371.95 23.83 372.8 73.79 382.61 114.43 404.6 114.73 403.76 74.03 381.75 24.14 371.95"/><polygon class="cls-39" points="71.44 387.74 74.42 390.21 112.22 410.67 112.53 409.83 71.83 387.82 71.44 387.74"/><polygon class="cls-39" points="21.62 378.88 60.12 386.43 64.92 386.46 21.93 378.03 21.62 378.88"/><polygon class="cls-39" points="19.41 384.95 25.83 386.21 30.63 386.24 19.72 384.1 19.41 384.95"/><polygon class="cls-39" points="99.74 411.18 110.01 416.74 110.32 415.9 96.26 408.29 99.74 411.18"/></g><circle class="cls-41" cx="141.39" cy="140.45" r="132.9" transform="translate(-11.29 268.54) rotate(-84.81)"/><path class="cls-42" d="M141.39,10.41c71.7,0,130,58.34,130,130s-58.34,130-130,130-130-58.34-130-130,58.34-130,130-130Zm0-5.71A135.75,135.75,0,1,0,277.14,140.45,135.74,135.74,0,0,0,141.39,4.7Z"/><g class="cls-43"><path class="cls-44" d="M139.76,260.13A117.06,117.06,0,1,1,256.81,143.07,117.2,117.2,0,0,1,139.76,260.13Zm0-231.41A114.35,114.35,0,1,0,254.1,143.07,114.47,114.47,0,0,0,139.76,28.72Z"/><path class="cls-44" d="M146.29,40.26s-12.35.07-12.83-13.45C133.4,25,145.81,27,146.29,40.26Z"/><path class="cls-44" d="M147.85,13.66S135.62,12,133.37,25.3C133.06,27.09,145.62,26.79,147.85,13.66Z"/><path class="cls-44" d="M134.92,244.18s12.35-.08,12.83,13.44C147.81,259.44,135.4,257.48,134.92,244.18Z"/><path class="cls-44" d="M133.36,270.77s12.23,1.7,14.48-11.64C148.15,257.34,135.59,257.65,133.36,270.77Z"/><path class="cls-44" d="M132.93,40.39s-12.23,1.68-14.47-11.66C118.16,26.94,130.72,27.26,132.93,40.39Z"/><path class="cls-44" d="M131,13.82s-12.35-.09-12.84,13.43C118.1,29.06,130.51,27.12,131,13.82Z"/><path class="cls-44" d="M148.28,244.05s12.23-1.69,14.47,11.65C163.05,257.49,150.49,257.17,148.28,244.05Z"/><path class="cls-44" d="M150.2,270.62s12.35.09,12.84-13.44C163.11,255.37,150.7,257.31,150.2,270.62Z"/><path class="cls-44" d="M119.7,42.26s-11.9,3.27-15.86-9.67C103.3,30.86,115.8,29.53,119.7,42.26Z"/><path class="cls-44" d="M114.33,16.17s-12.25,1.52-11,15C103.53,33,115.58,29.42,114.33,16.17Z"/><path class="cls-44" d="M161.51,242.17s11.9-3.27,15.86,9.67C177.91,253.58,165.41,254.9,161.51,242.17Z"/><path class="cls-44" d="M166.88,268.27s12.25-1.53,11-15C177.69,251.47,165.63,255,166.88,268.27Z"/><path class="cls-44" d="M106.83,45.84s-11.37,4.8-17-7.51C89.09,36.68,101.3,33.74,106.83,45.84Z"/><path class="cls-44" d="M98.1,20.68S86.16,23.78,89.18,37C89.58,38.74,101.07,33.65,98.1,20.68Z"/><path class="cls-44" d="M174.38,238.59s11.37-4.8,17,7.52C192.12,247.75,179.91,250.7,174.38,238.59Z"/><path class="cls-44" d="M183.11,263.76s11.94-3.11,8.92-16.3C191.63,245.69,180.14,250.78,183.11,263.76Z"/><path class="cls-44" d="M94.54,51.08s-10.65,6.23-17.83-5.24C75.75,44.31,87.48,39.79,94.54,51.08Z"/><path class="cls-44" d="M82.6,27.26S71.16,31.9,75.88,44.59C76.51,46.29,87.24,39.74,82.6,27.26Z"/><path class="cls-44" d="M186.67,233.36s10.65-6.24,17.82,5.23C205.46,240.13,193.73,244.64,186.67,233.36Z"/><path class="cls-44" d="M198.61,257.17s11.44-4.64,6.72-17.32C204.7,238.15,194,244.69,198.61,257.17Z"/><path class="cls-44" d="M83,57.87S73.3,65.44,64.68,55C63.53,53.61,74.56,47.61,83,57.87Z"/><path class="cls-44" d="M68.09,35.82s-10.73,6.09-4.4,18C64.54,55.47,74.32,47.58,68.09,35.82Z"/><path class="cls-44" d="M198.17,226.57s9.74-7.58,18.36,2.86C217.68,230.83,206.65,236.83,198.17,226.57Z"/><path class="cls-44" d="M213.12,248.62s10.73-6.1,4.4-18.06C216.67,229,206.89,236.85,213.12,248.62Z"/><path class="cls-44" d="M72.52,66.1S63.85,74.89,54,65.66C52.62,64.43,62.78,57,72.52,66.1Z"/><path class="cls-44" d="M54.83,46.19s-9.85,7.45-2,18.48C53.87,66.14,62.53,57.05,54.83,46.19Z"/><path class="cls-44" d="M208.69,218.33s8.67-8.78,18.57.44C228.59,220,218.43,227.4,208.69,218.33Z"/><path class="cls-44" d="M226.39,238.24s9.84-7.44,2-18.47C227.34,218.29,218.68,227.39,226.39,238.24Z"/><path class="cls-44" d="M63.17,75.64s-7.45,9.84-18.47,2C43.22,76.58,52.33,67.92,63.17,75.64Z"/><path class="cls-44" d="M43,58.21s-8.8,8.67.42,18.58C44.68,78.12,52.08,68,43,58.21Z"/><path class="cls-44" d="M218,208.79s7.45-9.84,18.47-2C238,207.86,228.88,216.51,218,208.79Z"/><path class="cls-44" d="M238.18,226.22s8.8-8.66-.42-18.57C236.53,206.32,229.13,216.47,238.18,226.22Z"/><path class="cls-44" d="M55.14,86.32S49,97,37.09,90.7C35.49,89.85,43.39,80.08,55.14,86.32Z"/><path class="cls-44" d="M32.9,71.67S25.31,81.4,35.74,90C37.13,91.18,43.15,80.16,32.9,71.67Z"/><path class="cls-44" d="M226.07,198.12s6.1-10.73,18.05-4.39C245.72,194.58,237.83,204.35,226.07,198.12Z"/><path class="cls-44" d="M248.31,212.77s7.59-9.74-2.84-18.37C244.08,193.25,238.06,204.28,248.31,212.77Z"/><path class="cls-44" d="M48.58,98s-4.65,11.43-17.33,6.7C29.55,104,36.11,93.3,48.58,98Z"/><path class="cls-44" d="M24.61,86.33S18.36,97,29.82,104.16C31.36,105.13,35.88,93.41,24.61,86.33Z"/><path class="cls-44" d="M232.63,186.48s4.65-11.43,17.33-6.7C251.66,180.42,245.1,191.13,232.63,186.48Z"/><path class="cls-44" d="M256.6,198.11s6.25-10.65-5.21-17.84C249.85,179.31,245.33,191,256.6,198.11Z"/><path class="cls-44" d="M43.59,110.34s-3.12,11.94-16.31,8.91C25.52,118.84,30.62,107.36,43.59,110.34Z"/><path class="cls-44" d="M18.31,102s-4.81,11.37,7.49,17C27.45,119.7,30.41,107.49,18.31,102Z"/><path class="cls-44" d="M237.62,174.09s3.12-11.94,16.31-8.9C255.7,165.59,250.59,177.07,237.62,174.09Z"/><path class="cls-44" d="M262.9,182.49s4.81-11.37-7.49-17C253.76,164.73,250.8,176.94,262.9,182.49Z"/><path class="cls-44" d="M40.26,123.28s-1.54,12.24-15,11C23.45,134.06,27,122,40.26,123.28Z"/><path class="cls-44" d="M14.1,118.26s-3.29,11.89,9.65,15.87C25.48,134.67,26.82,122.17,14.1,118.26Z"/><path class="cls-44" d="M241,161.16s1.54-12.25,15-11C257.76,150.37,254.2,162.42,241,161.16Z"/><path class="cls-44" d="M267.11,166.18s3.29-11.9-9.65-15.88C255.73,149.77,254.39,162.26,267.11,166.18Z"/><path class="cls-44" d="M38.64,136.54s.08,12.34-13.44,12.82C23.39,149.42,25.34,137,38.64,136.54Z"/><path class="cls-44" d="M12.05,135s-1.7,12.23,11.64,14.49C25.48,149.76,25.17,137.2,12.05,135Z"/><path class="cls-44" d="M242.57,147.9s-.08-12.35,13.44-12.83C257.82,135,255.87,147.42,242.57,147.9Z"/><path class="cls-44" d="M269.16,149.46s1.7-12.23-11.64-14.48C255.73,134.68,256,147.24,269.16,149.46Z"/><path class="cls-44" d="M38.77,149.89s1.69,12.23-11.65,14.47C25.33,164.66,25.65,152.1,38.77,149.89Z"/><path class="cls-44" d="M12.2,151.81s-.09,12.35,13.44,12.84C27.45,164.72,25.51,152.31,12.2,151.81Z"/><path class="cls-44" d="M242.44,134.54s-1.69-12.23,11.65-14.47C255.88,119.77,255.56,132.33,242.44,134.54Z"/><path class="cls-44" d="M269,132.62s.1-12.34-13.43-12.84C253.76,119.71,255.7,132.13,269,132.62Z"/><path class="cls-44" d="M40.65,163.12S43.92,175,31,179C29.25,179.52,27.92,167,40.65,163.12Z"/><path class="cls-44" d="M14.56,168.49s1.52,12.25,15,11C31.35,179.3,27.81,167.24,14.56,168.49Z"/><path class="cls-44" d="M240.56,121.31s-3.27-11.9,9.67-15.86C252,104.92,253.29,117.41,240.56,121.31Z"/><path class="cls-44" d="M266.65,115.94s-1.52-12.25-15-11C249.86,105.14,253.4,117.19,266.65,115.94Z"/><path class="cls-44" d="M44.23,176s4.8,11.37-7.51,17C35.07,193.73,32.12,181.52,44.23,176Z"/><path class="cls-44" d="M19.06,184.72s3.11,11.95,16.3,8.92C37.13,193.24,32,181.75,19.06,184.72Z"/><path class="cls-44" d="M237,108.45s-4.8-11.38,7.51-17C246.14,90.7,249.09,102.91,237,108.45Z"/><path class="cls-44" d="M262.15,99.71s-3.11-11.94-16.3-8.92C244.08,91.19,249.17,102.68,262.15,99.71Z"/><path class="cls-44" d="M49.46,188.28s6.24,10.65-5.23,17.83C42.69,207.07,38.18,195.34,49.46,188.28Z"/><path class="cls-44" d="M25.65,200.22s4.64,11.44,17.33,6.72C44.67,206.31,38.13,195.59,25.65,200.22Z"/><path class="cls-44" d="M231.75,96.16S225.51,85.51,237,78.33C238.52,77.37,243,89.09,231.75,96.16Z"/><path class="cls-44" d="M255.56,84.21s-4.64-11.44-17.33-6.72C236.54,78.12,243.08,88.85,255.56,84.21Z"/><path class="cls-44" d="M56.25,199.78s7.58,9.74-2.86,18.36C52,219.29,46,208.26,56.25,199.78Z"/><path class="cls-44" d="M34.21,214.73s6.09,10.73,18,4.4C53.86,218.28,46,208.5,34.21,214.73Z"/><path class="cls-44" d="M225,84.65s-7.57-9.74,2.87-18.36C229.21,65.14,235.22,76.18,225,84.65Z"/><path class="cls-44" d="M247,69.7S240.91,59,229,65.3C227.35,66.15,235.24,75.93,247,69.7Z"/><path class="cls-44" d="M64.49,210.3s8.78,8.67-.44,18.57C62.82,230.2,55.42,220,64.49,210.3Z"/><path class="cls-44" d="M44.58,228s7.44,9.84,18.47,2C64.53,229,55.43,220.29,44.58,228Z"/><path class="cls-44" d="M216.72,74.14s-8.78-8.68.44-18.58C218.39,54.23,225.79,64.39,216.72,74.14Z"/><path class="cls-44" d="M236.63,56.44s-7.44-9.85-18.47-2C216.68,55.48,225.78,64.14,236.63,56.44Z"/><path class="cls-44" d="M74,219.65s9.84,7.45,2,18.47C75,239.6,66.31,230.5,74,219.65Z"/><path class="cls-44" d="M56.6,239.8s8.66,8.79,18.58-.42C76.5,238.14,66.35,230.74,56.6,239.8Z"/><path class="cls-44" d="M207.18,64.78s-9.84-7.45-2-18.47C206.24,44.83,214.9,53.94,207.18,64.78Z"/><path class="cls-44" d="M224.61,44.64S216,35.85,206,45.06C204.71,46.29,214.86,53.7,224.61,44.64Z"/><path class="cls-44" d="M84.7,227.68s10.73,6.1,4.39,18C88.24,247.34,78.47,239.44,84.7,227.68Z"/><path class="cls-44" d="M70.05,249.93s9.74,7.58,18.37-2.84C89.57,245.69,78.54,239.67,70.05,249.93Z"/><path class="cls-44" d="M196.51,56.76s-10.73-6.11-4.39-18.06C193,37.1,202.74,45,196.51,56.76Z"/><path class="cls-44" d="M211.16,34.51s-9.74-7.59-18.37,2.84C191.64,38.75,202.67,44.76,211.16,34.51Z"/><path class="cls-44" d="M96.34,234.24s11.43,4.65,6.7,17.33C102.41,253.27,91.69,246.72,96.34,234.24Z"/><path class="cls-44" d="M84.72,258.21s10.64,6.25,17.83-5.21C103.51,251.46,91.79,246.94,84.72,258.21Z"/><path class="cls-44" d="M184.87,50.19s-11.43-4.65-6.7-17.33C178.8,31.16,189.52,37.72,184.87,50.19Z"/><path class="cls-44" d="M196.49,26.22S185.85,20,178.66,31.43C177.7,33,189.41,37.49,196.49,26.22Z"/><path class="cls-44" d="M108.73,239.23s11.94,3.12,8.91,16.31C117.23,257.31,105.75,252.21,108.73,239.23Z"/><path class="cls-44" d="M100.34,264.52s11.36,4.8,17-7.5C118.09,255.37,105.88,252.42,100.34,264.52Z"/><path class="cls-44" d="M172.48,45.2s-11.94-3.12-8.91-16.31C164,27.13,175.46,32.23,172.48,45.2Z"/><path class="cls-44" d="M180.87,19.92s-11.36-4.81-17,7.5C163.12,29.06,175.33,32,180.87,19.92Z"/><path class="cls-44" d="M121.66,242.56s12.25,1.54,11,15C132.45,259.37,120.4,255.82,121.66,242.56Z"/><path class="cls-44" d="M116.64,268.73s11.9,3.28,15.88-9.66C133.05,257.34,120.56,256,116.64,268.73Z"/><path class="cls-44" d="M159.55,41.87s-12.25-1.53-11-15C148.76,25.06,160.81,28.62,159.55,41.87Z"/><path class="cls-44" d="M164.57,15.71s-11.9-3.28-15.88,9.65C148.16,27.09,160.65,28.43,164.57,15.71Z"/></g><g class="cls-45"><path class="cls-42" d="M139.76,258.82A117.07,117.07,0,1,1,256.81,141.76,117.2,117.2,0,0,1,139.76,258.82Zm0-231.41A114.35,114.35,0,1,0,254.1,141.76,114.47,114.47,0,0,0,139.76,27.41Z"/><path class="cls-42" d="M146.29,38.94S133.94,39,133.46,25.5C133.4,23.69,145.81,25.64,146.29,38.94Z"/><path class="cls-42" d="M147.85,12.35S135.62,10.65,133.37,24C133.06,25.78,145.62,25.47,147.85,12.35Z"/><path class="cls-42" d="M134.92,242.87s12.35-.08,12.83,13.44C147.81,258.12,135.4,256.17,134.92,242.87Z"/><path class="cls-42" d="M133.36,269.46s12.23,1.7,14.48-11.64C148.15,256,135.59,256.34,133.36,269.46Z"/><path class="cls-42" d="M132.93,39.07s-12.23,1.69-14.47-11.65C118.16,25.63,130.72,26,132.93,39.07Z"/><path class="cls-42" d="M131,12.51s-12.35-.1-12.84,13.43C118.1,27.75,130.51,25.81,131,12.51Z"/><path class="cls-42" d="M148.28,242.74s12.23-1.69,14.47,11.65C163.05,256.18,150.49,255.86,148.28,242.74Z"/><path class="cls-42" d="M150.2,269.31s12.35.09,12.84-13.44C163.11,254.06,150.7,256,150.2,269.31Z"/><path class="cls-42" d="M119.7,41s-11.9,3.27-15.86-9.67C103.3,29.55,115.8,28.22,119.7,41Z"/><path class="cls-42" d="M114.33,14.86s-12.25,1.52-11,15C103.53,31.65,115.58,28.11,114.33,14.86Z"/><path class="cls-42" d="M161.51,240.86s11.9-3.27,15.86,9.67C177.91,252.26,165.41,253.59,161.51,240.86Z"/><path class="cls-42" d="M166.88,267s12.25-1.52,11-15C177.69,250.16,165.63,253.7,166.88,267Z"/><path class="cls-42" d="M106.83,44.53s-11.37,4.8-17-7.51C89.09,35.37,101.3,32.42,106.83,44.53Z"/><path class="cls-42" d="M98.1,19.36s-11.94,3.11-8.92,16.3C89.58,37.43,101.07,32.34,98.1,19.36Z"/><path class="cls-42" d="M174.38,237.28s11.37-4.8,17,7.51C192.12,246.44,179.91,249.39,174.38,237.28Z"/><path class="cls-42" d="M183.11,262.45s11.94-3.11,8.92-16.3C191.63,244.38,180.14,249.47,183.11,262.45Z"/><path class="cls-42" d="M94.54,49.76S83.89,56,76.71,44.53C75.75,43,87.48,38.48,94.54,49.76Z"/><path class="cls-42" d="M82.6,26s-11.44,4.64-6.72,17.33C76.51,45,87.24,38.43,82.6,26Z"/><path class="cls-42" d="M186.67,232.05s10.65-6.24,17.82,5.23C205.46,238.82,193.73,243.33,186.67,232.05Z"/><path class="cls-42" d="M198.61,255.86s11.44-4.64,6.72-17.32C204.7,236.84,194,243.38,198.61,255.86Z"/><path class="cls-42" d="M83,56.56S73.3,64.13,64.68,53.7C63.53,52.3,74.56,46.29,83,56.56Z"/><path class="cls-42" d="M68.09,34.51s-10.73,6.09-4.4,18.05C64.54,54.16,74.32,46.27,68.09,34.51Z"/><path class="cls-42" d="M198.17,225.26s9.74-7.58,18.36,2.86C217.68,229.51,206.65,235.52,198.17,225.26Z"/><path class="cls-42" d="M213.12,247.3s10.73-6.09,4.4-18.05C216.67,227.65,206.89,235.54,213.12,247.3Z"/><path class="cls-42" d="M72.52,64.79S63.85,73.57,54,64.35C52.62,63.12,62.78,55.72,72.52,64.79Z"/><path class="cls-42" d="M54.83,44.88s-9.85,7.44-2,18.47C53.87,64.83,62.53,55.73,54.83,44.88Z"/><path class="cls-42" d="M208.69,217s8.67-8.78,18.57.44C228.59,218.69,218.43,226.09,208.69,217Z"/><path class="cls-42" d="M226.39,236.93s9.84-7.44,2-18.47C227.34,217,218.68,226.08,226.39,236.93Z"/><path class="cls-42" d="M63.17,74.33s-7.45,9.84-18.47,2C43.22,75.27,52.33,66.61,63.17,74.33Z"/><path class="cls-42" d="M43,56.9s-8.8,8.66.42,18.58C44.68,76.8,52.08,66.65,43,56.9Z"/><path class="cls-42" d="M218,207.48s7.45-9.84,18.47-2C238,206.55,228.88,215.2,218,207.48Z"/><path class="cls-42" d="M238.18,224.91s8.8-8.66-.42-18.58C236.53,205,229.13,215.16,238.18,224.91Z"/><path class="cls-42" d="M55.14,85s-6.1,10.73-18,4.39C35.49,88.54,43.39,78.77,55.14,85Z"/><path class="cls-42" d="M32.9,70.35s-7.59,9.74,2.84,18.37C37.13,89.87,43.15,78.84,32.9,70.35Z"/><path class="cls-42" d="M226.07,196.81s6.1-10.73,18.05-4.39C245.72,193.27,237.83,203,226.07,196.81Z"/><path class="cls-42" d="M248.31,211.46s7.59-9.74-2.84-18.37C244.08,191.94,238.06,203,248.31,211.46Z"/><path class="cls-42" d="M48.58,96.64s-4.65,11.43-17.33,6.7C29.55,102.71,36.11,92,48.58,96.64Z"/><path class="cls-42" d="M24.61,85s-6.25,10.64,5.21,17.83C31.36,103.82,35.88,92.1,24.61,85Z"/><path class="cls-42" d="M232.63,185.17s4.65-11.43,17.33-6.7C251.66,179.1,245.1,189.82,232.63,185.17Z"/><path class="cls-42" d="M256.6,196.79s6.25-10.64-5.21-17.83C249.85,178,245.33,189.72,256.6,196.79Z"/><path class="cls-42" d="M43.59,109S40.47,121,27.28,117.94C25.52,117.53,30.62,106.05,43.59,109Z"/><path class="cls-42" d="M18.31,100.64s-4.81,11.36,7.49,17C27.45,118.39,30.41,106.18,18.31,100.64Z"/><path class="cls-42" d="M237.62,172.78s3.12-11.94,16.31-8.91C255.7,164.28,250.59,175.76,237.62,172.78Z"/><path class="cls-42" d="M262.9,181.17s4.81-11.36-7.49-17C253.76,163.42,250.8,175.63,262.9,181.17Z"/><path class="cls-42" d="M40.26,122s-1.54,12.25-15,11C23.45,132.75,27,120.7,40.26,122Z"/><path class="cls-42" d="M14.1,116.94s-3.29,11.9,9.65,15.88C25.48,133.35,26.82,120.86,14.1,116.94Z"/><path class="cls-42" d="M241,159.85s1.54-12.25,15-11C257.76,149.06,254.2,161.11,241,159.85Z"/><path class="cls-42" d="M267.11,164.87S270.4,153,257.46,149C255.73,148.46,254.39,161,267.11,164.87Z"/><path class="cls-42" d="M38.64,135.22s.08,12.35-13.44,12.83C23.39,148.11,25.34,135.7,38.64,135.22Z"/><path class="cls-42" d="M12.05,133.66s-1.7,12.23,11.64,14.48C25.48,148.45,25.17,135.89,12.05,133.66Z"/><path class="cls-42" d="M242.57,146.59s-.08-12.35,13.44-12.83C257.82,133.7,255.87,146.11,242.57,146.59Z"/><path class="cls-42" d="M269.16,148.15s1.7-12.23-11.64-14.48C255.73,133.37,256,145.92,269.16,148.15Z"/><path class="cls-42" d="M38.77,148.58s1.69,12.23-11.65,14.47C25.33,163.35,25.65,150.79,38.77,148.58Z"/><path class="cls-42" d="M12.2,150.5s-.09,12.35,13.44,12.84C27.45,163.41,25.51,151,12.2,150.5Z"/><path class="cls-42" d="M242.44,133.23s-1.69-12.23,11.65-14.47C255.88,118.46,255.56,131,242.44,133.23Z"/><path class="cls-42" d="M269,131.31s.1-12.35-13.43-12.84C253.76,118.4,255.7,130.81,269,131.31Z"/><path class="cls-42" d="M40.65,161.81s3.27,11.9-9.67,15.86C29.25,178.21,27.92,165.71,40.65,161.81Z"/><path class="cls-42" d="M14.56,167.18s1.52,12.25,15,11C31.35,178,27.81,165.93,14.56,167.18Z"/><path class="cls-42" d="M240.56,120s-3.27-11.9,9.67-15.86C252,103.6,253.29,116.1,240.56,120Z"/><path class="cls-42" d="M266.65,114.63s-1.52-12.25-15-11C249.86,103.82,253.4,115.88,266.65,114.63Z"/><path class="cls-42" d="M44.23,174.68s4.8,11.37-7.51,17C35.07,192.42,32.12,180.21,44.23,174.68Z"/><path class="cls-42" d="M19.06,183.41s3.11,11.94,16.3,8.92C37.13,191.93,32,180.44,19.06,183.41Z"/><path class="cls-42" d="M237,107.13s-4.8-11.37,7.51-17C246.14,89.39,249.09,101.6,237,107.13Z"/><path class="cls-42" d="M262.15,98.4s-3.11-11.94-16.3-8.92C244.08,89.88,249.17,101.37,262.15,98.4Z"/><path class="cls-42" d="M49.46,187s6.24,10.65-5.23,17.83C42.69,205.76,38.18,194,49.46,187Z"/><path class="cls-42" d="M25.65,198.91s4.64,11.44,17.33,6.72C44.67,205,38.13,194.27,25.65,198.91Z"/><path class="cls-42" d="M231.75,94.84S225.51,84.19,237,77C238.52,76.05,243,87.78,231.75,94.84Z"/><path class="cls-42" d="M255.56,82.9s-4.64-11.44-17.33-6.72C236.54,76.81,243.08,87.54,255.56,82.9Z"/><path class="cls-42" d="M56.25,198.47s7.58,9.74-2.86,18.36C52,218,46,207,56.25,198.47Z"/><path class="cls-42" d="M34.21,213.42s6.09,10.73,18,4.4C53.86,217,46,207.19,34.21,213.42Z"/><path class="cls-42" d="M225,83.34S217.38,73.6,227.82,65C229.21,63.83,235.22,74.86,225,83.34Z"/><path class="cls-42" d="M247,68.39S240.91,57.66,229,64C227.35,64.84,235.24,74.62,247,68.39Z"/><path class="cls-42" d="M64.49,209s8.78,8.67-.44,18.57C62.82,228.89,55.42,218.73,64.49,209Z"/><path class="cls-42" d="M44.58,226.68s7.44,9.85,18.47,2C64.53,227.64,55.43,219,44.58,226.68Z"/><path class="cls-42" d="M216.72,72.82s-8.78-8.67.44-18.57C218.39,52.92,225.79,63.08,216.72,72.82Z"/><path class="cls-42" d="M236.63,55.13s-7.44-9.85-18.47-2C216.68,54.17,225.78,62.83,236.63,55.13Z"/><path class="cls-42" d="M74,218.34s9.84,7.45,2,18.47C75,238.29,66.31,229.18,74,218.34Z"/><path class="cls-42" d="M56.6,238.48s8.66,8.8,18.58-.42C76.5,236.83,66.35,229.43,56.6,238.48Z"/><path class="cls-42" d="M207.18,63.47s-9.84-7.45-2-18.47C206.24,43.52,214.9,52.63,207.18,63.47Z"/><path class="cls-42" d="M224.61,43.33s-8.66-8.8-18.58.42C204.71,45,214.86,52.38,224.61,43.33Z"/><path class="cls-42" d="M84.7,226.37s10.73,6.1,4.39,18C88.24,246,78.47,238.12,84.7,226.37Z"/><path class="cls-42" d="M70.05,248.62s9.74,7.58,18.37-2.85C89.57,244.38,78.54,238.36,70.05,248.62Z"/><path class="cls-42" d="M196.51,55.44s-10.73-6.1-4.39-18C193,35.79,202.74,43.69,196.51,55.44Z"/><path class="cls-42" d="M211.16,33.2s-9.74-7.59-18.37,2.84C191.64,37.43,202.67,43.45,211.16,33.2Z"/><path class="cls-42" d="M96.34,232.93s11.43,4.65,6.7,17.33C102.41,252,91.69,245.4,96.34,232.93Z"/><path class="cls-42" d="M84.72,256.9s10.64,6.25,17.83-5.21C103.51,250.15,91.79,245.63,84.72,256.9Z"/><path class="cls-42" d="M184.87,48.88s-11.43-4.65-6.7-17.33C178.8,29.85,189.52,36.41,184.87,48.88Z"/><path class="cls-42" d="M196.49,24.91s-10.64-6.25-17.83,5.21C177.7,31.66,189.41,36.18,196.49,24.91Z"/><path class="cls-42" d="M108.73,237.92s11.94,3.12,8.91,16.31C117.23,256,105.75,250.89,108.73,237.92Z"/><path class="cls-42" d="M100.34,263.2s11.36,4.81,17-7.49C118.09,254.06,105.88,251.1,100.34,263.2Z"/><path class="cls-42" d="M172.48,43.89s-11.94-3.12-8.91-16.31C164,25.81,175.46,30.92,172.48,43.89Z"/><path class="cls-42" d="M180.87,18.61s-11.36-4.81-17,7.49C163.12,27.75,175.33,30.71,180.87,18.61Z"/><path class="cls-42" d="M121.66,241.25s12.25,1.54,11,15C132.45,258.06,120.4,254.5,121.66,241.25Z"/><path class="cls-42" d="M116.64,267.41s11.9,3.29,15.88-9.65C133.05,256,120.56,254.69,116.64,267.41Z"/><path class="cls-42" d="M159.55,40.56s-12.25-1.54-11-15C148.76,23.75,160.81,27.31,159.55,40.56Z"/><path class="cls-42" d="M164.57,14.4s-11.9-3.29-15.88,9.65C148.16,25.78,160.65,27.12,164.57,14.4Z"/></g><path class="cls-46" d="M141.39,279.06C65,279.06,2.78,216.88,2.78,140.45S65,1.84,141.39,1.84,280,64,280,140.45,217.82,279.06,141.39,279.06Zm0-271.51c-73.28,0-132.9,59.62-132.9,132.9s59.62,132.9,132.9,132.9,132.89-59.62,132.89-132.9S214.67,7.55,141.39,7.55Z"/><circle class="cls-47" cx="141.39" cy="140.45" r="99.1" transform="translate(-19.8 257.65) rotate(-80.83)"/><path class="cls-48" d="M141.39,47.07A93.38,93.38,0,1,1,48,140.45a93.49,93.49,0,0,1,93.38-93.38Zm0-5.72a99.1,99.1,0,1,0,99.1,99.1,99.1,99.1,0,0,0-99.1-99.1Z"/><path class="cls-49" d="M141.39,242.41a102,102,0,1,1,102-102A102.08,102.08,0,0,1,141.39,242.41Zm0-198.2a96.24,96.24,0,1,0,96.24,96.24A96.35,96.35,0,0,0,141.39,44.21Z"/><g class="cls-50"><g class="cls-51"><g class="cls-52"><g class="cls-52"><path class="cls-53" d="M204.86,137c6.88-4.31,8.59-12.86,3.81-19.07s-14.24-7.77-21.12-3.45-8.59,12.85-3.82,19.08S198,141.36,204.86,137Z"/></g></g></g><g class="cls-50"><g class="cls-54"><g class="cls-54"><g class="cls-54"><path class="cls-55" d="M216.64,153.26c16.87-10.57,21.05-31.51,9.35-46.74s-34.87-19-51.75-8.45-21.06,31.5-9.35,46.75S199.77,163.84,216.64,153.26Z"/></g></g></g></g><g class="cls-50"><g class="cls-56"><g class="cls-56"><g class="cls-56"><path class="cls-57" d="M234.15,136.86c10.82,4.93,2.15,4.06-19.28-1.91s-47.59-14.78-58.41-19.71-2.14-4.07,19.29,1.91S223.34,132,234.15,136.86Z"/></g></g></g></g><g class="cls-58"><g class="cls-59"><g class="cls-59"><g class="cls-59"><path class="cls-60" d="M223.77,164.88c5.4,13.1-3,6.27-18.67-15.16s-32.84-49.41-38.26-62.51,3-6.28,18.68,15.17S218.35,151.8,223.77,164.88Z"/></g></g></g></g><g class="cls-58"><g class="cls-61"><g class="cls-61"><g class="cls-61"><path class="cls-62" d="M185.11,171.65c-4.63,13.16-3.77,3.35,1.86-21.83s13.94-56.23,18.56-69.4,3.78-3.33-1.86,21.84S189.72,158.51,185.11,171.65Z"/></g></g></g></g><g class="cls-63"><g class="cls-64"><g class="cls-64"><g class="cls-64"><path class="cls-65" d="M244,97.26c16-6,7.19,2-19.56,17.87S163,148.84,147,154.9s-7.18-2,19.58-17.91S228,103.29,244,97.26Z"/></g></g></g></g><g class="cls-50"><g class="cls-66"><g class="cls-66"><g class="cls-66"><path class="cls-67" d="M182.9,116.79c5-6.25,14.81-7.53,21.92-2.81s8.81,13.61,3.84,19.87-14.81,7.55-21.91,2.82S177.91,123.06,182.9,116.79Z"/></g></g></g></g></g><path class="cls-68" d="M115.1,77.31c-.11,2.17-.21,4.19-.29,6s-.17,3.6-.23,5.24-.11,3.2-.15,4.68-.07,2.94-.09,4.39,0,2.9-.06,4.36,0,3,0,4.6v5.72q0,3,0,6.77l-6.07-.13q.16-4,.22-8t0-8c0-1.83,0-3.72,0-5.66s0-3.95-.08-6.07-.07-4.33-.12-6.67-.09-4.81-.14-7.43Z"/><path class="cls-68" d="M131,119.54c-.11-.56-.21-1.12-.29-1.69s-.17-1.16-.22-1.76a8.85,8.85,0,0,1-2.94,2.79,7.43,7.43,0,0,1-3.74,1,7.07,7.07,0,0,1-2.14-.34,5.08,5.08,0,0,1-2-1.16,6.33,6.33,0,0,1-1.47-2.26,9.85,9.85,0,0,1-.57-3.62,8.22,8.22,0,0,1,1.92-5.54,9.81,9.81,0,0,1,1.93-1.77c.71-.49,1.42-.94,2.12-1.33l2-1.1a9,9,0,0,0,1.58-1,12.94,12.94,0,0,0,2-2,10.06,10.06,0,0,0,1.4-2.2,17.6,17.6,0,0,0-.39-3,6.08,6.08,0,0,0-.73-1.9,2.49,2.49,0,0,0-1.11-1,3.7,3.7,0,0,0-1.49-.28,3.75,3.75,0,0,0-2.07.54,4.85,4.85,0,0,0-1.38,1.28,3.74,3.74,0,0,1,1,.91,4.18,4.18,0,0,1,.55.93,3.21,3.21,0,0,1,.24,1,3.61,3.61,0,0,1-1,2.78,3.69,3.69,0,0,1-2.63,1,3.11,3.11,0,0,1-1.53-.39,3.85,3.85,0,0,1-1.21-1.08,5.37,5.37,0,0,1-.82-1.66,7.26,7.26,0,0,1-.29-2.08,6.3,6.3,0,0,1,.51-2.38A6.63,6.63,0,0,1,120,89.84a8.85,8.85,0,0,1,2.89-1.8,11.5,11.5,0,0,1,4.27-.7,8.88,8.88,0,0,1,4.31,1,8.48,8.48,0,0,1,2.94,2.6,10.57,10.57,0,0,1,1.67,3.73,18,18,0,0,1,.53,4.36q0,1.68,0,3.66c0,1.32,0,2.67,0,4.07,0,1.15,0,2.31,0,3.47s0,2.28.11,3.36.12,2.09.21,3,.21,1.8.35,2.55Zm-.4-15.68a12.14,12.14,0,0,1-2,1.93c-.53.37-1.11.79-1.72,1.26a15.33,15.33,0,0,0-1.71,1.47,7.83,7.83,0,0,0-1.31,1.62,3.21,3.21,0,0,0-.53,1.72,3.57,3.57,0,0,0,.59,2.06,1.91,1.91,0,0,0,1.66.86,3,3,0,0,0,1.77-.54,6.33,6.33,0,0,0,1.37-1.32,9.12,9.12,0,0,0,1-1.7,14.75,14.75,0,0,0,.65-1.66Z"/><path class="cls-68" d="M158.91,94.34a4.33,4.33,0,0,1-.46,2.09,4.68,4.68,0,0,1-1.09,1.39,4.5,4.5,0,0,1-1.34.78,3.73,3.73,0,0,1-1.18.24,4.56,4.56,0,0,1-1.15-.18,3.44,3.44,0,0,1-1.27-.63A3.71,3.71,0,0,1,151,94.88a4.21,4.21,0,0,1,.25-1.26,4.51,4.51,0,0,1,.57-1.11,3.7,3.7,0,0,1,1.11-1,4.71,4.71,0,0,0-1.82-1.63,2.26,2.26,0,0,0-2.32.07,3.42,3.42,0,0,0-1.14.88,4,4,0,0,0-.72,1.27,4.46,4.46,0,0,0-.26,1.5,10.84,10.84,0,0,0,.14,1.79,4.67,4.67,0,0,0,.61,1.63,8.82,8.82,0,0,0,1.45,1.79,28.23,28.23,0,0,0,2.62,2.25,31.58,31.58,0,0,1,2.88,2.5,17,17,0,0,1,2,2.39,10.17,10.17,0,0,1,1.2,2.37,7.61,7.61,0,0,1,.4,2.47,11.47,11.47,0,0,1-.17,1.86,10.17,10.17,0,0,1-.59,2,9.38,9.38,0,0,1-1.1,2,7.52,7.52,0,0,1-1.68,1.7,8,8,0,0,1-2.36,1.19A9.75,9.75,0,0,1,149,120a11.47,11.47,0,0,1-4.47-.77,10.37,10.37,0,0,1-3-1.89,7.23,7.23,0,0,1-1.73-2.34,5.37,5.37,0,0,1-.55-2.16,6.84,6.84,0,0,1,.24-1.85,4.09,4.09,0,0,1,.76-1.5,3.58,3.58,0,0,1,1.34-1,4.83,4.83,0,0,1,2-.36,5.1,5.1,0,0,1,1.75.29,3.82,3.82,0,0,1,1.37.87,4,4,0,0,1,.89,1.41,5,5,0,0,1,.33,1.87,3.79,3.79,0,0,1-1.53,2.73,3.43,3.43,0,0,0,.74.44,3.6,3.6,0,0,0,.65.2,2.87,2.87,0,0,0,.64.08,2.17,2.17,0,0,0,.82-.2,2.84,2.84,0,0,0,.9-.63,3.84,3.84,0,0,0,.72-1,3.47,3.47,0,0,0,.29-1.47,7.61,7.61,0,0,0-.15-1.57,4.52,4.52,0,0,0-.61-1.47,9.88,9.88,0,0,0-1.35-1.67c-.59-.61-1.37-1.34-2.33-2.19s-1.82-1.69-2.57-2.5a15.48,15.48,0,0,1-1.88-2.53A11.31,11.31,0,0,1,141,98a11.72,11.72,0,0,1-.41-3.18,8.34,8.34,0,0,1,.69-3.32,8.6,8.6,0,0,1,1.94-2.84,9.2,9.2,0,0,1,3-2,10.54,10.54,0,0,1,4-.74,9.69,9.69,0,0,1,3.87.7,7.39,7.39,0,0,1,2.68,1.86,7.63,7.63,0,0,1,1.55,2.68A10.08,10.08,0,0,1,158.91,94.34Z"/><path class="cls-68" d="M171.13,77.79c-.14,1.83-.26,3.64-.35,5.41s-.18,3.56-.26,5.34l2.32-.09c.77,0,1.55-.07,2.36-.13l.1,6.85c-.85-.14-1.7-.26-2.54-.35s-1.66-.16-2.46-.21c-.05,1.52-.08,3-.09,4.49s0,3,0,4.5c0,2.71,0,5.4.1,8.07s.16,5.37.31,8.08l-7-.11q.34-6.28.57-12.55t.31-12.64l-2.25.12-2.3.15.22-6.34c.73.05,1.45.09,2.18.12l2.15.09c0-1.78,0-3.56-.06-5.33s-.07-3.56-.1-5.37Z"/><path class="cls-68" d="M73.89,134c-.12,1.51-.21,3-.29,4.44s-.14,2.92-.22,4.38l1.91-.08c.63,0,1.27-.05,1.93-.1l.09,5.62c-.7-.12-1.4-.21-2.08-.29s-1.36-.13-2-.17c0,1.24-.07,2.47-.08,3.68s0,2.44,0,3.69q0,3.33.08,6.62t.25,6.62l-5.72-.09c.19-3.43.34-6.86.47-10.29s.21-6.89.25-10.36l-1.84.09-1.89.12.18-5.19,1.78.1,1.77.07c0-1.46,0-2.92,0-4.37s-.06-2.92-.09-4.4Z"/><path class="cls-68" d="M84.72,168.24l-5.85.44q.34-3.93.51-7.58c.11-2.44.17-4.87.17-7.32,0-1.72,0-3.45-.08-5.18s-.14-3.52-.27-5.34l4.93-.27c0,.33,0,.64-.06.95s0,.6,0,.9A7,7,0,0,1,85.72,143a7.56,7.56,0,0,1,1.7-1,6,6,0,0,1,1.82-.46A6.85,6.85,0,0,1,92,142a5.56,5.56,0,0,1,1.87,1.27A4.94,4.94,0,0,1,94.9,145a5.71,5.71,0,0,1,.33,1.86,9.2,9.2,0,0,1-.2,1.86,5,5,0,0,1-.67,1.7,3.59,3.59,0,0,1-1.25,1.23,3.69,3.69,0,0,1-1.92.47,3.33,3.33,0,0,1-1.8-.42,2.93,2.93,0,0,1-1-1,3.28,3.28,0,0,1-.44-1.21,6.52,6.52,0,0,1-.1-1.06,2.59,2.59,0,0,1,.11-.69,3.26,3.26,0,0,1,.33-.78,4,4,0,0,1,.55-.78,4.69,4.69,0,0,1,.76-.71,1.19,1.19,0,0,0-.27-.07l-.27,0a3,3,0,0,0-2,.69A5.83,5.83,0,0,0,85.63,148a13.69,13.69,0,0,0-1,2.89,26.58,26.58,0,0,0-.6,3.64c.07,2.27.18,4.51.31,6.74S84.58,165.84,84.72,168.24Z"/><path class="cls-68" d="M112.49,162.62a5.26,5.26,0,0,1-.59,2.44,6.34,6.34,0,0,1-1.6,2,7.8,7.8,0,0,1-2.37,1.32,8.65,8.65,0,0,1-2.9.48,7.9,7.9,0,0,1-2.08-.29,6.61,6.61,0,0,1-2-.94,8.65,8.65,0,0,1-1.82-1.73,10.58,10.58,0,0,1-1.48-2.63,17.88,17.88,0,0,1-1-3.66,28.59,28.59,0,0,1-.36-4.81,25.56,25.56,0,0,1,.36-4.54,16.16,16.16,0,0,1,1-3.44,9.89,9.89,0,0,1,1.46-2.47,7.94,7.94,0,0,1,1.79-1.62,6.31,6.31,0,0,1,2-.89,7.81,7.81,0,0,1,2-.26,8,8,0,0,1,2.78.47,6.5,6.5,0,0,1,3.87,3.66,7.72,7.72,0,0,1,.58,3.1,8.48,8.48,0,0,1-.64,3.19,10.27,10.27,0,0,1-1.92,3.05,14.22,14.22,0,0,1-3.15,2.61,16.4,16.4,0,0,1-4.31,1.86,20,20,0,0,0,.39,2.47,8.55,8.55,0,0,0,.63,1.91,3.77,3.77,0,0,0,.9,1.23,1.8,1.8,0,0,0,1.2.44,3.69,3.69,0,0,0,.83-.15,2.8,2.8,0,0,0,.71-.36,1.92,1.92,0,0,0,.61-.7,2.06,2.06,0,0,1-.88-.68,3.28,3.28,0,0,1-.46-.79,2.62,2.62,0,0,1-.2-.92,3.14,3.14,0,0,1,.42-1.71,3.23,3.23,0,0,1,1-1,3.54,3.54,0,0,1,1.17-.51,4,4,0,0,1,.94-.15,3.17,3.17,0,0,1,.91.16,2.75,2.75,0,0,1,1,.59,3.42,3.42,0,0,1,.87,1.24A5.13,5.13,0,0,1,112.49,162.62Zm-5.42-13.79a8,8,0,0,0-.14-1.5,4.51,4.51,0,0,0-.42-1.24,2.53,2.53,0,0,0-.68-.85,1.48,1.48,0,0,0-.93-.32,1.73,1.73,0,0,0-1.47.83,6.62,6.62,0,0,0-.92,2.18,18.45,18.45,0,0,0-.48,3.13c-.09,1.19-.13,2.42-.13,3.71v1.6A11.58,11.58,0,0,0,104,155a9.88,9.88,0,0,0,1.64-1.79,8.52,8.52,0,0,0,1.08-2.07A7,7,0,0,0,107.07,148.83Z"/><path class="cls-68" d="M125.21,168.24q-.13-.69-.24-1.38c-.08-.47-.13-1-.18-1.45a7.18,7.18,0,0,1-2.41,2.29,6.14,6.14,0,0,1-4.83.53,4.26,4.26,0,0,1-1.63-1,5,5,0,0,1-1.2-1.85,7.89,7.89,0,0,1-.48-3,7.08,7.08,0,0,1,.44-2.6,6.76,6.76,0,0,1,1.14-1.94,8.33,8.33,0,0,1,1.58-1.45,20.1,20.1,0,0,1,1.75-1.1l1.65-.9a6.7,6.7,0,0,0,1.29-.83,10.87,10.87,0,0,0,1.68-1.63,8.22,8.22,0,0,0,1.15-1.81,14.48,14.48,0,0,0-.31-2.49,5.23,5.23,0,0,0-.61-1.56,2,2,0,0,0-.91-.81,3.42,3.42,0,0,0-2.91.21,3.93,3.93,0,0,0-1.13,1.05,3.11,3.11,0,0,1,.84.75,3.43,3.43,0,0,1,.45.76,2.63,2.63,0,0,1,.2.86,3,3,0,0,1-.85,2.28,3,3,0,0,1-2.16.79,2.55,2.55,0,0,1-1.25-.32,3.09,3.09,0,0,1-1-.89,4.22,4.22,0,0,1-.67-1.36,5.79,5.79,0,0,1-.25-1.71,5.2,5.2,0,0,1,.42-1.95,5.63,5.63,0,0,1,1.34-1.92,7.25,7.25,0,0,1,2.37-1.47,9.55,9.55,0,0,1,3.51-.58,7.33,7.33,0,0,1,3.53.8,7.07,7.07,0,0,1,2.41,2.13,8.71,8.71,0,0,1,1.37,3.06,14.6,14.6,0,0,1,.43,3.57c0,.92,0,1.93,0,3s0,2.19,0,3.33c0,1,0,1.9,0,2.85s0,1.87.08,2.76.11,1.71.18,2.5a20.31,20.31,0,0,0,.29,2.09Zm-.33-12.85a9.66,9.66,0,0,1-1.64,1.57c-.44.31-.91.65-1.42,1a16.68,16.68,0,0,0-1.4,1.21,7.69,7.69,0,0,0-1.08,1.33,2.7,2.7,0,0,0-.43,1.41,2.93,2.93,0,0,0,.49,1.69,1.54,1.54,0,0,0,1.36.7,2.41,2.41,0,0,0,1.44-.44,4.81,4.81,0,0,0,1.13-1.08,7.56,7.56,0,0,0,.84-1.39,13.84,13.84,0,0,0,.53-1.36Z"/><path class="cls-68" d="M140.74,134c-.12,1.51-.22,3-.29,4.44s-.14,2.92-.22,4.38l1.91-.08c.63,0,1.27-.05,1.93-.1l.09,5.62c-.7-.12-1.4-.21-2.09-.29s-1.36-.13-2-.17c-.05,1.24-.07,2.47-.08,3.68s0,2.44,0,3.69c0,2.22,0,4.43.08,6.62s.13,4.4.25,6.62l-5.73-.09q.28-5.15.48-10.29c.12-3.43.2-6.89.25-10.36-.62,0-1.23.06-1.84.09l-1.89.12.17-5.19,1.79.1,1.77.07c0-1.46,0-2.92-.05-4.37s-.05-2.92-.08-4.4Z"/><path class="cls-68" d="M160.23,155.89c0,.88,0,1.64,0,2.29s0,1.24-.05,1.78,0,1-.09,1.51-.08,1-.12,1.51-.1,1.14-.15,1.8-.13,1.45-.2,2.34l-4.94,0q.32-3.53.45-6.79t.15-6.45a13.05,13.05,0,0,0-.56-4.46c-.38-.93-.94-1.4-1.7-1.4a2,2,0,0,0-.86.59,5,5,0,0,0-.76,1.21,10.24,10.24,0,0,0-.66,2.26c0,.71-.05,1.42-.05,2.11v2.05c0,.79,0,1.6,0,2.42s0,1.69,0,2.63,0,1.94,0,3,0,2.26.06,3.55l-5-.11c.11-1.68.19-3.18.27-4.5s.13-2.53.18-3.64.09-2.16.11-3.16,0-2,0-3.07c0-.7,0-1.42,0-2.16s0-1.53,0-2.38-.05-1.76-.08-2.73-.06-2-.08-3.19l5,.09L151,145.1a7.36,7.36,0,0,1,1.34-1.93,5.8,5.8,0,0,1,1.32-1,3.25,3.25,0,0,1,1-.35l.54,0a4.85,4.85,0,0,1,1.26.17,3,3,0,0,1,1.14.66,4.7,4.7,0,0,1,1,1.34,9.84,9.84,0,0,1,.78,2.21,7.11,7.11,0,0,1,1.47-2.56,6.38,6.38,0,0,1,1.72-1.31,4.53,4.53,0,0,1,1.49-.46l.76-.05a3.43,3.43,0,0,1,2.37.85,5.84,5.84,0,0,1,1.54,2.61,21.09,21.09,0,0,1,.82,4.41q.25,2.66.25,6.23c0,.79,0,1.7-.11,2.74s-.17,2.11-.28,3.21-.25,2.2-.38,3.28-.25,2-.35,2.9l-4.93-.18c.25-1.56.44-3.05.58-4.46s.24-2.67.32-3.76c.07-1.27.11-2.46.13-3.56,0-1.38,0-2.58-.1-3.59a13.9,13.9,0,0,0-.36-2.49,3.33,3.33,0,0,0-.73-1.45,1.55,1.55,0,0,0-1.16-.47,2.38,2.38,0,0,0-.88.5,4.44,4.44,0,0,0-.77.94,6.13,6.13,0,0,0-.72,1.67C160.19,152.52,160.23,154.09,160.23,155.89Z"/><path class="cls-68" d="M188.44,162.62a5.26,5.26,0,0,1-.59,2.44,6.24,6.24,0,0,1-1.61,2,7.63,7.63,0,0,1-2.36,1.32,8.69,8.69,0,0,1-2.9.48,7.9,7.9,0,0,1-2.08-.29,6.61,6.61,0,0,1-2-.94,8.65,8.65,0,0,1-1.82-1.73,10.58,10.58,0,0,1-1.48-2.63,17.88,17.88,0,0,1-1-3.66,28.59,28.59,0,0,1-.36-4.81,25.56,25.56,0,0,1,.36-4.54,16.16,16.16,0,0,1,1-3.44,9.89,9.89,0,0,1,1.46-2.47,7.94,7.94,0,0,1,1.79-1.62,6.31,6.31,0,0,1,2-.89,7.81,7.81,0,0,1,2-.26,8,8,0,0,1,2.78.47,6.48,6.48,0,0,1,2.3,1.39,6.63,6.63,0,0,1,1.57,2.27,7.72,7.72,0,0,1,.58,3.1,8.48,8.48,0,0,1-.64,3.19,10.47,10.47,0,0,1-1.92,3.05,14.22,14.22,0,0,1-3.15,2.61,16.4,16.4,0,0,1-4.31,1.86,22.24,22.24,0,0,0,.38,2.47,8.53,8.53,0,0,0,.64,1.91,3.77,3.77,0,0,0,.9,1.23,1.79,1.79,0,0,0,1.19.44,3.78,3.78,0,0,0,.84-.15,2.8,2.8,0,0,0,.71-.36,1.81,1.81,0,0,0,.6-.7,2.09,2.09,0,0,1-.87-.68,3.28,3.28,0,0,1-.46-.79,2.62,2.62,0,0,1-.2-.92,3.14,3.14,0,0,1,.42-1.71,3.23,3.23,0,0,1,1-1,3.58,3.58,0,0,1,1.16-.51,4.11,4.11,0,0,1,.95-.15,3.17,3.17,0,0,1,.91.16,2.75,2.75,0,0,1,1,.59,3.54,3.54,0,0,1,.87,1.24A5.13,5.13,0,0,1,188.44,162.62ZM183,148.83a8,8,0,0,0-.14-1.5,4.87,4.87,0,0,0-.42-1.24,2.53,2.53,0,0,0-.68-.85,1.48,1.48,0,0,0-.93-.32,1.73,1.73,0,0,0-1.47.83,6.62,6.62,0,0,0-.92,2.18,16.64,16.64,0,0,0-.48,3.13c-.09,1.19-.13,2.42-.13,3.71v1.6a11.58,11.58,0,0,0,2.07-1.4,9.88,9.88,0,0,0,1.64-1.79,8.52,8.52,0,0,0,1.08-2.07A7,7,0,0,0,183,148.83Z"/><path class="cls-68" d="M196.57,143l-.13,1.8A6.71,6.71,0,0,1,198,143a6.46,6.46,0,0,1,1.52-.9,4,4,0,0,1,1.18-.28l.51,0a5.33,5.33,0,0,1,2.83.74,5.82,5.82,0,0,1,2,2.16,11.73,11.73,0,0,1,1.17,3.45,24.46,24.46,0,0,1,.38,4.59c0,1.26,0,2.54-.05,3.85s-.11,2.61-.22,3.9-.26,2.56-.44,3.79a30.2,30.2,0,0,1-.73,3.51l-5.11-.62c.33-1.74.6-3.36.79-4.87s.32-2.82.41-3.94c.11-1.32.16-2.53.18-3.62,0-1.39,0-2.6-.13-3.63a11.86,11.86,0,0,0-.47-2.57,3.28,3.28,0,0,0-.94-1.52,2.23,2.23,0,0,0-1.51-.51,2.32,2.32,0,0,0-1.23.88,8.68,8.68,0,0,0-1.12,2,18.68,18.68,0,0,0-1,3.91c0,1.14-.07,2.27-.07,3.39s0,2.31,0,3.57v3.44c0,1.23,0,2.62.05,4.17l-5-.11c0-1.49.08-3.08.1-4.75s0-3.54,0-5.58,0-4.24,0-6.6-.09-5-.18-7.9Z"/><path class="cls-68" d="M218.18,134c-.12,1.51-.22,3-.29,4.44s-.14,2.92-.22,4.38l1.91-.08c.63,0,1.27-.05,1.93-.1l.09,5.62c-.7-.12-1.4-.21-2.08-.29s-1.36-.13-2-.17c-.05,1.24-.07,2.47-.08,3.68s0,2.44,0,3.69q0,3.33.08,6.62t.25,6.62l-5.73-.09q.28-5.15.48-10.29c.12-3.43.2-6.89.25-10.36-.62,0-1.23.06-1.84.09l-1.89.12.17-5.19,1.79.1,1.77.07c0-1.46,0-2.92-.05-4.37s-.05-2.92-.08-4.4Z"/><polygon class="cls-69" points="141.66 187.73 137.56 196.02 128.42 197.35 135.04 203.8 133.47 212.92 141.66 208.61 149.84 212.92 148.28 203.8 154.9 197.35 145.75 196.02 141.66 187.73"/><polygon class="cls-69" points="99.75 187.73 97.22 192.85 91.57 193.67 95.66 197.65 94.7 203.28 99.75 200.62 104.8 203.28 103.84 197.65 107.93 193.67 102.28 192.85 99.75 187.73"/><polygon class="cls-69" points="181.78 187.73 179.25 192.85 173.6 193.67 177.69 197.65 176.72 203.28 181.78 200.62 186.83 203.28 185.87 197.65 189.95 193.67 184.3 192.85 181.78 187.73"/></g></g></svg>