<svg xmlns="http://www.w3.org/2000/svg" xmlns:xlink="http://www.w3.org/1999/xlink" viewBox="0 0 285.61 427.72"><defs><style>.cls-1,.cls-12{mask:url(#mask);}.cls-1{filter:url(#luminosity-noclip-21);}.cls-11,.cls-13,.cls-14,.cls-16,.cls-18,.cls-19,.cls-2,.cls-21,.cls-23,.cls-24,.cls-26,.cls-28,.cls-29,.cls-31,.cls-33,.cls-34,.cls-4,.cls-45,.cls-6,.cls-7,.cls-72,.cls-9{mix-blend-mode:multiply;}.cls-2{fill:url(#radial-gradient);}.cls-3,.cls-5{mask:url(#mask-2);}.cls-3{filter:url(#luminosity-noclip-26);}.cls-4{fill:url(#radial-gradient-2);}.cls-6{fill:url(#radial-gradient-3);}.cls-7{fill:url(#radial-gradient-4);}.cls-10,.cls-8{mask:url(#mask-5);}.cls-8{filter:url(#luminosity-noclip-29);}.cls-9{fill:url(#radial-gradient-5);}.cls-11{fill:url(#radial-gradient-6);}.cls-13{fill:url(#radial-gradient-7);}.cls-14{fill:url(#radial-gradient-8);}.cls-15,.cls-17{mask:url(#mask-9);}.cls-15{filter:url(#luminosity-noclip-32);}.cls-16{fill:url(#radial-gradient-9);}.cls-18{fill:url(#radial-gradient-10);}.cls-19{fill:url(#radial-gradient-11);}.cls-20,.cls-22{mask:url(#mask-12);}.cls-20{filter:url(#luminosity-noclip-35);}.cls-21{fill:url(#radial-gradient-12);}.cls-23{fill:url(#radial-gradient-13);}.cls-24{fill:url(#radial-gradient-14);}.cls-25,.cls-27{mask:url(#mask-15);}.cls-25{filter:url(#luminosity-noclip-38);}.cls-26{fill:url(#radial-gradient-15);}.cls-28{fill:url(#radial-gradient-16);}.cls-29{fill:url(#radial-gradient-17);}.cls-30,.cls-32{mask:url(#mask-18);}.cls-30{filter:url(#luminosity-noclip-23);}.cls-31{fill:url(#radial-gradient-18);}.cls-33{fill:url(#radial-gradient-19);}.cls-34{fill:url(#radial-gradient-20);}.cls-35{isolation:isolate;}.cls-36{fill:url(#linear-gradient);}.cls-37{fill:#d40023;}.cls-38{mix-blend-mode:soft-light;}.cls-39{fill:#fff;}.cls-40{fill:url(#linear-gradient-2);}.cls-41{fill:url(#linear-gradient-3);}.cls-42{fill:#a3713b;}.cls-43{opacity:0.41;}.cls-44{fill:#ebe191;}.cls-45{opacity:0.7;}.cls-46{fill:url(#linear-gradient-4);}.cls-47{fill:url(#linear-gradient-5);}.cls-48{fill:url(#linear-gradient-6);}.cls-49{fill:url(#linear-gradient-7);}.cls-50,.cls-51,.cls-58,.cls-63{mix-blend-mode:screen;}.cls-51{opacity:0.2;}.cls-52{mask:url(#mask-21);}.cls-53{fill:url(#radial-gradient-21);}.cls-54{mask:url(#mask-23);}.cls-55{fill:url(#radial-gradient-22);}.cls-56{mask:url(#mask-26);}.cls-57{fill:url(#radial-gradient-23);}.cls-58{opacity:0.8;}.cls-59{mask:url(#mask-29);}.cls-60{fill:url(#radial-gradient-24);}.cls-61{mask:url(#mask-32);}.cls-62{fill:url(#radial-gradient-25);}.cls-63,.cls-72{opacity:0.4;}.cls-64{mask:url(#mask-35);}.cls-65{fill:url(#radial-gradient-26);}.cls-66{mask:url(#mask-38);}.cls-67{fill:url(#radial-gradient-27);}.cls-68{font-size:56.43px;}.cls-68,.cls-69,.cls-72{fill:#754c24;}.cls-68,.cls-69{font-family:RumRaisin-Regular, Rum Raisin;}.cls-69{font-size:46.27px;}.cls-70{letter-spacing:0em;}.cls-71{letter-spacing:0em;}.cls-73{filter:url(#luminosity-noclip-18);}.cls-74{filter:url(#luminosity-noclip-15);}.cls-75{filter:url(#luminosity-noclip-12);}.cls-76{filter:url(#luminosity-noclip-9);}.cls-77{filter:url(#luminosity-noclip-5);}.cls-78{filter:url(#luminosity-noclip-2);}.cls-79{filter:url(#luminosity-noclip);}</style><filter id="luminosity-noclip" x="183.64" y="-8663.72" width="31.27" height="32766" filterUnits="userSpaceOnUse" color-interpolation-filters="sRGB"><feFlood flood-color="#fff" result="bg"/><feBlend in="SourceGraphic" in2="bg"/></filter><mask id="mask" x="183.64" y="-8663.72" width="31.27" height="32766" maskUnits="userSpaceOnUse"><g class="cls-79"/></mask><radialGradient id="radial-gradient" cx="-1003.45" cy="635.29" r="29.04" gradientTransform="matrix(0.31, 0.4, 0.44, -0.28, 226.12, 704.86)" gradientUnits="userSpaceOnUse"><stop offset="0.23" stop-color="#fff"/><stop offset="0.33" stop-color="#fdfdfd"/><stop offset="0.37" stop-color="#f6f6f6"/><stop offset="0.39" stop-color="#ebebeb"/><stop offset="0.42" stop-color="#dadada"/><stop offset="0.42" stop-color="#d0d0d0"/><stop offset="0.45" stop-color="#cecece"/><stop offset="0.46" stop-color="#c7c7c7"/><stop offset="0.46" stop-color="#c6c6c6"/><stop offset="0.49" stop-color="#b4b4b4"/><stop offset="0.59" stop-color="#7e7e7e"/><stop offset="0.68" stop-color="#515151"/><stop offset="0.77" stop-color="#2e2e2e"/><stop offset="0.86" stop-color="#141414"/><stop offset="0.94" stop-color="#050505"/><stop offset="1"/></radialGradient><filter id="luminosity-noclip-2" x="153.56" y="-8663.72" width="89.61" height="32766" filterUnits="userSpaceOnUse" color-interpolation-filters="sRGB"><feFlood flood-color="#fff" result="bg"/><feBlend in="SourceGraphic" in2="bg"/></filter><mask id="mask-2" x="153.56" y="-8663.72" width="89.61" height="32766" maskUnits="userSpaceOnUse"><g class="cls-78"/></mask><radialGradient id="radial-gradient-2" cx="1128.24" cy="-511.55" r="17.64" gradientTransform="matrix(2.27, 0.63, 1.14, 0.52, -1777.5, -319.07)" gradientUnits="userSpaceOnUse"><stop offset="0.23" stop-color="#fff"/><stop offset="0.35" stop-color="#fdfdfd"/><stop offset="0.39" stop-color="#f6f6f6"/><stop offset="0.42" stop-color="#ebebeb"/><stop offset="0.44" stop-color="#dadada"/><stop offset="0.45" stop-color="#d0d0d0"/><stop offset="0.48" stop-color="#cecece"/><stop offset="0.49" stop-color="#c7c7c7"/><stop offset="0.49" stop-color="#c6c6c6"/><stop offset="0.54" stop-color="#9a9a9a"/><stop offset="0.59" stop-color="#717171"/><stop offset="0.64" stop-color="#4e4e4e"/><stop offset="0.7" stop-color="#323232"/><stop offset="0.76" stop-color="#1c1c1c"/><stop offset="0.82" stop-color="#0c0c0c"/><stop offset="0.89" stop-color="#030303"/><stop offset="1"/></radialGradient><radialGradient id="radial-gradient-3" cx="1128.24" cy="-511.55" r="17.64" gradientTransform="matrix(2.27, 0.63, 1.14, 0.52, -1777.5, -319.07)" gradientUnits="userSpaceOnUse"><stop offset="0" stop-color="#fff"/><stop offset="0.03" stop-color="#fff"/><stop offset="0.22" stop-color="#fff"/><stop offset="0.37" stop-color="#fff"/><stop offset="0.4" stop-color="#ebebeb"/><stop offset="0.5" stop-color="#adadad"/><stop offset="0.59" stop-color="#787878"/><stop offset="0.68" stop-color="#4d4d4d"/><stop offset="0.77" stop-color="#2c2c2c"/><stop offset="0.86" stop-color="#141414"/><stop offset="0.93" stop-color="#050505"/><stop offset="1"/></radialGradient><radialGradient id="radial-gradient-4" cx="1128.24" cy="-511.55" r="17.64" gradientTransform="matrix(2.27, 0.63, 1.14, 0.52, -1777.5, -319.07)" gradientUnits="userSpaceOnUse"><stop offset="0" stop-color="#fff"/><stop offset="0.22" stop-color="#fff"/><stop offset="0.28" stop-color="#ccc"/><stop offset="0.35" stop-color="#9c9c9c"/><stop offset="0.42" stop-color="#727272"/><stop offset="0.5" stop-color="#4f4f4f"/><stop offset="0.57" stop-color="#323232"/><stop offset="0.66" stop-color="#1c1c1c"/><stop offset="0.75" stop-color="#0c0c0c"/><stop offset="0.85" stop-color="#030303"/><stop offset="1"/></radialGradient><filter id="luminosity-noclip-5" x="167.37" y="-8663.72" width="62" height="32766" filterUnits="userSpaceOnUse" color-interpolation-filters="sRGB"><feFlood flood-color="#fff" result="bg"/><feBlend in="SourceGraphic" in2="bg"/></filter><mask id="mask-5" x="167.37" y="-8663.72" width="62" height="32766" maskUnits="userSpaceOnUse"><g class="cls-77"/></mask><radialGradient id="radial-gradient-5" cx="466.96" cy="749.41" r="17.64" gradientTransform="matrix(1.66, 2.27, 0.57, 1.38, -1005.93, -1968.01)" xlink:href="#radial-gradient-2"/><radialGradient id="radial-gradient-6" cx="466.96" cy="749.41" r="17.64" gradientTransform="matrix(1.66, 2.27, 0.57, 1.38, -1005.93, -1968.01)" xlink:href="#radial-gradient-3"/><radialGradient id="radial-gradient-7" cx="-1003.45" cy="635.29" r="29.04" gradientTransform="matrix(0.31, 0.4, 0.44, -0.28, 226.12, 704.86)" gradientUnits="userSpaceOnUse"><stop offset="0" stop-color="#fff"/><stop offset="0.38" stop-color="#fff"/><stop offset="0.45" stop-color="#fff"/><stop offset="0.46" stop-color="#fff"/><stop offset="0.46" stop-color="#fff"/><stop offset="0.47" stop-color="#f5f5f5"/><stop offset="0.56" stop-color="#b5b5b5"/><stop offset="0.65" stop-color="#7e7e7e"/><stop offset="0.73" stop-color="#515151"/><stop offset="0.81" stop-color="#2e2e2e"/><stop offset="0.88" stop-color="#141414"/><stop offset="0.95" stop-color="#050505"/><stop offset="1"/></radialGradient><radialGradient id="radial-gradient-8" cx="466.96" cy="749.41" r="17.64" gradientTransform="matrix(1.66, 2.27, 0.57, 1.38, -1005.93, -1968.01)" gradientUnits="userSpaceOnUse"><stop offset="0" stop-color="#fff"/><stop offset="0.41" stop-color="#fff"/><stop offset="0.46" stop-color="#ccc"/><stop offset="0.51" stop-color="#9c9c9c"/><stop offset="0.57" stop-color="#727272"/><stop offset="0.62" stop-color="#4f4f4f"/><stop offset="0.68" stop-color="#323232"/><stop offset="0.75" stop-color="#1c1c1c"/><stop offset="0.81" stop-color="#0c0c0c"/><stop offset="0.89" stop-color="#030303"/><stop offset="1"/></radialGradient><filter id="luminosity-noclip-9" x="184.77" y="-8663.72" width="27.19" height="32766" filterUnits="userSpaceOnUse" color-interpolation-filters="sRGB"><feFlood flood-color="#fff" result="bg"/><feBlend in="SourceGraphic" in2="bg"/></filter><mask id="mask-9" x="184.77" y="-8663.72" width="27.19" height="32766" maskUnits="userSpaceOnUse"><g class="cls-76"/></mask><radialGradient id="radial-gradient-9" cx="-436.5" cy="2583.47" r="17.64" gradientTransform="matrix(-0.6, 2.66, -0.49, 1.39, 1198.08, -2297.1)" xlink:href="#radial-gradient-2"/><radialGradient id="radial-gradient-10" cx="-436.5" cy="2583.47" r="17.64" gradientTransform="matrix(-0.6, 2.66, -0.49, 1.39, 1198.08, -2297.1)" xlink:href="#radial-gradient-3"/><radialGradient id="radial-gradient-11" cx="-436.5" cy="2583.47" r="17.64" gradientTransform="matrix(-0.6, 2.66, -0.49, 1.39, 1198.08, -2297.1)" xlink:href="#radial-gradient-4"/><filter id="luminosity-noclip-12" x="140.43" y="-8663.72" width="116.27" height="32766" filterUnits="userSpaceOnUse" color-interpolation-filters="sRGB"><feFlood flood-color="#fff" result="bg"/><feBlend in="SourceGraphic" in2="bg"/></filter><mask id="mask-12" x="140.43" y="-8663.72" width="116.27" height="32766" maskUnits="userSpaceOnUse"><g class="cls-75"/></mask><radialGradient id="radial-gradient-12" cx="1190.4" cy="-335.74" r="12.81" gradientTransform="matrix(3.9, -2.32, 2.32, -0.88, -3660.21, 2590.55)" xlink:href="#radial-gradient-2"/><radialGradient id="radial-gradient-13" cx="1190.4" cy="-335.74" r="12.81" gradientTransform="matrix(3.9, -2.32, 2.32, -0.88, -3660.21, 2590.55)" xlink:href="#radial-gradient-3"/><radialGradient id="radial-gradient-14" cx="1190.4" cy="-335.74" r="12.81" gradientTransform="matrix(3.9, -2.32, 2.32, -0.88, -3660.21, 2590.55)" xlink:href="#radial-gradient-4"/><filter id="luminosity-noclip-15" x="182.64" y="-8663.72" width="32.41" height="32766" filterUnits="userSpaceOnUse" color-interpolation-filters="sRGB"><feFlood flood-color="#fff" result="bg"/><feBlend in="SourceGraphic" in2="bg"/></filter><mask id="mask-15" x="182.64" y="-8663.72" width="32.41" height="32766" maskUnits="userSpaceOnUse"><g class="cls-74"/></mask><radialGradient id="radial-gradient-15" cx="1500.38" cy="318.75" r="23.92" gradientTransform="matrix(-0.55, -0.37, 0.39, -0.49, 906.74, 834.23)" xlink:href="#radial-gradient-2"/><radialGradient id="radial-gradient-16" cx="1500.38" cy="318.75" r="23.92" gradientTransform="matrix(-0.55, -0.37, 0.39, -0.49, 906.74, 834.23)" gradientUnits="userSpaceOnUse"><stop offset="0.23" stop-color="#fff"/><stop offset="0.42" stop-color="#fff"/><stop offset="0.45" stop-color="#fff"/><stop offset="0.49" stop-color="#fff"/><stop offset="0.49" stop-color="#fff"/><stop offset="0.53" stop-color="#cacaca"/><stop offset="0.58" stop-color="#9b9b9b"/><stop offset="0.62" stop-color="#717171"/><stop offset="0.67" stop-color="#4e4e4e"/><stop offset="0.72" stop-color="#323232"/><stop offset="0.78" stop-color="#1c1c1c"/><stop offset="0.84" stop-color="#0c0c0c"/><stop offset="0.9" stop-color="#030303"/><stop offset="1"/></radialGradient><radialGradient id="radial-gradient-17" cx="1500.38" cy="318.75" r="23.92" gradientTransform="matrix(-0.55, -0.37, 0.39, -0.49, 906.74, 834.23)" gradientUnits="userSpaceOnUse"><stop offset="0" stop-color="#fff"/><stop offset="0.27" stop-color="#fff"/><stop offset="0.31" stop-color="#fff"/><stop offset="0.35" stop-color="#d5d5d5"/><stop offset="0.38" stop-color="#a9a9a9"/><stop offset="0.42" stop-color="gray"/><stop offset="0.47" stop-color="#5d5d5d"/><stop offset="0.52" stop-color="#404040"/><stop offset="0.57" stop-color="#292929"/><stop offset="0.63" stop-color="#161616"/><stop offset="0.7" stop-color="#0a0a0a"/><stop offset="0.8" stop-color="#020202"/><stop offset="1"/></radialGradient><filter id="luminosity-noclip-18" x="160.17" y="-8663.72" width="76.62" height="32766" filterUnits="userSpaceOnUse" color-interpolation-filters="sRGB"><feFlood flood-color="#fff" result="bg"/><feBlend in="SourceGraphic" in2="bg"/></filter><mask id="mask-18" x="160.17" y="-8663.72" width="76.62" height="32766" maskUnits="userSpaceOnUse"><g class="cls-73"/></mask><radialGradient id="radial-gradient-18" cx="-1004.46" cy="634.21" r="71.14" xlink:href="#radial-gradient"/><radialGradient id="radial-gradient-19" cx="-1004.46" cy="634.21" r="71.14" xlink:href="#radial-gradient-7"/><radialGradient id="radial-gradient-20" cx="-1004.46" cy="634.21" r="71.14" gradientTransform="matrix(0.31, 0.4, 0.44, -0.28, 226.12, 704.86)" gradientUnits="userSpaceOnUse"><stop offset="0" stop-color="#fff"/><stop offset="0.27" stop-color="#fff"/><stop offset="0.27" stop-color="#f6f6f6"/><stop offset="0.3" stop-color="#c8c8c8"/><stop offset="0.34" stop-color="#9d9d9d"/><stop offset="0.37" stop-color="#777"/><stop offset="0.41" stop-color="#575757"/><stop offset="0.45" stop-color="#3b3b3b"/><stop offset="0.5" stop-color="#252525"/><stop offset="0.56" stop-color="#141414"/><stop offset="0.63" stop-color="#090909"/><stop offset="0.73" stop-color="#020202"/><stop offset="1"/></radialGradient><linearGradient id="linear-gradient" x1="235.13" y1="215.02" x2="235.13" y2="416.62" gradientTransform="matrix(0.94, -0.34, 0.34, 0.94, -158.07, 100.62)" gradientUnits="userSpaceOnUse"><stop offset="0.01" stop-color="#6a140f"/><stop offset="0.16" stop-color="#a41f18"/><stop offset="0.29" stop-color="#d40023"/><stop offset="0.4" stop-color="#cd0222"/><stop offset="0.74" stop-color="#8c1a15"/><stop offset="1" stop-color="#a61f18"/></linearGradient><linearGradient id="linear-gradient-2" x1="365.81" y1="262.58" x2="365.81" y2="464.18" gradientTransform="matrix(-0.94, -0.34, -0.34, 0.94, 569.52, 100.62)" xlink:href="#linear-gradient"/><linearGradient id="linear-gradient-3" x1="142.8" y1="279.72" x2="142.8" y2="5.89" gradientTransform="translate(272.09 -12.34) rotate(84.81)" gradientUnits="userSpaceOnUse"><stop offset="0" stop-color="#a3713b"/><stop offset="0.16" stop-color="#fdf496"/><stop offset="0.22" stop-color="#fff78f"/><stop offset="0.46" stop-color="#c29c57"/><stop offset="0.57" stop-color="#f5e78a"/><stop offset="0.67" stop-color="#fef593"/><stop offset="0.72" stop-color="#ebd983"/><stop offset="0.84" stop-color="#cfb266"/><stop offset="1" stop-color="#a3713b"/></linearGradient><linearGradient id="linear-gradient-4" y1="142.8" x2="285.61" y2="142.8" gradientUnits="userSpaceOnUse"><stop offset="0" stop-color="#d8b56d"/><stop offset="0.1" stop-color="#fae397"/><stop offset="0.24" stop-color="#e4cf76"/><stop offset="0.37" stop-color="#ac8953"/><stop offset="0.62" stop-color="#8d6e47"/><stop offset="0.81" stop-color="#d8b56d"/><stop offset="0.95" stop-color="#c1a360"/></linearGradient><linearGradient id="linear-gradient-5" x1="215" y1="70.61" x2="70.61" y2="215" gradientTransform="translate(261.02 -20.93) rotate(80.83)" gradientUnits="userSpaceOnUse"><stop offset="0" stop-color="#a3713b"/><stop offset="0.22" stop-color="#fdf496"/><stop offset="0.28" stop-color="#fff78f"/><stop offset="0.48" stop-color="#c29c57"/><stop offset="0.74" stop-color="#cfb266"/><stop offset="1" stop-color="#a3713b"/></linearGradient><linearGradient id="linear-gradient-6" x1="231.24" y1="193.86" x2="54.37" y2="91.75" gradientTransform="matrix(1, 0, 0, 1, 0, 0)" xlink:href="#linear-gradient-5"/><linearGradient id="linear-gradient-7" x1="37.76" y1="142.8" x2="247.84" y2="142.8" gradientUnits="userSpaceOnUse"><stop offset="0" stop-color="#d8b56d"/><stop offset="0.1" stop-color="#fae397"/><stop offset="0.16" stop-color="#ffffda"/><stop offset="0.21" stop-color="#fff78f"/><stop offset="0.33" stop-color="#e4cf76"/><stop offset="0.48" stop-color="#ac8953"/><stop offset="0.62" stop-color="#8d6e47"/><stop offset="0.73" stop-color="#d8b56d"/><stop offset="0.84" stop-color="#fceb94"/><stop offset="0.88" stop-color="#ffffd1"/><stop offset="0.95" stop-color="#c1a360"/></linearGradient><filter id="luminosity-noclip-21" x="183.64" y="113.56" width="31.27" height="28.25" filterUnits="userSpaceOnUse" color-interpolation-filters="sRGB"><feFlood flood-color="#fff" result="bg"/><feBlend in="SourceGraphic" in2="bg"/></filter><mask id="mask-21" x="183.64" y="113.56" width="31.27" height="28.25" maskUnits="userSpaceOnUse"><g class="cls-1"><path class="cls-2" d="M208.2,139.28c7.08-4.44,8.84-13.24,3.92-19.65s-14.67-8-21.76-3.55-8.85,13.24-3.93,19.66S201.09,143.74,208.2,139.28Z"/></g></mask><radialGradient id="radial-gradient-21" cx="-1003.45" cy="635.29" r="29.04" gradientTransform="matrix(0.31, 0.4, 0.44, -0.28, 226.12, 704.86)" gradientUnits="userSpaceOnUse"><stop offset="0" stop-color="#3ac8ff"/><stop offset="0.18" stop-color="#3cc9ff"/><stop offset="0.25" stop-color="#43cbff"/><stop offset="0.3" stop-color="#4fd0ff"/><stop offset="0.34" stop-color="#60d7ff"/><stop offset="0.38" stop-color="#76e0ff"/><stop offset="0.41" stop-color="#92ebff"/><stop offset="0.43" stop-color="#b2f7ff"/><stop offset="0.45" stop-color="#c6ffff"/><stop offset="0.45" stop-color="#c4ffff"/><stop offset="0.46" stop-color="#bdffff"/><stop offset="0.46" stop-color="#b2ffff"/><stop offset="0.46" stop-color="#a1ffff"/><stop offset="0.46" stop-color="#8bffff"/><stop offset="0.46" stop-color="#70ffff"/><stop offset="0.46" stop-color="#68ffff"/><stop offset="0.57" stop-color="#58dbff"/><stop offset="0.69" stop-color="#48b8ff"/><stop offset="0.81" stop-color="#3c9fff"/><stop offset="0.91" stop-color="#3590ff"/><stop offset="1" stop-color="#338bff"/></radialGradient><filter id="luminosity-noclip-23" x="160.17" y="92.97" width="76.62" height="69.22" filterUnits="userSpaceOnUse" color-interpolation-filters="sRGB"><feFlood flood-color="#fff" result="bg"/><feBlend in="SourceGraphic" in2="bg"/></filter><mask id="mask-23" x="160.17" y="92.97" width="76.62" height="69.22" maskUnits="userSpaceOnUse"><g class="cls-30"><path class="cls-31" d="M220.33,156c17.38-10.89,21.69-32.46,9.63-48.16S194,88.25,176.65,99.14,155,131.6,167,147.3,203,166.9,220.33,156Z"/></g></mask><radialGradient id="radial-gradient-22" cx="-1004.46" cy="634.21" r="71.14" gradientTransform="matrix(0.31, 0.4, 0.44, -0.28, 226.12, 704.86)" gradientUnits="userSpaceOnUse"><stop offset="0" stop-color="#fff"/><stop offset="0.04" stop-color="#fff4e1"/><stop offset="0.12" stop-color="#ffd893"/><stop offset="0.25" stop-color="#ffab18"/><stop offset="0.27" stop-color="#ffa200"/><stop offset="0.32" stop-color="#ffb800"/><stop offset="0.37" stop-color="#ffc900"/><stop offset="0.44" stop-color="#ffd400"/><stop offset="0.53" stop-color="#ffdb00"/><stop offset="0.8" stop-color="#fd0"/><stop offset="0.82" stop-color="#f0d000"/><stop offset="0.86" stop-color="#caaf00"/><stop offset="0.9" stop-color="#8b7800"/><stop offset="0.96" stop-color="#362f00"/><stop offset="1"/></radialGradient><filter id="luminosity-noclip-26" x="153.56" y="113.53" width="89.61" height="28.87" filterUnits="userSpaceOnUse" color-interpolation-filters="sRGB"><feFlood flood-color="#fff" result="bg"/><feBlend in="SourceGraphic" in2="bg"/></filter><mask id="mask-26" x="153.56" y="113.53" width="89.61" height="28.87" maskUnits="userSpaceOnUse"><g class="cls-3"><path class="cls-4" d="M238.37,139.11c11.14,5.08,2.22,4.18-19.86-2s-49-15.23-60.18-20.31-2.2-4.19,19.87,2S227.24,134.05,238.37,139.11Z"/></g></mask><radialGradient id="radial-gradient-23" cx="1128.24" cy="-511.55" r="17.64" gradientTransform="matrix(2.27, 0.63, 1.14, 0.52, -1777.5, -319.07)" gradientUnits="userSpaceOnUse"><stop offset="0" stop-color="#ff0"/><stop offset="0.1" stop-color="#fdbf00"/><stop offset="0.18" stop-color="#fc9400"/><stop offset="0.22" stop-color="#fc8300"/><stop offset="0.23" stop-color="#ef7d02"/><stop offset="0.31" stop-color="#bf6709"/><stop offset="0.38" stop-color="#95540f"/><stop offset="0.46" stop-color="#724314"/><stop offset="0.55" stop-color="#553619"/><stop offset="0.64" stop-color="#3f2c1c"/><stop offset="0.73" stop-color="#2f251e"/><stop offset="0.85" stop-color="#262020"/><stop offset="1" stop-color="#231f20"/></radialGradient><filter id="luminosity-noclip-29" x="167.37" y="81.1" width="62" height="93.74" filterUnits="userSpaceOnUse" color-interpolation-filters="sRGB"><feFlood flood-color="#fff" result="bg"/><feBlend in="SourceGraphic" in2="bg"/></filter><mask id="mask-29" x="167.37" y="81.1" width="62" height="93.74" maskUnits="userSpaceOnUse"><g class="cls-8"><path class="cls-9" d="M227.68,168c5.56,13.5-3.05,6.46-19.23-15.62S174.61,101.45,169,88s3.09-6.46,19.25,15.63S222.09,154.5,227.68,168Z"/></g></mask><radialGradient id="radial-gradient-24" cx="466.96" cy="749.41" r="17.64" gradientTransform="matrix(1.66, 2.27, 0.57, 1.38, -1005.93, -1968.01)" gradientUnits="userSpaceOnUse"><stop offset="0" stop-color="#ff0"/><stop offset="0.19" stop-color="#fdbf00"/><stop offset="0.34" stop-color="#fc9400"/><stop offset="0.41" stop-color="#fc8300"/><stop offset="0.43" stop-color="#ef7d02"/><stop offset="0.48" stop-color="#bf6709"/><stop offset="0.54" stop-color="#95540f"/><stop offset="0.6" stop-color="#724314"/><stop offset="0.66" stop-color="#553619"/><stop offset="0.73" stop-color="#3f2c1c"/><stop offset="0.8" stop-color="#2f251e"/><stop offset="0.88" stop-color="#262020"/><stop offset="1" stop-color="#231f20"/></radialGradient><filter id="luminosity-noclip-32" x="184.77" y="74.97" width="27.19" height="106" filterUnits="userSpaceOnUse" color-interpolation-filters="sRGB"><feFlood flood-color="#fff" result="bg"/><feBlend in="SourceGraphic" in2="bg"/></filter><mask id="mask-32" x="184.77" y="74.97" width="27.19" height="106" maskUnits="userSpaceOnUse"><g class="cls-15"><path class="cls-16" d="M187.85,175c-4.77,13.55-3.89,3.45,1.91-22.49S204.12,94.53,208.88,81s3.9-3.43-1.92,22.5S192.6,161.41,187.85,175Z"/></g></mask><radialGradient id="radial-gradient-25" cx="-436.5" cy="2583.47" r="17.64" gradientTransform="matrix(-0.6, 2.66, -0.49, 1.39, 1198.08, -2297.1)" xlink:href="#radial-gradient-23"/><filter id="luminosity-noclip-35" x="140.43" y="96.24" width="116.27" height="63.49" filterUnits="userSpaceOnUse" color-interpolation-filters="sRGB"><feFlood flood-color="#fff" result="bg"/><feBlend in="SourceGraphic" in2="bg"/></filter><mask id="mask-35" x="140.43" y="96.24" width="116.27" height="63.49" maskUnits="userSpaceOnUse"><g class="cls-20"><path class="cls-21" d="M248.46,98.3c16.5-6.2,7.42,2.06-20.14,18.42s-63.22,34.73-79.69,41-7.4-2.09,20.17-18.45S232,104.52,248.46,98.3Z"/></g></mask><radialGradient id="radial-gradient-26" cx="1190.4" cy="-335.74" r="12.81" gradientTransform="matrix(3.9, -2.32, 2.32, -0.88, -3660.21, 2590.55)" xlink:href="#radial-gradient-23"/><filter id="luminosity-noclip-38" x="182.64" y="112.59" width="32.41" height="29.27" filterUnits="userSpaceOnUse" color-interpolation-filters="sRGB"><feFlood flood-color="#fff" result="bg"/><feBlend in="SourceGraphic" in2="bg"/></filter><mask id="mask-38" x="182.64" y="112.59" width="32.41" height="29.27" maskUnits="userSpaceOnUse"><g class="cls-25"><path class="cls-26" d="M185.57,118.43c5.17-6.44,15.25-7.76,22.58-2.9s9.08,14,4,20.48-15.25,7.77-22.57,2.9S180.43,124.88,185.57,118.43Z"/></g></mask><radialGradient id="radial-gradient-27" cx="1500.38" cy="318.75" r="23.92" gradientTransform="matrix(-0.55, -0.37, 0.39, -0.49, 906.74, 834.23)" gradientUnits="userSpaceOnUse"><stop offset="0" stop-color="#fff"/><stop offset="0.12" stop-color="#fffefd"/><stop offset="0.16" stop-color="#fffaf6"/><stop offset="0.2" stop-color="#fff3eb"/><stop offset="0.22" stop-color="#ffe9da"/><stop offset="0.24" stop-color="#ffdbc4"/><stop offset="0.26" stop-color="#ffcba8"/><stop offset="0.28" stop-color="#ffb788"/><stop offset="0.29" stop-color="#ffa162"/><stop offset="0.31" stop-color="#ff8839"/><stop offset="0.31" stop-color="#ff7c25"/><stop offset="0.35" stop-color="#d5681f"/><stop offset="0.38" stop-color="#a95218"/><stop offset="0.42" stop-color="#803e13"/><stop offset="0.47" stop-color="#5d2d0e"/><stop offset="0.52" stop-color="#401f09"/><stop offset="0.57" stop-color="#291406"/><stop offset="0.63" stop-color="#160b03"/><stop offset="0.7" stop-color="#0a0501"/><stop offset="0.8" stop-color="#020100"/><stop offset="1"/></radialGradient></defs><title>hátterekEszköz 2</title><g class="cls-35"><g id="Réteg_2" data-name="Réteg 2"><g id="Réteg_1" data-name="Réteg 1"><polygon class="cls-36" points="249.38 395.68 199.65 396 161.35 427.72 92.4 238.28 180.43 206.24 249.38 395.68"/><polygon class="cls-37" points="164.41 212.29 232.17 395.79 234.6 395.77 166.55 211.5 164.41 212.29"/><polygon class="cls-37" points="104.79 235.23 172.47 418.51 174.33 416.97 106.93 234.44 104.79 235.23"/><g class="cls-38"><polygon class="cls-39" points="181.8 210 156.38 214.99 151.09 216.91 182.1 210.83 181.8 210"/><polygon class="cls-39" points="117.36 229.19 111.87 231.19 93.44 241.16 93.74 241.97 117.36 229.19"/><polygon class="cls-39" points="95.6 247.08 95.9 247.89 135.9 226.24 184.26 216.75 183.96 215.93 135.67 225.4 95.6 247.08"/><polygon class="cls-39" points="97.75 253 98.05 253.81 138.04 232.17 186.41 222.68 186.11 221.85 137.81 231.33 97.75 253"/><polygon class="cls-39" points="99.91 258.92 100.21 259.74 140.19 238.1 188.57 228.6 188.27 227.77 139.96 237.25 99.91 258.92"/><polygon class="cls-39" points="102.06 264.84 102.36 265.65 142.33 244.02 190.73 234.53 190.43 233.7 142.1 243.18 102.06 264.84"/><polygon class="cls-39" points="104.22 270.76 104.52 271.57 144.47 249.95 192.88 240.45 192.58 239.62 144.24 249.11 104.22 270.76"/><polygon class="cls-39" points="106.37 276.68 106.67 277.5 146.61 255.88 195.04 246.38 194.74 245.55 146.38 255.04 106.37 276.68"/><polygon class="cls-39" points="108.53 282.6 108.83 283.42 148.76 261.81 197.2 252.3 196.9 251.47 148.52 260.96 108.53 282.6"/><polygon class="cls-39" points="110.68 288.52 110.98 289.34 150.9 267.73 199.35 258.23 199.05 257.4 150.67 266.89 110.68 288.52"/><polygon class="cls-39" points="112.84 294.44 113.14 295.26 153.04 273.66 201.51 264.15 201.21 263.32 152.81 272.82 112.84 294.44"/><polygon class="cls-39" points="114.99 300.36 115.29 301.18 155.18 279.59 203.66 270.07 203.36 269.25 154.95 278.75 114.99 300.36"/><polygon class="cls-39" points="117.15 306.28 117.45 307.1 157.32 285.51 205.82 276 205.52 275.17 157.09 284.67 117.15 306.28"/><polygon class="cls-39" points="119.3 312.2 119.6 313.02 159.47 291.44 207.98 281.92 207.68 281.1 159.24 290.6 119.3 312.2"/><polygon class="cls-39" points="121.46 318.12 121.76 318.94 161.61 297.37 210.13 287.85 209.83 287.02 161.38 296.53 121.46 318.12"/><polygon class="cls-39" points="123.61 324.04 123.91 324.86 163.75 303.3 212.29 293.77 211.99 292.94 163.52 302.46 123.61 324.04"/><polygon class="cls-39" points="125.77 329.96 126.07 330.78 165.89 309.23 214.45 299.7 214.15 298.87 165.66 308.38 125.77 329.96"/><polygon class="cls-39" points="127.92 335.88 128.22 336.7 168.04 315.15 216.6 305.62 216.3 304.79 167.81 314.31 127.92 335.88"/><polygon class="cls-39" points="130.08 341.8 130.38 342.62 170.18 321.08 218.76 311.55 218.46 310.72 169.95 320.24 130.08 341.8"/><polygon class="cls-39" points="132.23 347.72 132.53 348.54 172.32 327 220.92 317.47 220.61 316.64 172.09 326.16 132.23 347.72"/><polygon class="cls-39" points="134.39 353.64 134.69 354.46 174.46 332.93 223.07 323.39 222.77 322.57 174.23 332.09 134.39 353.64"/><polygon class="cls-39" points="136.54 359.56 136.84 360.38 176.6 338.86 225.23 329.32 224.93 328.49 176.37 338.02 136.54 359.56"/><polygon class="cls-39" points="138.7 365.49 139 366.3 178.75 344.79 227.38 335.24 227.08 334.42 178.52 343.95 138.7 365.49"/><polygon class="cls-39" points="140.85 371.4 141.15 372.22 180.89 350.71 229.54 341.17 229.24 340.34 180.66 349.87 140.85 371.4"/><polygon class="cls-39" points="143.01 377.33 143.31 378.14 183.03 356.64 231.7 347.09 231.4 346.26 182.8 355.8 143.01 377.33"/><polygon class="cls-39" points="145.16 383.25 145.46 384.06 185.17 362.57 233.85 353.02 233.55 352.19 184.94 361.73 145.16 383.25"/><polygon class="cls-39" points="147.32 389.17 147.61 389.98 187.32 368.5 236.01 358.94 235.71 358.11 187.08 367.65 147.32 389.17"/><polygon class="cls-39" points="149.47 395.09 149.77 395.9 189.46 374.42 238.17 364.87 237.87 364.04 189.23 373.58 149.47 395.09"/><polygon class="cls-39" points="151.63 401.01 151.92 401.82 191.6 380.35 240.32 370.79 240.02 369.96 191.37 379.51 151.63 401.01"/><polygon class="cls-39" points="153.78 406.93 154.08 407.75 193.74 386.28 242.48 376.72 242.18 375.89 193.51 385.44 153.78 406.93"/><polygon class="cls-39" points="155.94 412.85 156.23 413.67 195.89 392.21 244.64 382.64 244.34 381.81 195.65 391.36 155.94 412.85"/><polygon class="cls-39" points="158.09 418.77 158.39 419.59 195.27 399.63 198.18 397.21 197.79 397.29 158.09 418.77"/><polygon class="cls-39" points="209.23 395.94 246.79 388.56 246.49 387.74 204.55 395.97 209.23 395.94"/><polygon class="cls-39" points="242.68 395.72 248.95 394.49 248.65 393.66 238 395.75 242.68 395.72"/><polygon class="cls-39" points="160.54 425.51 170.56 420.08 173.96 417.27 160.25 424.69 160.54 425.51"/></g><polygon class="cls-40" points="23 395.68 72.73 396 111.03 427.72 179.98 238.28 91.95 206.24 23 395.68"/><polygon class="cls-37" points="102.78 210.85 34.51 395.75 36.94 395.77 104.92 211.65 102.78 210.85"/><polygon class="cls-37" points="166.04 233.2 98.16 417.05 100.02 418.6 168.19 233.98 166.04 233.2"/><g class="cls-38"><polygon class="cls-39" points="116 214.99 90.58 210 90.28 210.83 121.29 216.91 116 214.99"/><polygon class="cls-39" points="155.03 229.19 178.64 241.97 178.94 241.16 160.51 231.19 155.03 229.19"/><polygon class="cls-39" points="88.42 215.93 88.12 216.75 136.48 226.24 176.48 247.89 176.78 247.08 136.71 225.4 88.42 215.93"/><polygon class="cls-39" points="86.27 221.85 85.97 222.68 134.34 232.17 174.33 253.81 174.63 253 134.57 231.33 86.27 221.85"/><polygon class="cls-39" points="84.11 227.77 83.81 228.6 132.19 238.1 172.17 259.74 172.47 258.92 132.43 237.25 84.11 227.77"/><polygon class="cls-39" points="81.95 233.7 81.66 234.53 130.05 244.02 170.02 265.65 170.32 264.84 130.28 243.18 81.95 233.7"/><polygon class="cls-39" points="79.8 239.62 79.5 240.45 127.91 249.95 167.86 271.57 168.16 270.76 128.14 249.11 79.8 239.62"/><polygon class="cls-39" points="77.64 245.55 77.34 246.38 125.77 255.88 165.71 277.5 166.01 276.68 126 255.04 77.64 245.55"/><polygon class="cls-39" points="75.49 251.47 75.19 252.3 123.63 261.81 163.56 283.42 163.85 282.6 123.86 260.96 75.49 251.47"/><polygon class="cls-39" points="73.33 257.4 73.03 258.23 121.48 267.73 161.4 289.34 161.7 288.52 121.72 266.89 73.33 257.4"/><polygon class="cls-39" points="71.17 263.32 70.87 264.15 119.34 273.66 159.25 295.26 159.54 294.44 119.57 272.82 71.17 263.32"/><polygon class="cls-39" points="69.02 269.25 68.72 270.07 117.2 279.59 157.09 301.18 157.39 300.36 117.43 278.75 69.02 269.25"/><polygon class="cls-39" points="66.86 275.17 66.56 276 115.06 285.51 154.94 307.1 155.23 306.28 115.29 284.67 66.86 275.17"/><polygon class="cls-39" points="64.7 281.1 64.4 281.92 112.91 291.44 152.78 313.02 153.08 312.2 113.15 290.6 64.7 281.1"/><polygon class="cls-39" points="62.55 287.02 62.25 287.85 110.77 297.37 150.63 318.94 150.92 318.12 111 296.53 62.55 287.02"/><polygon class="cls-39" points="60.39 292.94 60.09 293.77 108.63 303.3 148.47 324.86 148.77 324.04 108.86 302.46 60.39 292.94"/><polygon class="cls-39" points="58.24 298.87 57.93 299.7 106.49 309.23 146.32 330.78 146.61 329.96 106.72 308.38 58.24 298.87"/><polygon class="cls-39" points="56.08 304.79 55.78 305.62 104.34 315.15 144.16 336.7 144.46 335.88 104.58 314.31 56.08 304.79"/><polygon class="cls-39" points="53.92 310.72 53.62 311.55 102.2 321.08 142.01 342.62 142.3 341.8 102.44 320.24 53.92 310.72"/><polygon class="cls-39" points="51.77 316.64 51.47 317.47 100.06 327 139.85 348.54 140.15 347.72 100.29 326.16 51.77 316.64"/><polygon class="cls-39" points="49.61 322.57 49.31 323.39 97.92 332.93 137.7 354.46 137.99 353.64 98.15 332.09 49.61 322.57"/><polygon class="cls-39" points="47.45 328.49 47.15 329.32 95.78 338.86 135.54 360.38 135.84 359.56 96.01 338.02 47.45 328.49"/><polygon class="cls-39" points="45.3 334.42 45 335.24 93.63 344.79 133.39 366.3 133.68 365.49 93.86 343.95 45.3 334.42"/><polygon class="cls-39" points="43.14 340.34 42.84 341.17 91.49 350.71 131.23 372.22 131.53 371.4 91.72 349.87 43.14 340.34"/><polygon class="cls-39" points="40.98 346.26 40.68 347.09 89.35 356.64 129.08 378.14 129.37 377.33 89.58 355.8 40.98 346.26"/><polygon class="cls-39" points="38.83 352.19 38.53 353.02 87.21 362.57 126.92 384.06 127.22 383.25 87.44 361.73 38.83 352.19"/><polygon class="cls-39" points="36.67 358.11 36.37 358.94 85.06 368.5 124.77 389.98 125.06 389.17 85.3 367.65 36.67 358.11"/><polygon class="cls-39" points="34.52 364.04 34.22 364.87 82.92 374.42 122.61 395.9 122.91 395.09 83.16 373.58 34.52 364.04"/><polygon class="cls-39" points="32.36 369.96 32.06 370.79 80.78 380.35 120.46 401.83 120.75 401.01 81.01 379.51 32.36 369.96"/><polygon class="cls-39" points="30.2 375.89 29.9 376.72 78.64 386.28 118.3 407.75 118.6 406.93 78.87 385.44 30.2 375.89"/><polygon class="cls-39" points="28.05 381.81 27.75 382.64 76.5 392.21 116.15 413.67 116.44 412.85 76.73 391.36 28.05 381.81"/><polygon class="cls-39" points="74.2 397.21 77.11 399.63 113.99 419.59 114.29 418.77 74.59 397.29 74.2 397.21"/><polygon class="cls-39" points="25.59 388.56 63.16 395.94 67.83 395.97 25.89 387.74 25.59 388.56"/><polygon class="cls-39" points="23.43 394.49 29.7 395.72 34.38 395.75 23.73 393.66 23.43 394.49"/><polygon class="cls-39" points="101.82 420.08 111.84 425.51 112.14 424.69 98.42 417.27 101.82 420.08"/></g><circle class="cls-41" cx="142.8" cy="142.8" r="136.91" transform="translate(-12.34 272.09) rotate(-84.81)"/><path class="cls-42" d="M142.8,8.83c73.87,0,134,60.1,134,134s-60.1,134-134,134-134-60.1-134-134,60.09-134,134-134Zm0-5.89A139.86,139.86,0,1,0,282.66,142.8,139.85,139.85,0,0,0,142.8,2.94Z"/><g class="cls-43"><path class="cls-44" d="M141.12,266.1a120.6,120.6,0,1,1,120.6-120.6A120.74,120.74,0,0,1,141.12,266.1Zm0-238.41A117.81,117.81,0,1,0,258.93,145.5,117.94,117.94,0,0,0,141.12,27.69Z"/><path class="cls-44" d="M147.85,39.58s-12.72.08-13.21-13.85C134.57,23.86,147.36,25.87,147.85,39.58Z"/><path class="cls-44" d="M149.46,12.18s-12.6-1.75-14.92,12C134.23,26,147.17,25.7,149.46,12.18Z"/><path class="cls-44" d="M136.14,249.67s12.72-.08,13.22,13.85C149.42,265.39,136.64,263.37,136.14,249.67Z"/><path class="cls-44" d="M134.53,277.07s12.6,1.75,14.92-12C149.76,263.23,136.83,263.54,134.53,277.07Z"/><path class="cls-44" d="M134.09,39.71s-12.6,1.74-14.91-12C118.87,25.86,131.81,26.19,134.09,39.71Z"/><path class="cls-44" d="M132.11,12.34s-12.72-.09-13.23,13.84C118.81,28.05,131.6,26.05,132.11,12.34Z"/><path class="cls-44" d="M149.91,249.53s12.59-1.74,14.9,12C165.12,263.39,152.18,263.06,149.91,249.53Z"/><path class="cls-44" d="M151.89,276.91s12.71.09,13.22-13.84C165.18,261.2,152.39,263.2,151.89,276.91Z"/><path class="cls-44" d="M120.46,41.64s-12.26,3.37-16.34-10C103.57,29.9,116.44,28.53,120.46,41.64Z"/><path class="cls-44" d="M114.93,14.76s-12.62,1.57-11.31,15.45C103.8,32.07,116.21,28.42,114.93,14.76Z"/><path class="cls-44" d="M163.53,247.6s12.26-3.36,16.35,10C180.43,259.35,167.55,260.71,163.53,247.6Z"/><path class="cls-44" d="M169.07,274.48s12.62-1.56,11.3-15.44C180.2,257.18,167.78,260.83,169.07,274.48Z"/><path class="cls-44" d="M107.2,45.34s-11.71,4.94-17.5-7.75C88.92,35.9,101.5,32.86,107.2,45.34Z"/><path class="cls-44" d="M98.21,19.41S85.9,22.61,89,36.2C89.43,38,101.26,32.78,98.21,19.41Z"/><path class="cls-44" d="M176.79,243.91s11.72-4.94,17.51,7.74C195.07,253.35,182.49,256.39,176.79,243.91Z"/><path class="cls-44" d="M185.79,269.84s12.3-3.2,9.19-16.79C194.56,251.23,182.73,256.47,185.79,269.84Z"/><path class="cls-44" d="M94.54,50.73s-11,6.42-18.37-5.39C75.18,43.75,87.26,39.1,94.54,50.73Z"/><path class="cls-44" d="M82.24,26.19S70.45,31,75.31,44C76,45.79,87,39.05,82.24,26.19Z"/><path class="cls-44" d="M189.45,238.52s11-6.43,18.37,5.39C208.81,245.5,196.73,250.14,189.45,238.52Z"/><path class="cls-44" d="M201.75,263.05s11.79-4.78,6.93-17.84C208,243.46,197,250.2,201.75,263.05Z"/><path class="cls-44" d="M82.69,57.72s-10,7.81-18.91-2.94C62.59,53.34,74,47.15,82.69,57.72Z"/><path class="cls-44" d="M67.29,35s-11.06,6.27-4.53,18.6C63.63,55.26,73.7,47.13,67.29,35Z"/><path class="cls-44" d="M201.3,231.52s10-7.8,18.92,2.95C221.4,235.91,210,242.1,201.3,231.52Z"/><path class="cls-44" d="M216.7,254.24s11.06-6.28,4.54-18.6C220.36,234,210.29,242.12,216.7,254.24Z"/><path class="cls-44" d="M71.86,66.21s-8.94,9.05-19.14-.45C51.35,64.48,61.82,56.87,71.86,66.21Z"/><path class="cls-44" d="M53.62,45.7s-10.14,7.66-2.07,19C52.64,66.25,61.56,56.88,53.62,45.7Z"/><path class="cls-44" d="M212.14,223s8.93-9,19.13.45C232.64,224.77,222.18,232.38,212.14,223Z"/><path class="cls-44" d="M230.37,243.55s10.15-7.67,2.07-19C231.36,223,222.43,232.37,230.37,243.55Z"/><path class="cls-44" d="M62.22,76s-7.68,10.14-19,2C41.67,77,51.05,68.08,62.22,76Z"/><path class="cls-44" d="M41.47,58.08S32.41,67,41.9,77.22C43.17,78.58,50.8,68.13,41.47,58.08Z"/><path class="cls-44" d="M221.77,213.21s7.68-10.13,19-2C242.33,212.25,232.94,221.17,221.77,213.21Z"/><path class="cls-44" d="M242.53,231.17s9.05-8.93-.44-19.14C240.82,210.66,233.19,221.12,242.53,231.17Z"/><path class="cls-44" d="M54,87s-6.29,11.06-18.6,4.52C33.7,90.67,41.84,80.61,54,87Z"/><path class="cls-44" d="M31,71.94S23.21,82,34,90.86C35.4,92.05,41.59,80.69,31,71.94Z"/><path class="cls-44" d="M230,202.22s6.29-11.06,18.6-4.52C250.29,198.58,242.16,208.64,230,202.22Z"/><path class="cls-44" d="M253,217.31s7.82-10-2.92-18.92C248.6,197.2,242.4,208.56,253,217.31Z"/><path class="cls-44" d="M47.19,99s-4.79,11.78-17.86,6.9C27.58,105.27,34.34,94.23,47.19,99Z"/><path class="cls-44" d="M22.49,87.05s-6.44,11,5.37,18.37C29.45,106.41,34.11,94.34,22.49,87.05Z"/><path class="cls-44" d="M236.81,190.23s4.79-11.78,17.85-6.91C256.41,184,249.66,195,236.81,190.23Z"/><path class="cls-44" d="M261.5,202.2s6.44-11-5.37-18.37C254.55,182.84,249.89,194.91,261.5,202.2Z"/><path class="cls-44" d="M42.05,111.78s-3.22,12.31-16.8,9.18C23.43,120.54,28.68,108.71,42.05,111.78Z"/><path class="cls-44" d="M16,103.14s-4.95,11.71,7.72,17.51C25.42,121.43,28.47,108.85,16,103.14Z"/><path class="cls-44" d="M242,177.47s3.21-12.31,16.8-9.18C260.57,168.71,255.31,180.54,242,177.47Z"/><path class="cls-44" d="M268,186.11s5-11.71-7.72-17.51C258.57,167.82,255.53,180.4,268,186.11Z"/><path class="cls-44" d="M38.61,125.11S37,137.73,23.16,136.4C21.3,136.22,25,123.81,38.61,125.11Z"/><path class="cls-44" d="M11.66,119.94s-3.38,12.26,10,16.36C23.39,136.84,24.77,124,11.66,119.94Z"/><path class="cls-44" d="M245.38,164.14s1.58-12.62,15.46-11.29C262.7,153,259,165.44,245.38,164.14Z"/><path class="cls-44" d="M272.33,169.31s3.38-12.26-9.94-16.36C260.6,152.4,259.23,165.27,272.33,169.31Z"/><path class="cls-44" d="M37,138.77S37,151.49,23.1,152C21.23,152.05,23.25,139.26,37,138.77Z"/><path class="cls-44" d="M9.55,137.16s-1.75,12.6,12,14.92C23.39,152.39,23.07,139.45,9.55,137.16Z"/><path class="cls-44" d="M247,150.48s-.08-12.72,13.85-13.22C262.76,137.2,260.75,150,247,150.48Z"/><path class="cls-44" d="M274.44,152.09s1.75-12.6-12-14.92C260.6,136.86,260.92,149.79,274.44,152.09Z"/><path class="cls-44" d="M37.09,152.53s1.74,12.6-12,14.91C23.24,167.75,23.56,154.81,37.09,152.53Z"/><path class="cls-44" d="M9.71,154.51s-.09,12.72,13.84,13.23C25.42,167.81,23.42,155,9.71,154.51Z"/><path class="cls-44" d="M246.91,136.72s-1.74-12.6,12-14.91C260.76,121.5,260.43,134.44,246.91,136.72Z"/><path class="cls-44" d="M274.28,134.74s.09-12.72-13.84-13.23C258.57,121.44,260.58,134.23,274.28,134.74Z"/><path class="cls-44" d="M39,166.16s3.37,12.26-10,16.35C27.27,183.05,25.91,170.18,39,166.16Z"/><path class="cls-44" d="M12.14,171.69S13.7,184.31,27.58,183C29.44,182.83,25.79,170.41,12.14,171.69Z"/><path class="cls-44" d="M245,123.09s-3.37-12.26,10-16.35C256.72,106.2,258.09,119.07,245,123.09Z"/><path class="cls-44" d="M271.86,117.55s-1.57-12.62-15.45-11.3C254.55,106.42,258.2,118.84,271.86,117.55Z"/><path class="cls-44" d="M42.71,179.42s4.94,11.71-7.74,17.5C33.27,197.7,30.24,185.12,42.71,179.42Z"/><path class="cls-44" d="M16.78,188.41s3.2,12.31,16.79,9.2C35.39,197.19,30.15,185.36,16.78,188.41Z"/><path class="cls-44" d="M241.29,109.83s-4.95-11.72,7.74-17.5C250.73,91.55,253.76,104.13,241.29,109.83Z"/><path class="cls-44" d="M267.21,100.84s-3.2-12.31-16.79-9.2C248.6,92.06,253.84,103.89,267.21,100.84Z"/><path class="cls-44" d="M48.1,192.08s6.43,11-5.39,18.37C41.13,211.44,36.48,199.36,48.1,192.08Z"/><path class="cls-44" d="M23.57,204.38s4.78,11.79,17.84,6.93C43.16,210.66,36.42,199.61,23.57,204.38Z"/><path class="cls-44" d="M235.89,97.17s-6.42-11,5.4-18.37C242.87,77.81,247.52,89.89,235.89,97.17Z"/><path class="cls-44" d="M260.43,84.87s-4.78-11.79-17.85-6.93C240.83,78.59,247.57,89.64,260.43,84.87Z"/><path class="cls-44" d="M55.1,203.93s7.8,10-3,18.91C50.71,224,44.52,212.66,55.1,203.93Z"/><path class="cls-44" d="M32.38,219.33s6.28,11.06,18.6,4.53C52.63,223,44.5,212.92,32.38,219.33Z"/><path class="cls-44" d="M228.9,85.32s-7.81-10,2.94-18.91C233.28,65.22,239.47,76.59,228.9,85.32Z"/><path class="cls-44" d="M251.61,69.92S245.34,58.86,233,65.38C231.36,66.26,239.49,76.33,251.61,69.92Z"/><path class="cls-44" d="M63.58,214.76s9,8.94-.45,19.14C61.85,235.27,54.24,224.8,63.58,214.76Z"/><path class="cls-44" d="M43.07,233s7.67,10.14,19,2.07C63.62,234,54.25,225.06,43.07,233Z"/><path class="cls-44" d="M220.41,74.49s-9-8.94.46-19.14C222.14,54,229.75,64.45,220.41,74.49Z"/><path class="cls-44" d="M240.92,56.25s-7.66-10.14-19-2.07C220.37,55.26,229.74,64.19,240.92,56.25Z"/><path class="cls-44" d="M73.41,224.4s10.13,7.68,2,19C74.37,245,65.45,235.57,73.41,224.4Z"/><path class="cls-44" d="M55.45,245.16s8.93,9.05,19.14-.44C76,243.45,65.5,235.82,55.45,245.16Z"/><path class="cls-44" d="M210.59,64.85s-10.14-7.68-2.05-19C209.62,44.3,218.54,53.68,210.59,64.85Z"/><path class="cls-44" d="M228.54,44.09s-8.92-9.05-19.14.44C208,45.8,218.49,53.43,228.54,44.09Z"/><path class="cls-44" d="M84.41,232.67s11,6.29,4.51,18.6C88.05,252.92,78,244.78,84.41,232.67Z"/><path class="cls-44" d="M69.31,255.59s10,7.82,18.92-2.93C89.42,251.22,78.06,245,69.31,255.59Z"/><path class="cls-44" d="M199.59,56.58s-11.06-6.29-4.52-18.6C196,36.33,206,44.46,199.59,56.58Z"/><path class="cls-44" d="M214.68,33.66s-10-7.82-18.92,2.92C194.57,38,205.93,44.22,214.68,33.66Z"/><path class="cls-44" d="M96.39,239.43s11.78,4.8,6.9,17.86C102.64,259,91.6,252.28,96.39,239.43Z"/><path class="cls-44" d="M84.42,264.13s11,6.44,18.37-5.37C103.78,257.18,91.71,252.51,84.42,264.13Z"/><path class="cls-44" d="M187.6,49.82S175.82,45,180.7,32C181.35,30.21,192.39,37,187.6,49.82Z"/><path class="cls-44" d="M199.57,25.12s-11-6.44-18.37,5.37C180.21,32.07,192.28,36.73,199.57,25.12Z"/><path class="cls-44" d="M109.16,244.58s12.3,3.21,9.17,16.8C117.91,263.19,106.08,257.94,109.16,244.58Z"/><path class="cls-44" d="M100.51,270.62s11.71,5,17.52-7.72C118.8,261.2,106.22,258.16,100.51,270.62Z"/><path class="cls-44" d="M174.84,44.67s-12.31-3.21-9.18-16.8C166.08,26.05,177.91,31.31,174.84,44.67Z"/><path class="cls-44" d="M183.48,18.63s-11.71-5-17.51,7.72C165.19,28.05,177.77,31.09,183.48,18.63Z"/><path class="cls-44" d="M122.48,248s12.62,1.58,11.29,15.45C133.6,265.32,121.18,261.66,122.48,248Z"/><path class="cls-44" d="M117.31,275s12.26,3.38,16.36-9.95C134.22,263.23,121.35,261.85,117.31,275Z"/><path class="cls-44" d="M161.51,41.24s-12.62-1.58-11.29-15.46C150.4,23.92,162.81,27.59,161.51,41.24Z"/><path class="cls-44" d="M166.68,14.29s-12.26-3.38-16.36,9.94C149.78,26,162.65,27.4,166.68,14.29Z"/></g><g class="cls-45"><path class="cls-42" d="M141.12,264.75a120.6,120.6,0,1,1,120.6-120.6A120.74,120.74,0,0,1,141.12,264.75Zm0-238.41A117.81,117.81,0,1,0,258.93,144.15,117.94,117.94,0,0,0,141.12,26.34Z"/><path class="cls-42" d="M147.85,38.23s-12.72.08-13.21-13.85C134.57,22.51,147.36,24.52,147.85,38.23Z"/><path class="cls-42" d="M149.46,10.83s-12.6-1.75-14.92,12C134.23,24.67,147.17,24.35,149.46,10.83Z"/><path class="cls-42" d="M136.14,248.32s12.72-.08,13.22,13.85C149.42,264,136.64,262,136.14,248.32Z"/><path class="cls-42" d="M134.53,275.71s12.6,1.76,14.92-12C149.76,261.88,136.83,262.19,134.53,275.71Z"/><path class="cls-42" d="M134.09,38.36s-12.6,1.74-14.91-12C118.87,24.51,131.81,24.84,134.09,38.36Z"/><path class="cls-42" d="M132.11,11s-12.72-.09-13.23,13.84C118.81,26.7,131.6,24.69,132.11,11Z"/><path class="cls-42" d="M149.91,248.18s12.59-1.74,14.9,12C165.12,262,152.18,261.71,149.91,248.18Z"/><path class="cls-42" d="M151.89,275.56s12.71.09,13.22-13.84C165.18,259.85,152.39,261.85,151.89,275.56Z"/><path class="cls-42" d="M120.46,40.29s-12.26,3.37-16.34-10C103.57,28.55,116.44,27.18,120.46,40.29Z"/><path class="cls-42" d="M114.93,13.41S102.31,15,103.62,28.86C103.8,30.72,116.21,27.07,114.93,13.41Z"/><path class="cls-42" d="M163.53,246.25s12.26-3.37,16.35,10C180.43,258,167.55,259.36,163.53,246.25Z"/><path class="cls-42" d="M169.07,273.13s12.62-1.56,11.3-15.44C180.2,255.83,167.78,259.48,169.07,273.13Z"/><path class="cls-42" d="M107.2,44s-11.71,5-17.5-7.74C88.92,34.54,101.5,31.51,107.2,44Z"/><path class="cls-42" d="M98.21,18.06S85.9,21.26,89,34.85C89.43,36.67,101.26,31.43,98.21,18.06Z"/><path class="cls-42" d="M176.79,242.56s11.72-4.94,17.51,7.74C195.07,252,182.49,255,176.79,242.56Z"/><path class="cls-42" d="M185.79,268.49s12.3-3.2,9.19-16.79C194.56,249.88,182.73,255.12,185.79,268.49Z"/><path class="cls-42" d="M94.54,49.38s-11,6.42-18.37-5.4C75.18,42.4,87.26,37.75,94.54,49.38Z"/><path class="cls-42" d="M82.24,24.84s-11.79,4.78-6.93,17.85C76,44.44,87,37.7,82.24,24.84Z"/><path class="cls-42" d="M189.45,237.17s11-6.43,18.37,5.39C208.81,244.14,196.73,248.79,189.45,237.17Z"/><path class="cls-42" d="M201.75,261.7s11.79-4.78,6.93-17.84C208,242.11,197,248.85,201.75,261.7Z"/><path class="cls-42" d="M82.69,56.37s-10,7.81-18.91-2.94C62.59,52,74,45.8,82.69,56.37Z"/><path class="cls-42" d="M67.29,33.66s-11.06,6.27-4.53,18.59C63.63,53.9,73.7,45.78,67.29,33.66Z"/><path class="cls-42" d="M201.3,230.17s10-7.8,18.92,3C221.4,234.56,210,240.75,201.3,230.17Z"/><path class="cls-42" d="M216.7,252.89s11.06-6.28,4.54-18.6C220.36,232.64,210.29,240.77,216.7,252.89Z"/><path class="cls-42" d="M71.86,64.86s-8.94,9-19.14-.46C51.35,63.13,61.82,55.51,71.86,64.86Z"/><path class="cls-42" d="M53.62,44.35s-10.14,7.66-2.07,19C52.64,64.9,61.56,55.53,53.62,44.35Z"/><path class="cls-42" d="M212.14,221.69s8.93-9.05,19.13.45C232.64,223.41,222.18,231,212.14,221.69Z"/><path class="cls-42" d="M230.37,242.2s10.15-7.67,2.07-19C231.36,221.65,222.43,231,230.37,242.2Z"/><path class="cls-42" d="M62.22,74.68s-7.68,10.14-19,2C41.67,75.65,51.05,66.73,62.22,74.68Z"/><path class="cls-42" d="M41.47,56.73s-9.06,8.92.43,19.14C43.17,77.23,50.8,66.78,41.47,56.73Z"/><path class="cls-42" d="M221.77,211.86s7.68-10.13,19-2.05C242.33,210.9,232.94,219.81,221.77,211.86Z"/><path class="cls-42" d="M242.53,229.82s9.05-8.93-.44-19.14C240.82,209.31,233.19,219.77,242.53,229.82Z"/><path class="cls-42" d="M54,85.68s-6.29,11.06-18.6,4.52C33.7,89.32,41.84,79.26,54,85.68Z"/><path class="cls-42" d="M31,70.59s-7.82,10,2.93,18.92C35.4,90.7,41.59,79.33,31,70.59Z"/><path class="cls-42" d="M230,200.86s6.29-11.05,18.6-4.51C250.29,197.22,242.16,207.29,230,200.86Z"/><path class="cls-42" d="M253,216s7.82-10-2.92-18.92C248.6,195.85,242.4,207.21,253,216Z"/><path class="cls-42" d="M47.19,97.67s-4.79,11.78-17.86,6.9C27.58,103.92,34.34,92.88,47.19,97.67Z"/><path class="cls-42" d="M22.49,85.7s-6.44,11,5.37,18.37C29.45,105.06,34.11,93,22.49,85.7Z"/><path class="cls-42" d="M236.81,188.88s4.79-11.78,17.85-6.91C256.41,182.63,249.66,193.67,236.81,188.88Z"/><path class="cls-42" d="M261.5,200.85s6.44-11-5.37-18.37C254.55,181.48,249.89,193.56,261.5,200.85Z"/><path class="cls-42" d="M42.05,110.43s-3.22,12.31-16.8,9.18C23.43,119.19,28.68,107.36,42.05,110.43Z"/><path class="cls-42" d="M16,101.79s-4.95,11.71,7.72,17.51C25.42,120.08,28.47,107.5,16,101.79Z"/><path class="cls-42" d="M242,176.11s3.21-12.3,16.8-9.17C260.57,167.36,255.31,179.18,242,176.11Z"/><path class="cls-42" d="M268,184.76s5-11.71-7.72-17.52C258.57,166.47,255.53,179.05,268,184.76Z"/><path class="cls-42" d="M38.61,123.76S37,136.38,23.16,135.05C21.3,134.87,25,122.46,38.61,123.76Z"/><path class="cls-42" d="M11.66,118.59s-3.38,12.26,10,16.35C23.39,135.49,24.77,122.62,11.66,118.59Z"/><path class="cls-42" d="M245.38,162.79s1.58-12.62,15.46-11.29C262.7,151.67,259,164.09,245.38,162.79Z"/><path class="cls-42" d="M272.33,168s3.38-12.26-9.94-16.36C260.6,151.05,259.23,163.92,272.33,168Z"/><path class="cls-42" d="M37,137.42S37,150.14,23.1,150.63C21.23,150.7,23.25,137.91,37,137.42Z"/><path class="cls-42" d="M9.55,135.81s-1.75,12.6,12,14.92C23.39,151,23.07,138.1,9.55,135.81Z"/><path class="cls-42" d="M247,149.13s-.08-12.72,13.85-13.22C262.76,135.85,260.75,148.63,247,149.13Z"/><path class="cls-42" d="M274.44,150.73s1.75-12.59-12-14.91C260.6,135.5,260.92,148.44,274.44,150.73Z"/><path class="cls-42" d="M37.09,151.18s1.74,12.6-12,14.91C23.24,166.4,23.56,153.46,37.09,151.18Z"/><path class="cls-42" d="M9.71,153.16s-.09,12.72,13.84,13.23C25.42,166.46,23.42,153.67,9.71,153.16Z"/><path class="cls-42" d="M246.91,135.36s-1.74-12.59,12-14.9C260.76,120.15,260.43,133.09,246.91,135.36Z"/><path class="cls-42" d="M274.28,133.38s.09-12.71-13.84-13.22C258.57,120.09,260.58,132.88,274.28,133.38Z"/><path class="cls-42" d="M39,164.81s3.37,12.26-10,16.34C27.27,181.7,25.91,168.83,39,164.81Z"/><path class="cls-42" d="M12.14,170.34S13.7,183,27.58,181.65C29.44,181.47,25.79,169.06,12.14,170.34Z"/><path class="cls-42" d="M245,121.74s-3.37-12.26,10-16.35C256.72,104.84,258.09,117.72,245,121.74Z"/><path class="cls-42" d="M271.86,116.2s-1.57-12.62-15.45-11.3C254.55,105.07,258.2,117.49,271.86,116.2Z"/><path class="cls-42" d="M42.71,178.06s4.94,11.72-7.74,17.51C33.27,196.35,30.24,183.76,42.71,178.06Z"/><path class="cls-42" d="M16.78,187.06s3.2,12.31,16.79,9.2C35.39,195.84,30.15,184,16.78,187.06Z"/><path class="cls-42" d="M241.29,108.48S236.34,96.76,249,91C250.73,90.2,253.76,102.78,241.29,108.48Z"/><path class="cls-42" d="M267.21,99.48s-3.2-12.3-16.79-9.19C248.6,90.71,253.84,102.54,267.21,99.48Z"/><path class="cls-42" d="M48.1,190.73s6.43,11-5.39,18.37C41.13,210.09,36.48,198,48.1,190.73Z"/><path class="cls-42" d="M23.57,203s4.78,11.79,17.84,6.92C43.16,209.3,36.42,198.26,23.57,203Z"/><path class="cls-42" d="M235.89,95.82s-6.42-11,5.4-18.37C242.87,76.46,247.52,88.54,235.89,95.82Z"/><path class="cls-42" d="M260.43,83.51s-4.78-11.78-17.85-6.92C240.83,77.24,247.57,88.29,260.43,83.51Z"/><path class="cls-42" d="M55.1,202.58s7.8,10-3,18.91C50.71,222.68,44.52,211.31,55.1,202.58Z"/><path class="cls-42" d="M32.38,218S38.66,229,51,222.51C52.63,221.64,44.5,211.57,32.38,218Z"/><path class="cls-42" d="M228.9,84s-7.81-10,2.94-18.92C233.28,63.87,239.47,75.24,228.9,84Z"/><path class="cls-42" d="M251.61,68.57S245.34,57.51,233,64C231.36,64.91,239.49,75,251.61,68.57Z"/><path class="cls-42" d="M63.58,213.41s9,8.94-.45,19.14C61.85,233.92,54.24,223.45,63.58,213.41Z"/><path class="cls-42" d="M43.07,231.65s7.67,10.14,19,2.07C63.62,232.63,54.25,223.71,43.07,231.65Z"/><path class="cls-42" d="M220.41,73.13s-9-8.93.46-19.13C222.14,52.63,229.75,63.09,220.41,73.13Z"/><path class="cls-42" d="M240.92,54.9s-7.66-10.15-19-2.07C220.37,53.91,229.74,62.84,240.92,54.9Z"/><path class="cls-42" d="M73.41,223.05s10.13,7.67,2,19C74.37,243.6,65.45,234.22,73.41,223.05Z"/><path class="cls-42" d="M55.45,243.8s8.93,9.06,19.14-.43C76,242.1,65.5,234.47,55.45,243.8Z"/><path class="cls-42" d="M210.59,63.5s-10.14-7.68-2.05-19C209.62,42.94,218.54,52.33,210.59,63.5Z"/><path class="cls-42" d="M228.54,42.74s-8.92-9.06-19.14.44C208,44.45,218.49,52.07,228.54,42.74Z"/><path class="cls-42" d="M84.41,231.32s11,6.29,4.51,18.6C88.05,251.57,78,243.43,84.41,231.32Z"/><path class="cls-42" d="M69.31,254.24s10,7.82,18.92-2.93C89.42,249.87,78.06,243.68,69.31,254.24Z"/><path class="cls-42" d="M199.59,55.23s-11.06-6.29-4.52-18.6C196,35,206,43.11,199.59,55.23Z"/><path class="cls-42" d="M214.68,32.31s-10-7.82-18.92,2.92C194.57,36.67,205.93,42.87,214.68,32.31Z"/><path class="cls-42" d="M96.39,238.08s11.78,4.79,6.9,17.86C102.64,257.69,91.6,250.93,96.39,238.08Z"/><path class="cls-42" d="M84.42,262.78s11,6.44,18.37-5.37C103.78,255.82,91.71,251.16,84.42,262.78Z"/><path class="cls-42" d="M187.6,48.46s-11.78-4.79-6.9-17.85C181.35,28.86,192.39,35.61,187.6,48.46Z"/><path class="cls-42" d="M199.57,23.77s-11-6.44-18.37,5.37C180.21,30.72,192.28,35.38,199.57,23.77Z"/><path class="cls-42" d="M109.16,243.22s12.3,3.22,9.17,16.8C117.91,261.84,106.08,256.59,109.16,243.22Z"/><path class="cls-42" d="M100.51,269.27s11.71,5,17.52-7.72C118.8,259.85,106.22,256.8,100.51,269.27Z"/><path class="cls-42" d="M174.84,43.32s-12.31-3.21-9.18-16.8C166.08,24.7,177.91,30,174.84,43.32Z"/><path class="cls-42" d="M183.48,17.28S171.77,12.32,166,25C165.19,26.7,177.77,29.74,183.48,17.28Z"/><path class="cls-42" d="M122.48,246.65s12.62,1.59,11.29,15.46C133.6,264,121.18,260.31,122.48,246.65Z"/><path class="cls-42" d="M117.31,273.61s12.26,3.38,16.36-9.95C134.22,261.88,121.35,260.5,117.31,273.61Z"/><path class="cls-42" d="M161.51,39.89s-12.62-1.58-11.29-15.46C150.4,22.57,162.81,26.24,161.51,39.89Z"/><path class="cls-42" d="M166.68,12.94s-12.26-3.38-16.36,9.94C149.78,24.67,162.65,26,166.68,12.94Z"/></g><path class="cls-46" d="M142.8,285.61C64.06,285.61,0,221.55,0,142.8S64.06,0,142.8,0,285.61,64.06,285.61,142.8,221.55,285.61,142.8,285.61Zm0-279.72C67.31,5.89,5.89,67.31,5.89,142.8S67.31,279.72,142.8,279.72,279.72,218.3,279.72,142.8,218.3,5.89,142.8,5.89Z"/><circle class="cls-47" cx="142.8" cy="142.8" r="102.1" transform="matrix(0.16, -0.99, 0.99, 0.16, -20.93, 261.02)"/><path class="cls-48" d="M142.8,46.6a96.21,96.21,0,1,1-96.2,96.2,96.31,96.31,0,0,1,96.2-96.2Zm0-5.89A102.1,102.1,0,1,0,244.9,142.8,102.09,102.09,0,0,0,142.8,40.71Z"/><path class="cls-49" d="M142.8,247.84a105,105,0,1,1,105-105A105.16,105.16,0,0,1,142.8,247.84Zm0-204.19A99.15,99.15,0,1,0,242,142.8,99.26,99.26,0,0,0,142.8,43.65Z"/><g class="cls-50"><g class="cls-51"><g class="cls-52"><g class="cls-52"><path class="cls-53" d="M208.2,139.28c7.08-4.44,8.84-13.24,3.92-19.65s-14.67-8-21.76-3.55-8.85,13.24-3.93,19.66S201.09,143.74,208.2,139.28Z"/></g></g></g><g class="cls-50"><g class="cls-54"><g class="cls-54"><g class="cls-54"><path class="cls-55" d="M220.33,156c17.38-10.89,21.69-32.46,9.63-48.16S194,88.25,176.65,99.14,155,131.6,167,147.3,203,166.9,220.33,156Z"/></g></g></g></g><g class="cls-50"><g class="cls-56"><g class="cls-56"><g class="cls-56"><path class="cls-57" d="M238.37,139.11c11.14,5.08,2.22,4.18-19.86-2s-49-15.23-60.18-20.31-2.2-4.19,19.87,2S227.24,134.05,238.37,139.11Z"/></g></g></g></g><g class="cls-58"><g class="cls-59"><g class="cls-59"><g class="cls-59"><path class="cls-60" d="M227.68,168c5.56,13.5-3.05,6.46-19.23-15.62S174.61,101.45,169,88s3.09-6.46,19.25,15.63S222.09,154.5,227.68,168Z"/></g></g></g></g><g class="cls-58"><g class="cls-61"><g class="cls-61"><g class="cls-61"><path class="cls-62" d="M187.85,175c-4.77,13.55-3.89,3.45,1.91-22.49S204.12,94.53,208.88,81s3.9-3.43-1.92,22.5S192.6,161.41,187.85,175Z"/></g></g></g></g><g class="cls-63"><g class="cls-64"><g class="cls-64"><g class="cls-64"><path class="cls-65" d="M248.46,98.3c16.5-6.2,7.42,2.06-20.14,18.42s-63.22,34.73-79.69,41-7.4-2.09,20.17-18.45S232,104.52,248.46,98.3Z"/></g></g></g></g><g class="cls-50"><g class="cls-66"><g class="cls-66"><g class="cls-66"><path class="cls-67" d="M185.57,118.43c5.17-6.44,15.25-7.76,22.58-2.9s9.08,14,4,20.48-15.25,7.77-22.57,2.9S180.43,124.88,185.57,118.43Z"/></g></g></g></g></g><text class="cls-68" transform="translate(106.63 120.13)">last </text><text class="cls-69" transform="translate(63.64 170.5)">t<tspan class="cls-70" x="13.42" y="0">r</tspan><tspan class="cls-71" x="31.68" y="0">eatment</tspan></text><polygon class="cls-72" points="143.08 191.51 138.87 200.06 129.44 201.43 136.26 208.07 134.65 217.46 143.08 213.03 151.51 217.46 149.9 208.07 156.72 201.43 147.3 200.06 143.08 191.51"/><polygon class="cls-72" points="99.91 191.51 97.3 196.79 91.48 197.63 95.69 201.74 94.7 207.53 99.91 204.8 105.11 207.53 104.12 201.74 108.33 197.63 102.51 196.79 99.91 191.51"/><polygon class="cls-72" points="184.41 191.51 181.81 196.79 175.99 197.63 180.2 201.74 179.21 207.53 184.41 204.8 189.62 207.53 188.63 201.74 192.84 197.63 187.02 196.79 184.41 191.51"/></g></g></g></svg>