<svg xmlns="http://www.w3.org/2000/svg" xmlns:xlink="http://www.w3.org/1999/xlink" viewBox="0 0 255 257"><defs><style>.cls-1,.cls-12{mask:url(#mask);}.cls-1{filter:url(#luminosity-noclip-21);}.cls-11,.cls-13,.cls-14,.cls-16,.cls-18,.cls-19,.cls-2,.cls-21,.cls-23,.cls-24,.cls-26,.cls-28,.cls-29,.cls-31,.cls-33,.cls-34,.cls-4,.cls-6,.cls-7,.cls-9{mix-blend-mode:multiply;}.cls-2{fill:url(#radial-gradient);}.cls-3,.cls-5{mask:url(#mask-2);}.cls-3{filter:url(#luminosity-noclip-26);}.cls-4{fill:url(#radial-gradient-2);}.cls-6{fill:url(#radial-gradient-3);}.cls-7{fill:url(#radial-gradient-4);}.cls-10,.cls-8{mask:url(#mask-5);}.cls-8{filter:url(#luminosity-noclip-29);}.cls-9{fill:url(#radial-gradient-5);}.cls-11{fill:url(#radial-gradient-6);}.cls-13{fill:url(#radial-gradient-7);}.cls-14{fill:url(#radial-gradient-8);}.cls-15,.cls-17{mask:url(#mask-9);}.cls-15{filter:url(#luminosity-noclip-32);}.cls-16{fill:url(#radial-gradient-9);}.cls-18{fill:url(#radial-gradient-10);}.cls-19{fill:url(#radial-gradient-11);}.cls-20,.cls-22{mask:url(#mask-12);}.cls-20{filter:url(#luminosity-noclip-35);}.cls-21{fill:url(#radial-gradient-12);}.cls-23{fill:url(#radial-gradient-13);}.cls-24{fill:url(#radial-gradient-14);}.cls-25,.cls-27{mask:url(#mask-15);}.cls-25{filter:url(#luminosity-noclip-38);}.cls-26{fill:url(#radial-gradient-15);}.cls-28{fill:url(#radial-gradient-16);}.cls-29{fill:url(#radial-gradient-17);}.cls-30,.cls-32{mask:url(#mask-18);}.cls-30{filter:url(#luminosity-noclip-23);}.cls-31{fill:url(#radial-gradient-18);}.cls-33{fill:url(#radial-gradient-19);}.cls-34{fill:url(#radial-gradient-20);}.cls-35{isolation:isolate;}.cls-36{fill:url(#linear-gradient);}.cls-37{fill:#a3713b;}.cls-38{fill:url(#linear-gradient-2);}.cls-39{fill:url(#linear-gradient-3);}.cls-40{fill:url(#linear-gradient-4);}.cls-41,.cls-42,.cls-49,.cls-54{mix-blend-mode:screen;}.cls-42{opacity:0.2;}.cls-43{mask:url(#mask-21);}.cls-44{fill:url(#radial-gradient-21);}.cls-45{mask:url(#mask-23);}.cls-46{fill:url(#radial-gradient-22);}.cls-47{mask:url(#mask-26);}.cls-48{fill:url(#radial-gradient-23);}.cls-49{opacity:0.8;}.cls-50{mask:url(#mask-29);}.cls-51{fill:url(#radial-gradient-24);}.cls-52{mask:url(#mask-32);}.cls-53{fill:url(#radial-gradient-25);}.cls-54{opacity:0.4;}.cls-55{mask:url(#mask-35);}.cls-56{fill:url(#radial-gradient-26);}.cls-57{mask:url(#mask-38);}.cls-58{fill:url(#radial-gradient-27);}.cls-59{fill:#754c24;}.cls-60{fill:#a88245;}.cls-61{filter:url(#luminosity-noclip-18);}.cls-62{filter:url(#luminosity-noclip-15);}.cls-63{filter:url(#luminosity-noclip-12);}.cls-64{filter:url(#luminosity-noclip-9);}.cls-65{filter:url(#luminosity-noclip-5);}.cls-66{filter:url(#luminosity-noclip-2);}.cls-67{filter:url(#luminosity-noclip);}</style><filter id="luminosity-noclip" x="108.49" y="-8158" width="27.94" height="32766" filterUnits="userSpaceOnUse" color-interpolation-filters="sRGB"><feFlood flood-color="#fff" result="bg"/><feBlend in="SourceGraphic" in2="bg"/></filter><mask id="mask" x="108.49" y="-8158" width="27.94" height="32766" maskUnits="userSpaceOnUse"><g class="cls-67"/></mask><radialGradient id="radial-gradient" cx="-387.64" cy="-1101.99" r="25.94" gradientTransform="matrix(0.31, 0.4, 0.44, -0.28, 729.06, -102.03)" gradientUnits="userSpaceOnUse"><stop offset="0.23" stop-color="#fff"/><stop offset="0.33" stop-color="#fdfdfd"/><stop offset="0.37" stop-color="#f6f6f6"/><stop offset="0.39" stop-color="#ebebeb"/><stop offset="0.42" stop-color="#dadada"/><stop offset="0.42" stop-color="#d0d0d0"/><stop offset="0.45" stop-color="#cecece"/><stop offset="0.46" stop-color="#c7c7c7"/><stop offset="0.46" stop-color="#c6c6c6"/><stop offset="0.49" stop-color="#b4b4b4"/><stop offset="0.59" stop-color="#7e7e7e"/><stop offset="0.68" stop-color="#515151"/><stop offset="0.77" stop-color="#2e2e2e"/><stop offset="0.86" stop-color="#141414"/><stop offset="0.94" stop-color="#050505"/><stop offset="1"/></radialGradient><filter id="luminosity-noclip-2" x="81.62" y="-8158" width="80.07" height="32766" filterUnits="userSpaceOnUse" color-interpolation-filters="sRGB"><feFlood flood-color="#fff" result="bg"/><feBlend in="SourceGraphic" in2="bg"/></filter><mask id="mask-2" x="81.62" y="-8158" width="80.07" height="32766" maskUnits="userSpaceOnUse"><g class="cls-66"/></mask><radialGradient id="radial-gradient-2" cx="-76.51" cy="1756.7" r="15.76" gradientTransform="matrix(2.27, 0.63, 1.14, 0.52, -1711.08, -816.37)" gradientUnits="userSpaceOnUse"><stop offset="0.23" stop-color="#fff"/><stop offset="0.35" stop-color="#fdfdfd"/><stop offset="0.39" stop-color="#f6f6f6"/><stop offset="0.42" stop-color="#ebebeb"/><stop offset="0.44" stop-color="#dadada"/><stop offset="0.45" stop-color="#d0d0d0"/><stop offset="0.48" stop-color="#cecece"/><stop offset="0.49" stop-color="#c7c7c7"/><stop offset="0.49" stop-color="#c6c6c6"/><stop offset="0.54" stop-color="#9a9a9a"/><stop offset="0.59" stop-color="#717171"/><stop offset="0.64" stop-color="#4e4e4e"/><stop offset="0.7" stop-color="#323232"/><stop offset="0.76" stop-color="#1c1c1c"/><stop offset="0.82" stop-color="#0c0c0c"/><stop offset="0.89" stop-color="#030303"/><stop offset="1"/></radialGradient><radialGradient id="radial-gradient-3" cx="-76.51" cy="1756.7" r="15.76" gradientTransform="matrix(2.27, 0.63, 1.14, 0.52, -1711.08, -816.37)" gradientUnits="userSpaceOnUse"><stop offset="0" stop-color="#fff"/><stop offset="0.03" stop-color="#fff"/><stop offset="0.22" stop-color="#fff"/><stop offset="0.37" stop-color="#fff"/><stop offset="0.4" stop-color="#ebebeb"/><stop offset="0.5" stop-color="#adadad"/><stop offset="0.59" stop-color="#787878"/><stop offset="0.68" stop-color="#4d4d4d"/><stop offset="0.77" stop-color="#2c2c2c"/><stop offset="0.86" stop-color="#141414"/><stop offset="0.93" stop-color="#050505"/><stop offset="1"/></radialGradient><radialGradient id="radial-gradient-4" cx="-76.51" cy="1756.7" r="15.76" gradientTransform="matrix(2.27, 0.63, 1.14, 0.52, -1711.08, -816.37)" gradientUnits="userSpaceOnUse"><stop offset="0" stop-color="#fff"/><stop offset="0.22" stop-color="#fff"/><stop offset="0.28" stop-color="#ccc"/><stop offset="0.35" stop-color="#9c9c9c"/><stop offset="0.42" stop-color="#727272"/><stop offset="0.5" stop-color="#4f4f4f"/><stop offset="0.57" stop-color="#323232"/><stop offset="0.66" stop-color="#1c1c1c"/><stop offset="0.75" stop-color="#0c0c0c"/><stop offset="0.85" stop-color="#030303"/><stop offset="1"/></radialGradient><filter id="luminosity-noclip-5" x="93.95" y="-8158" width="55.4" height="32766" filterUnits="userSpaceOnUse" color-interpolation-filters="sRGB"><feFlood flood-color="#fff" result="bg"/><feBlend in="SourceGraphic" in2="bg"/></filter><mask id="mask-5" x="93.95" y="-8158" width="55.4" height="32766" maskUnits="userSpaceOnUse"><g class="cls-65"/></mask><radialGradient id="radial-gradient-5" cx="-35.24" cy="2037.28" r="15.76" gradientTransform="matrix(1.66, 2.27, 0.57, 1.38, -983.69, -2688.44)" xlink:href="#radial-gradient-2"/><radialGradient id="radial-gradient-6" cx="-35.24" cy="2037.28" r="15.76" gradientTransform="matrix(1.66, 2.27, 0.57, 1.38, -983.69, -2688.44)" xlink:href="#radial-gradient-3"/><radialGradient id="radial-gradient-7" cx="-387.64" cy="-1101.99" r="25.94" gradientTransform="matrix(0.31, 0.4, 0.44, -0.28, 729.06, -102.03)" gradientUnits="userSpaceOnUse"><stop offset="0" stop-color="#fff"/><stop offset="0.38" stop-color="#fff"/><stop offset="0.45" stop-color="#fff"/><stop offset="0.46" stop-color="#fff"/><stop offset="0.46" stop-color="#fff"/><stop offset="0.47" stop-color="#f5f5f5"/><stop offset="0.56" stop-color="#b5b5b5"/><stop offset="0.65" stop-color="#7e7e7e"/><stop offset="0.73" stop-color="#515151"/><stop offset="0.81" stop-color="#2e2e2e"/><stop offset="0.88" stop-color="#141414"/><stop offset="0.95" stop-color="#050505"/><stop offset="1"/></radialGradient><radialGradient id="radial-gradient-8" cx="-35.24" cy="2037.28" r="15.76" gradientTransform="matrix(1.66, 2.27, 0.57, 1.38, -983.69, -2688.44)" gradientUnits="userSpaceOnUse"><stop offset="0" stop-color="#fff"/><stop offset="0.41" stop-color="#fff"/><stop offset="0.46" stop-color="#ccc"/><stop offset="0.51" stop-color="#9c9c9c"/><stop offset="0.57" stop-color="#727272"/><stop offset="0.62" stop-color="#4f4f4f"/><stop offset="0.68" stop-color="#323232"/><stop offset="0.75" stop-color="#1c1c1c"/><stop offset="0.81" stop-color="#0c0c0c"/><stop offset="0.89" stop-color="#030303"/><stop offset="1"/></radialGradient><filter id="luminosity-noclip-9" x="109.51" y="-8158" width="24.29" height="32766" filterUnits="userSpaceOnUse" color-interpolation-filters="sRGB"><feFlood flood-color="#fff" result="bg"/><feBlend in="SourceGraphic" in2="bg"/></filter><mask id="mask-9" x="109.51" y="-8158" width="24.29" height="32766" maskUnits="userSpaceOnUse"><g class="cls-64"/></mask><radialGradient id="radial-gradient-9" cx="-1006.05" cy="4250.31" r="15.76" gradientTransform="matrix(-0.6, 2.66, -0.49, 1.39, 1594.55, -3173.71)" xlink:href="#radial-gradient-2"/><radialGradient id="radial-gradient-10" cx="-1006.05" cy="4250.31" r="15.76" gradientTransform="matrix(-0.6, 2.66, -0.49, 1.39, 1594.55, -3173.71)" xlink:href="#radial-gradient-3"/><radialGradient id="radial-gradient-11" cx="-1006.05" cy="4250.31" r="15.76" gradientTransform="matrix(-0.6, 2.66, -0.49, 1.39, 1594.55, -3173.71)" xlink:href="#radial-gradient-4"/><filter id="luminosity-noclip-12" x="69.88" y="-8158" width="103.89" height="32766" filterUnits="userSpaceOnUse" color-interpolation-filters="sRGB"><feFlood flood-color="#fff" result="bg"/><feBlend in="SourceGraphic" in2="bg"/></filter><mask id="mask-12" x="69.88" y="-8158" width="103.89" height="32766" maskUnits="userSpaceOnUse"><g class="cls-63"/></mask><radialGradient id="radial-gradient-12" cx="1302.5" cy="-560.23" r="11.45" gradientTransform="matrix(3.9, -2.32, 2.32, -0.88, -3652.42, 2574.04)" xlink:href="#radial-gradient-2"/><radialGradient id="radial-gradient-13" cx="1302.5" cy="-560.23" r="11.45" gradientTransform="matrix(3.9, -2.32, 2.32, -0.88, -3652.42, 2574.04)" xlink:href="#radial-gradient-3"/><radialGradient id="radial-gradient-14" cx="1302.5" cy="-560.23" r="11.45" gradientTransform="matrix(3.9, -2.32, 2.32, -0.88, -3652.42, 2574.04)" xlink:href="#radial-gradient-4"/><filter id="luminosity-noclip-15" x="107.6" y="-8158" width="28.96" height="32766" filterUnits="userSpaceOnUse" color-interpolation-filters="sRGB"><feFlood flood-color="#fff" result="bg"/><feBlend in="SourceGraphic" in2="bg"/></filter><mask id="mask-15" x="107.6" y="-8158" width="28.96" height="32766" maskUnits="userSpaceOnUse"><g class="cls-62"/></mask><radialGradient id="radial-gradient-15" cx="2068.2" cy="-1183.94" r="21.38" gradientTransform="matrix(-0.55, -0.37, 0.39, -0.49, 1729.68, 229.35)" xlink:href="#radial-gradient-2"/><radialGradient id="radial-gradient-16" cx="2068.2" cy="-1183.94" r="21.38" gradientTransform="matrix(-0.55, -0.37, 0.39, -0.49, 1729.68, 229.35)" gradientUnits="userSpaceOnUse"><stop offset="0.23" stop-color="#fff"/><stop offset="0.42" stop-color="#fff"/><stop offset="0.45" stop-color="#fff"/><stop offset="0.49" stop-color="#fff"/><stop offset="0.49" stop-color="#fff"/><stop offset="0.53" stop-color="#cacaca"/><stop offset="0.58" stop-color="#9b9b9b"/><stop offset="0.62" stop-color="#717171"/><stop offset="0.67" stop-color="#4e4e4e"/><stop offset="0.72" stop-color="#323232"/><stop offset="0.78" stop-color="#1c1c1c"/><stop offset="0.84" stop-color="#0c0c0c"/><stop offset="0.9" stop-color="#030303"/><stop offset="1"/></radialGradient><radialGradient id="radial-gradient-17" cx="2068.2" cy="-1183.94" r="21.38" gradientTransform="matrix(-0.55, -0.37, 0.39, -0.49, 1729.68, 229.35)" gradientUnits="userSpaceOnUse"><stop offset="0" stop-color="#fff"/><stop offset="0.27" stop-color="#fff"/><stop offset="0.31" stop-color="#fff"/><stop offset="0.35" stop-color="#d5d5d5"/><stop offset="0.38" stop-color="#a9a9a9"/><stop offset="0.42" stop-color="gray"/><stop offset="0.47" stop-color="#5d5d5d"/><stop offset="0.52" stop-color="#404040"/><stop offset="0.57" stop-color="#292929"/><stop offset="0.63" stop-color="#161616"/><stop offset="0.7" stop-color="#0a0a0a"/><stop offset="0.8" stop-color="#020202"/><stop offset="1"/></radialGradient><filter id="luminosity-noclip-18" x="87.53" y="-8158" width="68.47" height="32766" filterUnits="userSpaceOnUse" color-interpolation-filters="sRGB"><feFlood flood-color="#fff" result="bg"/><feBlend in="SourceGraphic" in2="bg"/></filter><mask id="mask-18" x="87.53" y="-8158" width="68.47" height="32766" maskUnits="userSpaceOnUse"><g class="cls-61"/></mask><radialGradient id="radial-gradient-18" cx="-388.54" cy="-1102.95" r="63.57" xlink:href="#radial-gradient"/><radialGradient id="radial-gradient-19" cx="-388.54" cy="-1102.95" r="63.57" xlink:href="#radial-gradient-7"/><radialGradient id="radial-gradient-20" cx="-388.54" cy="-1102.95" r="63.57" gradientTransform="matrix(0.31, 0.4, 0.44, -0.28, 729.06, -102.03)" gradientUnits="userSpaceOnUse"><stop offset="0" stop-color="#fff"/><stop offset="0.27" stop-color="#fff"/><stop offset="0.27" stop-color="#f6f6f6"/><stop offset="0.3" stop-color="#c8c8c8"/><stop offset="0.34" stop-color="#9d9d9d"/><stop offset="0.37" stop-color="#777"/><stop offset="0.41" stop-color="#575757"/><stop offset="0.45" stop-color="#3b3b3b"/><stop offset="0.5" stop-color="#252525"/><stop offset="0.56" stop-color="#141414"/><stop offset="0.63" stop-color="#090909"/><stop offset="0.73" stop-color="#020202"/><stop offset="1"/></radialGradient><linearGradient id="linear-gradient" x1="215.1" y1="41.22" x2="37.82" y2="218.5" gradientUnits="userSpaceOnUse"><stop offset="0" stop-color="#a3713b"/><stop offset="0.22" stop-color="#fdf496"/><stop offset="0.28" stop-color="#fff78f"/><stop offset="0.48" stop-color="#c29c57"/><stop offset="0.74" stop-color="#cfb266"/><stop offset="1" stop-color="#a3713b"/></linearGradient><linearGradient id="linear-gradient-2" x1="0.11" y1="129.86" x2="252.81" y2="129.86" gradientUnits="userSpaceOnUse"><stop offset="0" stop-color="#d8b56d"/><stop offset="0.1" stop-color="#fae397"/><stop offset="0.16" stop-color="#ffffda"/><stop offset="0.21" stop-color="#fff78f"/><stop offset="0.33" stop-color="#e4cf76"/><stop offset="0.48" stop-color="#ac8953"/><stop offset="0.62" stop-color="#8d6e47"/><stop offset="0.73" stop-color="#d8b56d"/><stop offset="0.84" stop-color="#fceb94"/><stop offset="0.88" stop-color="#ffffd1"/><stop offset="0.95" stop-color="#c1a360"/></linearGradient><linearGradient id="linear-gradient-3" x1="201.45" y1="54.88" x2="51.48" y2="204.84" xlink:href="#linear-gradient"/><linearGradient id="linear-gradient-4" x1="182.13" y1="226.28" x2="70.8" y2="33.44" xlink:href="#linear-gradient"/><filter id="luminosity-noclip-21" x="108.49" y="35.88" width="27.94" height="25.24" filterUnits="userSpaceOnUse" color-interpolation-filters="sRGB"><feFlood flood-color="#fff" result="bg"/><feBlend in="SourceGraphic" in2="bg"/></filter><mask id="mask-21" x="108.49" y="35.88" width="27.94" height="25.24" maskUnits="userSpaceOnUse"><g class="cls-1"><path class="cls-2" d="M130.44,58.86c6.33-4,7.9-11.83,3.5-17.55s-13.1-7.15-19.44-3.17S106.59,50,111,55.7,124.09,62.85,130.44,58.86Z"/></g></mask><radialGradient id="radial-gradient-21" cx="-387.64" cy="-1101.99" r="25.94" gradientTransform="matrix(0.31, 0.4, 0.44, -0.28, 729.06, -102.03)" gradientUnits="userSpaceOnUse"><stop offset="0" stop-color="#3ac8ff"/><stop offset="0.18" stop-color="#3cc9ff"/><stop offset="0.25" stop-color="#43cbff"/><stop offset="0.3" stop-color="#4fd0ff"/><stop offset="0.34" stop-color="#60d7ff"/><stop offset="0.38" stop-color="#76e0ff"/><stop offset="0.41" stop-color="#92ebff"/><stop offset="0.43" stop-color="#b2f7ff"/><stop offset="0.45" stop-color="#c6ffff"/><stop offset="0.45" stop-color="#c4ffff"/><stop offset="0.46" stop-color="#bdffff"/><stop offset="0.46" stop-color="#b2ffff"/><stop offset="0.46" stop-color="#a1ffff"/><stop offset="0.46" stop-color="#8bffff"/><stop offset="0.46" stop-color="#70ffff"/><stop offset="0.46" stop-color="#68ffff"/><stop offset="0.57" stop-color="#58dbff"/><stop offset="0.69" stop-color="#48b8ff"/><stop offset="0.81" stop-color="#3c9fff"/><stop offset="0.91" stop-color="#3590ff"/><stop offset="1" stop-color="#338bff"/></radialGradient><filter id="luminosity-noclip-23" x="87.53" y="17.48" width="68.47" height="61.85" filterUnits="userSpaceOnUse" color-interpolation-filters="sRGB"><feFlood flood-color="#fff" result="bg"/><feBlend in="SourceGraphic" in2="bg"/></filter><mask id="mask-23" x="87.53" y="17.48" width="68.47" height="61.85" maskUnits="userSpaceOnUse"><g class="cls-30"><path class="cls-31" d="M141.28,73.81c15.53-9.74,19.38-29,8.6-43S117.78,13.27,102.25,23,82.86,52,93.64,66,125.75,83.55,141.28,73.81Z"/></g></mask><radialGradient id="radial-gradient-22" cx="-388.54" cy="-1102.95" r="63.57" gradientTransform="matrix(0.31, 0.4, 0.44, -0.28, 729.06, -102.03)" gradientUnits="userSpaceOnUse"><stop offset="0" stop-color="#fff"/><stop offset="0.04" stop-color="#fff4e1"/><stop offset="0.12" stop-color="#ffd893"/><stop offset="0.25" stop-color="#ffab18"/><stop offset="0.27" stop-color="#ffa200"/><stop offset="0.32" stop-color="#ffb800"/><stop offset="0.37" stop-color="#ffc900"/><stop offset="0.44" stop-color="#ffd400"/><stop offset="0.53" stop-color="#ffdb00"/><stop offset="0.8" stop-color="#fd0"/><stop offset="0.82" stop-color="#f0d000"/><stop offset="0.86" stop-color="#caaf00"/><stop offset="0.9" stop-color="#8b7800"/><stop offset="0.96" stop-color="#362f00"/><stop offset="1"/></radialGradient><filter id="luminosity-noclip-26" x="81.62" y="35.86" width="80.07" height="25.8" filterUnits="userSpaceOnUse" color-interpolation-filters="sRGB"><feFlood flood-color="#fff" result="bg"/><feBlend in="SourceGraphic" in2="bg"/></filter><mask id="mask-26" x="81.62" y="35.86" width="80.07" height="25.8" maskUnits="userSpaceOnUse"><g class="cls-3"><path class="cls-4" d="M157.39,58.71c10,4.54,2,3.74-17.74-1.76S95.84,43.34,85.88,38.81s-2-3.75,17.76,1.76S147.45,54.2,157.39,58.71Z"/></g></mask><radialGradient id="radial-gradient-23" cx="-76.51" cy="1756.7" r="15.76" gradientTransform="matrix(2.27, 0.63, 1.14, 0.52, -1711.08, -816.37)" gradientUnits="userSpaceOnUse"><stop offset="0" stop-color="#ff0"/><stop offset="0.1" stop-color="#fdbf00"/><stop offset="0.18" stop-color="#fc9400"/><stop offset="0.22" stop-color="#fc8300"/><stop offset="0.23" stop-color="#ef7d02"/><stop offset="0.31" stop-color="#bf6709"/><stop offset="0.38" stop-color="#95540f"/><stop offset="0.46" stop-color="#724314"/><stop offset="0.55" stop-color="#553619"/><stop offset="0.64" stop-color="#3f2c1c"/><stop offset="0.73" stop-color="#2f251e"/><stop offset="0.85" stop-color="#262020"/><stop offset="1" stop-color="#231f20"/></radialGradient><filter id="luminosity-noclip-29" x="93.95" y="6.88" width="55.4" height="83.76" filterUnits="userSpaceOnUse" color-interpolation-filters="sRGB"><feFlood flood-color="#fff" result="bg"/><feBlend in="SourceGraphic" in2="bg"/></filter><mask id="mask-29" x="93.95" y="6.88" width="55.4" height="83.76" maskUnits="userSpaceOnUse"><g class="cls-8"><path class="cls-9" d="M147.84,84.5c5,12.07-2.72,5.78-17.18-14S100.43,25.06,95.43,13s2.76-5.78,17.2,14S142.85,72.47,147.84,84.5Z"/></g></mask><radialGradient id="radial-gradient-24" cx="-35.24" cy="2037.28" r="15.76" gradientTransform="matrix(1.66, 2.27, 0.57, 1.38, -983.69, -2688.44)" gradientUnits="userSpaceOnUse"><stop offset="0" stop-color="#ff0"/><stop offset="0.19" stop-color="#fdbf00"/><stop offset="0.34" stop-color="#fc9400"/><stop offset="0.41" stop-color="#fc8300"/><stop offset="0.43" stop-color="#ef7d02"/><stop offset="0.48" stop-color="#bf6709"/><stop offset="0.54" stop-color="#95540f"/><stop offset="0.6" stop-color="#724314"/><stop offset="0.66" stop-color="#553619"/><stop offset="0.73" stop-color="#3f2c1c"/><stop offset="0.8" stop-color="#2f251e"/><stop offset="0.88" stop-color="#262020"/><stop offset="1" stop-color="#231f20"/></radialGradient><filter id="luminosity-noclip-32" x="109.51" y="1.4" width="24.29" height="94.71" filterUnits="userSpaceOnUse" color-interpolation-filters="sRGB"><feFlood flood-color="#fff" result="bg"/><feBlend in="SourceGraphic" in2="bg"/></filter><mask id="mask-32" x="109.51" y="1.4" width="24.29" height="94.71" maskUnits="userSpaceOnUse"><g class="cls-15"><path class="cls-16" d="M112.26,90.73c-4.26,12.12-3.48,3.09,1.71-20.09S126.8,18.88,131.05,6.76s3.48-3.07-1.71,20.1S116.5,78.64,112.26,90.73Z"/></g></mask><radialGradient id="radial-gradient-25" cx="-1006.05" cy="4250.31" r="15.76" gradientTransform="matrix(-0.6, 2.66, -0.49, 1.39, 1594.55, -3173.71)" xlink:href="#radial-gradient-23"/><filter id="luminosity-noclip-35" x="69.88" y="20.41" width="103.89" height="56.73" filterUnits="userSpaceOnUse" color-interpolation-filters="sRGB"><feFlood flood-color="#fff" result="bg"/><feBlend in="SourceGraphic" in2="bg"/></filter><mask id="mask-35" x="69.88" y="20.41" width="103.89" height="56.73" maskUnits="userSpaceOnUse"><g class="cls-20"><path class="cls-21" d="M166.41,22.25c14.74-5.54,6.63,1.84-18,16.46s-56.49,31-71.21,36.61-6.61-1.87,18-16.49S151.74,27.81,166.41,22.25Z"/></g></mask><radialGradient id="radial-gradient-26" cx="1302.5" cy="-560.23" r="11.45" gradientTransform="matrix(3.9, -2.32, 2.32, -0.88, -3652.42, 2574.04)" xlink:href="#radial-gradient-23"/><filter id="luminosity-noclip-38" x="107.6" y="35.02" width="28.96" height="26.15" filterUnits="userSpaceOnUse" color-interpolation-filters="sRGB"><feFlood flood-color="#fff" result="bg"/><feBlend in="SourceGraphic" in2="bg"/></filter><mask id="mask-38" x="107.6" y="35.02" width="28.96" height="26.15" maskUnits="userSpaceOnUse"><g class="cls-25"><path class="cls-26" d="M110.22,40.24c4.62-5.76,13.63-6.94,20.17-2.6s8.12,12.54,3.54,18.3-13.63,7-20.17,2.6S105.62,46,110.22,40.24Z"/></g></mask><radialGradient id="radial-gradient-27" cx="2068.2" cy="-1183.94" r="21.38" gradientTransform="matrix(-0.55, -0.37, 0.39, -0.49, 1729.68, 229.35)" gradientUnits="userSpaceOnUse"><stop offset="0" stop-color="#fff"/><stop offset="0.12" stop-color="#fffefd"/><stop offset="0.16" stop-color="#fffaf6"/><stop offset="0.2" stop-color="#fff3eb"/><stop offset="0.22" stop-color="#ffe9da"/><stop offset="0.24" stop-color="#ffdbc4"/><stop offset="0.26" stop-color="#ffcba8"/><stop offset="0.28" stop-color="#ffb788"/><stop offset="0.29" stop-color="#ffa162"/><stop offset="0.31" stop-color="#ff8839"/><stop offset="0.31" stop-color="#ff7c25"/><stop offset="0.35" stop-color="#d5681f"/><stop offset="0.38" stop-color="#a95218"/><stop offset="0.42" stop-color="#803e13"/><stop offset="0.47" stop-color="#5d2d0e"/><stop offset="0.52" stop-color="#401f09"/><stop offset="0.57" stop-color="#291406"/><stop offset="0.63" stop-color="#160b03"/><stop offset="0.7" stop-color="#0a0501"/><stop offset="0.8" stop-color="#020100"/><stop offset="1"/></radialGradient></defs><title>badgeRajztábla 5</title><g class="cls-35"><g id="Réteg_1" data-name="Réteg 1"><polygon class="cls-36" points="94.02 250.95 37.82 218.5 5.38 162.31 5.38 97.42 37.82 41.22 94.02 8.77 158.91 8.77 215.1 41.22 247.55 97.42 247.55 162.31 215.1 218.5 158.91 250.95 94.02 250.95"/><path class="cls-37" d="M158.2,11.41l55,31.74,31.74,55V161.6l-31.74,55-55,31.74H94.72l-55-31.74L8,161.6V98.12l31.74-55,55-31.74Zm1.41-5.27H93.31L35.9,39.29,2.75,96.71V163L35.9,220.43l57.41,33.15h66.3L217,220.43,250.18,163V96.71L217,39.29,159.61,6.14Z"/><path class="cls-38" d="M160.32,256.21H92.61L34,222.36.11,163.72V96L34,37.37,92.61,3.51h67.71L219,37.37,252.81,96v67.71L219,222.36ZM94,251h64.89l56.2-32.45,32.44-56.19V97.42l-32.44-56.2L158.91,8.77H94L37.82,41.22,5.38,97.42v64.89L37.82,218.5Z"/><path class="cls-39" d="M126.46,236A106.09,106.09,0,1,1,232.55,129.86,106.21,106.21,0,0,1,126.46,236Z"/><path class="cls-37" d="M126.46,26.4A103.46,103.46,0,1,1,23,129.86,103.57,103.57,0,0,1,126.46,26.4Zm0-5.26A108.72,108.72,0,1,0,235.19,129.86,108.73,108.73,0,0,0,126.46,21.14Z"/><path class="cls-40" d="M126.46,241.21A111.35,111.35,0,1,1,237.82,129.86,111.47,111.47,0,0,1,126.46,241.21Zm0-217.44A106.09,106.09,0,1,0,232.55,129.86,106.21,106.21,0,0,0,126.46,23.77Z"/><g class="cls-41"><g class="cls-42"><g class="cls-43"><g class="cls-43"><path class="cls-44" d="M130.44,58.86c6.33-4,7.9-11.83,3.5-17.55s-13.1-7.15-19.44-3.17S106.59,50,111,55.7,124.09,62.85,130.44,58.86Z"/></g></g></g><g class="cls-41"><g class="cls-45"><g class="cls-45"><g class="cls-45"><path class="cls-46" d="M141.28,73.81c15.53-9.74,19.38-29,8.6-43S117.78,13.27,102.25,23,82.86,52,93.64,66,125.75,83.55,141.28,73.81Z"/></g></g></g></g><g class="cls-41"><g class="cls-47"><g class="cls-47"><g class="cls-47"><path class="cls-48" d="M157.39,58.71c10,4.54,2,3.74-17.74-1.76S95.84,43.34,85.88,38.81s-2-3.75,17.76,1.76S147.45,54.2,157.39,58.71Z"/></g></g></g></g><g class="cls-49"><g class="cls-50"><g class="cls-50"><g class="cls-50"><path class="cls-51" d="M147.84,84.5c5,12.07-2.72,5.78-17.18-14S100.43,25.06,95.43,13s2.76-5.78,17.2,14S142.85,72.47,147.84,84.5Z"/></g></g></g></g><g class="cls-49"><g class="cls-52"><g class="cls-52"><g class="cls-52"><path class="cls-53" d="M112.26,90.73c-4.26,12.12-3.48,3.09,1.71-20.09S126.8,18.88,131.05,6.76s3.48-3.07-1.71,20.1S116.5,78.64,112.26,90.73Z"/></g></g></g></g><g class="cls-54"><g class="cls-55"><g class="cls-55"><g class="cls-55"><path class="cls-56" d="M166.41,22.25c14.74-5.54,6.63,1.84-18,16.46s-56.49,31-71.21,36.61-6.61-1.87,18-16.49S151.74,27.81,166.41,22.25Z"/></g></g></g></g><g class="cls-41"><g class="cls-57"><g class="cls-57"><g class="cls-57"><path class="cls-58" d="M110.22,40.24c4.62-5.76,13.63-6.94,20.17-2.6s8.12,12.54,3.54,18.3-13.63,7-20.17,2.6S105.62,46,110.22,40.24Z"/></g></g></g></g></g><path class="cls-59" d="M73.3,117.33l-6.09.6c0-1,.06-2.1.08-3.2l.06-3.28c0-1.08,0-2.14,0-3.18s0-2,0-3q0-3.27,0-6.39l-.09-6.33-1.8,3.17-4-3.42c.18-.26.41-.57.67-.92s.54-.73.83-1.14l.9-1.23.9-1.24c.68-.93,1.39-1.91,2.12-2.93l5.82-.27c0,.95-.06,1.92-.08,2.92s0,2-.06,2.93,0,1.89,0,2.78,0,1.72,0,2.47v1.64c0,.49,0,.92,0,1.27s0,.78,0,1.11c0,1.78,0,3.66.1,5.63,0,.83,0,1.73.08,2.69s.08,2,.12,3,.1,2.06.16,3.13Z"/><path class="cls-59" d="M101.72,105.51c0,.92,0,1.73,0,2.41s0,1.31-.06,1.87,0,1.09-.09,1.59-.08,1-.13,1.6-.1,1.19-.16,1.89l-.21,2.46-5.19,0q.31-3.72.47-7.15c.1-2.29.15-4.55.15-6.8a13.48,13.48,0,0,0-.59-4.69,1.93,1.93,0,0,0-1.79-1.47,2.12,2.12,0,0,0-.9.62,5.1,5.1,0,0,0-.79,1.27,10.38,10.38,0,0,0-.71,2.38c0,.75,0,1.5,0,2.23v2.15c0,.83,0,1.68,0,2.54s0,1.79,0,2.77,0,2,0,3.18,0,2.37.06,3.73L86.53,118c.11-1.77.2-3.35.28-4.73s.14-2.66.19-3.83.1-2.28.12-3.33,0-2.12,0-3.23c0-.74,0-1.5,0-2.27s0-1.62,0-2.51,0-1.85-.08-2.87-.07-2.15-.1-3.36l5.24.09L92,94.15a7.54,7.54,0,0,1,1.4-2,6,6,0,0,1,1.39-1,3.22,3.22,0,0,1,1.1-.37l.56,0a4.86,4.86,0,0,1,1.33.19,3.07,3.07,0,0,1,1.2.69,5.06,5.06,0,0,1,1,1.41,10.56,10.56,0,0,1,.82,2.33,7.32,7.32,0,0,1,1.54-2.7,6.48,6.48,0,0,1,1.82-1.37,4.51,4.51,0,0,1,1.57-.49l.79-.06a3.64,3.64,0,0,1,2.5.9,6.25,6.25,0,0,1,1.61,2.75,22.23,22.23,0,0,1,.87,4.64q.25,2.79.26,6.56c0,.83,0,1.79-.11,2.88s-.18,2.22-.3,3.39-.26,2.31-.39,3.45-.27,2.15-.37,3l-5.2-.19c.26-1.65.47-3.21.61-4.7s.26-2.8.34-4c.07-1.34.12-2.58.14-3.74,0-1.46,0-2.72-.11-3.78a13.26,13.26,0,0,0-.38-2.62,3.42,3.42,0,0,0-.76-1.53,1.63,1.63,0,0,0-1.22-.49,2.38,2.38,0,0,0-.93.53,4.33,4.33,0,0,0-.82,1,7.19,7.19,0,0,0-.75,1.76C101.68,102,101.72,103.62,101.72,105.51Z"/><path class="cls-59" d="M123.1,118.88a7.54,7.54,0,0,1-3.94-1,7.85,7.85,0,0,1-2.72-2.77,13.24,13.24,0,0,1-1.58-4.22,26.17,26.17,0,0,1-.51-5.34,29.33,29.33,0,0,1,.6-6.14,16.32,16.32,0,0,1,1.77-4.8,9.09,9.09,0,0,1,2.88-3.13,7.16,7.16,0,0,1,4-1.12,7.66,7.66,0,0,1,3.9,1A7.77,7.77,0,0,1,130.18,94a12.64,12.64,0,0,1,1.58,4.08,25.07,25.07,0,0,1,.5,5.24,30.9,30.9,0,0,1-.17,3.21,25.76,25.76,0,0,1-.58,3.46,19.71,19.71,0,0,1-1.07,3.34,11.77,11.77,0,0,1-1.68,2.85,8,8,0,0,1-2.42,2A6.85,6.85,0,0,1,123.1,118.88Zm3.6-17.3a27.11,27.11,0,0,0-.16-3.15,10.25,10.25,0,0,0-.52-2.36,3.86,3.86,0,0,0-.9-1.49,1.8,1.8,0,0,0-1.3-.52,2,2,0,0,0-1.55.88A7.82,7.82,0,0,0,121,97.47a22.22,22.22,0,0,0-.85,4.06,41.46,41.46,0,0,0-.32,5.39,29.84,29.84,0,0,0,.19,3.47,13,13,0,0,0,.55,2.61,4.36,4.36,0,0,0,.92,1.64,1.69,1.69,0,0,0,1.28.57,1.75,1.75,0,0,0,1.31-.62,5.29,5.29,0,0,0,1-1.65,15.73,15.73,0,0,0,.74-2.41c.2-.92.37-1.88.49-2.89s.22-2,.28-3.08S126.7,102.52,126.7,101.58Z"/><path class="cls-59" d="M141,92l-.14,1.89a7,7,0,0,1,1.63-1.94,6.24,6.24,0,0,1,1.6-.94,3.92,3.92,0,0,1,1.24-.3l.54,0a5.59,5.59,0,0,1,3,.79,6.17,6.17,0,0,1,2.1,2.27,12.17,12.17,0,0,1,1.23,3.63,26,26,0,0,1,.41,4.83c0,1.33,0,2.68-.06,4.06s-.12,2.74-.23,4.1-.27,2.7-.46,4A31.21,31.21,0,0,1,151,118l-5.38-.64q.54-2.76.84-5.13c.2-1.58.34-3,.43-4.16.11-1.38.17-2.65.19-3.8,0-1.47-.05-2.74-.14-3.83a11.74,11.74,0,0,0-.5-2.7,3.4,3.4,0,0,0-1-1.6,2.32,2.32,0,0,0-1.59-.53,2.42,2.42,0,0,0-1.29.92,9.21,9.21,0,0,0-1.18,2.14,19.2,19.2,0,0,0-1.09,4.12c0,1.2-.07,2.39-.08,3.56s0,2.43,0,3.76v3.62c0,1.29,0,2.76.05,4.39l-5.24-.12c0-1.57.08-3.23.1-5s0-3.72,0-5.87,0-4.46,0-7-.09-5.26-.18-8.31Z"/><path class="cls-59" d="M163.71,82.47c-.13,1.58-.23,3.14-.3,4.67s-.16,3.07-.23,4.61l2-.08c.66,0,1.33-.06,2-.11l.09,5.91q-1.11-.18-2.19-.3L163,97c0,1.31-.07,2.6-.08,3.88s0,2.57,0,3.88q0,3.51.08,7t.27,7l-6-.09q.3-5.43.5-10.84T158,96.85L156,97l-2,.12.18-5.47c.63,0,1.26.08,1.88.1s1.25.05,1.86.09c0-1.54,0-3.08,0-4.61s-.07-3.07-.1-4.63Z"/><path class="cls-59" d="M175.25,82.42q-.18,3-.35,6c-.1,2-.2,4-.27,6a8,8,0,0,1,1.8-2.36,8.26,8.26,0,0,1,1.87-1.24,6.45,6.45,0,0,1,2-.55,4.87,4.87,0,0,1,2.84.81,6,6,0,0,1,1.94,2.31,12.28,12.28,0,0,1,1.11,3.61,29.4,29.4,0,0,1,.35,4.72q0,4.37-.29,8.44a50.63,50.63,0,0,1-1.21,8l-5.41-.64c.36-1.84.63-3.55.82-5.13s.34-3,.43-4.16c.11-1.38.17-2.65.18-3.8,0-1.47,0-2.74-.05-3.83a13.42,13.42,0,0,0-.33-2.7,3.19,3.19,0,0,0-.82-1.6,2.11,2.11,0,0,0-1.54-.53,2.62,2.62,0,0,0-1.5.92,5.15,5.15,0,0,0-.65.88,11.1,11.1,0,0,0-.66,1.3,16.33,16.33,0,0,0-.63,1.81,21.55,21.55,0,0,0-.53,2.41c-.05,1.57-.08,3.13-.08,4.68s0,3.1,0,4.64v2.94c0,1,0,2,0,2.93l-5.24-.12q.25-4.22.38-8.45c.09-2.82.13-5.65.13-8.52,0-3.14-.06-6.26-.16-9.36s-.27-6.22-.47-9.36Z"/><path class="cls-59" d="M54.24,130.28c-.13,1.59-.23,3.14-.3,4.68s-.16,3.06-.23,4.6l2-.08c.66,0,1.33-.06,2-.1l.09,5.91q-1.11-.19-2.19-.3c-.73-.08-1.44-.14-2.13-.19,0,1.31-.07,2.6-.08,3.88s0,2.57,0,3.88q0,3.51.08,7t.27,7l-6-.09q.3-5.43.5-10.84c.13-3.61.22-7.24.26-10.91l-1.94.11-2,.12.18-5.47c.63.05,1.26.08,1.88.11l1.86.08c0-1.54,0-3.08,0-4.61s-.07-3.07-.1-4.63Z"/><path class="cls-59" d="M65.64,166.32l-6.16.46c.24-2.75.43-5.41.54-8s.17-5.12.17-7.7c0-1.81,0-3.63-.08-5.46S60,142,59.83,140l5.19-.27c0,.33,0,.67-.07,1s0,.64,0,.95a7,7,0,0,1,1.76-1.95,7.87,7.87,0,0,1,1.79-1,6.62,6.62,0,0,1,1.92-.49,7.34,7.34,0,0,1,2.88.52,6,6,0,0,1,2,1.34,5.24,5.24,0,0,1,1.1,1.83,5.66,5.66,0,0,1,.35,2,9.47,9.47,0,0,1-.21,2,5.53,5.53,0,0,1-.7,1.79,3.88,3.88,0,0,1-1.32,1.29,3.83,3.83,0,0,1-2,.5,3.52,3.52,0,0,1-1.89-.44,3.1,3.1,0,0,1-1-1.05,3.61,3.61,0,0,1-.46-1.27,7.36,7.36,0,0,1-.11-1.12,2.58,2.58,0,0,1,.12-.73,3.81,3.81,0,0,1,.35-.82,4.67,4.67,0,0,1,.57-.82,4.87,4.87,0,0,1,.81-.75l-.29-.07-.29,0a3.14,3.14,0,0,0-2,.73,6,6,0,0,0-1.56,2,13.64,13.64,0,0,0-1.08,3,27.43,27.43,0,0,0-.64,3.84q.12,3.57.32,7.08T65.64,166.32Z"/><path class="cls-59" d="M94.87,160.41a5.53,5.53,0,0,1-.62,2.56,6.76,6.76,0,0,1-1.69,2.08,8.12,8.12,0,0,1-2.49,1.38,9,9,0,0,1-3,.51,8.37,8.37,0,0,1-2.19-.3,7.09,7.09,0,0,1-2.13-1,9,9,0,0,1-1.91-1.82,11.1,11.1,0,0,1-1.56-2.78,18.65,18.65,0,0,1-1-3.84,30.47,30.47,0,0,1-.38-5.07,27,27,0,0,1,.38-4.77,16.86,16.86,0,0,1,1-3.63,10.56,10.56,0,0,1,1.53-2.6,8.82,8.82,0,0,1,1.89-1.71,7.07,7.07,0,0,1,2.07-.93,8.54,8.54,0,0,1,5,.22,6.87,6.87,0,0,1,2.42,1.47,7,7,0,0,1,1.65,2.38,8.19,8.19,0,0,1,.61,3.27,8.84,8.84,0,0,1-.68,3.36,10.86,10.86,0,0,1-2,3.21,15,15,0,0,1-3.31,2.75,17.52,17.52,0,0,1-4.54,2,22.38,22.38,0,0,0,.41,2.61,8.83,8.83,0,0,0,.67,2,3.93,3.93,0,0,0,.94,1.3,1.9,1.9,0,0,0,1.26.46,3.61,3.61,0,0,0,.88-.16,2.9,2.9,0,0,0,.75-.37,1.93,1.93,0,0,0,.63-.74,2.33,2.33,0,0,1-.92-.72,3.82,3.82,0,0,1-.48-.83,2.68,2.68,0,0,1-.21-1,3.33,3.33,0,0,1,.44-1.8,3.47,3.47,0,0,1,1-1.08,4.14,4.14,0,0,1,1.22-.55,5.29,5.29,0,0,1,1-.15,3.6,3.6,0,0,1,1,.17,2.79,2.79,0,0,1,1.1.62,3.75,3.75,0,0,1,.91,1.3A5.52,5.52,0,0,1,94.87,160.41Zm-5.7-14.52a8,8,0,0,0-.15-1.58,5,5,0,0,0-.44-1.31,2.66,2.66,0,0,0-.72-.89,1.55,1.55,0,0,0-1-.33,1.81,1.81,0,0,0-1.54.86,7.14,7.14,0,0,0-1,2.3,18.48,18.48,0,0,0-.51,3.3c-.09,1.25-.14,2.55-.14,3.9v1.69a12.48,12.48,0,0,0,2.18-1.48,9.88,9.88,0,0,0,1.73-1.88,8.53,8.53,0,0,0,1.13-2.18A7.2,7.2,0,0,0,89.17,145.89Z"/><path class="cls-59" d="M108.26,166.32c-.09-.48-.18-1-.25-1.46s-.14-1-.19-1.52a7.55,7.55,0,0,1-2.54,2.41,6.37,6.37,0,0,1-5.08.56,4.52,4.52,0,0,1-1.72-1,5.24,5.24,0,0,1-1.27-2,8.46,8.46,0,0,1-.49-3.13,7.08,7.08,0,0,1,1.66-4.77,8.57,8.57,0,0,1,1.66-1.53c.62-.43,1.23-.81,1.84-1.15s1.19-.66,1.74-1a7.45,7.45,0,0,0,1.36-.88,11.59,11.59,0,0,0,1.77-1.72,8.82,8.82,0,0,0,1.21-1.9,15.7,15.7,0,0,0-.33-2.62,5.55,5.55,0,0,0-.64-1.64,2.1,2.1,0,0,0-1-.85,3.08,3.08,0,0,0-1.28-.25,3.35,3.35,0,0,0-1.79.46,4.37,4.37,0,0,0-1.19,1.11,3.34,3.34,0,0,1,.89.79,3.08,3.08,0,0,1,.47.81,2.37,2.37,0,0,1,.21.9,3.12,3.12,0,0,1-.89,2.4,3.21,3.21,0,0,1-2.27.83,2.6,2.6,0,0,1-1.32-.34,3.3,3.3,0,0,1-1-.93,4.65,4.65,0,0,1-.7-1.43,6.17,6.17,0,0,1-.25-1.8,5.52,5.52,0,0,1,.43-2.06,6.08,6.08,0,0,1,1.41-2,7.77,7.77,0,0,1,2.5-1.55,10,10,0,0,1,3.69-.61,7.6,7.6,0,0,1,3.72.85,7.48,7.48,0,0,1,2.54,2.23,9.49,9.49,0,0,1,1.44,3.23,15.61,15.61,0,0,1,.45,3.76c0,1,0,2,0,3.16s0,2.31,0,3.51q0,1.5,0,3c0,1,0,2,.09,2.9s.11,1.81.18,2.63.18,1.56.3,2.21Zm-.35-13.53a10,10,0,0,1-1.73,1.66c-.46.33-1,.69-1.49,1.09a14,14,0,0,0-1.47,1.27,7.25,7.25,0,0,0-1.14,1.39,2.81,2.81,0,0,0-.45,1.49,3,3,0,0,0,.51,1.78,1.65,1.65,0,0,0,1.43.74,2.63,2.63,0,0,0,1.53-.46,5.39,5.39,0,0,0,1.19-1.15,7.93,7.93,0,0,0,.87-1.46,13.23,13.23,0,0,0,.57-1.43Z"/><path class="cls-59" d="M124.6,130.28c-.12,1.59-.22,3.14-.3,4.68s-.15,3.06-.23,4.6l2-.08c.66,0,1.34-.06,2-.1l.1,5.91c-.74-.13-1.47-.23-2.2-.3s-1.43-.14-2.12-.19c0,1.31-.07,2.6-.08,3.88s0,2.57,0,3.88c0,2.34,0,4.66.08,7s.14,4.63.26,7l-6-.09q.3-5.43.49-10.84c.13-3.61.22-7.24.27-10.91l-1.94.11-2,.12.19-5.47c.63.05,1.26.08,1.88.11l1.86.08c0-1.54,0-3.08,0-4.61s-.06-3.07-.09-4.63Z"/><path class="cls-59" d="M145.13,153.32c0,.92,0,1.73,0,2.41s0,1.31-.06,1.87-.06,1.1-.09,1.6-.09,1-.13,1.59-.1,1.19-.16,1.89-.13,1.52-.21,2.46l-5.2.05q.33-3.72.48-7.15t.15-6.8a13.62,13.62,0,0,0-.59-4.68c-.39-1-1-1.48-1.79-1.48a2,2,0,0,0-.9.62,5.09,5.09,0,0,0-.8,1.27,10.44,10.44,0,0,0-.7,2.38c0,.75-.05,1.5-.05,2.23v2.16c0,.83,0,1.67,0,2.54s0,1.78,0,2.77,0,2,0,3.17,0,2.37.07,3.73l-5.26-.12c.11-1.77.2-3.34.27-4.73s.15-2.66.2-3.83.09-2.28.12-3.33,0-2.12,0-3.23c0-.74,0-1.49,0-2.27s0-1.61-.05-2.51-.05-1.85-.08-2.87-.06-2.14-.09-3.36l5.24.09-.14,2.17a8,8,0,0,1,1.41-2,5.63,5.63,0,0,1,1.39-1,3.41,3.41,0,0,1,1.09-.37l.57,0a4.91,4.91,0,0,1,1.33.18,3.34,3.34,0,0,1,1.2.69,5,5,0,0,1,1,1.41,10.07,10.07,0,0,1,.82,2.33,7.47,7.47,0,0,1,1.55-2.7,6.59,6.59,0,0,1,1.81-1.37,4.64,4.64,0,0,1,1.57-.49l.8-.05a3.61,3.61,0,0,1,2.49.9,6.07,6.07,0,0,1,1.62,2.74,21.77,21.77,0,0,1,.86,4.64c.18,1.87.27,4.05.27,6.56,0,.83,0,1.79-.11,2.89s-.18,2.22-.31,3.38-.25,2.31-.39,3.45-.26,2.16-.37,3.05l-5.19-.19c.26-1.64.46-3.21.61-4.69s.26-2.81.33-4c.08-1.34.13-2.59.14-3.74,0-1.47,0-2.73-.1-3.79a14.18,14.18,0,0,0-.38-2.62,3.54,3.54,0,0,0-.76-1.52,1.66,1.66,0,0,0-1.23-.5,2.34,2.34,0,0,0-.92.53,4.3,4.3,0,0,0-.82,1,7.11,7.11,0,0,0-.75,1.77C145.08,149.77,145.13,151.43,145.13,153.32Z"/><path class="cls-59" d="M174.82,160.41a5.42,5.42,0,0,1-.63,2.56,6.59,6.59,0,0,1-1.68,2.08,8.12,8.12,0,0,1-2.49,1.38,9.08,9.08,0,0,1-3.05.51,8.39,8.39,0,0,1-2.2-.3,7.15,7.15,0,0,1-2.12-1,8.82,8.82,0,0,1-1.92-1.82,11.09,11.09,0,0,1-1.55-2.78,18.65,18.65,0,0,1-1-3.84,29.43,29.43,0,0,1-.38-5.07,26,26,0,0,1,.38-4.77,16.86,16.86,0,0,1,1-3.63,10.56,10.56,0,0,1,1.53-2.6,8.78,8.78,0,0,1,1.88-1.71,7.12,7.12,0,0,1,2.08-.93,8.54,8.54,0,0,1,5.05.22,6.87,6.87,0,0,1,2.42,1.47,7,7,0,0,1,1.65,2.38,8.19,8.19,0,0,1,.61,3.27,9,9,0,0,1-.68,3.36,11.06,11.06,0,0,1-2,3.21,15.23,15.23,0,0,1-3.31,2.75,17.52,17.52,0,0,1-4.54,2,20.44,20.44,0,0,0,.41,2.61,9.37,9.37,0,0,0,.66,2,4,4,0,0,0,1,1.3,1.87,1.87,0,0,0,1.26.46,3.61,3.61,0,0,0,.88-.16,3.25,3.25,0,0,0,.75-.37,2,2,0,0,0,.63-.74,2.27,2.27,0,0,1-.92-.72,3.9,3.9,0,0,1-.49-.83,2.89,2.89,0,0,1-.2-1,3.33,3.33,0,0,1,.43-1.8,3.59,3.59,0,0,1,1-1.08,4.2,4.2,0,0,1,1.23-.55,5.07,5.07,0,0,1,1-.15,3.6,3.6,0,0,1,1,.17,2.75,2.75,0,0,1,1.09.62,3.77,3.77,0,0,1,.92,1.3A5.52,5.52,0,0,1,174.82,160.41Zm-5.7-14.52a8,8,0,0,0-.16-1.58,5,5,0,0,0-.43-1.31,2.79,2.79,0,0,0-.72-.89,1.55,1.55,0,0,0-1-.33,1.83,1.83,0,0,0-1.55.86,7.37,7.37,0,0,0-1,2.3,19.49,19.49,0,0,0-.5,3.3c-.1,1.25-.14,2.55-.14,3.9v1.69a12.48,12.48,0,0,0,2.18-1.48,9.88,9.88,0,0,0,1.73-1.88,8.86,8.86,0,0,0,1.13-2.18A7.2,7.2,0,0,0,169.12,145.89Z"/><path class="cls-59" d="M183.38,139.79l-.14,1.9a6.76,6.76,0,0,1,1.63-1.94,6.07,6.07,0,0,1,1.61-.95,4.51,4.51,0,0,1,1.23-.3l.54,0a5.59,5.59,0,0,1,3,.78,6,6,0,0,1,2.1,2.28,11.83,11.83,0,0,1,1.24,3.62A26.15,26.15,0,0,1,195,150q0,2-.06,4.05c0,1.38-.11,2.75-.23,4.11s-.27,2.69-.46,4a31.23,31.23,0,0,1-.77,3.69l-5.38-.64c.35-1.83.63-3.54.83-5.13s.35-3,.44-4.15q.16-2.08.18-3.81c0-1.46,0-2.74-.14-3.82a11.59,11.59,0,0,0-.49-2.7,3.6,3.6,0,0,0-1-1.61,1.81,1.81,0,0,0-2.89.39,9.21,9.21,0,0,0-1.18,2.14,20.07,20.07,0,0,0-1.08,4.12c0,1.2-.07,2.39-.08,3.57s0,2.43,0,3.75v3.62c0,1.3,0,2.76,0,4.39l-5.24-.12c.05-1.57.08-3.23.11-5s0-3.72,0-5.88,0-4.46-.05-7-.09-5.26-.18-8.31Z"/><path class="cls-59" d="M206.12,130.28c-.12,1.59-.22,3.14-.3,4.68s-.15,3.06-.23,4.6l2-.08c.66,0,1.34-.06,2-.1l.09,5.91q-1.11-.19-2.19-.3c-.72-.08-1.43-.14-2.12-.19,0,1.31-.08,2.6-.08,3.88s0,2.57,0,3.88q0,3.51.08,7t.27,7l-6-.09q.3-5.43.5-10.84c.13-3.61.22-7.24.27-10.91l-1.94.11-2,.12.19-5.47c.63.05,1.25.08,1.88.11l1.86.08c0-1.54,0-3.08-.05-4.61s-.06-3.07-.09-4.63Z"/><polygon class="cls-60" points="125.97 185.4 121.49 194.48 111.46 195.94 118.72 203.01 117.01 213 125.97 208.29 134.94 213 133.23 203.01 140.49 195.94 130.46 194.48 125.97 185.4"/></g></g></svg>