<svg xmlns="http://www.w3.org/2000/svg" xmlns:xlink="http://www.w3.org/1999/xlink" viewBox="0 0 252.7 254.81"><defs><style>.cls-1,.cls-12{mask:url(#mask);}.cls-1{filter:url(#luminosity-noclip-21);}.cls-11,.cls-13,.cls-14,.cls-16,.cls-18,.cls-19,.cls-2,.cls-21,.cls-23,.cls-24,.cls-26,.cls-28,.cls-29,.cls-31,.cls-33,.cls-34,.cls-4,.cls-6,.cls-7,.cls-9{mix-blend-mode:multiply;}.cls-2{fill:url(#radial-gradient);}.cls-3,.cls-5{mask:url(#mask-2);}.cls-3{filter:url(#luminosity-noclip-26);}.cls-4{fill:url(#radial-gradient-2);}.cls-6{fill:url(#radial-gradient-3);}.cls-7{fill:url(#radial-gradient-4);}.cls-10,.cls-8{mask:url(#mask-5);}.cls-8{filter:url(#luminosity-noclip-29);}.cls-9{fill:url(#radial-gradient-5);}.cls-11{fill:url(#radial-gradient-6);}.cls-13{fill:url(#radial-gradient-7);}.cls-14{fill:url(#radial-gradient-8);}.cls-15,.cls-17{mask:url(#mask-9);}.cls-15{filter:url(#luminosity-noclip-32);}.cls-16{fill:url(#radial-gradient-9);}.cls-18{fill:url(#radial-gradient-10);}.cls-19{fill:url(#radial-gradient-11);}.cls-20,.cls-22{mask:url(#mask-12);}.cls-20{filter:url(#luminosity-noclip-35);}.cls-21{fill:url(#radial-gradient-12);}.cls-23{fill:url(#radial-gradient-13);}.cls-24{fill:url(#radial-gradient-14);}.cls-25,.cls-27{mask:url(#mask-15);}.cls-25{filter:url(#luminosity-noclip-38);}.cls-26{fill:url(#radial-gradient-15);}.cls-28{fill:url(#radial-gradient-16);}.cls-29{fill:url(#radial-gradient-17);}.cls-30,.cls-32{mask:url(#mask-18);}.cls-30{filter:url(#luminosity-noclip-23);}.cls-31{fill:url(#radial-gradient-18);}.cls-33{fill:url(#radial-gradient-19);}.cls-34{fill:url(#radial-gradient-20);}.cls-35{isolation:isolate;}.cls-36{fill:url(#linear-gradient);}.cls-37{fill:#a3713b;}.cls-38{fill:url(#linear-gradient-2);}.cls-39{fill:url(#linear-gradient-3);}.cls-40{fill:url(#linear-gradient-4);}.cls-41,.cls-42,.cls-49,.cls-54{mix-blend-mode:screen;}.cls-42{opacity:0.2;}.cls-43{mask:url(#mask-21);}.cls-44{fill:url(#radial-gradient-21);}.cls-45{mask:url(#mask-23);}.cls-46{fill:url(#radial-gradient-22);}.cls-47{mask:url(#mask-26);}.cls-48{fill:url(#radial-gradient-23);}.cls-49{opacity:0.8;}.cls-50{mask:url(#mask-29);}.cls-51{fill:url(#radial-gradient-24);}.cls-52{mask:url(#mask-32);}.cls-53{fill:url(#radial-gradient-25);}.cls-54{opacity:0.4;}.cls-55{mask:url(#mask-35);}.cls-56{fill:url(#radial-gradient-26);}.cls-57{mask:url(#mask-38);}.cls-58{fill:url(#radial-gradient-27);}.cls-59{font-size:47.28px;fill:#754c24;font-family:RumRaisin-Regular, Rum Raisin;}.cls-60{letter-spacing:0em;}.cls-61{fill:#a88245;}.cls-62{filter:url(#luminosity-noclip-18);}.cls-63{filter:url(#luminosity-noclip-15);}.cls-64{filter:url(#luminosity-noclip-12);}.cls-65{filter:url(#luminosity-noclip-9);}.cls-66{filter:url(#luminosity-noclip-5);}.cls-67{filter:url(#luminosity-noclip-2);}.cls-68{filter:url(#luminosity-noclip);}</style><filter id="luminosity-noclip" x="108.38" y="-8155.6" width="27.94" height="32766" filterUnits="userSpaceOnUse" color-interpolation-filters="sRGB"><feFlood flood-color="#fff" result="bg"/><feBlend in="SourceGraphic" in2="bg"/></filter><mask id="mask" x="108.38" y="-8155.6" width="27.94" height="32766" maskUnits="userSpaceOnUse"><g class="cls-68"/></mask><radialGradient id="radial-gradient" cx="-368.24" cy="-638.64" r="25.94" gradientTransform="matrix(0.31, 0.4, 0.44, -0.28, 517.96, 17.25)" gradientUnits="userSpaceOnUse"><stop offset="0.23" stop-color="#fff"/><stop offset="0.33" stop-color="#fdfdfd"/><stop offset="0.37" stop-color="#f6f6f6"/><stop offset="0.39" stop-color="#ebebeb"/><stop offset="0.42" stop-color="#dadada"/><stop offset="0.42" stop-color="#d0d0d0"/><stop offset="0.45" stop-color="#cecece"/><stop offset="0.46" stop-color="#c7c7c7"/><stop offset="0.46" stop-color="#c6c6c6"/><stop offset="0.49" stop-color="#b4b4b4"/><stop offset="0.59" stop-color="#7e7e7e"/><stop offset="0.68" stop-color="#515151"/><stop offset="0.77" stop-color="#2e2e2e"/><stop offset="0.86" stop-color="#141414"/><stop offset="0.94" stop-color="#050505"/><stop offset="1"/></radialGradient><filter id="luminosity-noclip-2" x="81.5" y="-8155.6" width="80.07" height="32766" filterUnits="userSpaceOnUse" color-interpolation-filters="sRGB"><feFlood flood-color="#fff" result="bg"/><feBlend in="SourceGraphic" in2="bg"/></filter><mask id="mask-2" x="81.5" y="-8155.6" width="80.07" height="32766" maskUnits="userSpaceOnUse"><g class="cls-67"/></mask><radialGradient id="radial-gradient-2" cx="-37.79" cy="1337.11" r="15.76" gradientTransform="matrix(2.27, 0.63, 1.14, 0.52, -1319.85, -624.06)" gradientUnits="userSpaceOnUse"><stop offset="0.23" stop-color="#fff"/><stop offset="0.35" stop-color="#fdfdfd"/><stop offset="0.39" stop-color="#f6f6f6"/><stop offset="0.42" stop-color="#ebebeb"/><stop offset="0.44" stop-color="#dadada"/><stop offset="0.45" stop-color="#d0d0d0"/><stop offset="0.48" stop-color="#cecece"/><stop offset="0.49" stop-color="#c7c7c7"/><stop offset="0.49" stop-color="#c6c6c6"/><stop offset="0.54" stop-color="#9a9a9a"/><stop offset="0.59" stop-color="#717171"/><stop offset="0.64" stop-color="#4e4e4e"/><stop offset="0.7" stop-color="#323232"/><stop offset="0.76" stop-color="#1c1c1c"/><stop offset="0.82" stop-color="#0c0c0c"/><stop offset="0.89" stop-color="#030303"/><stop offset="1"/></radialGradient><radialGradient id="radial-gradient-3" cx="-37.79" cy="1337.11" r="15.76" gradientTransform="matrix(2.27, 0.63, 1.14, 0.52, -1319.85, -624.06)" gradientUnits="userSpaceOnUse"><stop offset="0" stop-color="#fff"/><stop offset="0.03" stop-color="#fff"/><stop offset="0.22" stop-color="#fff"/><stop offset="0.37" stop-color="#fff"/><stop offset="0.4" stop-color="#ebebeb"/><stop offset="0.5" stop-color="#adadad"/><stop offset="0.59" stop-color="#787878"/><stop offset="0.68" stop-color="#4d4d4d"/><stop offset="0.77" stop-color="#2c2c2c"/><stop offset="0.86" stop-color="#141414"/><stop offset="0.93" stop-color="#050505"/><stop offset="1"/></radialGradient><radialGradient id="radial-gradient-4" cx="-37.79" cy="1337.11" r="15.76" gradientTransform="matrix(2.27, 0.63, 1.14, 0.52, -1319.85, -624.06)" gradientUnits="userSpaceOnUse"><stop offset="0" stop-color="#fff"/><stop offset="0.22" stop-color="#fff"/><stop offset="0.28" stop-color="#ccc"/><stop offset="0.35" stop-color="#9c9c9c"/><stop offset="0.42" stop-color="#727272"/><stop offset="0.5" stop-color="#4f4f4f"/><stop offset="0.57" stop-color="#323232"/><stop offset="0.66" stop-color="#1c1c1c"/><stop offset="0.75" stop-color="#0c0c0c"/><stop offset="0.85" stop-color="#030303"/><stop offset="1"/></radialGradient><filter id="luminosity-noclip-5" x="93.84" y="-8155.6" width="55.4" height="32766" filterUnits="userSpaceOnUse" color-interpolation-filters="sRGB"><feFlood flood-color="#fff" result="bg"/><feBlend in="SourceGraphic" in2="bg"/></filter><mask id="mask-5" x="93.84" y="-8155.6" width="55.4" height="32766" maskUnits="userSpaceOnUse"><g class="cls-66"/></mask><radialGradient id="radial-gradient-5" cx="80.41" cy="1343.45" r="15.76" gradientTransform="matrix(1.66, 2.27, 0.57, 1.38, -779.64, -1992.86)" xlink:href="#radial-gradient-2"/><radialGradient id="radial-gradient-6" cx="80.41" cy="1343.45" r="15.76" gradientTransform="matrix(1.66, 2.27, 0.57, 1.38, -779.64, -1992.86)" xlink:href="#radial-gradient-3"/><radialGradient id="radial-gradient-7" cx="-368.24" cy="-638.64" r="25.94" gradientTransform="matrix(0.31, 0.4, 0.44, -0.28, 517.96, 17.25)" gradientUnits="userSpaceOnUse"><stop offset="0" stop-color="#fff"/><stop offset="0.38" stop-color="#fff"/><stop offset="0.45" stop-color="#fff"/><stop offset="0.46" stop-color="#fff"/><stop offset="0.46" stop-color="#fff"/><stop offset="0.47" stop-color="#f5f5f5"/><stop offset="0.56" stop-color="#b5b5b5"/><stop offset="0.65" stop-color="#7e7e7e"/><stop offset="0.73" stop-color="#515151"/><stop offset="0.81" stop-color="#2e2e2e"/><stop offset="0.88" stop-color="#141414"/><stop offset="0.95" stop-color="#050505"/><stop offset="1"/></radialGradient><radialGradient id="radial-gradient-8" cx="80.41" cy="1343.45" r="15.76" gradientTransform="matrix(1.66, 2.27, 0.57, 1.38, -779.64, -1992.86)" gradientUnits="userSpaceOnUse"><stop offset="0" stop-color="#fff"/><stop offset="0.41" stop-color="#fff"/><stop offset="0.46" stop-color="#ccc"/><stop offset="0.51" stop-color="#9c9c9c"/><stop offset="0.57" stop-color="#727272"/><stop offset="0.62" stop-color="#4f4f4f"/><stop offset="0.68" stop-color="#323232"/><stop offset="0.75" stop-color="#1c1c1c"/><stop offset="0.81" stop-color="#0c0c0c"/><stop offset="0.89" stop-color="#030303"/><stop offset="1"/></radialGradient><filter id="luminosity-noclip-9" x="109.39" y="-8155.6" width="24.29" height="32766" filterUnits="userSpaceOnUse" color-interpolation-filters="sRGB"><feFlood flood-color="#fff" result="bg"/><feBlend in="SourceGraphic" in2="bg"/></filter><mask id="mask-9" x="109.39" y="-8155.6" width="24.29" height="32766" maskUnits="userSpaceOnUse"><g class="cls-65"/></mask><radialGradient id="radial-gradient-9" cx="-408.68" cy="2515.23" r="15.76" gradientTransform="matrix(-0.6, 2.66, -0.49, 1.39, 1104.57, -2357.07)" xlink:href="#radial-gradient-2"/><radialGradient id="radial-gradient-10" cx="-408.68" cy="2515.23" r="15.76" gradientTransform="matrix(-0.6, 2.66, -0.49, 1.39, 1104.57, -2357.07)" xlink:href="#radial-gradient-3"/><radialGradient id="radial-gradient-11" cx="-408.68" cy="2515.23" r="15.76" gradientTransform="matrix(-0.6, 2.66, -0.49, 1.39, 1104.57, -2357.07)" xlink:href="#radial-gradient-4"/><filter id="luminosity-noclip-12" x="69.77" y="-8155.6" width="103.89" height="32766" filterUnits="userSpaceOnUse" color-interpolation-filters="sRGB"><feFlood flood-color="#fff" result="bg"/><feBlend in="SourceGraphic" in2="bg"/></filter><mask id="mask-12" x="69.77" y="-8155.6" width="103.89" height="32766" maskUnits="userSpaceOnUse"><g class="cls-64"/></mask><radialGradient id="radial-gradient-12" cx="858.26" cy="-199.1" r="11.45" gradientTransform="matrix(3.9, -2.32, 2.32, -0.88, -2760.18, 1860.54)" xlink:href="#radial-gradient-2"/><radialGradient id="radial-gradient-13" cx="858.26" cy="-199.1" r="11.45" gradientTransform="matrix(3.9, -2.32, 2.32, -0.88, -2760.18, 1860.54)" xlink:href="#radial-gradient-3"/><radialGradient id="radial-gradient-14" cx="858.26" cy="-199.1" r="11.45" gradientTransform="matrix(3.9, -2.32, 2.32, -0.88, -2760.18, 1860.54)" xlink:href="#radial-gradient-4"/><filter id="luminosity-noclip-15" x="107.48" y="-8155.6" width="28.96" height="32766" filterUnits="userSpaceOnUse" color-interpolation-filters="sRGB"><feFlood flood-color="#fff" result="bg"/><feBlend in="SourceGraphic" in2="bg"/></filter><mask id="mask-15" x="107.48" y="-8155.6" width="28.96" height="32766" maskUnits="userSpaceOnUse"><g class="cls-63"/></mask><radialGradient id="radial-gradient-15" cx="1399.91" cy="-916.11" r="21.38" gradientTransform="matrix(-0.55, -0.37, 0.39, -0.49, 1254.76, 113.31)" xlink:href="#radial-gradient-2"/><radialGradient id="radial-gradient-16" cx="1399.91" cy="-916.11" r="21.38" gradientTransform="matrix(-0.55, -0.37, 0.39, -0.49, 1254.76, 113.31)" gradientUnits="userSpaceOnUse"><stop offset="0.23" stop-color="#fff"/><stop offset="0.42" stop-color="#fff"/><stop offset="0.45" stop-color="#fff"/><stop offset="0.49" stop-color="#fff"/><stop offset="0.49" stop-color="#fff"/><stop offset="0.53" stop-color="#cacaca"/><stop offset="0.58" stop-color="#9b9b9b"/><stop offset="0.62" stop-color="#717171"/><stop offset="0.67" stop-color="#4e4e4e"/><stop offset="0.72" stop-color="#323232"/><stop offset="0.78" stop-color="#1c1c1c"/><stop offset="0.84" stop-color="#0c0c0c"/><stop offset="0.9" stop-color="#030303"/><stop offset="1"/></radialGradient><radialGradient id="radial-gradient-17" cx="1399.91" cy="-916.11" r="21.38" gradientTransform="matrix(-0.55, -0.37, 0.39, -0.49, 1254.76, 113.31)" gradientUnits="userSpaceOnUse"><stop offset="0" stop-color="#fff"/><stop offset="0.27" stop-color="#fff"/><stop offset="0.31" stop-color="#fff"/><stop offset="0.35" stop-color="#d5d5d5"/><stop offset="0.38" stop-color="#a9a9a9"/><stop offset="0.42" stop-color="gray"/><stop offset="0.47" stop-color="#5d5d5d"/><stop offset="0.52" stop-color="#404040"/><stop offset="0.57" stop-color="#292929"/><stop offset="0.63" stop-color="#161616"/><stop offset="0.7" stop-color="#0a0a0a"/><stop offset="0.8" stop-color="#020202"/><stop offset="1"/></radialGradient><filter id="luminosity-noclip-18" x="87.41" y="-8155.6" width="68.47" height="32766" filterUnits="userSpaceOnUse" color-interpolation-filters="sRGB"><feFlood flood-color="#fff" result="bg"/><feBlend in="SourceGraphic" in2="bg"/></filter><mask id="mask-18" x="87.41" y="-8155.6" width="68.47" height="32766" maskUnits="userSpaceOnUse"><g class="cls-62"/></mask><radialGradient id="radial-gradient-18" cx="-369.14" cy="-639.6" r="63.57" xlink:href="#radial-gradient"/><radialGradient id="radial-gradient-19" cx="-369.14" cy="-639.6" r="63.57" xlink:href="#radial-gradient-7"/><radialGradient id="radial-gradient-20" cx="-369.14" cy="-639.6" r="63.57" gradientTransform="matrix(0.31, 0.4, 0.44, -0.28, 517.96, 17.25)" gradientUnits="userSpaceOnUse"><stop offset="0" stop-color="#fff"/><stop offset="0.27" stop-color="#fff"/><stop offset="0.27" stop-color="#f6f6f6"/><stop offset="0.3" stop-color="#c8c8c8"/><stop offset="0.34" stop-color="#9d9d9d"/><stop offset="0.37" stop-color="#777"/><stop offset="0.41" stop-color="#575757"/><stop offset="0.45" stop-color="#3b3b3b"/><stop offset="0.5" stop-color="#252525"/><stop offset="0.56" stop-color="#141414"/><stop offset="0.63" stop-color="#090909"/><stop offset="0.73" stop-color="#020202"/><stop offset="1"/></radialGradient><linearGradient id="linear-gradient" x1="214.99" y1="39.81" x2="37.71" y2="217.1" gradientUnits="userSpaceOnUse"><stop offset="0" stop-color="#a3713b"/><stop offset="0.22" stop-color="#fdf496"/><stop offset="0.28" stop-color="#fff78f"/><stop offset="0.48" stop-color="#c29c57"/><stop offset="0.74" stop-color="#cfb266"/><stop offset="1" stop-color="#a3713b"/></linearGradient><linearGradient id="linear-gradient-2" y1="128.46" x2="252.7" y2="128.46" gradientUnits="userSpaceOnUse"><stop offset="0" stop-color="#d8b56d"/><stop offset="0.1" stop-color="#fae397"/><stop offset="0.16" stop-color="#ffffda"/><stop offset="0.21" stop-color="#fff78f"/><stop offset="0.33" stop-color="#e4cf76"/><stop offset="0.48" stop-color="#ac8953"/><stop offset="0.62" stop-color="#8d6e47"/><stop offset="0.73" stop-color="#d8b56d"/><stop offset="0.84" stop-color="#fceb94"/><stop offset="0.88" stop-color="#ffffd1"/><stop offset="0.95" stop-color="#c1a360"/></linearGradient><linearGradient id="linear-gradient-3" x1="201.33" y1="53.47" x2="51.37" y2="203.44" xlink:href="#linear-gradient"/><linearGradient id="linear-gradient-4" x1="182.01" y1="224.87" x2="70.68" y2="32.04" xlink:href="#linear-gradient"/><filter id="luminosity-noclip-21" x="108.38" y="34.48" width="27.94" height="25.24" filterUnits="userSpaceOnUse" color-interpolation-filters="sRGB"><feFlood flood-color="#fff" result="bg"/><feBlend in="SourceGraphic" in2="bg"/></filter><mask id="mask-21" x="108.38" y="34.48" width="27.94" height="25.24" maskUnits="userSpaceOnUse"><g class="cls-1"><path class="cls-2" d="M130.32,57.46c6.33-4,7.9-11.83,3.51-17.56s-13.11-7.14-19.45-3.17-7.9,11.83-3.51,17.57S124,61.44,130.32,57.46Z"/></g></mask><radialGradient id="radial-gradient-21" cx="-368.24" cy="-638.63" r="25.94" gradientTransform="matrix(0.31, 0.4, 0.44, -0.28, 517.96, 17.25)" gradientUnits="userSpaceOnUse"><stop offset="0" stop-color="#3ac8ff"/><stop offset="0.18" stop-color="#3cc9ff"/><stop offset="0.25" stop-color="#43cbff"/><stop offset="0.3" stop-color="#4fd0ff"/><stop offset="0.34" stop-color="#60d7ff"/><stop offset="0.38" stop-color="#76e0ff"/><stop offset="0.41" stop-color="#92ebff"/><stop offset="0.43" stop-color="#b2f7ff"/><stop offset="0.45" stop-color="#c6ffff"/><stop offset="0.45" stop-color="#c4ffff"/><stop offset="0.46" stop-color="#bdffff"/><stop offset="0.46" stop-color="#b2ffff"/><stop offset="0.46" stop-color="#a1ffff"/><stop offset="0.46" stop-color="#8bffff"/><stop offset="0.46" stop-color="#70ffff"/><stop offset="0.46" stop-color="#68ffff"/><stop offset="0.57" stop-color="#58dbff"/><stop offset="0.69" stop-color="#48b8ff"/><stop offset="0.81" stop-color="#3c9fff"/><stop offset="0.91" stop-color="#3590ff"/><stop offset="1" stop-color="#338bff"/></radialGradient><filter id="luminosity-noclip-23" x="87.41" y="16.08" width="68.47" height="61.85" filterUnits="userSpaceOnUse" color-interpolation-filters="sRGB"><feFlood flood-color="#fff" result="bg"/><feBlend in="SourceGraphic" in2="bg"/></filter><mask id="mask-23" x="87.41" y="16.08" width="68.47" height="61.85" maskUnits="userSpaceOnUse"><g class="cls-30"><path class="cls-31" d="M141.16,72.4c15.53-9.73,19.38-29,8.61-43s-32.1-17.5-47.63-7.77-19.39,29-8.62,43S125.63,82.14,141.16,72.4Z"/></g></mask><radialGradient id="radial-gradient-22" cx="-369.14" cy="-639.6" r="63.57" gradientTransform="matrix(0.31, 0.4, 0.44, -0.28, 517.96, 17.25)" gradientUnits="userSpaceOnUse"><stop offset="0" stop-color="#fff"/><stop offset="0.04" stop-color="#fff4e1"/><stop offset="0.12" stop-color="#ffd893"/><stop offset="0.25" stop-color="#ffab18"/><stop offset="0.27" stop-color="#ffa200"/><stop offset="0.32" stop-color="#ffb800"/><stop offset="0.37" stop-color="#ffc900"/><stop offset="0.44" stop-color="#ffd400"/><stop offset="0.53" stop-color="#ffdb00"/><stop offset="0.8" stop-color="#fd0"/><stop offset="0.82" stop-color="#f0d000"/><stop offset="0.86" stop-color="#caaf00"/><stop offset="0.9" stop-color="#8b7800"/><stop offset="0.96" stop-color="#362f00"/><stop offset="1"/></radialGradient><filter id="luminosity-noclip-26" x="81.5" y="34.45" width="80.07" height="25.8" filterUnits="userSpaceOnUse" color-interpolation-filters="sRGB"><feFlood flood-color="#fff" result="bg"/><feBlend in="SourceGraphic" in2="bg"/></filter><mask id="mask-26" x="81.5" y="34.45" width="80.07" height="25.8" maskUnits="userSpaceOnUse"><g class="cls-3"><path class="cls-4" d="M157.28,57.31c10,4.54,2,3.73-17.75-1.76S95.73,41.94,85.77,37.41s-2-3.75,17.75,1.75S147.33,52.79,157.28,57.31Z"/></g></mask><radialGradient id="radial-gradient-23" cx="-37.79" cy="1337.11" r="15.76" gradientTransform="matrix(2.27, 0.63, 1.14, 0.52, -1319.85, -624.06)" gradientUnits="userSpaceOnUse"><stop offset="0" stop-color="#ff0"/><stop offset="0.1" stop-color="#fdbf00"/><stop offset="0.18" stop-color="#fc9400"/><stop offset="0.22" stop-color="#fc8300"/><stop offset="0.23" stop-color="#ef7d02"/><stop offset="0.31" stop-color="#bf6709"/><stop offset="0.38" stop-color="#95540f"/><stop offset="0.46" stop-color="#724314"/><stop offset="0.55" stop-color="#553619"/><stop offset="0.64" stop-color="#3f2c1c"/><stop offset="0.73" stop-color="#2f251e"/><stop offset="0.85" stop-color="#262020"/><stop offset="1" stop-color="#231f20"/></radialGradient><filter id="luminosity-noclip-29" x="93.84" y="5.48" width="55.4" height="83.76" filterUnits="userSpaceOnUse" color-interpolation-filters="sRGB"><feFlood flood-color="#fff" result="bg"/><feBlend in="SourceGraphic" in2="bg"/></filter><mask id="mask-29" x="93.84" y="5.48" width="55.4" height="83.76" maskUnits="userSpaceOnUse"><g class="cls-8"><path class="cls-9" d="M147.73,83.1c5,12.06-2.73,5.77-17.19-14S100.31,23.66,95.32,11.6s2.76-5.78,17.2,14S142.74,71.06,147.73,83.1Z"/></g></mask><radialGradient id="radial-gradient-24" cx="80.41" cy="1343.45" r="15.76" gradientTransform="matrix(1.66, 2.27, 0.57, 1.38, -779.64, -1992.86)" gradientUnits="userSpaceOnUse"><stop offset="0" stop-color="#ff0"/><stop offset="0.19" stop-color="#fdbf00"/><stop offset="0.34" stop-color="#fc9400"/><stop offset="0.41" stop-color="#fc8300"/><stop offset="0.43" stop-color="#ef7d02"/><stop offset="0.48" stop-color="#bf6709"/><stop offset="0.54" stop-color="#95540f"/><stop offset="0.6" stop-color="#724314"/><stop offset="0.66" stop-color="#553619"/><stop offset="0.73" stop-color="#3f2c1c"/><stop offset="0.8" stop-color="#2f251e"/><stop offset="0.88" stop-color="#262020"/><stop offset="1" stop-color="#231f20"/></radialGradient><filter id="luminosity-noclip-32" x="109.39" y="0" width="24.29" height="94.71" filterUnits="userSpaceOnUse" color-interpolation-filters="sRGB"><feFlood flood-color="#fff" result="bg"/><feBlend in="SourceGraphic" in2="bg"/></filter><mask id="mask-32" x="109.39" y="0" width="24.29" height="94.71" maskUnits="userSpaceOnUse"><g class="cls-15"><path class="cls-16" d="M112.14,89.33c-4.26,12.11-3.47,3.08,1.71-20.09s12.83-51.77,17.08-63.89,3.48-3.07-1.71,20.1S116.38,77.23,112.14,89.33Z"/></g></mask><radialGradient id="radial-gradient-25" cx="-408.68" cy="2515.23" r="15.76" gradientTransform="matrix(-0.6, 2.66, -0.49, 1.39, 1104.57, -2357.07)" xlink:href="#radial-gradient-23"/><filter id="luminosity-noclip-35" x="69.77" y="19" width="103.89" height="56.73" filterUnits="userSpaceOnUse" color-interpolation-filters="sRGB"><feFlood flood-color="#fff" result="bg"/><feBlend in="SourceGraphic" in2="bg"/></filter><mask id="mask-35" x="69.77" y="19" width="103.89" height="56.73" maskUnits="userSpaceOnUse"><g class="cls-20"><path class="cls-21" d="M166.3,20.85c14.74-5.55,6.63,1.83-18,16.46s-56.48,31-71.2,36.6-6.62-1.86,18-16.49S151.62,26.41,166.3,20.85Z"/></g></mask><radialGradient id="radial-gradient-26" cx="858.26" cy="-199.1" r="11.45" gradientTransform="matrix(3.9, -2.32, 2.32, -0.88, -2760.18, 1860.54)" xlink:href="#radial-gradient-23"/><filter id="luminosity-noclip-38" x="107.48" y="33.62" width="28.96" height="26.15" filterUnits="userSpaceOnUse" color-interpolation-filters="sRGB"><feFlood flood-color="#fff" result="bg"/><feBlend in="SourceGraphic" in2="bg"/></filter><mask id="mask-38" x="107.48" y="33.62" width="28.96" height="26.15" maskUnits="userSpaceOnUse"><g class="cls-25"><path class="cls-26" d="M110.1,38.83c4.62-5.75,13.63-6.94,20.18-2.59s8.11,12.53,3.54,18.3-13.63,6.94-20.17,2.59S105.51,44.6,110.1,38.83Z"/></g></mask><radialGradient id="radial-gradient-27" cx="1399.91" cy="-916.11" r="21.38" gradientTransform="matrix(-0.55, -0.37, 0.39, -0.49, 1254.76, 113.31)" gradientUnits="userSpaceOnUse"><stop offset="0" stop-color="#fff"/><stop offset="0.12" stop-color="#fffefd"/><stop offset="0.16" stop-color="#fffaf6"/><stop offset="0.2" stop-color="#fff3eb"/><stop offset="0.22" stop-color="#ffe9da"/><stop offset="0.24" stop-color="#ffdbc4"/><stop offset="0.26" stop-color="#ffcba8"/><stop offset="0.28" stop-color="#ffb788"/><stop offset="0.29" stop-color="#ffa162"/><stop offset="0.31" stop-color="#ff8839"/><stop offset="0.31" stop-color="#ff7c25"/><stop offset="0.35" stop-color="#d5681f"/><stop offset="0.38" stop-color="#a95218"/><stop offset="0.42" stop-color="#803e13"/><stop offset="0.47" stop-color="#5d2d0e"/><stop offset="0.52" stop-color="#401f09"/><stop offset="0.57" stop-color="#291406"/><stop offset="0.63" stop-color="#160b03"/><stop offset="0.7" stop-color="#0a0501"/><stop offset="0.8" stop-color="#020100"/><stop offset="1"/></radialGradient></defs><title>hátterekEszköz 4</title><g class="cls-35"><g id="Réteg_2" data-name="Réteg 2"><g id="Réteg_1" data-name="Réteg 1"><polygon class="cls-36" points="93.9 249.54 37.71 217.1 5.26 160.9 5.26 96.01 37.71 39.82 93.9 7.37 158.79 7.37 214.99 39.82 247.44 96.01 247.44 160.9 214.99 217.1 158.79 249.54 93.9 249.54"/><path class="cls-37" d="M158.09,10l55,31.74,31.74,55V160.2l-31.74,55-55,31.74H94.61l-55-31.74-31.74-55V96.72l31.74-55L94.61,10Zm1.41-5.26H93.2L35.78,37.89,2.63,95.31v66.3L35.78,219,93.2,252.17h66.3L216.92,219l33.15-57.42V95.31L216.92,37.89,159.5,4.74Z"/><path class="cls-38" d="M160.2,254.81H92.49L33.85,221,0,162.31V94.6L33.85,36,92.49,2.11H160.2L218.84,36,252.7,94.6v67.71L218.84,221Zm-66.3-5.27h64.89L215,217.1l32.45-56.2V96L215,39.82,158.79,7.37H93.9L37.71,39.82,5.26,96V160.9l32.45,56.2Z"/><path class="cls-39" d="M126.35,234.55A106.09,106.09,0,1,1,232.44,128.46,106.21,106.21,0,0,1,126.35,234.55Z"/><path class="cls-37" d="M126.35,25A103.46,103.46,0,1,1,22.89,128.46,103.57,103.57,0,0,1,126.35,25Zm0-5.27A108.73,108.73,0,1,0,235.07,128.46,108.72,108.72,0,0,0,126.35,19.73Z"/><path class="cls-40" d="M126.35,239.81A111.36,111.36,0,1,1,237.7,128.46,111.47,111.47,0,0,1,126.35,239.81Zm0-217.44A106.09,106.09,0,1,0,232.44,128.46,106.21,106.21,0,0,0,126.35,22.37Z"/><g class="cls-41"><g class="cls-42"><g class="cls-43"><g class="cls-43"><path class="cls-44" d="M130.32,57.46c6.33-4,7.9-11.83,3.51-17.56s-13.11-7.14-19.45-3.17-7.9,11.83-3.51,17.57S124,61.44,130.32,57.46Z"/></g></g></g><g class="cls-41"><g class="cls-45"><g class="cls-45"><g class="cls-45"><path class="cls-46" d="M141.16,72.4c15.53-9.73,19.38-29,8.61-43s-32.1-17.5-47.63-7.77-19.39,29-8.62,43S125.63,82.14,141.16,72.4Z"/></g></g></g></g><g class="cls-41"><g class="cls-47"><g class="cls-47"><g class="cls-47"><path class="cls-48" d="M157.28,57.31c10,4.54,2,3.73-17.75-1.76S95.73,41.94,85.77,37.41s-2-3.75,17.75,1.75S147.33,52.79,157.28,57.31Z"/></g></g></g></g><g class="cls-49"><g class="cls-50"><g class="cls-50"><g class="cls-50"><path class="cls-51" d="M147.73,83.1c5,12.06-2.73,5.77-17.19-14S100.31,23.66,95.32,11.6s2.76-5.78,17.2,14S142.74,71.06,147.73,83.1Z"/></g></g></g></g><g class="cls-49"><g class="cls-52"><g class="cls-52"><g class="cls-52"><path class="cls-53" d="M112.14,89.33c-4.26,12.11-3.47,3.08,1.71-20.09s12.83-51.77,17.08-63.89,3.48-3.07-1.71,20.1S116.38,77.23,112.14,89.33Z"/></g></g></g></g><g class="cls-54"><g class="cls-55"><g class="cls-55"><g class="cls-55"><path class="cls-56" d="M166.3,20.85c14.74-5.55,6.63,1.83-18,16.46s-56.48,31-71.2,36.6-6.62-1.86,18-16.49S151.62,26.41,166.3,20.85Z"/></g></g></g></g><g class="cls-41"><g class="cls-57"><g class="cls-57"><g class="cls-57"><path class="cls-58" d="M110.1,38.83c4.62-5.75,13.63-6.94,20.18-2.59s8.11,12.53,3.54,18.3-13.63,6.94-20.17,2.59S105.51,44.6,110.1,38.83Z"/></g></g></g></g></g><text class="cls-59" transform="translate(61.6 114.16)">2 month </text><text class="cls-59" transform="translate(44.29 161.97)">t<tspan class="cls-60" x="13.71" y="0">r</tspan><tspan x="32.37" y="0">eatment</tspan></text><polygon class="cls-61" points="105.38 185.63 101.83 192.83 93.89 193.98 99.64 199.59 98.28 207.5 105.38 203.76 112.49 207.5 111.13 199.59 116.88 193.98 108.94 192.83 105.38 185.63"/><polygon class="cls-61" points="147.87 185.63 144.32 192.83 136.37 193.98 142.12 199.59 140.77 207.5 147.87 203.76 154.98 207.5 153.62 199.59 159.37 193.98 151.43 192.83 147.87 185.63"/></g></g></g></svg>