<svg xmlns="http://www.w3.org/2000/svg" xmlns:xlink="http://www.w3.org/1999/xlink" viewBox="0 0 281.91 417.28"><defs><style>.cls-1,.cls-12{mask:url(#mask);}.cls-1{filter:url(#luminosity-noclip-21);}.cls-11,.cls-13,.cls-14,.cls-16,.cls-18,.cls-19,.cls-2,.cls-21,.cls-23,.cls-24,.cls-26,.cls-28,.cls-29,.cls-31,.cls-33,.cls-34,.cls-4,.cls-6,.cls-7,.cls-74,.cls-9{mix-blend-mode:multiply;}.cls-2{fill:url(#radial-gradient);}.cls-3,.cls-5{mask:url(#mask-2);}.cls-3{filter:url(#luminosity-noclip-26);}.cls-4{fill:url(#radial-gradient-2);}.cls-6{fill:url(#radial-gradient-3);}.cls-7{fill:url(#radial-gradient-4);}.cls-10,.cls-8{mask:url(#mask-5);}.cls-8{filter:url(#luminosity-noclip-29);}.cls-9{fill:url(#radial-gradient-5);}.cls-11{fill:url(#radial-gradient-6);}.cls-13{fill:url(#radial-gradient-7);}.cls-14{fill:url(#radial-gradient-8);}.cls-15,.cls-17{mask:url(#mask-9);}.cls-15{filter:url(#luminosity-noclip-32);}.cls-16{fill:url(#radial-gradient-9);}.cls-18{fill:url(#radial-gradient-10);}.cls-19{fill:url(#radial-gradient-11);}.cls-20,.cls-22{mask:url(#mask-12);}.cls-20{filter:url(#luminosity-noclip-35);}.cls-21{fill:url(#radial-gradient-12);}.cls-23{fill:url(#radial-gradient-13);}.cls-24{fill:url(#radial-gradient-14);}.cls-25,.cls-27{mask:url(#mask-15);}.cls-25{filter:url(#luminosity-noclip-38);}.cls-26{fill:url(#radial-gradient-15);}.cls-28{fill:url(#radial-gradient-16);}.cls-29{fill:url(#radial-gradient-17);}.cls-30,.cls-32{mask:url(#mask-18);}.cls-30{filter:url(#luminosity-noclip-23);}.cls-31{fill:url(#radial-gradient-18);}.cls-33{fill:url(#radial-gradient-19);}.cls-34{fill:url(#radial-gradient-20);}.cls-35{isolation:isolate;}.cls-36{fill:url(#Névtelen_színátmenet_76);}.cls-37{fill:#1b6a9b;}.cls-38{fill:#5180c4;}.cls-39{opacity:0.38;}.cls-40{fill:url(#Névtelen_színátmenet_76-2);}.cls-41{opacity:0.59;}.cls-42{fill:url(#linear-gradient);}.cls-43{fill:url(#linear-gradient-2);}.cls-44{fill:url(#linear-gradient-3);}.cls-45{fill:url(#linear-gradient-4);}.cls-46,.cls-47,.cls-54,.cls-59{mix-blend-mode:screen;}.cls-47{opacity:0.2;}.cls-48{mask:url(#mask-21);}.cls-49{fill:url(#radial-gradient-21);}.cls-50{mask:url(#mask-23);}.cls-51{fill:url(#radial-gradient-22);}.cls-52{mask:url(#mask-26);}.cls-53{fill:url(#radial-gradient-23);}.cls-54{opacity:0.8;}.cls-55{mask:url(#mask-29);}.cls-56{fill:url(#radial-gradient-24);}.cls-57{mask:url(#mask-32);}.cls-58{fill:url(#radial-gradient-25);}.cls-59,.cls-72{opacity:0.4;}.cls-60{mask:url(#mask-35);}.cls-61{fill:url(#radial-gradient-26);}.cls-62{mask:url(#mask-38);}.cls-63{fill:url(#radial-gradient-27);}.cls-64{fill:url(#linear-gradient-5);}.cls-65{font-size:56.43px;}.cls-65,.cls-69{fill:#754c24;}.cls-65,.cls-68,.cls-69{font-family:RumRaisin-Regular, Rum Raisin;}.cls-66{letter-spacing:0em;}.cls-67{letter-spacing:0em;}.cls-68{font-size:59px;}.cls-69{font-size:46.27px;}.cls-70{letter-spacing:0em;}.cls-71{letter-spacing:0em;}.cls-73{fill:#ebe191;}.cls-75{fill:#a88245;}.cls-76{filter:url(#luminosity-noclip-18);}.cls-77{filter:url(#luminosity-noclip-15);}.cls-78{filter:url(#luminosity-noclip-12);}.cls-79{filter:url(#luminosity-noclip-9);}.cls-80{filter:url(#luminosity-noclip-5);}.cls-81{filter:url(#luminosity-noclip-2);}.cls-82{filter:url(#luminosity-noclip);}</style><filter id="luminosity-noclip" x="205.59" y="-8667" width="30.87" height="32766" filterUnits="userSpaceOnUse" color-interpolation-filters="sRGB"><feFlood flood-color="#fff" result="bg"/><feBlend in="SourceGraphic" in2="bg"/></filter><mask id="mask" x="205.59" y="-8667" width="30.87" height="32766" maskUnits="userSpaceOnUse"><g class="cls-82"/></mask><radialGradient id="radial-gradient" cx="-1009.53" cy="106.62" r="28.66" gradientTransform="matrix(0.31, 0.4, 0.44, -0.28, 483.67, 559.69)" gradientUnits="userSpaceOnUse"><stop offset="0.23" stop-color="#fff"/><stop offset="0.33" stop-color="#fdfdfd"/><stop offset="0.37" stop-color="#f6f6f6"/><stop offset="0.39" stop-color="#ebebeb"/><stop offset="0.42" stop-color="#dadada"/><stop offset="0.42" stop-color="#d0d0d0"/><stop offset="0.45" stop-color="#cecece"/><stop offset="0.46" stop-color="#c7c7c7"/><stop offset="0.46" stop-color="#c6c6c6"/><stop offset="0.49" stop-color="#b4b4b4"/><stop offset="0.59" stop-color="#7e7e7e"/><stop offset="0.68" stop-color="#515151"/><stop offset="0.77" stop-color="#2e2e2e"/><stop offset="0.86" stop-color="#141414"/><stop offset="0.94" stop-color="#050505"/><stop offset="1"/></radialGradient><filter id="luminosity-noclip-2" x="175.9" y="-8667" width="88.45" height="32766" filterUnits="userSpaceOnUse" color-interpolation-filters="sRGB"><feFlood flood-color="#fff" result="bg"/><feBlend in="SourceGraphic" in2="bg"/></filter><mask id="mask-2" x="175.9" y="-8667" width="88.45" height="32766" maskUnits="userSpaceOnUse"><g class="cls-81"/></mask><radialGradient id="radial-gradient-2" cx="1113.28" cy="-44.25" r="17.41" gradientTransform="matrix(2.27, 0.63, 1.14, 0.52, -2255.49, -553.67)" gradientUnits="userSpaceOnUse"><stop offset="0.23" stop-color="#fff"/><stop offset="0.35" stop-color="#fdfdfd"/><stop offset="0.39" stop-color="#f6f6f6"/><stop offset="0.42" stop-color="#ebebeb"/><stop offset="0.44" stop-color="#dadada"/><stop offset="0.45" stop-color="#d0d0d0"/><stop offset="0.48" stop-color="#cecece"/><stop offset="0.49" stop-color="#c7c7c7"/><stop offset="0.49" stop-color="#c6c6c6"/><stop offset="0.54" stop-color="#9a9a9a"/><stop offset="0.59" stop-color="#717171"/><stop offset="0.64" stop-color="#4e4e4e"/><stop offset="0.7" stop-color="#323232"/><stop offset="0.76" stop-color="#1c1c1c"/><stop offset="0.82" stop-color="#0c0c0c"/><stop offset="0.89" stop-color="#030303"/><stop offset="1"/></radialGradient><radialGradient id="radial-gradient-3" cx="1113.28" cy="-44.25" r="17.41" gradientTransform="matrix(2.27, 0.63, 1.14, 0.52, -2255.49, -553.67)" gradientUnits="userSpaceOnUse"><stop offset="0" stop-color="#fff"/><stop offset="0.03" stop-color="#fff"/><stop offset="0.22" stop-color="#fff"/><stop offset="0.37" stop-color="#fff"/><stop offset="0.4" stop-color="#ebebeb"/><stop offset="0.5" stop-color="#adadad"/><stop offset="0.59" stop-color="#787878"/><stop offset="0.68" stop-color="#4d4d4d"/><stop offset="0.77" stop-color="#2c2c2c"/><stop offset="0.86" stop-color="#141414"/><stop offset="0.93" stop-color="#050505"/><stop offset="1"/></radialGradient><radialGradient id="radial-gradient-4" cx="1113.28" cy="-44.25" r="17.41" gradientTransform="matrix(2.27, 0.63, 1.14, 0.52, -2255.49, -553.67)" gradientUnits="userSpaceOnUse"><stop offset="0" stop-color="#fff"/><stop offset="0.22" stop-color="#fff"/><stop offset="0.28" stop-color="#ccc"/><stop offset="0.35" stop-color="#9c9c9c"/><stop offset="0.42" stop-color="#727272"/><stop offset="0.5" stop-color="#4f4f4f"/><stop offset="0.57" stop-color="#323232"/><stop offset="0.66" stop-color="#1c1c1c"/><stop offset="0.75" stop-color="#0c0c0c"/><stop offset="0.85" stop-color="#030303"/><stop offset="1"/></radialGradient><filter id="luminosity-noclip-5" x="189.52" y="-8667" width="61.2" height="32766" filterUnits="userSpaceOnUse" color-interpolation-filters="sRGB"><feFlood flood-color="#fff" result="bg"/><feBlend in="SourceGraphic" in2="bg"/></filter><mask id="mask-5" x="189.52" y="-8667" width="61.2" height="32766" maskUnits="userSpaceOnUse"><g class="cls-80"/></mask><radialGradient id="radial-gradient-5" cx="357.4" cy="1542.61" r="17.41" gradientTransform="matrix(1.66, 2.27, 0.57, 1.38, -1255.22, -2817.27)" xlink:href="#radial-gradient-2"/><radialGradient id="radial-gradient-6" cx="357.4" cy="1542.61" r="17.41" gradientTransform="matrix(1.66, 2.27, 0.57, 1.38, -1255.22, -2817.27)" xlink:href="#radial-gradient-3"/><radialGradient id="radial-gradient-7" cx="-1009.53" cy="106.62" r="28.66" gradientTransform="matrix(0.31, 0.4, 0.44, -0.28, 483.67, 559.69)" gradientUnits="userSpaceOnUse"><stop offset="0" stop-color="#fff"/><stop offset="0.38" stop-color="#fff"/><stop offset="0.45" stop-color="#fff"/><stop offset="0.46" stop-color="#fff"/><stop offset="0.46" stop-color="#fff"/><stop offset="0.47" stop-color="#f5f5f5"/><stop offset="0.56" stop-color="#b5b5b5"/><stop offset="0.65" stop-color="#7e7e7e"/><stop offset="0.73" stop-color="#515151"/><stop offset="0.81" stop-color="#2e2e2e"/><stop offset="0.88" stop-color="#141414"/><stop offset="0.95" stop-color="#050505"/><stop offset="1"/></radialGradient><radialGradient id="radial-gradient-8" cx="357.4" cy="1542.61" r="17.41" gradientTransform="matrix(1.66, 2.27, 0.57, 1.38, -1255.22, -2817.27)" gradientUnits="userSpaceOnUse"><stop offset="0" stop-color="#fff"/><stop offset="0.41" stop-color="#fff"/><stop offset="0.46" stop-color="#ccc"/><stop offset="0.51" stop-color="#9c9c9c"/><stop offset="0.57" stop-color="#727272"/><stop offset="0.62" stop-color="#4f4f4f"/><stop offset="0.68" stop-color="#323232"/><stop offset="0.75" stop-color="#1c1c1c"/><stop offset="0.81" stop-color="#0c0c0c"/><stop offset="0.89" stop-color="#030303"/><stop offset="1"/></radialGradient><filter id="luminosity-noclip-9" x="206.71" y="-8667" width="26.84" height="32766" filterUnits="userSpaceOnUse" color-interpolation-filters="sRGB"><feFlood flood-color="#fff" result="bg"/><feBlend in="SourceGraphic" in2="bg"/></filter><mask id="mask-9" x="206.71" y="-8667" width="26.84" height="32766" maskUnits="userSpaceOnUse"><g class="cls-79"/></mask><radialGradient id="radial-gradient-9" cx="-1105.2" cy="4583.53" r="17.41" gradientTransform="matrix(-0.6, 2.66, -0.49, 1.39, 1796.39, -3294.14)" xlink:href="#radial-gradient-2"/><radialGradient id="radial-gradient-10" cx="-1105.2" cy="4583.53" r="17.41" gradientTransform="matrix(-0.6, 2.66, -0.49, 1.39, 1796.39, -3294.14)" xlink:href="#radial-gradient-3"/><radialGradient id="radial-gradient-11" cx="-1105.2" cy="4583.53" r="17.41" gradientTransform="matrix(-0.6, 2.66, -0.49, 1.39, 1796.39, -3294.14)" xlink:href="#radial-gradient-4"/><filter id="luminosity-noclip-12" x="162.93" y="-8667" width="114.77" height="32766" filterUnits="userSpaceOnUse" color-interpolation-filters="sRGB"><feFlood flood-color="#fff" result="bg"/><feBlend in="SourceGraphic" in2="bg"/></filter><mask id="mask-12" x="162.93" y="-8667" width="114.77" height="32766" maskUnits="userSpaceOnUse"><g class="cls-78"/></mask><radialGradient id="radial-gradient-12" cx="1726.73" cy="-756.89" r="12.65" gradientTransform="matrix(3.9, -2.32, 2.32, -0.88, -4750.21, 3462.21)" xlink:href="#radial-gradient-2"/><radialGradient id="radial-gradient-13" cx="1726.73" cy="-756.89" r="12.65" gradientTransform="matrix(3.9, -2.32, 2.32, -0.88, -4750.21, 3462.21)" xlink:href="#radial-gradient-3"/><radialGradient id="radial-gradient-14" cx="1726.73" cy="-756.89" r="12.65" gradientTransform="matrix(3.9, -2.32, 2.32, -0.88, -4750.21, 3462.21)" xlink:href="#radial-gradient-4"/><filter id="luminosity-noclip-15" x="204.6" y="-8667" width="31.99" height="32766" filterUnits="userSpaceOnUse" color-interpolation-filters="sRGB"><feFlood flood-color="#fff" result="bg"/><feBlend in="SourceGraphic" in2="bg"/></filter><mask id="mask-15" x="204.6" y="-8667" width="31.99" height="32766" maskUnits="userSpaceOnUse"><g class="cls-77"/></mask><radialGradient id="radial-gradient-15" cx="2293.6" cy="15.5" r="23.61" gradientTransform="matrix(-0.55, -0.37, 0.39, -0.49, 1486.36, 976.41)" xlink:href="#radial-gradient-2"/><radialGradient id="radial-gradient-16" cx="2293.6" cy="15.5" r="23.61" gradientTransform="matrix(-0.55, -0.37, 0.39, -0.49, 1486.36, 976.41)" gradientUnits="userSpaceOnUse"><stop offset="0.23" stop-color="#fff"/><stop offset="0.42" stop-color="#fff"/><stop offset="0.45" stop-color="#fff"/><stop offset="0.49" stop-color="#fff"/><stop offset="0.49" stop-color="#fff"/><stop offset="0.53" stop-color="#cacaca"/><stop offset="0.58" stop-color="#9b9b9b"/><stop offset="0.62" stop-color="#717171"/><stop offset="0.67" stop-color="#4e4e4e"/><stop offset="0.72" stop-color="#323232"/><stop offset="0.78" stop-color="#1c1c1c"/><stop offset="0.84" stop-color="#0c0c0c"/><stop offset="0.9" stop-color="#030303"/><stop offset="1"/></radialGradient><radialGradient id="radial-gradient-17" cx="2293.6" cy="15.5" r="23.61" gradientTransform="matrix(-0.55, -0.37, 0.39, -0.49, 1486.36, 976.41)" gradientUnits="userSpaceOnUse"><stop offset="0" stop-color="#fff"/><stop offset="0.27" stop-color="#fff"/><stop offset="0.31" stop-color="#fff"/><stop offset="0.35" stop-color="#d5d5d5"/><stop offset="0.38" stop-color="#a9a9a9"/><stop offset="0.42" stop-color="gray"/><stop offset="0.47" stop-color="#5d5d5d"/><stop offset="0.52" stop-color="#404040"/><stop offset="0.57" stop-color="#292929"/><stop offset="0.63" stop-color="#161616"/><stop offset="0.7" stop-color="#0a0a0a"/><stop offset="0.8" stop-color="#020202"/><stop offset="1"/></radialGradient><filter id="luminosity-noclip-18" x="182.43" y="-8667" width="75.63" height="32766" filterUnits="userSpaceOnUse" color-interpolation-filters="sRGB"><feFlood flood-color="#fff" result="bg"/><feBlend in="SourceGraphic" in2="bg"/></filter><mask id="mask-18" x="182.43" y="-8667" width="75.63" height="32766" maskUnits="userSpaceOnUse"><g class="cls-76"/></mask><radialGradient id="radial-gradient-18" cx="-1010.52" cy="105.55" r="70.22" xlink:href="#radial-gradient"/><radialGradient id="radial-gradient-19" cx="-1010.52" cy="105.55" r="70.22" xlink:href="#radial-gradient-7"/><radialGradient id="radial-gradient-20" cx="-1010.52" cy="105.55" r="70.22" gradientTransform="matrix(0.31, 0.4, 0.44, -0.28, 483.67, 559.69)" gradientUnits="userSpaceOnUse"><stop offset="0" stop-color="#fff"/><stop offset="0.27" stop-color="#fff"/><stop offset="0.27" stop-color="#f6f6f6"/><stop offset="0.3" stop-color="#c8c8c8"/><stop offset="0.34" stop-color="#9d9d9d"/><stop offset="0.37" stop-color="#777"/><stop offset="0.41" stop-color="#575757"/><stop offset="0.45" stop-color="#3b3b3b"/><stop offset="0.5" stop-color="#252525"/><stop offset="0.56" stop-color="#141414"/><stop offset="0.63" stop-color="#090909"/><stop offset="0.73" stop-color="#020202"/><stop offset="1"/></radialGradient><linearGradient id="Névtelen_színátmenet_76" x1="106.04" y1="247.68" x2="260.76" y2="379.09" gradientUnits="userSpaceOnUse"><stop offset="0.17" stop-color="#293981"/><stop offset="0.43" stop-color="#07002a"/><stop offset="0.74" stop-color="#293981"/><stop offset="1" stop-color="#231f20"/></linearGradient><linearGradient id="Névtelen_színátmenet_76-2" x1="22.5" y1="304.57" x2="182.28" y2="304.57" xlink:href="#Névtelen_színátmenet_76"/><linearGradient id="linear-gradient" x1="209.99" y1="260.6" x2="71.92" y2="21.46" gradientTransform="translate(141.01 -58.37) rotate(45)" gradientUnits="userSpaceOnUse"><stop offset="0" stop-color="#a3713b"/><stop offset="0.22" stop-color="#fdf496"/><stop offset="0.3" stop-color="#fff78f"/><stop offset="0.48" stop-color="#c29c57"/><stop offset="0.74" stop-color="#cfb266"/><stop offset="0.88" stop-color="#fef692"/><stop offset="1" stop-color="#a3713b"/></linearGradient><linearGradient id="linear-gradient-2" y1="141.03" x2="281.91" y2="141.03" gradientUnits="userSpaceOnUse"><stop offset="0" stop-color="#d8b56d"/><stop offset="0.1" stop-color="#fae397"/><stop offset="0.21" stop-color="#fff78f"/><stop offset="0.33" stop-color="#e4cf76"/><stop offset="0.48" stop-color="#ac8953"/><stop offset="0.62" stop-color="#8d6e47"/><stop offset="0.73" stop-color="#d8b56d"/><stop offset="0.84" stop-color="#fceb94"/><stop offset="0.95" stop-color="#c1a360"/></linearGradient><linearGradient id="linear-gradient-3" x1="75.37" y1="255.45" x2="206.54" y2="28.26" gradientUnits="userSpaceOnUse"><stop offset="0" stop-color="#a3713b"/><stop offset="0.14" stop-color="#fdf496"/><stop offset="0.28" stop-color="#fff78f"/><stop offset="0.48" stop-color="#c29c57"/><stop offset="0.6" stop-color="#f4e685"/><stop offset="0.74" stop-color="#cfb266"/><stop offset="0.86" stop-color="#fef692"/><stop offset="1" stop-color="#a3713b"/></linearGradient><linearGradient id="linear-gradient-4" x1="229.79" y1="52.2" x2="52.13" y2="229.86" gradientTransform="translate(141.01 -58.37) rotate(45)" gradientUnits="userSpaceOnUse"><stop offset="0" stop-color="#a3713b"/><stop offset="0.22" stop-color="#fdf496"/><stop offset="0.28" stop-color="#fff78f"/><stop offset="0.48" stop-color="#c29c57"/><stop offset="0.74" stop-color="#cfb266"/><stop offset="1" stop-color="#a3713b"/></linearGradient><filter id="luminosity-noclip-21" x="205.59" y="112.69" width="30.87" height="27.89" filterUnits="userSpaceOnUse" color-interpolation-filters="sRGB"><feFlood flood-color="#fff" result="bg"/><feBlend in="SourceGraphic" in2="bg"/></filter><mask id="mask-21" x="205.59" y="112.69" width="30.87" height="27.89" maskUnits="userSpaceOnUse"><g class="cls-1"><path class="cls-2" d="M229.83,138.08c7-4.38,8.73-13.07,3.87-19.4s-14.48-7.89-21.48-3.5-8.73,13.07-3.88,19.4S222.82,142.48,229.83,138.08Z"/></g></mask><radialGradient id="radial-gradient-21" cx="-1009.53" cy="106.62" r="28.66" gradientTransform="matrix(0.31, 0.4, 0.44, -0.28, 483.67, 559.69)" gradientUnits="userSpaceOnUse"><stop offset="0" stop-color="#3ac8ff"/><stop offset="0.18" stop-color="#3cc9ff"/><stop offset="0.25" stop-color="#43cbff"/><stop offset="0.3" stop-color="#4fd0ff"/><stop offset="0.34" stop-color="#60d7ff"/><stop offset="0.38" stop-color="#76e0ff"/><stop offset="0.41" stop-color="#92ebff"/><stop offset="0.43" stop-color="#b2f7ff"/><stop offset="0.45" stop-color="#c6ffff"/><stop offset="0.45" stop-color="#c4ffff"/><stop offset="0.46" stop-color="#bdffff"/><stop offset="0.46" stop-color="#b2ffff"/><stop offset="0.46" stop-color="#a1ffff"/><stop offset="0.46" stop-color="#8bffff"/><stop offset="0.46" stop-color="#70ffff"/><stop offset="0.46" stop-color="#68ffff"/><stop offset="0.57" stop-color="#58dbff"/><stop offset="0.69" stop-color="#48b8ff"/><stop offset="0.81" stop-color="#3c9fff"/><stop offset="0.91" stop-color="#3590ff"/><stop offset="1" stop-color="#338bff"/></radialGradient><filter id="luminosity-noclip-23" x="182.43" y="92.37" width="75.63" height="68.32" filterUnits="userSpaceOnUse" color-interpolation-filters="sRGB"><feFlood flood-color="#fff" result="bg"/><feBlend in="SourceGraphic" in2="bg"/></filter><mask id="mask-23" x="182.43" y="92.37" width="75.63" height="68.32" maskUnits="userSpaceOnUse"><g class="cls-30"><path class="cls-31" d="M241.8,154.59c17.16-10.76,21.41-32,9.51-47.54s-35.46-19.34-52.62-8.59-21.42,32-9.52,47.54S224.65,165.35,241.8,154.59Z"/></g></mask><radialGradient id="radial-gradient-22" cx="-1010.52" cy="105.55" r="70.22" gradientTransform="matrix(0.31, 0.4, 0.44, -0.28, 483.67, 559.69)" gradientUnits="userSpaceOnUse"><stop offset="0" stop-color="#fff"/><stop offset="0.04" stop-color="#fff4e1"/><stop offset="0.12" stop-color="#ffd893"/><stop offset="0.25" stop-color="#ffab18"/><stop offset="0.27" stop-color="#ffa200"/><stop offset="0.32" stop-color="#ffb800"/><stop offset="0.37" stop-color="#ffc900"/><stop offset="0.44" stop-color="#ffd400"/><stop offset="0.53" stop-color="#ffdb00"/><stop offset="0.8" stop-color="#fd0"/><stop offset="0.82" stop-color="#f0d000"/><stop offset="0.86" stop-color="#caaf00"/><stop offset="0.9" stop-color="#8b7800"/><stop offset="0.96" stop-color="#362f00"/><stop offset="1"/></radialGradient><filter id="luminosity-noclip-26" x="175.9" y="112.66" width="88.45" height="28.5" filterUnits="userSpaceOnUse" color-interpolation-filters="sRGB"><feFlood flood-color="#fff" result="bg"/><feBlend in="SourceGraphic" in2="bg"/></filter><mask id="mask-26" x="175.9" y="112.66" width="88.45" height="28.5" maskUnits="userSpaceOnUse"><g class="cls-3"><path class="cls-4" d="M259.61,137.91c11,5,2.19,4.12-19.61-1.94s-48.39-15-59.39-20-2.18-4.13,19.61,2S248.62,132.92,259.61,137.91Z"/></g></mask><radialGradient id="radial-gradient-23" cx="1113.28" cy="-44.25" r="17.41" gradientTransform="matrix(2.27, 0.63, 1.14, 0.52, -2255.49, -553.67)" gradientUnits="userSpaceOnUse"><stop offset="0" stop-color="#ff0"/><stop offset="0.1" stop-color="#fdbf00"/><stop offset="0.18" stop-color="#fc9400"/><stop offset="0.22" stop-color="#fc8300"/><stop offset="0.23" stop-color="#ef7d02"/><stop offset="0.31" stop-color="#bf6709"/><stop offset="0.38" stop-color="#95540f"/><stop offset="0.46" stop-color="#724314"/><stop offset="0.55" stop-color="#553619"/><stop offset="0.64" stop-color="#3f2c1c"/><stop offset="0.73" stop-color="#2f251e"/><stop offset="0.85" stop-color="#262020"/><stop offset="1" stop-color="#231f20"/></radialGradient><filter id="luminosity-noclip-29" x="189.52" y="80.65" width="61.2" height="92.52" filterUnits="userSpaceOnUse" color-interpolation-filters="sRGB"><feFlood flood-color="#fff" result="bg"/><feBlend in="SourceGraphic" in2="bg"/></filter><mask id="mask-29" x="189.52" y="80.65" width="61.2" height="92.52" maskUnits="userSpaceOnUse"><g class="cls-8"><path class="cls-9" d="M249.06,166.4c5.49,13.33-3,6.38-19-15.42s-33.39-50.24-38.91-63.57,3.05-6.38,19,15.43S243.54,153.1,249.06,166.4Z"/></g></mask><radialGradient id="radial-gradient-24" cx="357.4" cy="1542.61" r="17.41" gradientTransform="matrix(1.66, 2.27, 0.57, 1.38, -1255.22, -2817.27)" gradientUnits="userSpaceOnUse"><stop offset="0" stop-color="#ff0"/><stop offset="0.19" stop-color="#fdbf00"/><stop offset="0.34" stop-color="#fc9400"/><stop offset="0.41" stop-color="#fc8300"/><stop offset="0.43" stop-color="#ef7d02"/><stop offset="0.48" stop-color="#bf6709"/><stop offset="0.54" stop-color="#95540f"/><stop offset="0.6" stop-color="#724314"/><stop offset="0.66" stop-color="#553619"/><stop offset="0.73" stop-color="#3f2c1c"/><stop offset="0.8" stop-color="#2f251e"/><stop offset="0.88" stop-color="#262020"/><stop offset="1" stop-color="#231f20"/></radialGradient><filter id="luminosity-noclip-32" x="206.71" y="74.6" width="26.84" height="104.63" filterUnits="userSpaceOnUse" color-interpolation-filters="sRGB"><feFlood flood-color="#fff" result="bg"/><feBlend in="SourceGraphic" in2="bg"/></filter><mask id="mask-32" x="206.71" y="74.6" width="26.84" height="104.63" maskUnits="userSpaceOnUse"><g class="cls-15"><path class="cls-16" d="M209.74,173.28c-4.7,13.38-3.83,3.41,1.89-22.19S225.81,93.9,230.5,80.51s3.85-3.39-1.89,22.21S214.43,159.92,209.74,173.28Z"/></g></mask><radialGradient id="radial-gradient-25" cx="-1105.2" cy="4583.53" r="17.41" gradientTransform="matrix(-0.6, 2.66, -0.49, 1.39, 1796.39, -3294.14)" xlink:href="#radial-gradient-23"/><filter id="luminosity-noclip-35" x="162.93" y="95.59" width="114.77" height="62.67" filterUnits="userSpaceOnUse" color-interpolation-filters="sRGB"><feFlood flood-color="#fff" result="bg"/><feBlend in="SourceGraphic" in2="bg"/></filter><mask id="mask-35" x="162.93" y="95.59" width="114.77" height="62.67" maskUnits="userSpaceOnUse"><g class="cls-20"><path class="cls-21" d="M269.57,97.63c16.28-6.12,7.32,2-19.88,18.18s-62.4,34.28-78.66,40.44-7.31-2.06,19.91-18.21S253.36,103.77,269.57,97.63Z"/></g></mask><radialGradient id="radial-gradient-26" cx="1726.73" cy="-756.89" r="12.65" gradientTransform="matrix(3.9, -2.32, 2.32, -0.88, -4750.21, 3462.21)" xlink:href="#radial-gradient-23"/><filter id="luminosity-noclip-38" x="204.6" y="111.74" width="31.99" height="28.89" filterUnits="userSpaceOnUse" color-interpolation-filters="sRGB"><feFlood flood-color="#fff" result="bg"/><feBlend in="SourceGraphic" in2="bg"/></filter><mask id="mask-38" x="204.6" y="111.74" width="31.99" height="28.89" maskUnits="userSpaceOnUse"><g class="cls-25"><path class="cls-26" d="M207.49,117.5c5.1-6.36,15.06-7.66,22.29-2.86s9,13.84,3.91,20.21-15.06,7.67-22.28,2.87S202.42,123.87,207.49,117.5Z"/></g></mask><radialGradient id="radial-gradient-27" cx="2293.6" cy="15.5" r="23.61" gradientTransform="matrix(-0.55, -0.37, 0.39, -0.49, 1486.36, 976.41)" gradientUnits="userSpaceOnUse"><stop offset="0" stop-color="#fff"/><stop offset="0.12" stop-color="#fffefd"/><stop offset="0.16" stop-color="#fffaf6"/><stop offset="0.2" stop-color="#fff3eb"/><stop offset="0.22" stop-color="#ffe9da"/><stop offset="0.24" stop-color="#ffdbc4"/><stop offset="0.26" stop-color="#ffcba8"/><stop offset="0.28" stop-color="#ffb788"/><stop offset="0.29" stop-color="#ffa162"/><stop offset="0.31" stop-color="#ff8839"/><stop offset="0.31" stop-color="#ff7c25"/><stop offset="0.35" stop-color="#d5681f"/><stop offset="0.38" stop-color="#a95218"/><stop offset="0.42" stop-color="#803e13"/><stop offset="0.47" stop-color="#5d2d0e"/><stop offset="0.52" stop-color="#401f09"/><stop offset="0.57" stop-color="#291406"/><stop offset="0.63" stop-color="#160b03"/><stop offset="0.7" stop-color="#0a0501"/><stop offset="0.8" stop-color="#020100"/><stop offset="1"/></radialGradient><linearGradient id="linear-gradient-5" x1="13.88" y1="141.03" x2="268.04" y2="141.03" gradientTransform="matrix(1, 0, 0, 1, 0, 0)" xlink:href="#linear-gradient-4"/></defs><title>Eszköz 1</title><g class="cls-35"><g id="Réteg_2" data-name="Réteg 2"><g id="Réteg_1" data-name="Réteg 1"><polygon class="cls-36" points="252.91 384.67 202.29 385 163.31 417.29 93.13 224.47 182.73 191.86 252.91 384.67"/><polygon class="cls-37" points="166.43 198.02 235.39 384.79 237.86 384.77 168.61 197.22 166.43 198.02"/><polygon class="cls-37" points="105.74 221.36 174.63 407.91 176.52 406.34 107.92 220.56 105.74 221.36"/><polygon class="cls-38" points="184.13 195.69 158.25 200.76 152.87 202.72 184.43 196.53 184.13 195.69"/><polygon class="cls-38" points="118.53 215.22 112.94 217.26 94.19 227.4 94.5 228.23 118.53 215.22"/><polygon class="cls-38" points="96.39 233.43 96.69 234.26 137.41 212.22 186.63 202.56 186.32 201.72 137.17 211.36 96.39 233.43"/><polygon class="cls-38" points="98.58 239.45 98.88 240.28 139.59 218.25 188.82 208.59 188.51 207.75 139.35 217.4 98.58 239.45"/><polygon class="cls-38" points="100.78 245.48 101.08 246.31 141.77 224.28 191.02 214.62 190.71 213.78 141.53 223.43 100.78 245.48"/><polygon class="cls-38" points="102.97 251.5 103.27 252.34 143.95 230.32 193.21 220.65 192.9 219.81 143.72 229.46 102.97 251.5"/><polygon class="cls-38" points="105.16 257.53 105.46 258.36 146.13 236.35 195.41 226.68 195.1 225.84 145.9 235.5 105.16 257.53"/><polygon class="cls-38" points="107.35 263.55 107.66 264.39 148.31 242.38 197.6 232.71 197.29 231.87 148.07 241.53 107.35 263.55"/><polygon class="cls-38" points="109.55 269.58 109.85 270.41 150.49 248.42 199.79 238.74 199.49 237.9 150.26 247.56 109.55 269.58"/><polygon class="cls-38" points="111.74 275.61 112.04 276.44 152.67 254.45 201.99 244.77 201.68 243.93 152.44 253.59 111.74 275.61"/><polygon class="cls-38" points="113.93 281.63 114.24 282.46 154.85 260.48 204.19 250.8 203.88 249.96 154.62 259.63 113.93 281.63"/><polygon class="cls-38" points="116.13 287.66 116.43 288.49 157.03 266.52 206.38 256.83 206.07 255.99 156.8 265.66 116.13 287.66"/><polygon class="cls-38" points="118.32 293.69 118.62 294.52 159.21 272.55 208.57 262.86 208.27 262.02 158.98 271.69 118.32 293.69"/><polygon class="cls-38" points="120.51 299.71 120.82 300.54 161.39 278.58 210.77 268.89 210.46 268.05 161.16 277.73 120.51 299.71"/><polygon class="cls-38" points="122.71 305.74 123.01 306.57 163.57 284.62 212.96 274.92 212.66 274.08 163.34 283.76 122.71 305.74"/><polygon class="cls-38" points="124.9 311.76 125.2 312.6 165.75 290.65 215.16 280.95 214.85 280.11 165.52 289.79 124.9 311.76"/><polygon class="cls-38" points="127.09 317.79 127.4 318.62 167.94 296.68 217.35 286.98 217.05 286.14 167.7 295.82 127.09 317.79"/><polygon class="cls-38" points="129.29 323.81 129.59 324.65 170.12 302.71 219.55 293.01 219.24 292.17 169.88 301.86 129.29 323.81"/><polygon class="cls-38" points="131.48 329.84 131.78 330.67 172.3 308.75 221.74 299.04 221.44 298.2 172.06 307.89 131.48 329.84"/><polygon class="cls-38" points="133.67 335.87 133.98 336.7 174.48 314.78 223.94 305.07 223.63 304.23 174.24 313.92 133.67 335.87"/><polygon class="cls-38" points="135.87 341.89 136.17 342.73 176.66 320.81 226.13 311.1 225.83 310.26 176.42 319.96 135.87 341.89"/><polygon class="cls-38" points="138.06 347.92 138.36 348.75 178.84 326.85 228.33 317.13 228.02 316.29 178.6 325.99 138.06 347.92"/><polygon class="cls-38" points="140.25 353.94 140.56 354.78 181.02 332.88 230.52 323.16 230.22 322.32 180.78 332.02 140.25 353.94"/><polygon class="cls-38" points="142.45 359.97 142.75 360.8 183.2 338.91 232.72 329.19 232.41 328.35 182.96 338.05 142.45 359.97"/><polygon class="cls-38" points="144.64 366 144.94 366.83 185.38 344.94 234.91 335.23 234.6 334.38 185.14 344.09 144.64 366"/><polygon class="cls-38" points="146.83 372.02 147.14 372.85 187.56 350.98 237.11 341.25 236.8 340.41 187.32 350.12 146.83 372.02"/><polygon class="cls-38" points="149.03 378.05 149.33 378.88 189.74 357.01 239.3 347.29 238.99 346.44 189.5 356.15 149.03 378.05"/><polygon class="cls-38" points="151.22 384.07 151.52 384.91 191.92 363.04 241.5 353.31 241.19 352.47 191.68 362.19 151.22 384.07"/><polygon class="cls-38" points="153.41 390.1 153.72 390.93 194.1 369.08 243.69 359.35 243.38 358.5 193.86 368.22 153.41 390.1"/><polygon class="cls-38" points="155.61 396.13 155.91 396.96 196.28 375.11 245.89 365.38 245.58 364.53 196.04 374.25 155.61 396.13"/><polygon class="cls-38" points="157.8 402.15 158.1 402.98 198.46 381.14 248.08 371.4 247.77 370.56 198.22 380.29 157.8 402.15"/><polygon class="cls-38" points="159.99 408.18 160.3 409.01 197.83 388.69 200.8 386.24 200.41 386.32 159.99 408.18"/><polygon class="cls-38" points="212.04 384.94 250.28 377.44 249.97 376.59 207.28 384.97 212.04 384.94"/><polygon class="cls-38" points="246.09 384.72 252.47 383.47 252.16 382.62 241.33 384.75 246.09 384.72"/><polygon class="cls-38" points="162.49 415.04 172.69 409.52 176.15 406.65 162.19 414.2 162.49 415.04"/><g class="cls-39"><polygon points="22.5 384.67 73.11 385 112.1 417.29 182.28 224.47 92.67 191.86 22.5 384.67"/></g><polygon class="cls-40" points="22.5 384.67 73.11 385 112.1 417.29 182.28 224.47 92.67 191.86 22.5 384.67"/><polygon class="cls-37" points="103.7 196.56 34.21 384.75 36.68 384.76 105.88 197.36 103.7 196.56"/><polygon class="cls-37" points="168.08 219.3 98.99 406.43 100.89 408 170.27 220.1 168.08 219.3"/><polygon class="cls-38" points="117.15 200.76 91.28 195.69 90.97 196.53 122.53 202.72 117.15 200.76"/><polygon class="cls-38" points="156.87 215.22 180.91 228.23 181.21 227.4 162.46 217.26 156.87 215.22"/><polygon class="cls-38" points="89.08 201.72 88.78 202.56 138 212.22 178.71 234.26 179.02 233.43 138.23 211.36 89.08 201.72"/><polygon class="cls-38" points="86.89 207.75 86.58 208.59 135.81 218.25 176.52 240.28 176.82 239.45 136.05 217.4 86.89 207.75"/><polygon class="cls-38" points="84.7 213.78 84.39 214.62 133.63 224.28 174.33 246.31 174.63 245.48 133.87 223.43 84.7 213.78"/><polygon class="cls-38" points="82.5 219.81 82.19 220.65 131.45 230.32 172.13 252.34 172.44 251.5 131.69 229.46 82.5 219.81"/><polygon class="cls-38" points="80.31 225.84 80 226.68 129.27 236.35 169.94 258.36 170.24 257.53 129.51 235.5 80.31 225.84"/><polygon class="cls-38" points="78.11 231.87 77.81 232.71 127.09 242.38 167.75 264.39 168.05 263.55 127.33 241.53 78.11 231.87"/><polygon class="cls-38" points="75.92 237.9 75.61 238.74 124.91 248.42 165.55 270.41 165.86 269.58 125.15 247.56 75.92 237.9"/><polygon class="cls-38" points="73.72 243.93 73.42 244.77 122.73 254.45 163.36 276.44 163.66 275.61 122.97 253.59 73.72 243.93"/><polygon class="cls-38" points="71.53 249.96 71.22 250.8 120.55 260.48 161.17 282.46 161.47 281.63 120.79 259.63 71.53 249.96"/><polygon class="cls-38" points="69.33 255.99 69.03 256.83 118.37 266.52 158.97 288.49 159.28 287.66 118.61 265.66 69.33 255.99"/><polygon class="cls-38" points="67.14 262.02 66.83 262.86 116.19 272.55 156.78 294.52 157.08 293.69 116.43 271.69 67.14 262.02"/><polygon class="cls-38" points="64.94 268.05 64.64 268.89 114.01 278.58 154.59 300.54 154.89 299.71 114.25 277.73 64.94 268.05"/><polygon class="cls-38" points="62.75 274.08 62.44 274.92 111.83 284.62 152.39 306.57 152.7 305.74 112.07 283.76 62.75 274.08"/><polygon class="cls-38" points="60.55 280.11 60.25 280.95 109.65 290.65 150.2 312.6 150.5 311.76 109.89 289.79 60.55 280.11"/><polygon class="cls-38" points="58.36 286.14 58.05 286.98 107.47 296.68 148.01 318.62 148.31 317.79 107.71 295.82 58.36 286.14"/><polygon class="cls-38" points="56.16 292.17 55.86 293.01 105.29 302.71 145.81 324.65 146.12 323.81 105.53 301.86 56.16 292.17"/><polygon class="cls-38" points="53.97 298.2 53.66 299.04 103.11 308.75 143.62 330.67 143.92 329.84 103.34 307.89 53.97 298.2"/><polygon class="cls-38" points="51.77 304.23 51.47 305.07 100.93 314.78 141.43 336.7 141.73 335.87 101.16 313.92 51.77 304.23"/><polygon class="cls-38" points="49.58 310.26 49.27 311.1 98.75 320.81 139.23 342.73 139.54 341.89 98.98 319.96 49.58 310.26"/><polygon class="cls-38" points="47.38 316.29 47.08 317.13 96.57 326.85 137.04 348.75 137.34 347.92 96.8 325.99 47.38 316.29"/><polygon class="cls-38" points="45.19 322.32 44.88 323.16 94.39 332.88 134.85 354.78 135.15 353.94 94.62 332.02 45.19 322.32"/><polygon class="cls-38" points="42.99 328.35 42.69 329.19 92.21 338.91 132.66 360.8 132.96 359.97 92.44 338.05 42.99 328.35"/><polygon class="cls-38" points="40.8 334.38 40.49 335.23 90.03 344.94 130.46 366.83 130.76 366 90.26 344.09 40.8 334.38"/><polygon class="cls-38" points="38.61 340.41 38.3 341.25 87.85 350.98 128.27 372.85 128.57 372.02 88.08 350.12 38.61 340.41"/><polygon class="cls-38" points="36.41 346.44 36.1 347.29 85.67 357.01 126.08 378.88 126.38 378.05 85.9 356.15 36.41 346.44"/><polygon class="cls-38" points="34.22 352.47 33.91 353.31 83.48 363.04 123.88 384.91 124.19 384.07 83.72 362.19 34.22 352.47"/><polygon class="cls-38" points="32.02 358.5 31.71 359.35 81.31 369.08 121.69 390.93 121.99 390.1 81.54 368.22 32.02 358.5"/><polygon class="cls-38" points="29.83 364.53 29.52 365.38 79.12 375.11 119.5 396.96 119.8 396.13 79.36 374.25 29.83 364.53"/><polygon class="cls-38" points="27.63 370.56 27.32 371.4 76.94 381.14 117.3 402.98 117.61 402.15 77.18 380.29 27.63 370.56"/><polygon class="cls-38" points="74.61 386.24 77.57 388.69 115.11 409.01 115.41 408.18 75 386.32 74.61 386.24"/><polygon class="cls-38" points="25.13 377.44 63.37 384.94 68.13 384.97 25.44 376.59 25.13 377.44"/><polygon class="cls-38" points="22.93 383.47 29.31 384.72 34.08 384.75 23.24 382.62 22.93 383.47"/><polygon class="cls-38" points="102.72 409.52 112.92 415.04 113.22 414.2 99.26 406.65 102.72 409.52"/><g class="cls-41"><circle cx="140.96" cy="140.96" r="140.96" transform="translate(-13.14 267.42) rotate(-84.38)"/></g><circle class="cls-42" cx="140.96" cy="141.03" r="138.05" transform="translate(-58.44 140.98) rotate(-45)"/><path class="cls-43" d="M141,282C63.23,282,0,218.75,0,141S63.23.07,141,.07s141,63.24,141,141S218.68,282,141,282Zm0-276.1C66.44,5.89,5.81,66.51,5.81,141S66.44,276.17,141,276.17,276.1,215.55,276.1,141,215.47,5.89,141,5.89Z"/><circle class="cls-44" cx="140.96" cy="141.85" r="131.15"/><circle class="cls-45" cx="140.96" cy="141.03" r="125.63" transform="translate(-58.44 140.98) rotate(-45)"/><g class="cls-46"><g class="cls-47"><g class="cls-48"><g class="cls-48"><path class="cls-49" d="M229.83,138.08c7-4.38,8.73-13.07,3.87-19.4s-14.48-7.89-21.48-3.5-8.73,13.07-3.88,19.4S222.82,142.48,229.83,138.08Z"/></g></g></g><g class="cls-46"><g class="cls-50"><g class="cls-50"><g class="cls-50"><path class="cls-51" d="M241.8,154.59c17.16-10.76,21.41-32,9.51-47.54s-35.46-19.34-52.62-8.59-21.42,32-9.52,47.54S224.65,165.35,241.8,154.59Z"/></g></g></g></g><g class="cls-46"><g class="cls-52"><g class="cls-52"><g class="cls-52"><path class="cls-53" d="M259.61,137.91c11,5,2.19,4.12-19.61-1.94s-48.39-15-59.39-20-2.18-4.13,19.61,2S248.62,132.92,259.61,137.91Z"/></g></g></g></g><g class="cls-54"><g class="cls-55"><g class="cls-55"><g class="cls-55"><path class="cls-56" d="M249.06,166.4c5.49,13.33-3,6.38-19-15.42s-33.39-50.24-38.91-63.57,3.05-6.38,19,15.43S243.54,153.1,249.06,166.4Z"/></g></g></g></g><g class="cls-54"><g class="cls-57"><g class="cls-57"><g class="cls-57"><path class="cls-58" d="M209.74,173.28c-4.7,13.38-3.83,3.41,1.89-22.19S225.81,93.9,230.5,80.51s3.85-3.39-1.89,22.21S214.43,159.92,209.74,173.28Z"/></g></g></g></g><g class="cls-59"><g class="cls-60"><g class="cls-60"><g class="cls-60"><path class="cls-61" d="M269.57,97.63c16.28-6.12,7.32,2-19.88,18.18s-62.4,34.28-78.66,40.44-7.31-2.06,19.91-18.21S253.36,103.77,269.57,97.63Z"/></g></g></g></g><g class="cls-46"><g class="cls-62"><g class="cls-62"><g class="cls-62"><path class="cls-63" d="M207.49,117.5c5.1-6.36,15.06-7.66,22.29-2.86s9,13.84,3.91,20.21-15.06,7.67-22.28,2.87S202.42,123.87,207.49,117.5Z"/></g></g></g></g></g><path class="cls-64" d="M141,268.11A127.08,127.08,0,1,1,268,141,127.22,127.22,0,0,1,141,268.11Zm0-251.25A124.17,124.17,0,1,0,265.13,141,124.32,124.32,0,0,0,141,16.86Z"/><text class="cls-65" transform="translate(93.31 117.41)">fi<tspan class="cls-66" x="27.66" y="0">r</tspan><tspan class="cls-67" x="49.9" y="0">st </tspan></text><text class="cls-68" transform="translate(56.32 203.61)"> </text><text class="cls-69" transform="translate(65.32 200.79)">t<tspan class="cls-70" x="13.42" y="0">r</tspan><tspan class="cls-71" x="31.68" y="0">eatment</tspan></text><g class="cls-72"><polygon class="cls-73" points="142.8 138.4 140.69 142.53 135.59 143.16 139.59 146.95 138.7 151.37 142.8 149.28 146.93 151.37 146.01 146.95 149.81 143.18 144.78 142.42 142.8 138.4"/><polygon class="cls-73" points="159.11 143.61 250.91 145.26 159.11 146.92 159.11 143.61"/><polygon class="cls-73" points="126.01 143.61 34.2 145.26 126.01 146.92 126.01 143.61"/></g><g class="cls-74"><polygon class="cls-75" points="142.8 138.4 140.81 142.42 136.37 143.07 139.59 146.2 138.83 150.62 142.8 148.53 146.77 150.62 146.01 146.2 149.22 143.07 144.78 142.42 142.8 138.4"/><polygon class="cls-75" points="159.11 142.85 250.91 144.51 159.11 146.16 159.11 142.85"/><polygon class="cls-75" points="126.01 142.85 34.2 144.51 126.01 146.16 126.01 142.85"/></g></g></g></g></svg>