<svg xmlns="http://www.w3.org/2000/svg" xmlns:xlink="http://www.w3.org/1999/xlink" viewBox="0 0 282 421"><defs><style>.cls-1,.cls-12{mask:url(#mask);}.cls-1{filter:url(#luminosity-noclip-21);}.cls-11,.cls-13,.cls-14,.cls-16,.cls-18,.cls-19,.cls-2,.cls-21,.cls-23,.cls-24,.cls-26,.cls-28,.cls-29,.cls-31,.cls-33,.cls-34,.cls-4,.cls-6,.cls-69,.cls-7,.cls-9{mix-blend-mode:multiply;}.cls-2{fill:url(#radial-gradient);}.cls-3,.cls-5{mask:url(#mask-2);}.cls-3{filter:url(#luminosity-noclip-26);}.cls-4{fill:url(#radial-gradient-2);}.cls-6{fill:url(#radial-gradient-3);}.cls-7{fill:url(#radial-gradient-4);}.cls-10,.cls-8{mask:url(#mask-5);}.cls-8{filter:url(#luminosity-noclip-29);}.cls-9{fill:url(#radial-gradient-5);}.cls-11{fill:url(#radial-gradient-6);}.cls-13{fill:url(#radial-gradient-7);}.cls-14{fill:url(#radial-gradient-8);}.cls-15,.cls-17{mask:url(#mask-9);}.cls-15{filter:url(#luminosity-noclip-32);}.cls-16{fill:url(#radial-gradient-9);}.cls-18{fill:url(#radial-gradient-10);}.cls-19{fill:url(#radial-gradient-11);}.cls-20,.cls-22{mask:url(#mask-12);}.cls-20{filter:url(#luminosity-noclip-35);}.cls-21{fill:url(#radial-gradient-12);}.cls-23{fill:url(#radial-gradient-13);}.cls-24{fill:url(#radial-gradient-14);}.cls-25,.cls-27{mask:url(#mask-15);}.cls-25{filter:url(#luminosity-noclip-38);}.cls-26{fill:url(#radial-gradient-15);}.cls-28{fill:url(#radial-gradient-16);}.cls-29{fill:url(#radial-gradient-17);}.cls-30,.cls-32{mask:url(#mask-18);}.cls-30{filter:url(#luminosity-noclip-23);}.cls-31{fill:url(#radial-gradient-18);}.cls-33{fill:url(#radial-gradient-19);}.cls-34{fill:url(#radial-gradient-20);}.cls-35{isolation:isolate;}.cls-36{fill:url(#Névtelen_színátmenet_76);}.cls-37{fill:#1b6a9b;}.cls-38{fill:#5180c4;}.cls-39{opacity:0.38;}.cls-40{fill:url(#Névtelen_színátmenet_76-2);}.cls-41{opacity:0.59;}.cls-42{fill:url(#linear-gradient);}.cls-43{fill:url(#linear-gradient-2);}.cls-44{fill:url(#linear-gradient-3);}.cls-45{fill:url(#linear-gradient-4);}.cls-46,.cls-47,.cls-54,.cls-59{mix-blend-mode:screen;}.cls-47{opacity:0.2;}.cls-48{mask:url(#mask-21);}.cls-49{fill:url(#radial-gradient-21);}.cls-50{mask:url(#mask-23);}.cls-51{fill:url(#radial-gradient-22);}.cls-52{mask:url(#mask-26);}.cls-53{fill:url(#radial-gradient-23);}.cls-54{opacity:0.8;}.cls-55{mask:url(#mask-29);}.cls-56{fill:url(#radial-gradient-24);}.cls-57{mask:url(#mask-32);}.cls-58{fill:url(#radial-gradient-25);}.cls-59,.cls-67{opacity:0.4;}.cls-60{mask:url(#mask-35);}.cls-61{fill:url(#radial-gradient-26);}.cls-62{mask:url(#mask-38);}.cls-63{fill:url(#radial-gradient-27);}.cls-64{fill:url(#linear-gradient-5);}.cls-65{fill:#754c24;}.cls-66{font-size:59px;font-family:RumRaisin-Regular, Rum Raisin;}.cls-68{fill:#ebe191;}.cls-70{fill:#a88245;}.cls-71{filter:url(#luminosity-noclip-18);}.cls-72{filter:url(#luminosity-noclip-15);}.cls-73{filter:url(#luminosity-noclip-12);}.cls-74{filter:url(#luminosity-noclip-9);}.cls-75{filter:url(#luminosity-noclip-5);}.cls-76{filter:url(#luminosity-noclip-2);}.cls-77{filter:url(#luminosity-noclip);}</style><filter id="luminosity-noclip" x="205.68" y="-8667" width="30.87" height="32766" filterUnits="userSpaceOnUse" color-interpolation-filters="sRGB"><feFlood flood-color="#fff" result="bg"/><feBlend in="SourceGraphic" in2="bg"/></filter><mask id="mask" x="205.68" y="-8667" width="30.87" height="32766" maskUnits="userSpaceOnUse"><g class="cls-77"/></mask><radialGradient id="radial-gradient" cx="-1006.06" cy="104.27" r="28.66" gradientTransform="matrix(0.31, 0.4, 0.44, -0.28, 483.73, 559.66)" gradientUnits="userSpaceOnUse"><stop offset="0.23" stop-color="#fff"/><stop offset="0.33" stop-color="#fdfdfd"/><stop offset="0.37" stop-color="#f6f6f6"/><stop offset="0.39" stop-color="#ebebeb"/><stop offset="0.42" stop-color="#dadada"/><stop offset="0.42" stop-color="#d0d0d0"/><stop offset="0.45" stop-color="#cecece"/><stop offset="0.46" stop-color="#c7c7c7"/><stop offset="0.46" stop-color="#c6c6c6"/><stop offset="0.49" stop-color="#b4b4b4"/><stop offset="0.59" stop-color="#7e7e7e"/><stop offset="0.68" stop-color="#515151"/><stop offset="0.77" stop-color="#2e2e2e"/><stop offset="0.86" stop-color="#141414"/><stop offset="0.94" stop-color="#050505"/><stop offset="1"/></radialGradient><filter id="luminosity-noclip-2" x="175.99" y="-8667" width="88.45" height="32766" filterUnits="userSpaceOnUse" color-interpolation-filters="sRGB"><feFlood flood-color="#fff" result="bg"/><feBlend in="SourceGraphic" in2="bg"/></filter><mask id="mask-2" x="175.99" y="-8667" width="88.45" height="32766" maskUnits="userSpaceOnUse"><g class="cls-76"/></mask><radialGradient id="radial-gradient-2" cx="1108.38" cy="-34.35" r="17.41" gradientTransform="matrix(2.27, 0.63, 1.14, 0.52, -2255.61, -553.72)" gradientUnits="userSpaceOnUse"><stop offset="0.23" stop-color="#fff"/><stop offset="0.35" stop-color="#fdfdfd"/><stop offset="0.39" stop-color="#f6f6f6"/><stop offset="0.42" stop-color="#ebebeb"/><stop offset="0.44" stop-color="#dadada"/><stop offset="0.45" stop-color="#d0d0d0"/><stop offset="0.48" stop-color="#cecece"/><stop offset="0.49" stop-color="#c7c7c7"/><stop offset="0.49" stop-color="#c6c6c6"/><stop offset="0.54" stop-color="#9a9a9a"/><stop offset="0.59" stop-color="#717171"/><stop offset="0.64" stop-color="#4e4e4e"/><stop offset="0.7" stop-color="#323232"/><stop offset="0.76" stop-color="#1c1c1c"/><stop offset="0.82" stop-color="#0c0c0c"/><stop offset="0.89" stop-color="#030303"/><stop offset="1"/></radialGradient><radialGradient id="radial-gradient-3" cx="1108.38" cy="-34.35" r="17.41" gradientTransform="matrix(2.27, 0.63, 1.14, 0.52, -2255.61, -553.72)" gradientUnits="userSpaceOnUse"><stop offset="0" stop-color="#fff"/><stop offset="0.03" stop-color="#fff"/><stop offset="0.22" stop-color="#fff"/><stop offset="0.37" stop-color="#fff"/><stop offset="0.4" stop-color="#ebebeb"/><stop offset="0.5" stop-color="#adadad"/><stop offset="0.59" stop-color="#787878"/><stop offset="0.68" stop-color="#4d4d4d"/><stop offset="0.77" stop-color="#2c2c2c"/><stop offset="0.86" stop-color="#141414"/><stop offset="0.93" stop-color="#050505"/><stop offset="1"/></radialGradient><radialGradient id="radial-gradient-4" cx="1108.38" cy="-34.35" r="17.41" gradientTransform="matrix(2.27, 0.63, 1.14, 0.52, -2255.61, -553.72)" gradientUnits="userSpaceOnUse"><stop offset="0" stop-color="#fff"/><stop offset="0.22" stop-color="#fff"/><stop offset="0.28" stop-color="#ccc"/><stop offset="0.35" stop-color="#9c9c9c"/><stop offset="0.42" stop-color="#727272"/><stop offset="0.5" stop-color="#4f4f4f"/><stop offset="0.57" stop-color="#323232"/><stop offset="0.66" stop-color="#1c1c1c"/><stop offset="0.75" stop-color="#0c0c0c"/><stop offset="0.85" stop-color="#030303"/><stop offset="1"/></radialGradient><filter id="luminosity-noclip-5" x="189.61" y="-8667" width="61.2" height="32766" filterUnits="userSpaceOnUse" color-interpolation-filters="sRGB"><feFlood flood-color="#fff" result="bg"/><feBlend in="SourceGraphic" in2="bg"/></filter><mask id="mask-5" x="189.61" y="-8667" width="61.2" height="32766" maskUnits="userSpaceOnUse"><g class="cls-75"/></mask><radialGradient id="radial-gradient-5" cx="356.35" cy="1545.93" r="17.41" gradientTransform="matrix(1.66, 2.27, 0.57, 1.38, -1255.28, -2817.48)" xlink:href="#radial-gradient-2"/><radialGradient id="radial-gradient-6" cx="356.35" cy="1545.93" r="17.41" gradientTransform="matrix(1.66, 2.27, 0.57, 1.38, -1255.28, -2817.48)" xlink:href="#radial-gradient-3"/><radialGradient id="radial-gradient-7" cx="-1006.06" cy="104.27" r="28.66" gradientTransform="matrix(0.31, 0.4, 0.44, -0.28, 483.73, 559.66)" gradientUnits="userSpaceOnUse"><stop offset="0" stop-color="#fff"/><stop offset="0.38" stop-color="#fff"/><stop offset="0.45" stop-color="#fff"/><stop offset="0.46" stop-color="#fff"/><stop offset="0.46" stop-color="#fff"/><stop offset="0.47" stop-color="#f5f5f5"/><stop offset="0.56" stop-color="#b5b5b5"/><stop offset="0.65" stop-color="#7e7e7e"/><stop offset="0.73" stop-color="#515151"/><stop offset="0.81" stop-color="#2e2e2e"/><stop offset="0.88" stop-color="#141414"/><stop offset="0.95" stop-color="#050505"/><stop offset="1"/></radialGradient><radialGradient id="radial-gradient-8" cx="356.35" cy="1545.93" r="17.41" gradientTransform="matrix(1.66, 2.27, 0.57, 1.38, -1255.28, -2817.48)" gradientUnits="userSpaceOnUse"><stop offset="0" stop-color="#fff"/><stop offset="0.41" stop-color="#fff"/><stop offset="0.46" stop-color="#ccc"/><stop offset="0.51" stop-color="#9c9c9c"/><stop offset="0.57" stop-color="#727272"/><stop offset="0.62" stop-color="#4f4f4f"/><stop offset="0.68" stop-color="#323232"/><stop offset="0.75" stop-color="#1c1c1c"/><stop offset="0.81" stop-color="#0c0c0c"/><stop offset="0.89" stop-color="#030303"/><stop offset="1"/></radialGradient><filter id="luminosity-noclip-9" x="206.8" y="-8667" width="26.84" height="32766" filterUnits="userSpaceOnUse" color-interpolation-filters="sRGB"><feFlood flood-color="#fff" result="bg"/><feBlend in="SourceGraphic" in2="bg"/></filter><mask id="mask-9" x="206.8" y="-8667" width="26.84" height="32766" maskUnits="userSpaceOnUse"><g class="cls-74"/></mask><radialGradient id="radial-gradient-9" cx="-1103.04" cy="4580.99" r="17.41" gradientTransform="matrix(-0.6, 2.66, -0.49, 1.39, 1796.53, -3294.38)" xlink:href="#radial-gradient-2"/><radialGradient id="radial-gradient-10" cx="-1103.04" cy="4580.99" r="17.41" gradientTransform="matrix(-0.6, 2.66, -0.49, 1.39, 1796.53, -3294.38)" xlink:href="#radial-gradient-3"/><radialGradient id="radial-gradient-11" cx="-1103.04" cy="4580.99" r="17.41" gradientTransform="matrix(-0.6, 2.66, -0.49, 1.39, 1796.53, -3294.38)" xlink:href="#radial-gradient-4"/><filter id="luminosity-noclip-12" x="163.03" y="-8667" width="114.77" height="32766" filterUnits="userSpaceOnUse" color-interpolation-filters="sRGB"><feFlood flood-color="#fff" result="bg"/><feBlend in="SourceGraphic" in2="bg"/></filter><mask id="mask-12" x="163.03" y="-8667" width="114.77" height="32766" maskUnits="userSpaceOnUse"><g class="cls-73"/></mask><radialGradient id="radial-gradient-12" cx="1724.45" cy="-752.92" r="12.65" gradientTransform="matrix(3.9, -2.32, 2.32, -0.88, -4750.47, 3462.42)" xlink:href="#radial-gradient-2"/><radialGradient id="radial-gradient-13" cx="1724.45" cy="-752.92" r="12.65" gradientTransform="matrix(3.9, -2.32, 2.32, -0.88, -4750.47, 3462.42)" xlink:href="#radial-gradient-3"/><radialGradient id="radial-gradient-14" cx="1724.45" cy="-752.92" r="12.65" gradientTransform="matrix(3.9, -2.32, 2.32, -0.88, -4750.47, 3462.42)" xlink:href="#radial-gradient-4"/><filter id="luminosity-noclip-15" x="204.69" y="-8667" width="31.99" height="32766" filterUnits="userSpaceOnUse" color-interpolation-filters="sRGB"><feFlood flood-color="#fff" result="bg"/><feBlend in="SourceGraphic" in2="bg"/></filter><mask id="mask-15" x="204.69" y="-8667" width="31.99" height="32766" maskUnits="userSpaceOnUse"><g class="cls-72"/></mask><radialGradient id="radial-gradient-15" cx="2291.81" cy="12.82" r="23.61" gradientTransform="matrix(-0.55, -0.37, 0.39, -0.49, 1486.5, 976.45)" xlink:href="#radial-gradient-2"/><radialGradient id="radial-gradient-16" cx="2291.81" cy="12.82" r="23.61" gradientTransform="matrix(-0.55, -0.37, 0.39, -0.49, 1486.5, 976.45)" gradientUnits="userSpaceOnUse"><stop offset="0.23" stop-color="#fff"/><stop offset="0.42" stop-color="#fff"/><stop offset="0.45" stop-color="#fff"/><stop offset="0.49" stop-color="#fff"/><stop offset="0.49" stop-color="#fff"/><stop offset="0.53" stop-color="#cacaca"/><stop offset="0.58" stop-color="#9b9b9b"/><stop offset="0.62" stop-color="#717171"/><stop offset="0.67" stop-color="#4e4e4e"/><stop offset="0.72" stop-color="#323232"/><stop offset="0.78" stop-color="#1c1c1c"/><stop offset="0.84" stop-color="#0c0c0c"/><stop offset="0.9" stop-color="#030303"/><stop offset="1"/></radialGradient><radialGradient id="radial-gradient-17" cx="2291.81" cy="12.82" r="23.61" gradientTransform="matrix(-0.55, -0.37, 0.39, -0.49, 1486.5, 976.45)" gradientUnits="userSpaceOnUse"><stop offset="0" stop-color="#fff"/><stop offset="0.27" stop-color="#fff"/><stop offset="0.31" stop-color="#fff"/><stop offset="0.35" stop-color="#d5d5d5"/><stop offset="0.38" stop-color="#a9a9a9"/><stop offset="0.42" stop-color="gray"/><stop offset="0.47" stop-color="#5d5d5d"/><stop offset="0.52" stop-color="#404040"/><stop offset="0.57" stop-color="#292929"/><stop offset="0.63" stop-color="#161616"/><stop offset="0.7" stop-color="#0a0a0a"/><stop offset="0.8" stop-color="#020202"/><stop offset="1"/></radialGradient><filter id="luminosity-noclip-18" x="182.52" y="-8667" width="75.63" height="32766" filterUnits="userSpaceOnUse" color-interpolation-filters="sRGB"><feFlood flood-color="#fff" result="bg"/><feBlend in="SourceGraphic" in2="bg"/></filter><mask id="mask-18" x="182.52" y="-8667" width="75.63" height="32766" maskUnits="userSpaceOnUse"><g class="cls-71"/></mask><radialGradient id="radial-gradient-18" cx="-1007.05" cy="103.21" r="70.22" xlink:href="#radial-gradient"/><radialGradient id="radial-gradient-19" cx="-1007.05" cy="103.21" r="70.22" xlink:href="#radial-gradient-7"/><radialGradient id="radial-gradient-20" cx="-1007.06" cy="103.21" r="70.22" gradientTransform="matrix(0.31, 0.4, 0.44, -0.28, 483.73, 559.66)" gradientUnits="userSpaceOnUse"><stop offset="0" stop-color="#fff"/><stop offset="0.27" stop-color="#fff"/><stop offset="0.27" stop-color="#f6f6f6"/><stop offset="0.3" stop-color="#c8c8c8"/><stop offset="0.34" stop-color="#9d9d9d"/><stop offset="0.37" stop-color="#777"/><stop offset="0.41" stop-color="#575757"/><stop offset="0.45" stop-color="#3b3b3b"/><stop offset="0.5" stop-color="#252525"/><stop offset="0.56" stop-color="#141414"/><stop offset="0.63" stop-color="#090909"/><stop offset="0.73" stop-color="#020202"/><stop offset="1"/></radialGradient><linearGradient id="Névtelen_színátmenet_76" x1="106.13" y1="249.68" x2="260.85" y2="381.09" gradientUnits="userSpaceOnUse"><stop offset="0.17" stop-color="#293981"/><stop offset="0.43" stop-color="#07002a"/><stop offset="0.74" stop-color="#293981"/><stop offset="1" stop-color="#231f20"/></linearGradient><linearGradient id="Névtelen_színátmenet_76-2" x1="22.59" y1="306.57" x2="182.37" y2="306.57" xlink:href="#Névtelen_színátmenet_76"/><linearGradient id="linear-gradient" x1="210.08" y1="262.6" x2="72.01" y2="23.46" gradientTransform="translate(142.45 -57.84) rotate(45)" gradientUnits="userSpaceOnUse"><stop offset="0" stop-color="#a3713b"/><stop offset="0.22" stop-color="#fdf496"/><stop offset="0.3" stop-color="#fff78f"/><stop offset="0.48" stop-color="#c29c57"/><stop offset="0.74" stop-color="#cfb266"/><stop offset="0.88" stop-color="#fef692"/><stop offset="1" stop-color="#a3713b"/></linearGradient><linearGradient id="linear-gradient-2" x1="0.09" y1="143.03" x2="282" y2="143.03" gradientUnits="userSpaceOnUse"><stop offset="0" stop-color="#d8b56d"/><stop offset="0.1" stop-color="#fae397"/><stop offset="0.21" stop-color="#fff78f"/><stop offset="0.33" stop-color="#e4cf76"/><stop offset="0.48" stop-color="#ac8953"/><stop offset="0.62" stop-color="#8d6e47"/><stop offset="0.73" stop-color="#d8b56d"/><stop offset="0.84" stop-color="#fceb94"/><stop offset="0.95" stop-color="#c1a360"/></linearGradient><linearGradient id="linear-gradient-3" x1="75.46" y1="257.45" x2="206.63" y2="30.26" gradientUnits="userSpaceOnUse"><stop offset="0" stop-color="#a3713b"/><stop offset="0.14" stop-color="#fdf496"/><stop offset="0.28" stop-color="#fff78f"/><stop offset="0.48" stop-color="#c29c57"/><stop offset="0.6" stop-color="#f4e685"/><stop offset="0.74" stop-color="#cfb266"/><stop offset="0.86" stop-color="#fef692"/><stop offset="1" stop-color="#a3713b"/></linearGradient><linearGradient id="linear-gradient-4" x1="229.88" y1="54.2" x2="52.22" y2="231.86" gradientTransform="translate(142.45 -57.84) rotate(45)" gradientUnits="userSpaceOnUse"><stop offset="0" stop-color="#a3713b"/><stop offset="0.22" stop-color="#fdf496"/><stop offset="0.28" stop-color="#fff78f"/><stop offset="0.48" stop-color="#c29c57"/><stop offset="0.74" stop-color="#cfb266"/><stop offset="1" stop-color="#a3713b"/></linearGradient><filter id="luminosity-noclip-21" x="205.68" y="114.69" width="30.87" height="27.89" filterUnits="userSpaceOnUse" color-interpolation-filters="sRGB"><feFlood flood-color="#fff" result="bg"/><feBlend in="SourceGraphic" in2="bg"/></filter><mask id="mask-21" x="205.68" y="114.69" width="30.87" height="27.89" maskUnits="userSpaceOnUse"><g class="cls-1"><path class="cls-2" d="M229.92,140.08c7-4.38,8.73-13.07,3.87-19.4s-14.48-7.89-21.48-3.5-8.73,13.07-3.88,19.4S222.91,144.48,229.92,140.08Z"/></g></mask><radialGradient id="radial-gradient-21" cx="-1006.06" cy="104.27" r="28.66" gradientTransform="matrix(0.31, 0.4, 0.44, -0.28, 483.73, 559.66)" gradientUnits="userSpaceOnUse"><stop offset="0" stop-color="#3ac8ff"/><stop offset="0.18" stop-color="#3cc9ff"/><stop offset="0.25" stop-color="#43cbff"/><stop offset="0.3" stop-color="#4fd0ff"/><stop offset="0.34" stop-color="#60d7ff"/><stop offset="0.38" stop-color="#76e0ff"/><stop offset="0.41" stop-color="#92ebff"/><stop offset="0.43" stop-color="#b2f7ff"/><stop offset="0.45" stop-color="#c6ffff"/><stop offset="0.45" stop-color="#c4ffff"/><stop offset="0.46" stop-color="#bdffff"/><stop offset="0.46" stop-color="#b2ffff"/><stop offset="0.46" stop-color="#a1ffff"/><stop offset="0.46" stop-color="#8bffff"/><stop offset="0.46" stop-color="#70ffff"/><stop offset="0.46" stop-color="#68ffff"/><stop offset="0.57" stop-color="#58dbff"/><stop offset="0.69" stop-color="#48b8ff"/><stop offset="0.81" stop-color="#3c9fff"/><stop offset="0.91" stop-color="#3590ff"/><stop offset="1" stop-color="#338bff"/></radialGradient><filter id="luminosity-noclip-23" x="182.52" y="94.37" width="75.63" height="68.32" filterUnits="userSpaceOnUse" color-interpolation-filters="sRGB"><feFlood flood-color="#fff" result="bg"/><feBlend in="SourceGraphic" in2="bg"/></filter><mask id="mask-23" x="182.52" y="94.37" width="75.63" height="68.32" maskUnits="userSpaceOnUse"><g class="cls-30"><path class="cls-31" d="M241.89,156.59c17.16-10.76,21.41-32,9.51-47.54s-35.46-19.34-52.62-8.59-21.42,32-9.51,47.54S224.74,167.35,241.89,156.59Z"/></g></mask><radialGradient id="radial-gradient-22" cx="-1007.06" cy="103.21" r="70.22" gradientTransform="matrix(0.31, 0.4, 0.44, -0.28, 483.73, 559.66)" gradientUnits="userSpaceOnUse"><stop offset="0" stop-color="#fff"/><stop offset="0.04" stop-color="#fff4e1"/><stop offset="0.12" stop-color="#ffd893"/><stop offset="0.25" stop-color="#ffab18"/><stop offset="0.27" stop-color="#ffa200"/><stop offset="0.32" stop-color="#ffb800"/><stop offset="0.37" stop-color="#ffc900"/><stop offset="0.44" stop-color="#ffd400"/><stop offset="0.53" stop-color="#ffdb00"/><stop offset="0.8" stop-color="#fd0"/><stop offset="0.82" stop-color="#f0d000"/><stop offset="0.86" stop-color="#caaf00"/><stop offset="0.9" stop-color="#8b7800"/><stop offset="0.96" stop-color="#362f00"/><stop offset="1"/></radialGradient><filter id="luminosity-noclip-26" x="175.99" y="114.66" width="88.45" height="28.5" filterUnits="userSpaceOnUse" color-interpolation-filters="sRGB"><feFlood flood-color="#fff" result="bg"/><feBlend in="SourceGraphic" in2="bg"/></filter><mask id="mask-26" x="175.99" y="114.66" width="88.45" height="28.5" maskUnits="userSpaceOnUse"><g class="cls-3"><path class="cls-4" d="M259.7,139.91c11,5,2.19,4.12-19.6-1.94s-48.4-15-59.4-20-2.18-4.13,19.61,2S248.71,134.92,259.7,139.91Z"/></g></mask><radialGradient id="radial-gradient-23" cx="1108.38" cy="-34.35" r="17.41" gradientTransform="matrix(2.27, 0.63, 1.14, 0.52, -2255.61, -553.72)" gradientUnits="userSpaceOnUse"><stop offset="0" stop-color="#ff0"/><stop offset="0.1" stop-color="#fdbf00"/><stop offset="0.18" stop-color="#fc9400"/><stop offset="0.22" stop-color="#fc8300"/><stop offset="0.23" stop-color="#ef7d02"/><stop offset="0.31" stop-color="#bf6709"/><stop offset="0.38" stop-color="#95540f"/><stop offset="0.46" stop-color="#724314"/><stop offset="0.55" stop-color="#553619"/><stop offset="0.64" stop-color="#3f2c1c"/><stop offset="0.73" stop-color="#2f251e"/><stop offset="0.85" stop-color="#262020"/><stop offset="1" stop-color="#231f20"/></radialGradient><filter id="luminosity-noclip-29" x="189.61" y="82.65" width="61.2" height="92.52" filterUnits="userSpaceOnUse" color-interpolation-filters="sRGB"><feFlood flood-color="#fff" result="bg"/><feBlend in="SourceGraphic" in2="bg"/></filter><mask id="mask-29" x="189.61" y="82.65" width="61.2" height="92.52" maskUnits="userSpaceOnUse"><g class="cls-8"><path class="cls-9" d="M249.15,168.4c5.49,13.33-3,6.38-19-15.42s-33.39-50.24-38.91-63.57,3.05-6.38,19,15.43S243.63,155.1,249.15,168.4Z"/></g></mask><radialGradient id="radial-gradient-24" cx="356.35" cy="1545.93" r="17.41" gradientTransform="matrix(1.66, 2.27, 0.57, 1.38, -1255.28, -2817.48)" gradientUnits="userSpaceOnUse"><stop offset="0" stop-color="#ff0"/><stop offset="0.19" stop-color="#fdbf00"/><stop offset="0.34" stop-color="#fc9400"/><stop offset="0.41" stop-color="#fc8300"/><stop offset="0.43" stop-color="#ef7d02"/><stop offset="0.48" stop-color="#bf6709"/><stop offset="0.54" stop-color="#95540f"/><stop offset="0.6" stop-color="#724314"/><stop offset="0.66" stop-color="#553619"/><stop offset="0.73" stop-color="#3f2c1c"/><stop offset="0.8" stop-color="#2f251e"/><stop offset="0.88" stop-color="#262020"/><stop offset="1" stop-color="#231f20"/></radialGradient><filter id="luminosity-noclip-32" x="206.8" y="76.6" width="26.84" height="104.63" filterUnits="userSpaceOnUse" color-interpolation-filters="sRGB"><feFlood flood-color="#fff" result="bg"/><feBlend in="SourceGraphic" in2="bg"/></filter><mask id="mask-32" x="206.8" y="76.6" width="26.84" height="104.63" maskUnits="userSpaceOnUse"><g class="cls-15"><path class="cls-16" d="M209.83,175.28c-4.7,13.38-3.83,3.41,1.89-22.19S225.9,95.9,230.59,82.51s3.85-3.39-1.89,22.21S214.52,161.92,209.83,175.28Z"/></g></mask><radialGradient id="radial-gradient-25" cx="-1103.04" cy="4580.99" r="17.41" gradientTransform="matrix(-0.6, 2.66, -0.49, 1.39, 1796.53, -3294.38)" xlink:href="#radial-gradient-23"/><filter id="luminosity-noclip-35" x="163.03" y="97.59" width="114.77" height="62.67" filterUnits="userSpaceOnUse" color-interpolation-filters="sRGB"><feFlood flood-color="#fff" result="bg"/><feBlend in="SourceGraphic" in2="bg"/></filter><mask id="mask-35" x="163.03" y="97.59" width="114.77" height="62.67" maskUnits="userSpaceOnUse"><g class="cls-20"><path class="cls-21" d="M269.66,99.63c16.28-6.12,7.32,2-19.88,18.18s-62.4,34.28-78.66,40.44S163.81,156.19,191,140,253.45,105.77,269.66,99.63Z"/></g></mask><radialGradient id="radial-gradient-26" cx="1724.45" cy="-752.92" r="12.65" gradientTransform="matrix(3.9, -2.32, 2.32, -0.88, -4750.47, 3462.42)" xlink:href="#radial-gradient-23"/><filter id="luminosity-noclip-38" x="204.69" y="113.74" width="31.99" height="28.89" filterUnits="userSpaceOnUse" color-interpolation-filters="sRGB"><feFlood flood-color="#fff" result="bg"/><feBlend in="SourceGraphic" in2="bg"/></filter><mask id="mask-38" x="204.69" y="113.74" width="31.99" height="28.89" maskUnits="userSpaceOnUse"><g class="cls-25"><path class="cls-26" d="M207.59,119.5c5.09-6.36,15-7.66,22.28-2.86s9,13.84,3.91,20.21-15.06,7.67-22.28,2.87S202.51,125.87,207.59,119.5Z"/></g></mask><radialGradient id="radial-gradient-27" cx="2291.81" cy="12.82" r="23.61" gradientTransform="matrix(-0.55, -0.37, 0.39, -0.49, 1486.5, 976.45)" gradientUnits="userSpaceOnUse"><stop offset="0" stop-color="#fff"/><stop offset="0.12" stop-color="#fffefd"/><stop offset="0.16" stop-color="#fffaf6"/><stop offset="0.2" stop-color="#fff3eb"/><stop offset="0.22" stop-color="#ffe9da"/><stop offset="0.24" stop-color="#ffdbc4"/><stop offset="0.26" stop-color="#ffcba8"/><stop offset="0.28" stop-color="#ffb788"/><stop offset="0.29" stop-color="#ffa162"/><stop offset="0.31" stop-color="#ff8839"/><stop offset="0.31" stop-color="#ff7c25"/><stop offset="0.35" stop-color="#d5681f"/><stop offset="0.38" stop-color="#a95218"/><stop offset="0.42" stop-color="#803e13"/><stop offset="0.47" stop-color="#5d2d0e"/><stop offset="0.52" stop-color="#401f09"/><stop offset="0.57" stop-color="#291406"/><stop offset="0.63" stop-color="#160b03"/><stop offset="0.7" stop-color="#0a0501"/><stop offset="0.8" stop-color="#020100"/><stop offset="1"/></radialGradient><linearGradient id="linear-gradient-5" x1="13.97" y1="143.03" x2="268.13" y2="143.03" gradientTransform="matrix(1, 0, 0, 1, 0, 0)" xlink:href="#linear-gradient-4"/></defs><title>badgeRajztábla 8</title><g class="cls-35"><g id="Réteg_1" data-name="Réteg 1"><polygon class="cls-36" points="253 386.67 202.38 387 163.4 419.29 93.22 226.47 182.82 193.86 253 386.67"/><polygon class="cls-37" points="166.52 200.02 235.48 386.79 237.95 386.77 168.7 199.22 166.52 200.02"/><polygon class="cls-37" points="105.83 223.36 174.72 409.91 176.61 408.34 108.01 222.56 105.83 223.36"/><polygon class="cls-38" points="184.22 197.69 158.35 202.76 152.96 204.72 184.52 198.53 184.22 197.69"/><polygon class="cls-38" points="118.62 217.22 113.04 219.26 94.29 229.4 94.59 230.23 118.62 217.22"/><polygon class="cls-38" points="96.48 235.43 96.78 236.26 137.5 214.22 186.72 204.56 186.41 203.72 137.26 213.36 96.48 235.43"/><polygon class="cls-38" points="98.67 241.45 98.97 242.28 139.68 220.25 188.91 210.59 188.6 209.75 139.44 219.4 98.67 241.45"/><polygon class="cls-38" points="100.86 247.48 101.17 248.31 141.86 226.28 191.11 216.62 190.8 215.78 141.63 225.43 100.86 247.48"/><polygon class="cls-38" points="103.06 253.5 103.36 254.34 144.04 232.32 193.3 222.65 193 221.81 143.81 231.46 103.06 253.5"/><polygon class="cls-38" points="105.25 259.53 105.56 260.36 146.22 238.35 195.5 228.68 195.19 227.84 145.99 237.5 105.25 259.53"/><polygon class="cls-38" points="107.44 265.55 107.75 266.39 148.4 244.38 197.69 234.71 197.38 233.87 148.16 243.53 107.44 265.55"/><polygon class="cls-38" points="109.64 271.58 109.94 272.41 150.58 250.42 199.89 240.74 199.58 239.9 150.35 249.56 109.64 271.58"/><polygon class="cls-38" points="111.83 277.61 112.14 278.44 152.76 256.45 202.08 246.77 201.77 245.93 152.53 255.59 111.83 277.61"/><polygon class="cls-38" points="114.03 283.63 114.33 284.46 154.94 262.48 204.28 252.8 203.97 251.96 154.71 261.63 114.03 283.63"/><polygon class="cls-38" points="116.22 289.66 116.52 290.49 157.12 268.52 206.47 258.83 206.16 257.99 156.89 267.66 116.22 289.66"/><polygon class="cls-38" points="118.41 295.69 118.71 296.52 159.3 274.55 208.66 264.86 208.36 264.02 159.07 273.69 118.41 295.69"/><polygon class="cls-38" points="120.61 301.71 120.91 302.54 161.49 280.58 210.86 270.89 210.55 270.05 161.25 279.73 120.61 301.71"/><polygon class="cls-38" points="122.8 307.74 123.1 308.57 163.66 286.62 213.05 276.92 212.75 276.08 163.43 285.76 122.8 307.74"/><polygon class="cls-38" points="124.99 313.76 125.29 314.6 165.85 292.65 215.25 282.95 214.94 282.11 165.61 291.79 124.99 313.76"/><polygon class="cls-38" points="127.19 319.79 127.49 320.62 168.03 298.68 217.44 288.98 217.14 288.14 167.79 297.82 127.19 319.79"/><polygon class="cls-38" points="129.38 325.81 129.68 326.65 170.21 304.71 219.64 295.01 219.33 294.17 169.97 303.86 129.38 325.81"/><polygon class="cls-38" points="131.57 331.84 131.87 332.67 172.39 310.75 221.83 301.04 221.53 300.2 172.15 309.89 131.57 331.84"/><polygon class="cls-38" points="133.76 337.87 134.07 338.7 174.57 316.78 224.03 307.07 223.72 306.23 174.33 315.92 133.76 337.87"/><polygon class="cls-38" points="135.96 343.89 136.26 344.73 176.75 322.81 226.22 313.1 225.92 312.26 176.51 321.96 135.96 343.89"/><polygon class="cls-38" points="138.15 349.92 138.45 350.75 178.93 328.85 228.42 319.13 228.11 318.29 178.69 327.99 138.15 349.92"/><polygon class="cls-38" points="140.34 355.94 140.65 356.78 181.11 334.88 230.61 325.16 230.31 324.32 180.87 334.02 140.34 355.94"/><polygon class="cls-38" points="142.54 361.97 142.84 362.8 183.29 340.91 232.81 331.19 232.5 330.35 183.05 340.05 142.54 361.97"/><polygon class="cls-38" points="144.73 368 145.03 368.83 185.47 346.94 235 337.23 234.7 336.38 185.23 346.09 144.73 368"/><polygon class="cls-38" points="146.92 374.02 147.23 374.85 187.65 352.98 237.2 343.25 236.89 342.41 187.41 352.12 146.92 374.02"/><polygon class="cls-38" points="149.12 380.05 149.42 380.88 189.83 359.01 239.39 349.29 239.09 348.44 189.59 358.15 149.12 380.05"/><polygon class="cls-38" points="151.31 386.07 151.61 386.91 192.01 365.04 241.59 355.31 241.28 354.47 191.77 364.19 151.31 386.07"/><polygon class="cls-38" points="153.5 392.1 153.81 392.93 194.19 371.08 243.78 361.35 243.47 360.5 193.95 370.22 153.5 392.1"/><polygon class="cls-38" points="155.7 398.13 156 398.96 196.37 377.11 245.98 367.38 245.67 366.53 196.13 376.25 155.7 398.13"/><polygon class="cls-38" points="157.89 404.15 158.19 404.98 198.55 383.14 248.17 373.4 247.86 372.56 198.31 382.29 157.89 404.15"/><polygon class="cls-38" points="160.08 410.18 160.39 411.01 197.93 390.69 200.89 388.24 200.5 388.32 160.08 410.18"/><polygon class="cls-38" points="212.13 386.94 250.37 379.44 250.06 378.59 207.37 386.97 212.13 386.94"/><polygon class="cls-38" points="246.18 386.72 252.56 385.47 252.25 384.62 241.42 386.75 246.18 386.72"/><polygon class="cls-38" points="162.58 417.04 172.78 411.52 176.24 408.65 162.28 416.2 162.58 417.04"/><g class="cls-39"><polygon points="22.59 386.67 73.2 387 112.19 419.29 182.37 226.47 92.77 193.86 22.59 386.67"/></g><polygon class="cls-40" points="22.59 386.67 73.2 387 112.19 419.29 182.37 226.47 92.77 193.86 22.59 386.67"/><polygon class="cls-37" points="103.79 198.56 34.3 386.75 36.77 386.76 105.97 199.36 103.79 198.56"/><polygon class="cls-37" points="168.18 221.3 99.08 408.43 100.98 410 170.36 222.1 168.18 221.3"/><polygon class="cls-38" points="117.24 202.76 91.37 197.69 91.06 198.53 122.62 204.72 117.24 202.76"/><polygon class="cls-38" points="156.96 217.22 181 230.23 181.3 229.4 162.55 219.26 156.96 217.22"/><polygon class="cls-38" points="89.18 203.72 88.87 204.56 138.09 214.22 178.81 236.26 179.11 235.43 138.32 213.36 89.18 203.72"/><polygon class="cls-38" points="86.98 209.75 86.67 210.59 135.91 220.25 176.61 242.28 176.91 241.45 136.14 219.4 86.98 209.75"/><polygon class="cls-38" points="84.79 215.78 84.48 216.62 133.72 226.28 174.42 248.31 174.72 247.48 133.96 225.43 84.79 215.78"/><polygon class="cls-38" points="82.59 221.81 82.28 222.65 131.54 232.32 172.22 254.34 172.53 253.5 131.78 231.46 82.59 221.81"/><polygon class="cls-38" points="80.4 227.84 80.09 228.68 129.36 238.35 170.03 260.36 170.33 259.53 129.6 237.5 80.4 227.84"/><polygon class="cls-38" points="78.2 233.87 77.89 234.71 127.18 244.38 167.84 266.39 168.14 265.55 127.42 243.53 78.2 233.87"/><polygon class="cls-38" points="76.01 239.9 75.7 240.74 125 250.42 165.65 272.41 165.95 271.58 125.24 249.56 76.01 239.9"/><polygon class="cls-38" points="73.81 245.93 73.51 246.77 122.82 256.45 163.45 278.44 163.75 277.61 123.06 255.59 73.81 245.93"/><polygon class="cls-38" points="71.62 251.96 71.31 252.8 120.64 262.48 161.26 284.46 161.56 283.63 120.88 261.63 71.62 251.96"/><polygon class="cls-38" points="69.42 257.99 69.12 258.83 118.46 268.52 159.06 290.49 159.37 289.66 118.7 267.66 69.42 257.99"/><polygon class="cls-38" points="67.23 264.02 66.92 264.86 116.28 274.55 156.87 296.52 157.18 295.69 116.52 273.69 67.23 264.02"/><polygon class="cls-38" points="65.03 270.05 64.73 270.89 114.1 280.58 154.68 302.54 154.98 301.71 114.34 279.73 65.03 270.05"/><polygon class="cls-38" points="62.84 276.08 62.53 276.92 111.92 286.62 152.49 308.57 152.79 307.74 112.16 285.76 62.84 276.08"/><polygon class="cls-38" points="60.64 282.11 60.34 282.95 109.74 292.65 150.29 314.6 150.59 313.76 109.98 291.79 60.64 282.11"/><polygon class="cls-38" points="58.45 288.14 58.14 288.98 107.56 298.68 148.1 320.62 148.4 319.79 107.8 297.82 58.45 288.14"/><polygon class="cls-38" points="56.25 294.17 55.95 295.01 105.38 304.71 145.91 326.65 146.21 325.81 105.62 303.86 56.25 294.17"/><polygon class="cls-38" points="54.06 300.2 53.75 301.04 103.2 310.75 143.71 332.67 144.01 331.84 103.44 309.89 54.06 300.2"/><polygon class="cls-38" points="51.87 306.23 51.56 307.07 101.02 316.78 141.52 338.7 141.82 337.87 101.25 315.92 51.87 306.23"/><polygon class="cls-38" points="49.67 312.26 49.36 313.1 98.84 322.81 139.32 344.73 139.63 343.89 99.08 321.96 49.67 312.26"/><polygon class="cls-38" points="47.48 318.29 47.17 319.13 96.66 328.85 137.13 350.75 137.44 349.92 96.89 327.99 47.48 318.29"/><polygon class="cls-38" points="45.28 324.32 44.97 325.16 94.48 334.88 134.94 356.78 135.24 355.94 94.71 334.02 45.28 324.32"/><polygon class="cls-38" points="43.09 330.35 42.78 331.19 92.3 340.91 132.75 362.8 133.05 361.97 92.53 340.05 43.09 330.35"/><polygon class="cls-38" points="40.89 336.38 40.58 337.23 90.12 346.94 130.55 368.83 130.85 368 90.35 346.09 40.89 336.38"/><polygon class="cls-38" points="38.7 342.41 38.39 343.25 87.94 352.98 128.36 374.85 128.66 374.02 88.17 352.12 38.7 342.41"/><polygon class="cls-38" points="36.5 348.44 36.19 349.29 85.76 359.01 126.17 380.88 126.47 380.05 85.99 358.15 36.5 348.44"/><polygon class="cls-38" points="34.31 354.47 34 355.31 83.58 365.04 123.97 386.91 124.28 386.07 83.81 364.19 34.31 354.47"/><polygon class="cls-38" points="32.11 360.5 31.8 361.35 81.4 371.08 121.78 392.93 122.08 392.1 81.63 370.22 32.11 360.5"/><polygon class="cls-38" points="29.92 366.53 29.61 367.38 79.22 377.11 119.59 398.96 119.89 398.13 79.45 376.25 29.92 366.53"/><polygon class="cls-38" points="27.72 372.56 27.41 373.4 77.03 383.14 117.39 404.98 117.7 404.15 77.27 382.29 27.72 372.56"/><polygon class="cls-38" points="74.7 388.24 77.66 390.69 115.2 411.01 115.5 410.18 75.09 388.32 74.7 388.24"/><polygon class="cls-38" points="25.22 379.44 63.46 386.94 68.22 386.97 25.53 378.59 25.22 379.44"/><polygon class="cls-38" points="23.02 385.47 29.4 386.72 34.17 386.75 23.33 384.62 23.02 385.47"/><polygon class="cls-38" points="102.81 411.52 113.01 417.04 113.31 416.2 99.35 408.65 102.81 411.52"/><g class="cls-41"><circle cx="141.05" cy="142.96" r="140.96" transform="translate(-15.05 269.31) rotate(-84.38)"/></g><circle class="cls-42" cx="141.05" cy="143.03" r="138.05" transform="translate(-59.83 141.63) rotate(-45)"/><path class="cls-43" d="M141.05,284c-77.73,0-141-63.24-141-141s63.23-141,141-141S282,65.31,282,143,218.77,284,141.05,284Zm0-276.1C66.53,7.89,5.9,68.51,5.9,143S66.53,278.17,141.05,278.17,276.19,217.55,276.19,143,215.56,7.89,141.05,7.89Z"/><circle class="cls-44" cx="141.05" cy="143.85" r="131.15"/><circle class="cls-45" cx="141.05" cy="143.03" r="125.63" transform="translate(-59.83 141.63) rotate(-45)"/><g class="cls-46"><g class="cls-47"><g class="cls-48"><g class="cls-48"><path class="cls-49" d="M229.92,140.08c7-4.38,8.73-13.07,3.87-19.4s-14.48-7.89-21.48-3.5-8.73,13.07-3.88,19.4S222.91,144.48,229.92,140.08Z"/></g></g></g><g class="cls-46"><g class="cls-50"><g class="cls-50"><g class="cls-50"><path class="cls-51" d="M241.89,156.59c17.16-10.76,21.41-32,9.51-47.54s-35.46-19.34-52.62-8.59-21.42,32-9.51,47.54S224.74,167.35,241.89,156.59Z"/></g></g></g></g><g class="cls-46"><g class="cls-52"><g class="cls-52"><g class="cls-52"><path class="cls-53" d="M259.7,139.91c11,5,2.19,4.12-19.6-1.94s-48.4-15-59.4-20-2.18-4.13,19.61,2S248.71,134.92,259.7,139.91Z"/></g></g></g></g><g class="cls-54"><g class="cls-55"><g class="cls-55"><g class="cls-55"><path class="cls-56" d="M249.15,168.4c5.49,13.33-3,6.38-19-15.42s-33.39-50.24-38.91-63.57,3.05-6.38,19,15.43S243.63,155.1,249.15,168.4Z"/></g></g></g></g><g class="cls-54"><g class="cls-57"><g class="cls-57"><g class="cls-57"><path class="cls-58" d="M209.83,175.28c-4.7,13.38-3.83,3.41,1.89-22.19S225.9,95.9,230.59,82.51s3.85-3.39-1.89,22.21S214.52,161.92,209.83,175.28Z"/></g></g></g></g><g class="cls-59"><g class="cls-60"><g class="cls-60"><g class="cls-60"><path class="cls-61" d="M269.66,99.63c16.28-6.12,7.32,2-19.88,18.18s-62.4,34.28-78.66,40.44S163.81,156.19,191,140,253.45,105.77,269.66,99.63Z"/></g></g></g></g><g class="cls-46"><g class="cls-62"><g class="cls-62"><g class="cls-62"><path class="cls-63" d="M207.59,119.5c5.09-6.36,15-7.66,22.28-2.86s9,13.84,3.91,20.21-15.06,7.67-22.28,2.87S202.51,125.87,207.59,119.5Z"/></g></g></g></g></g><path class="cls-64" d="M141.05,270.11A127.08,127.08,0,1,1,268.13,143,127.22,127.22,0,0,1,141.05,270.11Zm0-251.25A124.17,124.17,0,1,0,265.22,143,124.32,124.32,0,0,0,141.05,18.86Z"/><path class="cls-65" d="M118.92,89.1c-.15,1.45-.27,3-.37,4.7s-.19,3.4-.25,5.17-.12,3.53-.15,5.31-.07,3.49-.09,5.1,0,3.13,0,4.53,0,2.62,0,3.63v3.11l-6.26.22q.06-3.42.09-6.43c0-2,0-4,0-5.91,0-2.22,0-4.42-.08-6.59s-.15-4.4-.27-6.69c-1.27-.06-2.59-.1-4-.13s-2.73-.06-4.09-.09q0,3.16,0,6.29c0,2.09,0,4.09.05,6s0,3.68,0,5.31,0,3.06,0,4.26,0,2.49,0,3.87l-6.29.33c.1-1.32.16-2.79.2-4.42s0-3.35,0-5.17c0-1.34,0-2.71,0-4.1s0-2.79-.08-4.19-.07-2.77-.11-4.13-.06-2.68-.08-3.94l-1.81.09q-.84,0-1.53.15l-.27-6.55c.46,0,1,.09,1.58.12l1.92.1V86a14.33,14.33,0,0,1,1-5.51,10.66,10.66,0,0,1,2.59-3.81,10.37,10.37,0,0,1,3.74-2.19,13.73,13.73,0,0,1,4.39-.7,11.78,11.78,0,0,1,4.2.7,11.51,11.51,0,0,1,3.19,1.79,9.07,9.07,0,0,1,2.1,2.44,7.83,7.83,0,0,1,1,2.65,1.37,1.37,0,0,1,0,.38v.39a4.57,4.57,0,0,1-1.26,3.24,4.75,4.75,0,0,1-1.31.93,3.45,3.45,0,0,1-1.48.35,4.36,4.36,0,0,1-1.59-.29,4.3,4.3,0,0,1-1.3-.77,3.53,3.53,0,0,1-.87-1.13,3.09,3.09,0,0,1-.31-1.37s0-.17,0-.41a4.26,4.26,0,0,1,.14-.88,6.83,6.83,0,0,1,.38-1.13,4.86,4.86,0,0,1,.76-1.19,12.69,12.69,0,0,0-1.89-.91,6,6,0,0,0-2.1-.38,4.55,4.55,0,0,0-3,.85,5,5,0,0,0-1.51,2.18,10.16,10.16,0,0,0-.57,2.89c-.05,1-.08,2-.08,3v2.12H109c2,0,3.87,0,5.59,0s3.16-.09,4.3-.18v0Z"/><path class="cls-65" d="M130.05,120.54l-7.36.55c.3-3.29.51-6.46.65-9.52s.21-6.12.21-9.19c0-2.16,0-4.34-.1-6.51s-.18-4.42-.34-6.71l6.2-.33c0,.4-.07.8-.09,1.18s0,.76,0,1.13a8.74,8.74,0,0,1,2.1-2.33,9.4,9.4,0,0,1,2.14-1.22,7.5,7.5,0,0,1,2.29-.58,8.53,8.53,0,0,1,3.44.62,6.61,6.61,0,0,1,2.34,1.6,5.9,5.9,0,0,1,1.32,2.17,7,7,0,0,1,.42,2.33,11.09,11.09,0,0,1-.25,2.34,6.74,6.74,0,0,1-.84,2.14,4.72,4.72,0,0,1-1.57,1.54,4.53,4.53,0,0,1-2.41.59,4.18,4.18,0,0,1-2.26-.52,3.73,3.73,0,0,1-1.25-1.25,4.38,4.38,0,0,1-.56-1.52,9,9,0,0,1-.12-1.33,3.27,3.27,0,0,1,.14-.87,4.76,4.76,0,0,1,.41-1,5.48,5.48,0,0,1,.69-1,6.29,6.29,0,0,1,1-.89,1.89,1.89,0,0,0-.34-.09,2,2,0,0,0-.34,0,3.8,3.8,0,0,0-2.46.86,7.56,7.56,0,0,0-1.86,2.41,17.15,17.15,0,0,0-1.29,3.64,34.16,34.16,0,0,0-.76,4.58q.13,4.26.39,8.45C129.69,114.63,129.87,117.53,130.05,120.54Z"/><path class="cls-65" d="M164.24,94.59a4.51,4.51,0,0,1-.46,2.14,4.89,4.89,0,0,1-1.13,1.44,4.42,4.42,0,0,1-1.38.8,4,4,0,0,1-1.21.24,4.78,4.78,0,0,1-1.19-.17,3.83,3.83,0,0,1-1.31-.65,3.86,3.86,0,0,1-1.5-3.25,4.47,4.47,0,0,1,.25-1.3,4.78,4.78,0,0,1,.59-1.14A3.78,3.78,0,0,1,158,91.64,5,5,0,0,0,156.17,90a3.11,3.11,0,0,0-.85-.28,3.43,3.43,0,0,0-1.55.35,3.74,3.74,0,0,0-1.17.9,4.12,4.12,0,0,0-.74,1.31,4.51,4.51,0,0,0-.26,1.55,11.45,11.45,0,0,0,.13,1.84,5.21,5.21,0,0,0,.64,1.68,9.34,9.34,0,0,0,1.49,1.85,28.74,28.74,0,0,0,2.7,2.31,32.4,32.4,0,0,1,3,2.58,16.75,16.75,0,0,1,2.1,2.47,10,10,0,0,1,1.24,2.44,8,8,0,0,1,.41,2.54,11.25,11.25,0,0,1-.18,1.92,9.88,9.88,0,0,1-.61,2.09,9.32,9.32,0,0,1-1.13,2,7.75,7.75,0,0,1-1.73,1.75,8.41,8.41,0,0,1-2.43,1.23A10.26,10.26,0,0,1,154,121a11.73,11.73,0,0,1-4.6-.8,10.5,10.5,0,0,1-3.13-1.94,7.7,7.7,0,0,1-1.79-2.41,5.73,5.73,0,0,1-.56-2.23,6.77,6.77,0,0,1,.25-1.9,4.12,4.12,0,0,1,.78-1.55,3.68,3.68,0,0,1,1.38-1,4.93,4.93,0,0,1,2-.37,5.21,5.21,0,0,1,1.81.3,3.75,3.75,0,0,1,1.4.9,4,4,0,0,1,.93,1.44,5.35,5.35,0,0,1,.33,1.93,3.81,3.81,0,0,1-.66,1.88,4,4,0,0,1-.91.93,3.23,3.23,0,0,0,.75.46,3.15,3.15,0,0,0,.68.2,2.5,2.5,0,0,0,.66.09,2.15,2.15,0,0,0,.84-.21,2.88,2.88,0,0,0,.92-.65,3.66,3.66,0,0,0,.75-1.07,3.52,3.52,0,0,0,.3-1.52,8,8,0,0,0-.15-1.61,4.68,4.68,0,0,0-.63-1.51,10.62,10.62,0,0,0-1.4-1.73c-.6-.62-1.4-1.37-2.39-2.26a36.53,36.53,0,0,1-2.65-2.57,15,15,0,0,1-1.94-2.61,12.35,12.35,0,0,1-1.2-2.83A12.53,12.53,0,0,1,145.4,95a8.61,8.61,0,0,1,.7-3.42,9,9,0,0,1,2-2.93,9.37,9.37,0,0,1,3.14-2,10.7,10.7,0,0,1,4.13-.76,10.29,10.29,0,0,1,4,.71,7.63,7.63,0,0,1,2.75,1.92,7.74,7.74,0,0,1,1.6,2.77A10.38,10.38,0,0,1,164.24,94.59Z"/><path class="cls-65" d="M176.84,77.53q-.22,2.84-.36,5.58c-.09,1.83-.19,3.66-.28,5.5l2.4-.1,2.42-.12.12,7c-.89-.15-1.76-.27-2.62-.36s-1.71-.16-2.54-.22c0,1.56-.08,3.11-.09,4.63s0,3.07,0,4.63c0,2.79,0,5.57.1,8.32s.17,5.53.32,8.32l-7.2-.11q.36-6.48.6-12.94t.31-13q-1.16,0-2.31.12l-2.37.15.22-6.53q1.13.09,2.25.12l2.21.1c0-1.84,0-3.67-.05-5.5s-.08-3.66-.11-5.52Z"/><text class="cls-66" transform="translate(56.41 205.61)"> </text><path class="cls-65" d="M75,168.44c-.12,1.56-.22,3.08-.29,4.58s-.15,3-.23,4.51l2-.08c.64,0,1.31-.06,2-.1l.09,5.78c-.72-.12-1.43-.22-2.14-.29s-1.4-.14-2.08-.18c0,1.28-.07,2.54-.08,3.79s0,2.52,0,3.8c0,2.29,0,4.56.08,6.82s.14,4.54.26,6.83l-5.9-.1c.2-3.53.36-7.07.49-10.6s.21-7.09.26-10.68l-1.9.1-2,.13.19-5.36c.61.05,1.23.08,1.84.1l1.82.08c0-1.5,0-3,0-4.51s-.06-3-.09-4.53Z"/><path class="cls-65" d="M86.2,203.71l-6,.46q.36-4,.53-7.81t.17-7.54c0-1.77,0-3.55-.08-5.34s-.15-3.62-.28-5.5l5.08-.27c0,.33,0,.65-.07,1s0,.62,0,.93a7,7,0,0,1,1.73-1.91,7.7,7.7,0,0,1,1.75-1,6.65,6.65,0,0,1,1.88-.47,7,7,0,0,1,2.82.51A5.49,5.49,0,0,1,95.6,178a5,5,0,0,1,1.09,1.78,6,6,0,0,1,.33,1.91,9.08,9.08,0,0,1-.2,1.92,5.09,5.09,0,0,1-.69,1.75,3.82,3.82,0,0,1-1.29,1.27,3.76,3.76,0,0,1-2,.48,3.44,3.44,0,0,1-1.86-.43,3,3,0,0,1-1-1,3.51,3.51,0,0,1-.46-1.25,8.28,8.28,0,0,1-.1-1.09,2.45,2.45,0,0,1,.12-.71,3.45,3.45,0,0,1,.33-.81,4.54,4.54,0,0,1,.57-.8,5,5,0,0,1,.79-.73,1.28,1.28,0,0,0-.28-.07,1.37,1.37,0,0,0-.28,0,3.1,3.1,0,0,0-2,.71,6,6,0,0,0-1.52,2,13.89,13.89,0,0,0-1.06,3,26.19,26.19,0,0,0-.62,3.75c.07,2.33.18,4.65.31,6.93S86.05,201.24,86.2,203.71Z"/><path class="cls-65" d="M114.81,197.93a5.44,5.44,0,0,1-.61,2.51,6.59,6.59,0,0,1-1.65,2,8.14,8.14,0,0,1-2.44,1.36,8.93,8.93,0,0,1-3,.49A8,8,0,0,1,105,204a6.9,6.9,0,0,1-2.08-1,8.73,8.73,0,0,1-1.88-1.79,10.85,10.85,0,0,1-1.52-2.71,18.68,18.68,0,0,1-1-3.76,29.26,29.26,0,0,1-.37-5,26.12,26.12,0,0,1,.37-4.68,16.93,16.93,0,0,1,1-3.54,10.34,10.34,0,0,1,1.5-2.55,8.65,8.65,0,0,1,1.84-1.67,6.84,6.84,0,0,1,2-.91,8.27,8.27,0,0,1,2.06-.27,8.52,8.52,0,0,1,2.87.48,6.78,6.78,0,0,1,2.38,1.44,6.92,6.92,0,0,1,1.61,2.34,8,8,0,0,1,.6,3.19,8.68,8.68,0,0,1-.67,3.29,10.77,10.77,0,0,1-2,3.14,14.89,14.89,0,0,1-3.25,2.69,16.62,16.62,0,0,1-4.44,1.91,21.37,21.37,0,0,0,.4,2.55,9.09,9.09,0,0,0,.65,2,4,4,0,0,0,.93,1.26,1.81,1.81,0,0,0,1.23.46,3.45,3.45,0,0,0,.86-.16,3.35,3.35,0,0,0,.74-.36,2.05,2.05,0,0,0,.62-.73,2.2,2.2,0,0,1-.91-.7,3.44,3.44,0,0,1-.47-.81,2.78,2.78,0,0,1-.2-1,3.3,3.3,0,0,1,.42-1.76,3.46,3.46,0,0,1,1-1.06,3.77,3.77,0,0,1,1.2-.54,4.86,4.86,0,0,1,1-.14,3.35,3.35,0,0,1,.94.16,2.66,2.66,0,0,1,1.07.61,3.46,3.46,0,0,1,.89,1.27A5.26,5.26,0,0,1,114.81,197.93Zm-5.58-14.21a7.76,7.76,0,0,0-.15-1.55,4.93,4.93,0,0,0-.43-1.28,2.66,2.66,0,0,0-.7-.87,1.56,1.56,0,0,0-1-.32,1.77,1.77,0,0,0-1.51.84,6.92,6.92,0,0,0-1,2.25A17.7,17.7,0,0,0,104,186c-.09,1.22-.14,2.5-.14,3.82v1.65A12,12,0,0,0,106,190a9.77,9.77,0,0,0,1.69-1.84,8.33,8.33,0,0,0,1.11-2.13A7.21,7.21,0,0,0,109.23,183.72Z"/><path class="cls-65" d="M127.91,203.71c-.09-.46-.17-.94-.25-1.42s-.13-1-.18-1.49a7.51,7.51,0,0,1-2.48,2.36,6.3,6.3,0,0,1-3.17.83,6.09,6.09,0,0,1-1.8-.29,4.33,4.33,0,0,1-1.69-1,5.19,5.19,0,0,1-1.24-1.91,8.34,8.34,0,0,1-.49-3.06,7.1,7.1,0,0,1,.46-2.68,7.31,7.31,0,0,1,1.17-2,8.52,8.52,0,0,1,1.63-1.49,21.11,21.11,0,0,1,1.79-1.13l1.71-.93a7.68,7.68,0,0,0,1.33-.85,11.11,11.11,0,0,0,1.73-1.69,8.48,8.48,0,0,0,1.19-1.86,15.16,15.16,0,0,0-.33-2.57,5.39,5.39,0,0,0-.62-1.6,2.14,2.14,0,0,0-.94-.84,3.31,3.31,0,0,0-1.25-.23,3.18,3.18,0,0,0-1.75.45,4.06,4.06,0,0,0-1.17,1.08,3.18,3.18,0,0,1,.87.77,3.72,3.72,0,0,1,.47.79,2.74,2.74,0,0,1,.2.88,3,3,0,0,1-.87,2.35A3.1,3.1,0,0,1,120,187a2.57,2.57,0,0,1-1.28-.33,3.1,3.1,0,0,1-1-.92,4.17,4.17,0,0,1-.69-1.4,5.85,5.85,0,0,1-.25-1.76,5.31,5.31,0,0,1,.43-2,5.57,5.57,0,0,1,1.38-2,7.4,7.4,0,0,1,2.44-1.51,9.67,9.67,0,0,1,3.61-.6,7.61,7.61,0,0,1,3.64.82,7.44,7.44,0,0,1,2.49,2.2,9.42,9.42,0,0,1,1.41,3.15,15.51,15.51,0,0,1,.44,3.68c0,.95,0,2,0,3.1s0,2.26,0,3.43q0,1.47,0,2.94c0,1,0,1.92.09,2.83s.1,1.77.18,2.58a21.48,21.48,0,0,0,.29,2.16Zm-.34-13.24a9.59,9.59,0,0,1-1.69,1.63c-.45.32-.94.67-1.46,1.06a14.63,14.63,0,0,0-1.45,1.25,7.21,7.21,0,0,0-1.1,1.36,2.7,2.7,0,0,0-.44,1.46,3,3,0,0,0,.49,1.74,1.6,1.6,0,0,0,1.4.72,2.6,2.6,0,0,0,1.5-.45,5.12,5.12,0,0,0,1.16-1.12,7.64,7.64,0,0,0,.86-1.43,12.5,12.5,0,0,0,.55-1.4Z"/><path class="cls-65" d="M143.91,168.44c-.12,1.56-.22,3.08-.3,4.58s-.15,3-.22,4.51l2-.08c.65,0,1.32-.06,2-.1l.09,5.78c-.72-.12-1.44-.22-2.14-.29s-1.4-.14-2.08-.18c-.05,1.28-.07,2.54-.08,3.79s0,2.52,0,3.8c0,2.29,0,4.56.08,6.82s.14,4.54.26,6.83l-5.9-.1c.19-3.53.36-7.07.49-10.6s.21-7.09.26-10.68l-1.9.1-1.95.13.18-5.36c.62.05,1.24.08,1.85.1l1.82.08c0-1.5,0-3-.05-4.51s-.06-3-.09-4.53Z"/><path class="cls-65" d="M164,191c0,.91,0,1.69,0,2.36s0,1.29-.05,1.84-.06,1.06-.09,1.55-.08,1-.13,1.56-.1,1.17-.16,1.86-.12,1.48-.2,2.4l-5.08.05q.31-3.65.46-7t.15-6.65a13.48,13.48,0,0,0-.58-4.59,1.89,1.89,0,0,0-1.75-1.44,1.93,1.93,0,0,0-.88.61,4.59,4.59,0,0,0-.78,1.24,9.65,9.65,0,0,0-.69,2.33c0,.74-.05,1.46-.05,2.18v2.11c0,.81,0,1.64,0,2.49s0,1.74,0,2.71,0,2,0,3.1,0,2.33.07,3.65l-5.15-.11c.1-1.73.19-3.28.27-4.63s.14-2.61.19-3.75.09-2.23.11-3.26,0-2.08,0-3.16c0-.72,0-1.46,0-2.23s0-1.57,0-2.45-.05-1.81-.08-2.81-.06-2.1-.09-3.29l5.13.09-.13,2.13a7.41,7.41,0,0,1,1.37-2,5.78,5.78,0,0,1,1.36-1,3.27,3.27,0,0,1,1.07-.36l.56,0a4.69,4.69,0,0,1,1.3.18,3,3,0,0,1,1.17.67,5,5,0,0,1,1,1.38,10.3,10.3,0,0,1,.8,2.28,7.31,7.31,0,0,1,1.51-2.64,6.34,6.34,0,0,1,1.78-1.34,4.57,4.57,0,0,1,1.53-.48c.45,0,.71-.05.78-.05a3.52,3.52,0,0,1,2.44.88,5.84,5.84,0,0,1,1.58,2.69,20.68,20.68,0,0,1,.85,4.54c.18,1.82.26,4,.26,6.41,0,.82,0,1.76-.11,2.83s-.17,2.17-.29,3.31-.25,2.26-.39,3.38-.26,2.11-.36,3l-5.08-.18c.25-1.61.45-3.15.59-4.6s.26-2.75.33-3.88c.08-1.31.12-2.53.14-3.66,0-1.43,0-2.66-.1-3.7a13.7,13.7,0,0,0-.38-2.57,3.46,3.46,0,0,0-.74-1.49,1.63,1.63,0,0,0-1.2-.48,2.18,2.18,0,0,0-.9.52,4.13,4.13,0,0,0-.81,1,6.8,6.8,0,0,0-.73,1.73C164,187.52,164,189.14,164,191Z"/><path class="cls-65" d="M193.05,197.93a5.32,5.32,0,0,1-.61,2.51,6.31,6.31,0,0,1-1.65,2,7.91,7.91,0,0,1-2.44,1.36,8.87,8.87,0,0,1-3,.49,8.06,8.06,0,0,1-2.15-.29,7.13,7.13,0,0,1-2.08-1,8.69,8.69,0,0,1-1.87-1.79,10.56,10.56,0,0,1-1.53-2.71,18.71,18.71,0,0,1-1-3.76,29.18,29.18,0,0,1-.38-5,26.06,26.06,0,0,1,.38-4.68,17,17,0,0,1,1-3.54,10.05,10.05,0,0,1,1.51-2.55,8.42,8.42,0,0,1,1.84-1.67,6.68,6.68,0,0,1,2-.91,8.29,8.29,0,0,1,2.07-.27,8.56,8.56,0,0,1,2.87.48,6.75,6.75,0,0,1,4,3.78,8,8,0,0,1,.6,3.19A8.87,8.87,0,0,1,192,187a10.81,10.81,0,0,1-2,3.14,14.59,14.59,0,0,1-3.24,2.69,16.91,16.91,0,0,1-4.44,1.91,19.52,19.52,0,0,0,.4,2.55,9.09,9.09,0,0,0,.65,2,3.69,3.69,0,0,0,.93,1.26,1.79,1.79,0,0,0,1.23.46,3.45,3.45,0,0,0,.86-.16,3.29,3.29,0,0,0,.73-.36,1.87,1.87,0,0,0,.62-.73,2.23,2.23,0,0,1-.9-.7,3.9,3.9,0,0,1-.48-.81,3,3,0,0,1-.2-1,3.21,3.21,0,0,1,.43-1.76,3.35,3.35,0,0,1,1-1.06,3.82,3.82,0,0,1,1.19-.54,4.84,4.84,0,0,1,1-.14,3.35,3.35,0,0,1,.93.16,2.69,2.69,0,0,1,1.08.61,3.71,3.71,0,0,1,.89,1.27A5.27,5.27,0,0,1,193.05,197.93Zm-5.58-14.21a7.76,7.76,0,0,0-.15-1.55,4.93,4.93,0,0,0-.42-1.28,2.68,2.68,0,0,0-.71-.87,1.52,1.52,0,0,0-1-.32,1.78,1.78,0,0,0-1.51.84,7.15,7.15,0,0,0-.95,2.25,18.61,18.61,0,0,0-.5,3.23c-.09,1.22-.13,2.5-.13,3.82v1.65a11.59,11.59,0,0,0,2.13-1.45,9.83,9.83,0,0,0,1.7-1.84,9,9,0,0,0,1.11-2.13A7.2,7.2,0,0,0,187.47,183.72Z"/><path class="cls-65" d="M201.44,177.75l-.14,1.86a6.92,6.92,0,0,1,1.59-1.9,6.23,6.23,0,0,1,1.57-.93,4,4,0,0,1,1.21-.29l.53,0a5.45,5.45,0,0,1,2.92.76,6,6,0,0,1,2,2.23,11.38,11.38,0,0,1,1.21,3.55,25,25,0,0,1,.4,4.73c0,1.3,0,2.62-.06,4s-.11,2.68-.22,4-.27,2.63-.46,3.9a32,32,0,0,1-.75,3.61l-5.27-.63c.35-1.8.62-3.47.81-5s.34-2.91.43-4.07c.11-1.35.17-2.59.19-3.72,0-1.43,0-2.68-.14-3.74a11.21,11.21,0,0,0-.49-2.65,3.4,3.4,0,0,0-1-1.57,1.75,1.75,0,0,0-2.82.39,8.45,8.45,0,0,0-1.15,2.09,19.25,19.25,0,0,0-1.07,4c0,1.17-.07,2.34-.07,3.49s0,2.38,0,3.67v3.55c0,1.27,0,2.7.05,4.29l-5.13-.11c0-1.54.08-3.17.1-4.89s0-3.64,0-5.75,0-4.36,0-6.8-.09-5.15-.18-8.14Z"/><path class="cls-65" d="M223.69,168.44c-.12,1.56-.22,3.08-.29,4.58s-.15,3-.23,4.51l2-.08c.64,0,1.31-.06,2-.1l.09,5.78c-.73-.12-1.44-.22-2.15-.29s-1.4-.14-2.08-.18c0,1.28-.07,2.54-.08,3.79s0,2.52,0,3.8q0,3.44.08,6.82t.26,6.83l-5.9-.1c.2-3.53.36-7.07.49-10.6s.21-7.09.26-10.68l-1.9.1-1.94.13.18-5.36c.61.05,1.23.08,1.84.1l1.82.08c0-1.5,0-3-.05-4.51s-.06-3-.09-4.53Z"/><g class="cls-67"><polygon class="cls-68" points="142.89 140.4 140.78 144.53 135.69 145.16 139.68 148.95 138.79 153.37 142.89 151.28 147.02 153.37 146.1 148.95 149.9 145.18 144.87 144.42 142.89 140.4"/><polygon class="cls-68" points="159.2 145.61 251 147.26 159.2 148.92 159.2 145.61"/><polygon class="cls-68" points="126.1 145.61 34.29 147.26 126.1 148.92 126.1 145.61"/></g><g class="cls-69"><polygon class="cls-70" points="142.89 140.4 140.9 144.42 136.46 145.07 139.68 148.2 138.92 152.62 142.89 150.53 146.86 152.62 146.1 148.2 149.31 145.07 144.87 144.42 142.89 140.4"/><polygon class="cls-70" points="159.2 144.85 251 146.51 159.2 148.16 159.2 144.85"/><polygon class="cls-70" points="126.1 144.85 34.29 146.51 126.1 148.16 126.1 144.85"/></g></g></g></svg>