<svg id="Réteg_1" data-name="Réteg 1" xmlns="http://www.w3.org/2000/svg" viewBox="0 0 100 69"><defs><style>.cls-1{fill:#45b5e5;}</style></defs><title>iconRajztábla 17 másolat 3</title><path class="cls-1" d="M50.1,66.18q-19.38,0-38.76,0c-2.76,0-5.42-.51-7.1-2.77A9.94,9.94,0,0,1,2.12,58.1C2,42.35,2,26.6,2.05,10.85c0-4.83,3.42-8.09,8.32-8.09q39.89,0,79.77,0c5.08,0,8.33,3.43,8.34,8.67q0,22.92,0,45.83c0,5.55-3.38,8.9-9.06,8.91C76.31,66.21,63.21,66.18,50.1,66.18Zm.14-25L92.13,6.47H8.36Zm-13.7-6.62L9,62.11c2.32.74,80.37.69,82.26,0L63.86,34.62,50.25,45.84Zm30.8-2.67c9.15,9.2,18.71,18.65,27.51,27.51,0-16-.18-33.4-.18-50.33C85.25,16.88,75.83,24.86,67.34,31.9Zm-34.41-.37L5.8,9.08V58.77Z"/></svg>