<svg id="Réteg_1" data-name="Réteg 1" xmlns="http://www.w3.org/2000/svg" viewBox="0 0 100 100"><defs><style>.cls-1{fill:#45b5e5;}</style></defs><title>iconRajztábla 17 másolat 4</title><path class="cls-1" d="M76.75,63c-.9-.39-1.81-.72-2.73-1.06C71.48,61,69,60,66.39,59.2c-2.14-.68-3.51,0-4.51,2-.44.87-.92,1.73-1.31,2.62a2.5,2.5,0,0,1-2.44,1.63,8.92,8.92,0,0,1-3.66-.66A42.43,42.43,0,0,1,35.31,45.61,9,9,0,0,1,34.65,42a2.52,2.52,0,0,1,1.64-2.44c.89-.4,1.75-.87,2.62-1.31A3.42,3.42,0,0,0,41,33.87a10.59,10.59,0,0,0-.43-1.35c-1.11-3-2.2-6-3.35-8.93A12.34,12.34,0,0,0,36,21.34a3.51,3.51,0,0,0-3.51-1.59A14.15,14.15,0,0,0,20,35.28a30.73,30.73,0,0,0,4.36,12.27A81.63,81.63,0,0,0,38.64,64.92a69.2,69.2,0,0,0,15.89,12,26.86,26.86,0,0,0,12.16,3.35,23.19,23.19,0,0,0,2.44-.3c5.72-1.21,9.21-4.83,10.84-10.3C81,66,80.2,64.49,76.75,63Z"/><path class="cls-1" d="M91.84,24.69c-.41-.68-.84-1.34-1.28-2A49,49,0,0,0,77.33,9.47c-.65-.44-1.31-.86-2-1.27A49.1,49.1,0,0,0,66.8,4.08,48.61,48.61,0,0,0,52.5,1.17a46.89,46.89,0,0,0-5,0,48.89,48.89,0,0,0-22.85,7c-.67.41-1.33.83-2,1.27a49.9,49.9,0,0,0-7.24,6c-.56.56-1.1,1.13-1.62,1.7a49.86,49.86,0,0,0-5.64,7.54A48.91,48.91,0,0,0,3.05,63.93c.12.41.25.83.38,1.24a49.27,49.27,0,0,0,4.7,10.24,49.4,49.4,0,0,0,14.5,15.22c.66.44,1.32.86,2,1.27a48.9,48.9,0,0,0,22.85,7c.83,0,1.67.06,2.51.06s1.69,0,2.52-.06c1.64-.09,3.3-.26,4.93-.5A48.9,48.9,0,0,0,75.35,91.9c.67-.41,1.33-.83,2-1.27A49.18,49.18,0,0,0,90.56,77.4c.44-.65.87-1.31,1.28-2a49.27,49.27,0,0,0,4.7-10.24c.13-.41.25-.83.38-1.24a48.91,48.91,0,0,0-5.08-39.24ZM81.69,81.76a44.8,44.8,0,0,1-68.53-6.14c-.61-.87-1.1-1.61-1.53-2.33s-.74-1.24-1.08-1.87a44.75,44.75,0,0,1,0-42.73c.34-.64.7-1.27,1.08-1.88.75-1.23,1.56-2.44,2.42-3.58h0c.43-.58.87-1.14,1.33-1.7A44.75,44.75,0,0,1,29.9,10c.42-.22.84-.42,1.27-.62A44.84,44.84,0,0,1,81.69,81.76Z"/></svg>