<svg id="Réteg_1" data-name="Réteg 1" xmlns="http://www.w3.org/2000/svg" viewBox="0 0 100 96"><defs><style>.cls-1{fill:#45b5e5;}</style></defs><title>iconRajztábla 17 másolat 2</title><path class="cls-1" d="M97.5,18.6V84.31a6.32,6.32,0,0,1-6.4,3.83c-9.45-.15-18.9,0-28.35-.07a4,4,0,0,0-3.29,1.42,12.46,12.46,0,0,1-19.19-.3,3,3,0,0,0-2.5-1.11c-10,0-20,0-29.92,0a5.2,5.2,0,0,1-4.22-2A14.76,14.76,0,0,1,2.5,84.31V18.6c.76-3.22,2.58-4.71,5.93-4.82a10.43,10.43,0,0,1,1.58,0c1.33.16,1.81-.43,1.8-1.72,0-2.29.12-4.57.07-6.85a2.6,2.6,0,0,1,1.44-2.7h5.8c3,.32,5.95.52,8.88,1C35.66,4.76,43,7,49.12,12A1.28,1.28,0,0,0,51,11.92C56.31,7.6,62.55,5.35,69.16,4c3.52-.7,7.1-1,10.66-1.54h6.86a2.59,2.59,0,0,1,1.4,2.61c0,1.84,0,3.68.09,5.52.17,3,.21,3.12,3.29,3.13C94.29,13.76,97.31,15.55,97.5,18.6ZM84,38.73V8.26c0-1.68-.06-1.78-1.72-1.7a65.35,65.35,0,0,0-20,3.68,31.5,31.5,0,0,0-8.8,5,3.64,3.64,0,0,0-1.51,3.14c.06,9.19,0,18.38,0,27.57q0,10.62,0,21.24c0,2.72.12,5.45.15,8.18,0,1,.35,1.14,1.22.76,1.16-.51,2.35-1,3.55-1.4,8.2-2.84,16.75-3.42,25.32-3.92C83.94,70.68,84,70.69,84,69Zm-67.9-.08h0v30.2c0,1.86,0,1.82,1.91,2,3.24.21,6.49.44,9.72.74A61.68,61.68,0,0,1,46.44,76c1.3.55,1.42.48,1.43-.92.06-5.49.15-11,.16-16.48q0-20.43,0-40.88a2.91,2.91,0,0,0-.78-1.82,23.75,23.75,0,0,0-8.09-5.09C32.32,8,25.12,7,17.8,6.57c-1.53-.09-1.74.17-1.74,1.88ZM93.44,51h0V21.72c0-3.88,0-3.85-3.85-3.88-1,0-1.39.27-1.39,1.34,0,4.61-.08,9.22-.09,13.84q0,19.53,0,39c0,2.14-.68,2.78-2.85,2.83a119.38,119.38,0,0,0-18.88,1.6c-5.22,1-10.32,2.25-14.78,5.32a2.72,2.72,0,0,1-3.31-.11,34.14,34.14,0,0,0-10.94-4.45C30,75.46,22.4,75.11,14.84,74.9c-2.29-.06-2.93-.65-2.94-2.87q-.06-25.78-.14-51.57c0-2.91.39-2.59-2.6-2.57-2.33,0-2.61.29-2.61,2.56q0,30.15,0,60.29c0,.57,0,1.14,0,1.72a1.33,1.33,0,0,0,1.46,1.48l1.58,0c5.45,0,10.9.1,16.35.13,4.13,0,8.26.09,12.39,0,1.84-.06,3.38.1,4.45,1.78A11.76,11.76,0,0,0,43.92,87a8.37,8.37,0,0,0,12,.15c.72-.77,1.41-1.57,2.2-2.27a2.62,2.62,0,0,1,1.48-.66c4.3-.09,8.61-.12,12.91-.15C78.82,84,85.1,84,91.39,84c1.84,0,2-.27,2-2.08Z"/></svg>