<svg id="Réteg_1" data-name="Réteg 1" xmlns="http://www.w3.org/2000/svg" viewBox="0 0 100 100"><defs><style>.cls-1{fill:#45b5e5;}</style></defs><title>iconRajztábla 17 másolat</title><path class="cls-1" d="M76.14,64.27a16.28,16.28,0,0,0-7-3,20.72,20.72,0,0,0-2.78-.33c-1.22-.06-2.43-.1-3.65-.12H59.26l-3.49,0c-1.74,0-3.48,0-5.23,0l-.49,0c-1.58,0-3.17,0-4.75,0h-.11q-1.77,0-3.54,0H38.1c-1.49,0-2.64.07-3.72.13a18.86,18.86,0,0,0-3.72.57c-.6.15-1.08.29-1.53.45-4.58,1.64-8.1,5.19-10.46,10.55a5,5,0,0,0-.47,2.1,3.85,3.85,0,0,0,.57,1.93,6.68,6.68,0,0,0,.92,1.21c.85.91,1.74,1.79,2.63,2.61s1.83,1.63,2.77,2.37S27,84.16,28,84.8a39.36,39.36,0,0,0,4.64,2.62c.86.41,1.78.8,2.81,1.19.83.32,1.52.56,2.17.77a40.49,40.49,0,0,0,7.19,1.56c.91.12,1.85.2,2.88.27l.59,0h.34c.63,0,1.27.06,1.9.07h.33l.89,0,.64,0h.48c.8,0,1.58-.09,2.43-.18s1.51-.18,2.25-.3l.48-.08.27,0c.51-.1,1-.19,1.53-.3l.7-.17.15,0c.47-.11.93-.23,1.39-.36l.87-.26q.68-.21,1.35-.45l.12,0,.71-.25c.47-.18,1-.38,1.42-.58l.25-.1.45-.19c.69-.31,1.37-.63,2.12-1s1.31-.71,2-1.1l.42-.26L72,85.4c.45-.27.89-.55,1.33-.85l.62-.43L74,84l1.2-.88.74-.58q.6-.47,1.17-1l.1-.08.61-.52c.41-.36.82-.75,1.23-1.13l.22-.2.37-.35c.59-.58,1.18-1.18,1.76-1.8a4.12,4.12,0,0,0,.91-5A20.4,20.4,0,0,0,76.14,64.27Z"/><path class="cls-1" d="M32.49,40.18l0,.3c0,.39.1.78.18,1.16,0,.14.07.28.11.42l.1.44c.07.29.14.59.23.88l.15.42.16.46c.1.26.19.53.29.79s.13.27.2.41l.2.44c.12.25.23.5.36.74s.16.28.24.41l.25.42c.13.23.26.45.4.67l.29.4.29.4.45.6.33.38.33.36c.16.19.32.38.5.56l.37.35.36.34c.18.16.35.33.54.49s.27.21.42.32l.37.28c.19.15.39.31.59.44l.44.29.41.25c.21.13.41.26.63.38s.31.16.48.24l.45.22.63.31.54.2.44.17.67.24.57.15.47.12.68.17.61.1.47.07.71.1c.2,0,.41,0,.62,0l.54,0,.54,0h.26A17.92,17.92,0,0,0,68.63,37.83c0-.62,0-1.24-.1-1.86,0-.11,0-.23,0-.35l-.06-.41c0-.35-.1-.69-.17-1,0-.13-.06-.26-.1-.39L68,33.33c-.07-.29-.14-.59-.23-.88l-.13-.36-.15-.4c-.1-.3-.21-.61-.33-.9,0-.11-.11-.22-.16-.32l-.18-.38c-.14-.29-.27-.59-.43-.87a3.45,3.45,0,0,0-.2-.32L66,28.55c-.16-.27-.32-.55-.5-.8a3.46,3.46,0,0,0-.22-.31l-.24-.31c-.18-.26-.37-.51-.58-.76l-.24-.27L64,25.83c-.22-.25-.44-.49-.68-.72a3.2,3.2,0,0,0-.27-.25l-.31-.28c-.23-.21-.46-.43-.7-.62l-.31-.23-.35-.26-.74-.53-.36-.22-.39-.23-.74-.44-.4-.18-.44-.22-.75-.34-.45-.16L56.63,21c-.25-.1-.5-.19-.76-.27l-.5-.13-.51-.12c-.25-.07-.49-.13-.74-.18l-.55-.08L53,20.13c-.24,0-.47-.08-.72-.1a5.88,5.88,0,0,0-.6,0l-.57,0a5.55,5.55,0,0,0-.74,0c-.63,0-1.26,0-1.87.1A17.76,17.76,0,0,0,32.34,38c0,.62,0,1.24.1,1.85C32.45,40,32.47,40.07,32.49,40.18Z"/><path class="cls-1" d="M91.84,25.69c-.41-.68-.84-1.34-1.28-2A49,49,0,0,0,77.33,10.47c-.65-.44-1.31-.86-2-1.27A49.1,49.1,0,0,0,66.8,5.08,48.61,48.61,0,0,0,52.5,2.17a46.89,46.89,0,0,0-5,0,48.89,48.89,0,0,0-22.85,7c-.67.41-1.33.83-2,1.27a49.9,49.9,0,0,0-7.24,6c-.56.56-1.1,1.13-1.62,1.7a49.86,49.86,0,0,0-5.64,7.54A48.91,48.91,0,0,0,3.05,64.93c.12.41.25.83.38,1.24a49.27,49.27,0,0,0,4.7,10.24,49.4,49.4,0,0,0,14.5,15.22c.66.44,1.32.86,2,1.27a48.9,48.9,0,0,0,22.85,7c.83,0,1.67.06,2.51.06s1.69,0,2.52-.06c1.64-.09,3.3-.26,4.93-.5A48.9,48.9,0,0,0,75.35,92.9c.67-.41,1.33-.83,2-1.27A49.18,49.18,0,0,0,90.56,78.4c.44-.65.87-1.31,1.28-2a49.27,49.27,0,0,0,4.7-10.24c.13-.41.25-.83.38-1.24a48.91,48.91,0,0,0-5.08-39.24Zm3,25.36A44.84,44.84,0,0,1,13.16,76.62c-.61-.87-1.1-1.61-1.53-2.33s-.74-1.24-1.08-1.87a44.75,44.75,0,0,1,0-42.73c.34-.64.7-1.27,1.08-1.88.75-1.23,1.56-2.44,2.42-3.58h0c.43-.58.87-1.14,1.33-1.7A44.75,44.75,0,0,1,29.9,11c.42-.22.84-.42,1.27-.62A44.84,44.84,0,0,1,94.85,51.05Z"/></svg>